M48
;Layer_Color=9474304
;FILE_FORMAT=2:5
INCH,LZ
;TYPE=PLATED
T9F00S00C0.04724
%
G90
G05
T09
G00X0265315Y0036004
M15
G01Y0038366
M16
G00X0275157Y0036004
M15
G01Y0038366
M16
G00X0294843Y0036004
M15
G01Y0038366
M16
G00X0304685Y0036004
M15
G01Y0038366
M16
G00X0286181Y00175
M15
G01X0283819
M16
G00X0116685Y0035504
M15
G01Y0037866
M16
G00X0106843Y0035504
M15
G01Y0037866
M16
G00X0087157Y0035504
M15
G01Y0037866
M16
G00X0077315Y0035504
M15
G01Y0037866
M16
G00X0098181Y0017
M15
G01X0095819
M16
M17
M30
