M48
;Layer_Color=9474304
;FILE_FORMAT=2:5
INCH,LZ
;TYPE=PLATED
T1F00S00C0.01181
T2F00S00C0.01378
T3F00S00C0.01500
T4F00S00C0.02400
T5F00S00C0.02800
T6F00S00C0.03200
T7F00S00C0.04094
T8F00S00C0.04331
T10F00S00C0.05512
T11F00S00C0.11811
%
T01
X00445Y01925
X0304Y02265
X00735Y0247
T02
X03525Y00075
X03645
X03585Y00195
X03465
X03525Y00315
X03645
X03705Y00435
X03825
X03465
X03405Y00315
X03285
X03345Y00195
X03225
X03105
X02985
X02925Y00075
X02805
X02745Y00195
X02505
X02385
X02265
X02145
X02025
X01905
X01965Y00075
X02085
X02205
X02325
X02445
X02565
X02595Y00435
X02715
X02835
X02895
X02445Y00375
X02325
X02265
X02295Y00435
X02115
X02085Y00375
X03165Y00075
X03285
X03405
X01845
X01725
X01605
X01485
X01365
X01245
X01305Y00195
X01425
X01545
X01665
X01785
X01725Y00375
X01755Y00435
X01695
X01545Y00375
X01215Y00435
X01035
X00975
X00915
X01005Y00315
Y00075
X00885
X00645
X00525
X00405
X00465Y00195
X00585
X00705
X00525Y00315
X00405
X00345Y00195
X00285Y00315
Y00075
X00045
Y00315
X00105Y00435
X00165Y00555
X00045
X00105Y00675
X00225
X00165Y00795
X00045
X00105Y00915
X00225
X00285Y01035
X00165
X00045
X00105Y01155
X00225
X00285Y01275
X00225Y01395
X00105
X00165Y01515
X00285
X00225Y01635
X00105
X00165Y01755
X00285
X00225Y01875
X00105
X00165Y01995
X00285
X00045
Y01755
Y01515
Y01275
X00405
X00345Y01395
X00405Y01515
X00345Y01635
X00675
X00735
Y01515
X00675
X00705Y01455
X00645
Y01215
X00735Y01275
X00975
X01005Y01215
X00945
X01125
X01185
X01245
X01275Y01275
X01335
X01215
X01245Y01455
X01185
X01125
X01155Y01515
X01215
X01275
X01095
X00975
X00945Y01455
X00825Y01695
Y01935
X00765
X00795Y01995
X00855
X00735
X00645Y01935
X01125Y01815
X01185
Y01695
X01125
X01155Y01635
X01275Y01755
X01395
X01425Y01815
X01545
X01575Y01875
X01605Y01935
X01665
X01635Y01995
X01575
X01545Y01935
X01425
X01395Y01995
X01335
X01725Y01815
X01785
X01845
X01815Y01875
Y01755
X01755
X01695
X01725Y01695
X01785
X01845
X01815Y01635
X01755
X01695
X01635
X01665Y01695
X01605
Y01575
X01665
X01725
X01785
X01845
X01815Y01515
X01755
X01695
X01635
X01665Y01455
X01725
X01785
X01845
X01815Y01395
X01755
X01695
X01635
X01605Y01455
X01545Y01335
X01575Y01275
X01515
X01545Y01215
X01485
X01425
X01455Y01155
X01395
X01425Y01095
X01365
X01305
X01335Y01035
X01275
X01515
X01545Y00975
X01485
X01515Y00915
X01455
X01425Y00735
X01365
X01305
X01245
X01185
X01215Y00675
X01275
X01335
Y00555
X01275
X01245Y00495
X01185
X01155Y00675
X01095
Y00795
X01155
X01065Y00975
X00825Y00855
X00765
X00795Y00795
X00735
X00675
X00705Y00735
X00765
X00825
X00795Y00675
X00735
X00675
X00645Y00735
X00525Y00795
X00405
X00345Y00915
X00405Y01035
X00675
X00705Y00975
X00645
X00675Y00915
X00765Y00495
X00405Y00555
X01545Y00495
X01725
X01785
X01755Y00555
X01695
X01725Y00615
X01785
X01755Y00675
X01785Y00735
X01605
X01545
X01725Y01095
X01785
X01845
X01755Y01155
X01695
X01725Y01335
X01785
X01845
X01905
X01965
X02025
X02085
X02115Y01275
X02055
Y01155
X02085Y01095
X02265
X02295Y01155
X02355
X02325Y01215
X02265
X02295Y01275
X02235
Y01155
X02175Y01395
X02205Y01455
X02145
X02175Y01515
X02115
X02055
X02085Y01575
X02025
X01965
X01905
X01935Y01635
X01995
X02055
X02115
X02175
X02085Y01695
X02025
X02055Y01755
X01995
X01935
X01875
X01905Y01815
X01965
X01935Y01875
X01875
X01905Y01695
X01875Y01635
Y01515
X01935
X01905Y01455
X01935Y01395
X01995
X01875
X02415
X02475
X02535
X02595
X02655
X02625Y01455
X02565
X02505
X02445
X02385
X02475Y01515
X02535
X02595
X02655
Y01635
X02625Y01695
X02325
X02295Y01755
X02235
X02265Y01815
X02325
X02385
X02205
X02175Y01875
X02115
X02745Y01935
X02805
X02985
X03045
X03015Y01995
Y01875
X03045Y01695
Y01575
X03105
X03165
X03195Y01515
X03135
X03075
X03015
X02955
X02985Y01455
X03045
X03105
X03165
X03195Y01395
X03165Y01335
X03195Y01275
X03135
X03075
X03105Y01215
X03165
X03045
X02985
X02865
X02805
Y00975
X02865
X02925
X02985
X03165
X03195Y01035
X03135
X03285
X03405
X03345Y01155
X03405Y01275
X03285
X03345Y01395
X03405Y01515
X03285
X03345Y01635
X03405Y01755
X03285
X03345Y01875
X03405Y01995
X03195
X02865Y01455
X02625Y01335
X02565Y01215
X02685Y00975
X02745
X02715Y00795
X02745Y00735
X02565
X02505
X02445
X02385
X02325
X02265
X02295Y00795
X02355
X02415
X02475
X02535
X02625Y00855
X02445
X02385
X02325
X02265
X02235Y00795
X02115
X02085Y00855
X02115Y00915
X02085Y00735
X02115Y00675
X02085Y00615
X02115Y00555
X02175
X02235
X02295
X02265Y00615
X02295Y00675
X02265Y00495
X02085
X01905
Y00615
X01965
X02505
X02565
X02535Y00555
X02475
X02625Y00495
X02685
X02745
X02805
X02865
X02925
X02985
X03045
X03105
Y00735
X03165
X03195Y00795
X03135
X03075
X03015
X02955
X02985Y00735
X03045
X02955Y00675
X03285Y00795
X03405
X03345Y00915
X03465
X03585
X03705
X03825
X03765Y01035
X03645
X03525
X03585Y01155
X03705
X03825
X03765Y01275
X03645
X03525
X03585Y01395
X03705
X03825
X03765Y01515
X03645
X03525
X03585Y01635
X03705
X03825
X03765Y01755
X03645
X03525
X03585Y01875
X03705
X03825
X03765Y01995
X03645
X03525
X03465Y01875
Y01635
Y01395
Y01155
X03525Y00795
X03645
X03765
X03825Y00675
X03705
X03765Y00555
X03645
X03465Y00675
Y02115
X03585
X03705
X03825
X03765Y02235
X03645
X03525
X03585Y02355
X03705
X03825
X03765Y02475
X03645
X03525
X03585Y02595
X03705
X03825
X03765Y02715
X03645
X03525
X03585Y02835
X03705
X03825
X03765Y02955
X03645
X03525
X03585Y03075
X03705
X03825
X03765Y03195
X03645
X03525
X03585Y03315
X03705
X03825
X03765Y03435
X03645
X03525
X03585Y03555
X03705
X03825
X03465
Y03315
Y03075
Y02835
Y02595
Y02355
X03345
X03225
X03075
X03045Y02415
X02925
X02865
X02895Y02475
X02865Y02535
X02805
X02745
X02805Y02715
X02925
X03045
X03165
X03285
X03405
X03345Y02835
X03225
X03105
X02985
X02865
X02745
X02865Y03075
X02985
X03105
X03225
X03345
X03405Y03195
X03285
X03165
X03045
X02925
X02805
X02685
X02565
X02625Y03315
X02745
X02865
X02985
X03105
X03225
X03345
X03405Y03435
X03285
X03165
X03045
X02925
X02805
X02685
X02565
X02445
X02325
X02205
X02085
X02145Y03555
X02265
X02385
X02505
X02625
X02745
X02865
X02985
X03105
X03225
X03345
X03405Y02955
X03285
X03165
X03045
X03105Y02595
X03225
X03345
X03405Y02475
X03285
X03165
X03405Y02235
X03345Y02115
X03015
X02955
X02895
X02835
X02775
X02715
X02745Y02055
X02805
X02925Y02175
X02625
X02475Y02115
X02415
X02295
X02235
X02175
X01965Y02175
X01935Y02355
X01875
X01905Y02415
X02115Y02475
X02175
X02205Y02535
X02265
X02325
X02265Y02835
X02205Y02955
X02265Y03075
X02385
X02505
Y03315
X02385
X02265
X02145
X02025
X02085Y03195
X02205
X02145Y03075
X01905Y02835
X02025Y03555
X01785
X01665
X01545
X01425
X01305
X01185
X01065
X00945
X00825
X00705
X00585
X00465
X00525Y03435
X00645
X00765
X00885
X01005
X01125
X01245
X01365
X01485
X01605
X01725
X01845
X01785Y03315
X01665
X01545
X01425
X01305
X01185
X01065
X00945
X00825
X00705
X00765Y03195
X00885
X01005
X01125
X01245
X01365
X01485
X01605
X01725
X01845
X01785Y03075
X01665
X01545
X01425
X01305
X01185
X01065
X00945
X00825
X00705
X00585
X00645Y02955
X00765
X00885
X01005
X01125
X01245
X01365
X01485
X01605
X01665Y02535
X01725
X01785
X01815Y02475
X01755
X01695
X01635
X01665Y02415
X01725
X01785
X01845
X01815Y02355
X01755
X01695
X01785Y02295
X01725Y02175
X01665
X01695Y02115
X01755
X01635Y02235
X01395
X01335
X01275
X01215
X01245Y02295
X01305
X01365
X01425
X01395Y02355
X01335
X01275
X01215
X01185Y02295
X01245Y02175
X01305
X01365
X01425
X01395Y02115
X01335
X01275
X01215
X01305Y02055
X01365
X01425
X01545
X01395Y02475
X01335
X01275
X01215
X01245Y02535
X01305
X01365
X01425
X00945
X00885
X00825
X00915Y02475
X00975
Y02235
X01035
X00915
X00885Y02715
X01005
X01125
X00765
X00645
X00525
X00405
X00465Y02595
X00585
X00345
X00405Y02955
X00525
Y03195
X00405
X00355Y0313
X00345Y03315
X00465
X00285Y03195
X00165
X00045
Y03435
X00105Y03555
X00225Y03535
X00285Y02955
Y02715
X00165
X00045
X00105Y02595
X00225
X00285Y02475
X00165
X00045
X00105Y02355
X00225
X00285Y02235
X00165
X00045
X00105Y02115
X00225
X00285Y03675
X00045
X00405
X00525
X00645
X00765
X00885
X01005
X01125
X01245
X01365
X01485
X01605
X01725
X01845
X01785Y03795
X01665
X01545
X01425
X01305
X01185
X01065
X00945
X00825
X00705
X00585
X00465
X01905
X02025
X02145
X02265
X02385
X02505
X02625
X02745
X02865
X02985
X03105
X03225
X03345
X03405Y03675
X03285
X03165
X03045
X02925
X02805
X02685
X02565
X02445
X02325
X02205
X02085
X03525
X03585Y03795
X03465
T03
X03635Y0045
X02185Y00355
X01615Y00325
X00225Y00425
X00305Y0072
X0077Y0095
Y0113
X0064Y0151
X0072Y0172
X00785Y0189
X00925Y01955
X01105Y0157
X0124
X0134Y0174963
Y01355
X01535Y0141
X01485Y0082
X0172375Y0082875
X01215Y01035
X0108Y00735
X0193887Y0058304
X0197824Y005043
X02185Y00745
X0197Y01105
X02505Y0115
X026379Y01205
X02975Y01075
X02985Y00875
X03075Y0164
X02865Y0198
X02725Y0187
X02565Y019
X02335
X0235Y01655
X0221446Y0160666
X0228Y0217
X02285Y02275
X0237Y0248
X0199Y0242
X01975Y02105
X02635Y02275
X0298Y024347
X0305Y0216
X02635Y0303
X01845Y02145
X01005Y0252
X00765Y02295
X0059Y02355
X0055Y0247
X0047Y022
X00405Y02255
T04
X00185Y0126
X00385Y0136
Y0116
X01975Y01475
Y01675
X02175Y01575
T05
X0264Y0275
X0271
X02465Y03135
Y03205
T06
X0283Y02945
X0293
X0288Y0302
T07
X00355Y0287
X00455
X00555
X00655
X00755
X00855
X00955
X01055
X01155
X01255
X01355
X01455
X01555
X01655
X01755
X00255
X00155
X00055
Y0387
X00155
X00255
X00355
X00455
X00555
X00655
X00755
X00855
X00955
X01055
X01155
X01255
X01355
X01455
X01555
X01655
X01755
T08
X01875Y0269
X01975
X02075
X02175
X01775
X01675
X01575
X01475
X01375
X01275
T10
X0265315Y0007658
Y00175
X0285Y0037185
X0304685Y00175
Y0007658
X0116685Y0007158
Y0017
X0077315
Y0007158
X0097Y0036685
T11
X0374016Y0019685
X0019685
Y0337
X0374016Y0374016
M30
