G04*
G04 #@! TF.GenerationSoftware,Altium Limited,Altium Designer,19.1.8 (144)*
G04*
G04 Layer_Color=32896*
%FSLAX25Y25*%
%MOIN*%
G70*
G01*
G75*
%ADD10C,0.00600*%
%ADD11C,0.01000*%
%ADD12C,0.00500*%
%ADD66C,0.01102*%
%ADD67C,0.00400*%
%ADD68C,0.00200*%
%ADD69R,0.02000X0.08000*%
%ADD70R,0.05750X0.02953*%
%ADD71R,0.05750X0.03000*%
%ADD72R,0.02953X0.05750*%
%ADD73R,0.03000X0.05750*%
%ADD74R,0.00984X0.05315*%
%ADD75R,0.08000X0.02000*%
D10*
X261500Y275000D02*
X264500D01*
Y271000D02*
Y275000D01*
Y271000D02*
X266500D01*
Y279000D01*
X264500D02*
X266500D01*
X264500Y275000D02*
Y279000D01*
X270000Y275000D02*
X273500D01*
X246500Y319500D02*
Y323000D01*
X242500Y314000D02*
X246500D01*
X242500D02*
Y316000D01*
X250500D01*
Y314000D02*
Y316000D01*
X246500Y314000D02*
X250500D01*
X246500Y311000D02*
Y314000D01*
D11*
X142051Y46331D02*
X160949D01*
Y37669D02*
Y46331D01*
X142051Y37669D02*
X160949D01*
X142051D02*
Y46331D01*
X31551Y66831D02*
X50449D01*
Y58169D02*
Y66831D01*
X31551Y58169D02*
X50449D01*
X31551D02*
Y66831D01*
Y38169D02*
X50449D01*
X31551D02*
Y46831D01*
X50449D01*
Y38169D02*
Y46831D01*
X141551Y58669D02*
X160449D01*
X141551D02*
Y67331D01*
X160449D01*
Y58669D02*
Y67331D01*
X219051Y40669D02*
X237949D01*
X219051D02*
Y49331D01*
X237949D01*
Y40669D02*
Y49331D01*
X219090Y69331D02*
X237988D01*
Y60669D02*
Y69331D01*
X219090Y60669D02*
X237988D01*
X219090D02*
Y69331D01*
X335051Y59169D02*
Y67831D01*
Y59169D02*
X353949D01*
Y67831D01*
X335051D02*
X353949D01*
Y40669D02*
Y49331D01*
X335051D02*
X353949D01*
X335051Y40669D02*
Y49331D01*
Y40669D02*
X353949D01*
D12*
X291096Y304533D02*
G03*
X284904Y304533I-3096J-10035D01*
G01*
X421Y391921D02*
X214595D01*
X421Y282079D02*
Y391921D01*
Y282079D02*
X214595D01*
Y391921D01*
X421D02*
X214595D01*
X421Y282079D02*
Y391921D01*
Y282079D02*
X214595D01*
Y391921D01*
X289127Y293500D02*
X296873D01*
X279127D02*
X286873D01*
D66*
X186602Y394480D02*
G03*
X186602Y394480I-551J0D01*
G01*
D02*
G03*
X186602Y394480I-551J0D01*
G01*
D02*
G03*
X186602Y394480I-551J0D01*
G01*
D02*
G03*
X186602Y394480I-551J0D01*
G01*
D67*
X269900Y176500D02*
Y179500D01*
X275098Y176598D02*
Y179500D01*
X212100Y200000D02*
Y203000D01*
X206902Y200000D02*
Y202902D01*
X199932Y200098D02*
Y203000D01*
X194733Y200000D02*
Y203000D01*
X175598Y200098D02*
Y203000D01*
X170400Y200000D02*
Y203000D01*
X182568Y200000D02*
Y202902D01*
X187767Y200000D02*
Y203000D01*
X182402Y222000D02*
Y224902D01*
X187600Y222000D02*
Y225000D01*
X38100Y302500D02*
Y305500D01*
X32902Y302500D02*
Y305402D01*
X19000Y358900D02*
X22000D01*
X19000Y364098D02*
X21902D01*
X235598Y91402D02*
X238500D01*
X235500Y96600D02*
X238500D01*
X131098Y39098D02*
Y42000D01*
X125900Y39000D02*
Y42000D01*
X111500Y57600D02*
X114500D01*
X111598Y52402D02*
X114500D01*
X94030Y52400D02*
X97030D01*
X94030Y57598D02*
X96931D01*
X75900Y179000D02*
Y182000D01*
X81098Y179098D02*
Y182000D01*
X253900Y200000D02*
Y203000D01*
X259098Y200098D02*
Y203000D01*
X242402Y179500D02*
Y182402D01*
X247600Y179500D02*
Y182500D01*
X242402Y200000D02*
Y202902D01*
X247600Y200000D02*
Y203000D01*
X236100Y200000D02*
Y203000D01*
X230902Y200000D02*
Y202902D01*
X218902Y200000D02*
Y202902D01*
X224100Y200000D02*
Y203000D01*
X253900Y179500D02*
Y182500D01*
X259098Y179598D02*
Y182500D01*
X312713Y229598D02*
X315614D01*
X312713Y224400D02*
X315713D01*
X312653Y174600D02*
X315653D01*
X312751Y169402D02*
X315653D01*
X312751Y180402D02*
X315653D01*
X312653Y185600D02*
X315653D01*
X312713Y191400D02*
X315713D01*
X312713Y196598D02*
X315614D01*
X312751Y202402D02*
X315653D01*
X312653Y207600D02*
X315653D01*
X312653Y218600D02*
X315653D01*
X312751Y213402D02*
X315653D01*
X289098Y202402D02*
X292000D01*
X289000Y207600D02*
X292000D01*
X280000Y222098D02*
X282902D01*
X280000Y216900D02*
X283000D01*
X280000Y233600D02*
X283000D01*
X280098Y228402D02*
X283000D01*
X271598Y250098D02*
Y253000D01*
X266400Y250000D02*
Y253000D01*
X275402Y242500D02*
Y245402D01*
X280600Y242500D02*
Y245500D01*
X19000Y377598D02*
X21902D01*
X19000Y372400D02*
X22000D01*
X67098Y39598D02*
Y42500D01*
X61900Y39500D02*
Y42500D01*
X76500Y52400D02*
X79500D01*
X76500Y57598D02*
X79402D01*
X156500Y85100D02*
X159500D01*
X156598Y79902D02*
X159500D01*
X134500Y86386D02*
X137402D01*
X134500Y81187D02*
X137500D01*
X134500Y96386D02*
X137402D01*
X134500Y91187D02*
X137500D01*
X117402Y87500D02*
Y90402D01*
X122600Y87500D02*
Y90500D01*
X112900Y106000D02*
Y109000D01*
X118098Y106098D02*
Y109000D01*
X74400Y101500D02*
Y104500D01*
X79598Y101598D02*
Y104500D01*
X36098Y234598D02*
Y237500D01*
X30900Y234500D02*
Y237500D01*
X109000Y249400D02*
X112000D01*
X109000Y254598D02*
X111902D01*
X85098Y235598D02*
Y238500D01*
X79900Y235500D02*
Y238500D01*
X96600Y235500D02*
Y238500D01*
X91402Y235500D02*
Y238402D01*
X101902Y235500D02*
Y238402D01*
X107100Y235500D02*
Y238500D01*
X115098Y218598D02*
Y221500D01*
X109900Y218500D02*
Y221500D01*
X115098Y201598D02*
Y204500D01*
X109900Y201500D02*
Y204500D01*
X95098Y201114D02*
X98000D01*
X95000Y206313D02*
X98000D01*
X95000Y217311D02*
X97902D01*
X95000Y212113D02*
X98000D01*
X76902Y208000D02*
Y210902D01*
X82100Y208000D02*
Y211000D01*
X66402Y208000D02*
Y210902D01*
X71600Y208000D02*
Y211000D01*
X46500Y206900D02*
X49500D01*
X46500Y212098D02*
X49402D01*
X46598Y195902D02*
X49500D01*
X46500Y201100D02*
X49500D01*
X36598Y179598D02*
Y182500D01*
X31400Y179500D02*
Y182500D01*
X43402Y179560D02*
Y182461D01*
X48600Y179560D02*
Y182560D01*
X48598Y160311D02*
Y163213D01*
X43400Y160213D02*
Y163213D01*
X55400Y160213D02*
Y163213D01*
X60598Y160311D02*
Y163213D01*
X55402Y131000D02*
Y133902D01*
X60600Y131000D02*
Y134000D01*
X83811Y138902D02*
X86713D01*
X83713Y144100D02*
X86713D01*
X83472Y126400D02*
X86472D01*
X83472Y131598D02*
X86374D01*
X101900Y132000D02*
Y135000D01*
X107098Y132098D02*
Y135000D01*
X118098Y132098D02*
Y135000D01*
X112900Y132000D02*
Y135000D01*
X148098Y164311D02*
Y167213D01*
X142900Y164213D02*
Y167213D01*
X148098Y143311D02*
Y146213D01*
X142900Y143213D02*
Y146213D01*
X131402Y143000D02*
Y145902D01*
X136600Y143000D02*
Y146000D01*
Y164213D02*
Y167213D01*
X131402Y164213D02*
Y167114D01*
X121400Y164000D02*
Y167000D01*
X126598Y164098D02*
Y167000D01*
X253900Y161000D02*
Y164000D01*
X259098Y161098D02*
Y164000D01*
X247598Y161098D02*
Y164000D01*
X242400Y161000D02*
Y164000D01*
X274024Y140402D02*
X276925D01*
X273925Y145600D02*
X276925D01*
X274213Y130900D02*
X277213D01*
X274213Y136098D02*
X277114D01*
X258000Y117600D02*
X261000D01*
X258098Y112402D02*
X261000D01*
X252402Y98000D02*
Y100902D01*
X257600Y98000D02*
Y101000D01*
X190402Y37000D02*
Y39902D01*
X195600Y37000D02*
Y40000D01*
X180400Y37000D02*
Y40000D01*
X185598Y37098D02*
Y40000D01*
X226900Y242500D02*
Y245500D01*
X232098Y242598D02*
Y245500D01*
X212000Y279400D02*
X215000D01*
X212000Y284598D02*
X214902D01*
X236700Y294100D02*
X239700D01*
X236798Y288902D02*
X239700D01*
X269902Y297000D02*
Y299902D01*
X275100Y297000D02*
Y300000D01*
X232100Y316000D02*
Y319000D01*
X226902Y316000D02*
Y318902D01*
X55400Y179500D02*
Y182500D01*
X60598Y179598D02*
Y182500D01*
X307598Y96598D02*
Y99500D01*
X302400Y96500D02*
Y99500D01*
X295402Y250500D02*
Y253402D01*
X300600Y250500D02*
Y253500D01*
X62098Y244402D02*
X65000D01*
X62000Y249600D02*
X65000D01*
X195500Y73098D02*
X198402D01*
X195500Y67900D02*
X198500D01*
X193500Y260098D02*
X196402D01*
X193500Y254900D02*
X196500D01*
X193598Y245902D02*
X196500D01*
X193500Y251100D02*
X196500D01*
X158400Y96000D02*
Y99000D01*
X163598Y96098D02*
Y99000D01*
X295402Y233500D02*
Y236402D01*
X300600Y233500D02*
Y236500D01*
X187000Y118098D02*
X189902D01*
X187000Y112900D02*
X190000D01*
X126598Y182811D02*
Y185713D01*
X121400Y182713D02*
Y185713D01*
X136598Y182811D02*
Y185713D01*
X131400Y182713D02*
Y185713D01*
X250100Y128000D02*
Y131000D01*
X244902Y128000D02*
Y130902D01*
X265500Y61098D02*
X268402D01*
X265500Y55900D02*
X268500D01*
X250400Y39500D02*
Y42500D01*
X255598Y39598D02*
Y42500D01*
X283780Y61098D02*
X286682D01*
X283780Y55900D02*
X286780D01*
X293598Y131598D02*
Y134500D01*
X288400Y131500D02*
Y134500D01*
X235500Y108100D02*
X238500D01*
X235598Y102902D02*
X238500D01*
X299400Y131500D02*
Y134500D01*
X304598Y131598D02*
Y134500D01*
X315400Y39500D02*
Y42500D01*
X320598Y39598D02*
Y42500D01*
X302098Y55902D02*
X305000D01*
X302000Y61100D02*
X305000D01*
D68*
X268600Y170232D02*
Y185800D01*
X276370Y170232D02*
Y185800D01*
X268600Y170232D02*
X276370D01*
X268600Y185800D02*
X276370D01*
X213400Y193700D02*
Y209268D01*
X205630Y193700D02*
Y209268D01*
X213400D01*
X205630Y193700D02*
X213400D01*
X193433Y209300D02*
X201203D01*
X193433Y193732D02*
X201203D01*
Y209300D01*
X193433Y193732D02*
Y209300D01*
X169100D02*
X176870D01*
X169100Y193732D02*
X176870D01*
Y209300D01*
X169100Y193732D02*
Y209300D01*
X181297Y193700D02*
X189067D01*
X181297Y209268D02*
X189067D01*
X181297Y193700D02*
Y209268D01*
X189067Y193700D02*
Y209268D01*
X181130Y215700D02*
X188900D01*
X181130Y231268D02*
X188900D01*
X181130Y215700D02*
Y231268D01*
X188900Y215700D02*
Y231268D01*
X39400Y296200D02*
Y311768D01*
X31630Y296200D02*
Y311768D01*
X39400D01*
X31630Y296200D02*
X39400D01*
X12700Y357600D02*
X28268D01*
X12700Y365370D02*
X28268D01*
Y357600D02*
Y365370D01*
X12700Y357600D02*
Y365370D01*
X244800Y90130D02*
Y97900D01*
X229232Y90130D02*
Y97900D01*
Y90130D02*
X244800D01*
X229232Y97900D02*
X244800D01*
X124600Y48300D02*
X132370D01*
X124600Y32732D02*
X132370D01*
Y48300D01*
X124600Y32732D02*
Y48300D01*
X105232Y58900D02*
X120800D01*
X105232Y51130D02*
X120800D01*
X105232D02*
Y58900D01*
X120800Y51130D02*
Y58900D01*
X87730Y51100D02*
X103298D01*
X87730Y58870D02*
X103298D01*
Y51100D02*
Y58870D01*
X87730Y51100D02*
Y58870D01*
X74600Y172732D02*
Y188300D01*
X82370Y172732D02*
Y188300D01*
X74600Y172732D02*
X82370D01*
X74600Y188300D02*
X82370D01*
X252600Y193732D02*
Y209300D01*
X260370Y193732D02*
Y209300D01*
X252600Y193732D02*
X260370D01*
X252600Y209300D02*
X260370D01*
X241130Y173200D02*
X248900D01*
X241130Y188768D02*
X248900D01*
X241130Y173200D02*
Y188768D01*
X248900Y173200D02*
Y188768D01*
X241130Y193700D02*
X248900D01*
X241130Y209268D02*
X248900D01*
X241130Y193700D02*
Y209268D01*
X248900Y193700D02*
Y209268D01*
X237400Y193700D02*
Y209268D01*
X229630Y193700D02*
Y209268D01*
X237400D01*
X229630Y193700D02*
X237400D01*
X217630D02*
X225400D01*
X217630Y209268D02*
X225400D01*
X217630Y193700D02*
Y209268D01*
X225400Y193700D02*
Y209268D01*
X252600Y173232D02*
Y188800D01*
X260370Y173232D02*
Y188800D01*
X252600Y173232D02*
X260370D01*
X252600Y188800D02*
X260370D01*
X306413Y223100D02*
Y230870D01*
X321980Y223100D02*
Y230870D01*
X306413D02*
X321980D01*
X306413Y223100D02*
X321980D01*
X306385Y175900D02*
X321953D01*
X306385Y168130D02*
X321953D01*
X306385D02*
Y175900D01*
X321953Y168130D02*
Y175900D01*
Y179130D02*
Y186900D01*
X306385Y179130D02*
Y186900D01*
Y179130D02*
X321953D01*
X306385Y186900D02*
X321953D01*
X306413Y190100D02*
X321980D01*
X306413Y197870D02*
X321980D01*
Y190100D02*
Y197870D01*
X306413Y190100D02*
Y197870D01*
X321953Y201130D02*
Y208900D01*
X306385Y201130D02*
Y208900D01*
Y201130D02*
X321953D01*
X306385Y208900D02*
X321953D01*
X306385Y219900D02*
X321953D01*
X306385Y212130D02*
X321953D01*
X306385D02*
Y219900D01*
X321953Y212130D02*
Y219900D01*
X298300Y201130D02*
Y208900D01*
X282732Y201130D02*
Y208900D01*
Y201130D02*
X298300D01*
X282732Y208900D02*
X298300D01*
X273700Y215600D02*
Y223370D01*
X289268Y215600D02*
Y223370D01*
X273700D02*
X289268D01*
X273700Y215600D02*
X289268D01*
X273732Y234900D02*
X289300D01*
X273732Y227130D02*
X289300D01*
X273732D02*
Y234900D01*
X289300Y227130D02*
Y234900D01*
X265100Y259300D02*
X272870D01*
X265100Y243732D02*
X272870D01*
Y259300D01*
X265100Y243732D02*
Y259300D01*
X274130Y236200D02*
X281900D01*
X274130Y251768D02*
X281900D01*
X274130Y236200D02*
Y251768D01*
X281900Y236200D02*
Y251768D01*
X12700Y371100D02*
Y378870D01*
X28268Y371100D02*
Y378870D01*
X12700D02*
X28268D01*
X12700Y371100D02*
X28268D01*
X60600Y48800D02*
X68370D01*
X60600Y33232D02*
X68370D01*
Y48800D01*
X60600Y33232D02*
Y48800D01*
X70200Y51100D02*
X85768D01*
X70200Y58870D02*
X85768D01*
Y51100D02*
Y58870D01*
X70200Y51100D02*
Y58870D01*
X150232Y86400D02*
X165800D01*
X150232Y78630D02*
X165800D01*
X150232D02*
Y86400D01*
X165800Y78630D02*
Y86400D01*
X128200Y79887D02*
Y87657D01*
X143768Y79887D02*
Y87657D01*
X128200D02*
X143768D01*
X128200Y79887D02*
X143768D01*
X128200Y89887D02*
Y97658D01*
X143768Y89887D02*
Y97658D01*
X128200D02*
X143768D01*
X128200Y89887D02*
X143768D01*
X116130Y81200D02*
X123900D01*
X116130Y96768D02*
X123900D01*
X116130Y81200D02*
Y96768D01*
X123900Y81200D02*
Y96768D01*
X111600Y99732D02*
Y115300D01*
X119370Y99732D02*
Y115300D01*
X111600Y99732D02*
X119370D01*
X111600Y115300D02*
X119370D01*
X73100Y95232D02*
Y110800D01*
X80870Y95232D02*
Y110800D01*
X73100Y95232D02*
X80870D01*
X73100Y110800D02*
X80870D01*
X29600Y243800D02*
X37370D01*
X29600Y228232D02*
X37370D01*
Y243800D01*
X29600Y228232D02*
Y243800D01*
X102700Y248100D02*
X118268D01*
X102700Y255870D02*
X118268D01*
Y248100D02*
Y255870D01*
X102700Y248100D02*
Y255870D01*
X78600Y244800D02*
X86370D01*
X78600Y229232D02*
X86370D01*
Y244800D01*
X78600Y229232D02*
Y244800D01*
X97900Y229200D02*
Y244768D01*
X90130Y229200D02*
Y244768D01*
X97900D01*
X90130Y229200D02*
X97900D01*
X100630D02*
X108400D01*
X100630Y244768D02*
X108400D01*
X100630Y229200D02*
Y244768D01*
X108400Y229200D02*
Y244768D01*
X108600Y227800D02*
X116370D01*
X108600Y212232D02*
X116370D01*
Y227800D01*
X108600Y212232D02*
Y227800D01*
Y210800D02*
X116370D01*
X108600Y195232D02*
X116370D01*
Y210800D01*
X108600Y195232D02*
Y210800D01*
X104300Y199843D02*
Y207613D01*
X88732Y199843D02*
Y207613D01*
Y199843D02*
X104300D01*
X88732Y207613D02*
X104300D01*
X88700Y210813D02*
Y218583D01*
X104268Y210813D02*
Y218583D01*
X88700D02*
X104268D01*
X88700Y210813D02*
X104268D01*
X75630Y201700D02*
X83400D01*
X75630Y217268D02*
X83400D01*
X75630Y201700D02*
Y217268D01*
X83400Y201700D02*
Y217268D01*
X65130Y201700D02*
X72900D01*
X65130Y217268D02*
X72900D01*
X65130Y201700D02*
Y217268D01*
X72900Y201700D02*
Y217268D01*
X40200Y205600D02*
X55768D01*
X40200Y213370D02*
X55768D01*
Y205600D02*
Y213370D01*
X40200Y205600D02*
Y213370D01*
X55800Y194630D02*
Y202400D01*
X40232Y194630D02*
Y202400D01*
Y194630D02*
X55800D01*
X40232Y202400D02*
X55800D01*
X30100Y188800D02*
X37870D01*
X30100Y173232D02*
X37870D01*
Y188800D01*
X30100Y173232D02*
Y188800D01*
X42130Y173260D02*
X49900D01*
X42130Y188828D02*
X49900D01*
X42130Y173260D02*
Y188828D01*
X49900Y173260D02*
Y188828D01*
X42100Y169513D02*
X49870D01*
X42100Y153945D02*
X49870D01*
Y169513D01*
X42100Y153945D02*
Y169513D01*
X54100Y153945D02*
Y169513D01*
X61870Y153945D02*
Y169513D01*
X54100Y153945D02*
X61870D01*
X54100Y169513D02*
X61870D01*
X54130Y124700D02*
X61900D01*
X54130Y140268D02*
X61900D01*
X54130Y124700D02*
Y140268D01*
X61900Y124700D02*
Y140268D01*
X93013Y137630D02*
Y145400D01*
X77445Y137630D02*
Y145400D01*
Y137630D02*
X93013D01*
X77445Y145400D02*
X93013D01*
X77172Y125100D02*
X92740D01*
X77172Y132870D02*
X92740D01*
Y125100D02*
Y132870D01*
X77172Y125100D02*
Y132870D01*
X100600Y125732D02*
Y141300D01*
X108370Y125732D02*
Y141300D01*
X100600Y125732D02*
X108370D01*
X100600Y141300D02*
X108370D01*
X111600D02*
X119370D01*
X111600Y125732D02*
X119370D01*
Y141300D01*
X111600Y125732D02*
Y141300D01*
X141600Y173513D02*
X149370D01*
X141600Y157945D02*
X149370D01*
Y173513D01*
X141600Y157945D02*
Y173513D01*
Y152513D02*
X149370D01*
X141600Y136945D02*
X149370D01*
Y152513D01*
X141600Y136945D02*
Y152513D01*
X130130Y136700D02*
X137900D01*
X130130Y152268D02*
X137900D01*
X130130Y136700D02*
Y152268D01*
X137900Y136700D02*
Y152268D01*
Y157913D02*
Y173480D01*
X130130Y157913D02*
Y173480D01*
X137900D01*
X130130Y157913D02*
X137900D01*
X120100Y157732D02*
Y173300D01*
X127870Y157732D02*
Y173300D01*
X120100Y157732D02*
X127870D01*
X120100Y173300D02*
X127870D01*
X252600Y154732D02*
Y170300D01*
X260370Y154732D02*
Y170300D01*
X252600Y154732D02*
X260370D01*
X252600Y170300D02*
X260370D01*
X241100D02*
X248870D01*
X241100Y154732D02*
X248870D01*
Y170300D01*
X241100Y154732D02*
Y170300D01*
X283225Y139130D02*
Y146900D01*
X267657Y139130D02*
Y146900D01*
Y139130D02*
X283225D01*
X267657Y146900D02*
X283225D01*
X267913Y129600D02*
X283480D01*
X267913Y137370D02*
X283480D01*
Y129600D02*
Y137370D01*
X267913Y129600D02*
Y137370D01*
X251732Y118900D02*
X267300D01*
X251732Y111130D02*
X267300D01*
X251732D02*
Y118900D01*
X267300Y111130D02*
Y118900D01*
X251130Y91700D02*
X258900D01*
X251130Y107268D02*
X258900D01*
X251130Y91700D02*
Y107268D01*
X258900Y91700D02*
Y107268D01*
X189130Y30700D02*
X196900D01*
X189130Y46268D02*
X196900D01*
X189130Y30700D02*
Y46268D01*
X196900Y30700D02*
Y46268D01*
X179100Y30732D02*
Y46300D01*
X186870Y30732D02*
Y46300D01*
X179100Y30732D02*
X186870D01*
X179100Y46300D02*
X186870D01*
X225600Y236232D02*
Y251800D01*
X233370Y236232D02*
Y251800D01*
X225600Y236232D02*
X233370D01*
X225600Y251800D02*
X233370D01*
X205700Y278100D02*
X221268D01*
X205700Y285870D02*
X221268D01*
Y278100D02*
Y285870D01*
X205700Y278100D02*
Y285870D01*
X230432Y295400D02*
X246000D01*
X230432Y287630D02*
X246000D01*
X230432D02*
Y295400D01*
X246000Y287630D02*
Y295400D01*
X268630Y290700D02*
X276400D01*
X268630Y306268D02*
X276400D01*
X268630Y290700D02*
Y306268D01*
X276400Y290700D02*
Y306268D01*
X233400Y309700D02*
Y325268D01*
X225630Y309700D02*
Y325268D01*
X233400D01*
X225630Y309700D02*
X233400D01*
X54100Y173232D02*
Y188800D01*
X61870Y173232D02*
Y188800D01*
X54100Y173232D02*
X61870D01*
X54100Y188800D02*
X61870D01*
X301100Y105800D02*
X308870D01*
X301100Y90232D02*
X308870D01*
Y105800D01*
X301100Y90232D02*
Y105800D01*
X294130Y244200D02*
X301900D01*
X294130Y259768D02*
X301900D01*
X294130Y244200D02*
Y259768D01*
X301900Y244200D02*
Y259768D01*
X71300Y243130D02*
Y250900D01*
X55732Y243130D02*
Y250900D01*
Y243130D02*
X71300D01*
X55732Y250900D02*
X71300D01*
X189200Y66600D02*
Y74370D01*
X204768Y66600D02*
Y74370D01*
X189200D02*
X204768D01*
X189200Y66600D02*
X204768D01*
X187200Y253600D02*
Y261370D01*
X202768Y253600D02*
Y261370D01*
X187200D02*
X202768D01*
X187200Y253600D02*
X202768D01*
X202800Y244630D02*
Y252400D01*
X187232Y244630D02*
Y252400D01*
Y244630D02*
X202800D01*
X187232Y252400D02*
X202800D01*
X157100Y89732D02*
Y105300D01*
X164870Y89732D02*
Y105300D01*
X157100Y89732D02*
X164870D01*
X157100Y105300D02*
X164870D01*
X294130Y227200D02*
X301900D01*
X294130Y242768D02*
X301900D01*
X294130Y227200D02*
Y242768D01*
X301900Y227200D02*
Y242768D01*
X180700Y111600D02*
Y119370D01*
X196268Y111600D02*
Y119370D01*
X180700D02*
X196268D01*
X180700Y111600D02*
X196268D01*
X120100Y192013D02*
X127870D01*
X120100Y176445D02*
X127870D01*
Y192013D01*
X120100Y176445D02*
Y192013D01*
X130100D02*
X137870D01*
X130100Y176445D02*
X137870D01*
Y192013D01*
X130100Y176445D02*
Y192013D01*
X251400Y121700D02*
Y137268D01*
X243630Y121700D02*
Y137268D01*
X251400D01*
X243630Y121700D02*
X251400D01*
X259200Y54600D02*
Y62370D01*
X274768Y54600D02*
Y62370D01*
X259200D02*
X274768D01*
X259200Y54600D02*
X274768D01*
X249100Y33232D02*
Y48800D01*
X256870Y33232D02*
Y48800D01*
X249100Y33232D02*
X256870D01*
X249100Y48800D02*
X256870D01*
X277480Y54600D02*
Y62370D01*
X293048Y54600D02*
Y62370D01*
X277480D02*
X293048D01*
X277480Y54600D02*
X293048D01*
X287100Y140800D02*
X294870D01*
X287100Y125232D02*
X294870D01*
Y140800D01*
X287100Y125232D02*
Y140800D01*
X229232Y109400D02*
X244800D01*
X229232Y101630D02*
X244800D01*
X229232D02*
Y109400D01*
X244800Y101630D02*
Y109400D01*
X298100Y125232D02*
Y140800D01*
X305870Y125232D02*
Y140800D01*
X298100Y125232D02*
X305870D01*
X298100Y140800D02*
X305870D01*
X314100Y33232D02*
Y48800D01*
X321870Y33232D02*
Y48800D01*
X314100Y33232D02*
X321870D01*
X314100Y48800D02*
X321870D01*
X311300Y54630D02*
Y62400D01*
X295732Y54630D02*
Y62400D01*
Y54630D02*
X311300D01*
X295732Y62400D02*
X311300D01*
D69*
X269500Y275000D02*
D03*
D70*
X272475Y175177D02*
D03*
X209525Y204323D02*
D03*
X197308Y198677D02*
D03*
X172975D02*
D03*
X185192Y204323D02*
D03*
X185025Y226323D02*
D03*
X35525Y306823D02*
D03*
X128475Y37677D02*
D03*
X78475Y177677D02*
D03*
X256475Y198677D02*
D03*
X245025Y183823D02*
D03*
Y204323D02*
D03*
X233525D02*
D03*
X221525D02*
D03*
X256475Y178177D02*
D03*
X268975Y248677D02*
D03*
X278025Y246823D02*
D03*
X64475Y38177D02*
D03*
X120025Y91823D02*
D03*
X115475Y104677D02*
D03*
X76975Y100177D02*
D03*
X33475Y233177D02*
D03*
X82475Y234177D02*
D03*
X94025Y239823D02*
D03*
X104525D02*
D03*
X112475Y217177D02*
D03*
Y200177D02*
D03*
X79525Y212323D02*
D03*
X69025D02*
D03*
X33975Y178177D02*
D03*
X46025Y183883D02*
D03*
X45975Y158889D02*
D03*
X57975D02*
D03*
X58025Y135323D02*
D03*
X104475Y130677D02*
D03*
X115475D02*
D03*
X145475Y162889D02*
D03*
X145475Y141889D02*
D03*
X134025Y147323D02*
D03*
Y168536D02*
D03*
X123975Y162677D02*
D03*
X256475Y159677D02*
D03*
X244975D02*
D03*
X255025Y102323D02*
D03*
X193025Y41323D02*
D03*
X182975Y35677D02*
D03*
X229475Y241177D02*
D03*
X272525Y301323D02*
D03*
X229525Y320323D02*
D03*
X57975Y178177D02*
D03*
X304975Y95177D02*
D03*
X298025Y254823D02*
D03*
X160975Y94677D02*
D03*
X298025Y237823D02*
D03*
X123975Y181389D02*
D03*
X133975D02*
D03*
X247525Y132323D02*
D03*
X252975Y38177D02*
D03*
X290975Y130177D02*
D03*
X301975D02*
D03*
X317975Y38177D02*
D03*
D71*
X272475Y180900D02*
D03*
X209525Y198600D02*
D03*
X197308Y204400D02*
D03*
X172975D02*
D03*
X185192Y198600D02*
D03*
X185025Y220600D02*
D03*
X35525Y301100D02*
D03*
X128475Y43400D02*
D03*
X78475Y183400D02*
D03*
X256475Y204400D02*
D03*
X245025Y178100D02*
D03*
Y198600D02*
D03*
X233525D02*
D03*
X221525D02*
D03*
X256475Y183900D02*
D03*
X268975Y254400D02*
D03*
X278025Y241100D02*
D03*
X64475Y43900D02*
D03*
X120025Y86100D02*
D03*
X115475Y110400D02*
D03*
X76975Y105900D02*
D03*
X33475Y238900D02*
D03*
X82475Y239900D02*
D03*
X94025Y234100D02*
D03*
X104525D02*
D03*
X112475Y222900D02*
D03*
Y205900D02*
D03*
X79525Y206600D02*
D03*
X69025D02*
D03*
X33975Y183900D02*
D03*
X46025Y178160D02*
D03*
X45975Y164613D02*
D03*
X57975D02*
D03*
X58025Y129600D02*
D03*
X104475Y136400D02*
D03*
X115475D02*
D03*
X145475Y168613D02*
D03*
X145475Y147613D02*
D03*
X134025Y141600D02*
D03*
Y162813D02*
D03*
X123975Y168400D02*
D03*
X256475Y165400D02*
D03*
X244975D02*
D03*
X255025Y96600D02*
D03*
X193025Y35600D02*
D03*
X182975Y41400D02*
D03*
X229475Y246900D02*
D03*
X272525Y295600D02*
D03*
X229525Y314600D02*
D03*
X57975Y183900D02*
D03*
X304975Y100900D02*
D03*
X298025Y249100D02*
D03*
X160975Y100400D02*
D03*
X298025Y232100D02*
D03*
X123975Y187113D02*
D03*
X133975D02*
D03*
X247525Y126600D02*
D03*
X252975Y43900D02*
D03*
X290975Y135900D02*
D03*
X301975D02*
D03*
X317975Y43900D02*
D03*
D72*
X23323Y361475D02*
D03*
X234177Y94025D02*
D03*
X110177Y55025D02*
D03*
X98353Y54975D02*
D03*
X317036Y226975D02*
D03*
X311329Y172025D02*
D03*
Y183025D02*
D03*
X317036Y193975D02*
D03*
X311329Y205025D02*
D03*
Y216025D02*
D03*
X287677Y205025D02*
D03*
X284323Y219475D02*
D03*
X278677Y231025D02*
D03*
X23323Y374975D02*
D03*
X80823Y54975D02*
D03*
X155177Y82525D02*
D03*
X138823Y83762D02*
D03*
X138823Y93762D02*
D03*
X113323Y251975D02*
D03*
X93677Y203738D02*
D03*
X99323Y214688D02*
D03*
X50823Y209475D02*
D03*
X45177Y198525D02*
D03*
X82389Y141525D02*
D03*
X87796Y128975D02*
D03*
X272602Y143025D02*
D03*
X278536Y133475D02*
D03*
X256677Y115025D02*
D03*
X216323Y281975D02*
D03*
X235377Y291525D02*
D03*
X60677Y247025D02*
D03*
X199823Y70475D02*
D03*
X197823Y257475D02*
D03*
X192177Y248525D02*
D03*
X191323Y115475D02*
D03*
X269823Y58475D02*
D03*
X288103D02*
D03*
X234177Y105525D02*
D03*
X300677Y58525D02*
D03*
D73*
X17600Y361475D02*
D03*
X239900Y94025D02*
D03*
X115900Y55025D02*
D03*
X92630Y54975D02*
D03*
X311313Y226975D02*
D03*
X317053Y172025D02*
D03*
Y183025D02*
D03*
X311313Y193975D02*
D03*
X317053Y205025D02*
D03*
Y216025D02*
D03*
X293400Y205025D02*
D03*
X278600Y219475D02*
D03*
X284400Y231025D02*
D03*
X17600Y374975D02*
D03*
X75100Y54975D02*
D03*
X160900Y82525D02*
D03*
X133100Y83762D02*
D03*
Y93762D02*
D03*
X107600Y251975D02*
D03*
X99400Y203738D02*
D03*
X93600Y214688D02*
D03*
X45100Y209475D02*
D03*
X50900Y198525D02*
D03*
X88113Y141525D02*
D03*
X82072Y128975D02*
D03*
X278325Y143025D02*
D03*
X272813Y133475D02*
D03*
X262400Y115025D02*
D03*
X210600Y281975D02*
D03*
X241100Y291525D02*
D03*
X66400Y247025D02*
D03*
X194100Y70475D02*
D03*
X192100Y257475D02*
D03*
X197900Y248525D02*
D03*
X185600Y115475D02*
D03*
X264100Y58475D02*
D03*
X282380D02*
D03*
X239900Y105525D02*
D03*
X306400Y58525D02*
D03*
D74*
X141165Y41901D02*
D03*
X161835D02*
D03*
X30665Y62401D02*
D03*
X51335D02*
D03*
X51335Y42599D02*
D03*
X30665D02*
D03*
X161335Y63099D02*
D03*
X140665D02*
D03*
X238835Y45099D02*
D03*
X218165D02*
D03*
X218204Y64902D02*
D03*
X238874D02*
D03*
X354835Y63402D02*
D03*
X334165D02*
D03*
Y45099D02*
D03*
X354835D02*
D03*
D75*
X246500Y319000D02*
D03*
M02*
