G04*
G04 #@! TF.GenerationSoftware,Altium Limited,Altium Designer,19.1.8 (144)*
G04*
G04 Layer_Color=255*
%FSLAX25Y25*%
%MOIN*%
G70*
G01*
G75*
G04:AMPARAMS|DCode=18|XSize=52mil|YSize=60mil|CornerRadius=13mil|HoleSize=0mil|Usage=FLASHONLY|Rotation=0.000|XOffset=0mil|YOffset=0mil|HoleType=Round|Shape=RoundedRectangle|*
%AMROUNDEDRECTD18*
21,1,0.05200,0.03400,0,0,0.0*
21,1,0.02600,0.06000,0,0,0.0*
1,1,0.02600,0.01300,-0.01700*
1,1,0.02600,-0.01300,-0.01700*
1,1,0.02600,-0.01300,0.01700*
1,1,0.02600,0.01300,0.01700*
%
%ADD18ROUNDEDRECTD18*%
%ADD19R,0.07087X0.08661*%
G04:AMPARAMS|DCode=20|XSize=52mil|YSize=60mil|CornerRadius=13mil|HoleSize=0mil|Usage=FLASHONLY|Rotation=90.000|XOffset=0mil|YOffset=0mil|HoleType=Round|Shape=RoundedRectangle|*
%AMROUNDEDRECTD20*
21,1,0.05200,0.03400,0,0,90.0*
21,1,0.02600,0.06000,0,0,90.0*
1,1,0.02600,0.01700,0.01300*
1,1,0.02600,0.01700,-0.01300*
1,1,0.02600,-0.01700,-0.01300*
1,1,0.02600,-0.01700,0.01300*
%
%ADD20ROUNDEDRECTD20*%
%ADD21R,0.02100X0.07800*%
%ADD22R,0.07800X0.02100*%
G04:AMPARAMS|DCode=43|XSize=30mil|YSize=30mil|CornerRadius=15mil|HoleSize=0mil|Usage=FLASHONLY|Rotation=0.000|XOffset=0mil|YOffset=0mil|HoleType=Round|Shape=RoundedRectangle|*
%AMROUNDEDRECTD43*
21,1,0.03000,0.00000,0,0,0.0*
21,1,0.00000,0.03000,0,0,0.0*
1,1,0.03000,0.00000,0.00000*
1,1,0.03000,0.00000,0.00000*
1,1,0.03000,0.00000,0.00000*
1,1,0.03000,0.00000,0.00000*
%
%ADD43ROUNDEDRECTD43*%
G04:AMPARAMS|DCode=44|XSize=30mil|YSize=30mil|CornerRadius=15mil|HoleSize=0mil|Usage=FLASHONLY|Rotation=90.000|XOffset=0mil|YOffset=0mil|HoleType=Round|Shape=RoundedRectangle|*
%AMROUNDEDRECTD44*
21,1,0.03000,0.00000,0,0,90.0*
21,1,0.00000,0.03000,0,0,90.0*
1,1,0.03000,0.00000,0.00000*
1,1,0.03000,0.00000,0.00000*
1,1,0.03000,0.00000,0.00000*
1,1,0.03000,0.00000,0.00000*
%
%ADD44ROUNDEDRECTD44*%
%ADD48C,0.19685*%
%ADD49R,0.06142X0.06142*%
%ADD50C,0.06142*%
%ADD51C,0.03937*%
%ADD52R,0.06299X0.06299*%
%ADD53C,0.06299*%
%ADD54O,0.10630X0.07480*%
%ADD55O,0.07480X0.10630*%
%ADD56P,0.05031X8X22.5*%
%ADD57C,0.04600*%
%ADD58P,0.04979X8X112.5*%
D18*
X240800Y94000D02*
D03*
X233260D02*
D03*
X109260Y55000D02*
D03*
X116800D02*
D03*
X99270D02*
D03*
X91730D02*
D03*
X310413Y227000D02*
D03*
X317953D02*
D03*
X310413Y172000D02*
D03*
X317953D02*
D03*
Y183000D02*
D03*
X310413D02*
D03*
X317953Y194000D02*
D03*
X310413D02*
D03*
X317953Y205000D02*
D03*
X310413D02*
D03*
Y216000D02*
D03*
X317953D02*
D03*
X294300Y205000D02*
D03*
X286760D02*
D03*
X277700Y219500D02*
D03*
X285240D02*
D03*
X277760Y231000D02*
D03*
X285300D02*
D03*
X16700Y375000D02*
D03*
X24240D02*
D03*
X81740Y55000D02*
D03*
X74200D02*
D03*
X154260Y82500D02*
D03*
X161800D02*
D03*
X132200Y83787D02*
D03*
X139740D02*
D03*
X132200Y93787D02*
D03*
X139740D02*
D03*
X114240Y252000D02*
D03*
X106700D02*
D03*
X100300Y203713D02*
D03*
X92760D02*
D03*
X92700Y214713D02*
D03*
X100240D02*
D03*
X51740Y209500D02*
D03*
X44200D02*
D03*
X51800Y198500D02*
D03*
X44260D02*
D03*
X89013Y141500D02*
D03*
X81472D02*
D03*
X88713Y129000D02*
D03*
X81172D02*
D03*
X279225Y143000D02*
D03*
X271685D02*
D03*
X279453Y133500D02*
D03*
X271913D02*
D03*
X255760Y115000D02*
D03*
X263300D02*
D03*
X217240Y282000D02*
D03*
X209700D02*
D03*
X234460Y291500D02*
D03*
X242000D02*
D03*
X67300Y247000D02*
D03*
X59760D02*
D03*
X193200Y70500D02*
D03*
X200740D02*
D03*
X191200Y257500D02*
D03*
X198740D02*
D03*
X198800Y248500D02*
D03*
X191260D02*
D03*
X184700Y115500D02*
D03*
X192240D02*
D03*
X263200Y58500D02*
D03*
X270740D02*
D03*
X281480D02*
D03*
X289020D02*
D03*
X233260Y105500D02*
D03*
X240800D02*
D03*
X307300Y58500D02*
D03*
X299760D02*
D03*
D19*
X141461Y42000D02*
D03*
X161539D02*
D03*
X30961Y62500D02*
D03*
X51039D02*
D03*
Y42500D02*
D03*
X30961D02*
D03*
X161039Y63000D02*
D03*
X140961D02*
D03*
X238539Y45000D02*
D03*
X218461D02*
D03*
X218500Y65000D02*
D03*
X238578D02*
D03*
X354539Y63500D02*
D03*
X334461D02*
D03*
Y45000D02*
D03*
X354539D02*
D03*
D20*
X128500Y44300D02*
D03*
Y36760D02*
D03*
X78500Y176760D02*
D03*
Y184300D02*
D03*
X256500Y197760D02*
D03*
Y205300D02*
D03*
X245000Y177200D02*
D03*
Y184740D02*
D03*
Y197700D02*
D03*
Y205240D02*
D03*
X233500D02*
D03*
Y197700D02*
D03*
X221500D02*
D03*
Y205240D02*
D03*
X256500Y177260D02*
D03*
Y184800D02*
D03*
X269000Y255300D02*
D03*
Y247760D02*
D03*
X278000Y240200D02*
D03*
Y247740D02*
D03*
X64500Y44800D02*
D03*
Y37260D02*
D03*
X120000Y85200D02*
D03*
Y92740D02*
D03*
X115500Y103760D02*
D03*
Y111300D02*
D03*
X77000Y99260D02*
D03*
Y106800D02*
D03*
X33500Y239800D02*
D03*
Y232260D02*
D03*
X82500Y240800D02*
D03*
Y233260D02*
D03*
X94000Y240740D02*
D03*
Y233200D02*
D03*
X104500D02*
D03*
Y240740D02*
D03*
X112500Y223800D02*
D03*
Y216260D02*
D03*
Y206800D02*
D03*
Y199260D02*
D03*
X79500Y205700D02*
D03*
Y213240D02*
D03*
X69000Y205700D02*
D03*
Y213240D02*
D03*
X34000Y184800D02*
D03*
Y177260D02*
D03*
X46000D02*
D03*
Y184800D02*
D03*
Y165513D02*
D03*
Y157972D02*
D03*
X58000D02*
D03*
Y165513D02*
D03*
Y128700D02*
D03*
Y136240D02*
D03*
X104500Y129760D02*
D03*
Y137300D02*
D03*
X115500D02*
D03*
Y129760D02*
D03*
X145500Y169513D02*
D03*
Y161972D02*
D03*
Y148513D02*
D03*
Y140972D02*
D03*
X134000Y140700D02*
D03*
Y148240D02*
D03*
Y169453D02*
D03*
Y161913D02*
D03*
X124000Y161760D02*
D03*
Y169300D02*
D03*
X256500Y158760D02*
D03*
Y166300D02*
D03*
X245000D02*
D03*
Y158760D02*
D03*
X255000Y95700D02*
D03*
Y103240D02*
D03*
X193000Y34700D02*
D03*
Y42240D02*
D03*
X183000Y34760D02*
D03*
Y42300D02*
D03*
X229500Y240260D02*
D03*
Y247800D02*
D03*
X272500Y294700D02*
D03*
Y302240D02*
D03*
X229500Y321240D02*
D03*
Y313700D02*
D03*
X58000Y177260D02*
D03*
Y184800D02*
D03*
X305000Y101800D02*
D03*
Y94260D02*
D03*
X298000Y248200D02*
D03*
Y255740D02*
D03*
X272500Y181800D02*
D03*
Y174260D02*
D03*
X161000Y93760D02*
D03*
Y101300D02*
D03*
X298000Y231200D02*
D03*
Y238740D02*
D03*
X124000Y188013D02*
D03*
Y180472D02*
D03*
X134000Y188013D02*
D03*
Y180472D02*
D03*
X247500Y133240D02*
D03*
Y125700D02*
D03*
X185167Y205240D02*
D03*
Y197700D02*
D03*
X253000Y37260D02*
D03*
Y44800D02*
D03*
X173000Y197760D02*
D03*
Y205300D02*
D03*
X209500Y197700D02*
D03*
Y205240D02*
D03*
X291000Y136800D02*
D03*
Y129260D02*
D03*
X197333Y197760D02*
D03*
Y205300D02*
D03*
X302000Y129260D02*
D03*
Y136800D02*
D03*
X318000Y37260D02*
D03*
Y44800D02*
D03*
D21*
X88000Y99200D02*
D03*
X93000D02*
D03*
X98000D02*
D03*
X103000D02*
D03*
Y79800D02*
D03*
X98000D02*
D03*
X93000D02*
D03*
X88000D02*
D03*
X242500Y228300D02*
D03*
X247500D02*
D03*
X252500D02*
D03*
X257500D02*
D03*
Y247700D02*
D03*
X252500D02*
D03*
X247500D02*
D03*
X242500D02*
D03*
X281500Y183200D02*
D03*
X286500D02*
D03*
X291500D02*
D03*
X296500D02*
D03*
Y163800D02*
D03*
X291500D02*
D03*
X286500D02*
D03*
X281500D02*
D03*
X278500Y87800D02*
D03*
X283500D02*
D03*
X288500D02*
D03*
X293500D02*
D03*
Y107200D02*
D03*
X288500D02*
D03*
X283500D02*
D03*
X278500D02*
D03*
X89500Y182913D02*
D03*
X94500D02*
D03*
X99500D02*
D03*
X104500D02*
D03*
Y163513D02*
D03*
X99500D02*
D03*
X94500D02*
D03*
X89500D02*
D03*
D22*
X177800Y90500D02*
D03*
Y95500D02*
D03*
Y100500D02*
D03*
Y105500D02*
D03*
X197200D02*
D03*
Y100500D02*
D03*
Y95500D02*
D03*
Y90500D02*
D03*
X68700Y238000D02*
D03*
Y233000D02*
D03*
Y228000D02*
D03*
Y223000D02*
D03*
X49300D02*
D03*
Y228000D02*
D03*
Y233000D02*
D03*
Y238000D02*
D03*
D43*
X66500Y180500D02*
D03*
X291000Y226000D02*
D03*
X113000Y233000D02*
D03*
X102500Y147000D02*
D03*
X164500Y205500D02*
D03*
X238500Y172000D02*
D03*
X147500Y187500D02*
D03*
X312500Y136500D02*
D03*
X216000Y100500D02*
D03*
D44*
X229500Y25500D02*
D03*
D48*
X19685Y337000D02*
D03*
Y19685D02*
D03*
X374016D02*
D03*
Y374016D02*
D03*
D49*
X185500Y387000D02*
D03*
D50*
X175500D02*
D03*
X165500D02*
D03*
X155500D02*
D03*
X145500D02*
D03*
X135500D02*
D03*
X125500D02*
D03*
X115500D02*
D03*
X105500D02*
D03*
X95500D02*
D03*
X85500D02*
D03*
X75500D02*
D03*
X65500D02*
D03*
X55500D02*
D03*
X45500D02*
D03*
X185500Y287000D02*
D03*
X175500D02*
D03*
X165500D02*
D03*
X155500D02*
D03*
X145500D02*
D03*
X135500D02*
D03*
X125500D02*
D03*
X115500D02*
D03*
X105500D02*
D03*
X95500D02*
D03*
X85500D02*
D03*
X75500D02*
D03*
X65500D02*
D03*
X55500D02*
D03*
X45500D02*
D03*
X5500Y387000D02*
D03*
Y287000D02*
D03*
X35500Y387000D02*
D03*
X25500D02*
D03*
X15500D02*
D03*
X35500Y287000D02*
D03*
X25500D02*
D03*
X15500D02*
D03*
D51*
X38500Y136000D02*
D03*
X18500Y126000D02*
D03*
X38500Y116000D02*
D03*
X197500Y167500D02*
D03*
X217500Y157500D02*
D03*
X197500Y147500D02*
D03*
D52*
X217500Y269000D02*
D03*
D53*
X197500D02*
D03*
X177500D02*
D03*
X157500D02*
D03*
X127500D02*
D03*
X137500D02*
D03*
X147500D02*
D03*
X167500D02*
D03*
X187500D02*
D03*
X207500D02*
D03*
D54*
X97000Y17000D02*
D03*
X285000Y17500D02*
D03*
D55*
X87157Y36685D02*
D03*
X106843D02*
D03*
X116685D02*
D03*
X77315D02*
D03*
X265315Y37185D02*
D03*
X304685D02*
D03*
X294843D02*
D03*
X275157D02*
D03*
D56*
X283000Y294500D02*
D03*
X288000Y302000D02*
D03*
X293000Y294500D02*
D03*
D57*
X246500Y313500D02*
D03*
D58*
Y320500D02*
D03*
M02*
