G04*
G04 #@! TF.GenerationSoftware,Altium Limited,Altium Designer,19.1.8 (144)*
G04*
G04 Layer_Physical_Order=2*
G04 Layer_Color=16711680*
%FSLAX25Y25*%
%MOIN*%
G70*
G01*
G75*
%ADD14C,0.01500*%
%ADD49C,0.02000*%
%ADD50C,0.03000*%
%ADD51C,0.04000*%
%ADD52P,0.04979X8X22.5*%
%ADD53C,0.04600*%
%ADD54C,0.06142*%
%ADD55C,0.06299*%
%ADD56R,0.06299X0.06299*%
%ADD57C,0.19685*%
%ADD58C,0.03937*%
%ADD59O,0.10630X0.07480*%
%ADD60O,0.07480X0.10630*%
%ADD61P,0.05031X8X22.5*%
%ADD62P,0.04979X8X112.5*%
%ADD63C,0.02362*%
%ADD64C,0.03000*%
%ADD65C,0.01968*%
G36*
X393500Y255500D02*
Y500D01*
X393538Y462D01*
X393347Y0D01*
X0D01*
Y255500D01*
Y286217D01*
X500Y286250D01*
X575Y285680D01*
X1084Y284451D01*
X1895Y283395D01*
X2951Y282584D01*
X4180Y282075D01*
X5500Y281901D01*
X6820Y282075D01*
X8049Y282584D01*
X9105Y283395D01*
X9916Y284451D01*
X10229Y285208D01*
X10771D01*
X11084Y284451D01*
X11895Y283395D01*
X12951Y282584D01*
X14180Y282075D01*
X15500Y281901D01*
X16820Y282075D01*
X18049Y282584D01*
X19105Y283395D01*
X19916Y284451D01*
X20229Y285208D01*
X20771D01*
X21084Y284451D01*
X21895Y283395D01*
X22951Y282584D01*
X24180Y282075D01*
X25500Y281901D01*
X26820Y282075D01*
X28049Y282584D01*
X29105Y283395D01*
X29916Y284451D01*
X30229Y285208D01*
X30771D01*
X31084Y284451D01*
X31895Y283395D01*
X32951Y282584D01*
X34180Y282075D01*
X35500Y281901D01*
X36820Y282075D01*
X38049Y282584D01*
X39105Y283395D01*
X39916Y284451D01*
X40425Y285680D01*
X40599Y287000D01*
X40425Y288320D01*
X39916Y289549D01*
X39105Y290605D01*
X38049Y291416D01*
X36820Y291925D01*
X35500Y292099D01*
X34180Y291925D01*
X32951Y291416D01*
X31895Y290605D01*
X31084Y289549D01*
X30771Y288792D01*
X30229D01*
X29916Y289549D01*
X29105Y290605D01*
X28049Y291416D01*
X26820Y291925D01*
X25500Y292099D01*
X24180Y291925D01*
X22951Y291416D01*
X21895Y290605D01*
X21084Y289549D01*
X20771Y288792D01*
X20229D01*
X19916Y289549D01*
X19105Y290605D01*
X18049Y291416D01*
X16820Y291925D01*
X15500Y292099D01*
X14180Y291925D01*
X12951Y291416D01*
X11895Y290605D01*
X11084Y289549D01*
X10771Y288792D01*
X10229D01*
X9916Y289549D01*
X9105Y290605D01*
X8986Y290697D01*
X8953Y291196D01*
X27747Y309990D01*
X33699D01*
X33743Y309957D01*
X34590Y309605D01*
X35500Y309486D01*
X36410Y309605D01*
X37257Y309957D01*
X37301Y309990D01*
X179753D01*
X214490Y275253D01*
Y274134D01*
X212366D01*
Y263866D01*
X214490D01*
Y261747D01*
X211624Y258881D01*
X211020Y258931D01*
X210364Y259369D01*
X209590Y259523D01*
X69500D01*
X68726Y259369D01*
X68069Y258931D01*
X64639Y255500D01*
D01*
X60069Y250931D01*
X59631Y250274D01*
X59477Y249500D01*
Y239331D01*
X59101Y239001D01*
X59000Y239014D01*
X58090Y238895D01*
X57243Y238544D01*
X56515Y237985D01*
X55957Y237257D01*
X55605Y236410D01*
X55486Y235500D01*
X55605Y234590D01*
X55957Y233743D01*
X56515Y233015D01*
X57243Y232456D01*
X58090Y232105D01*
X59000Y231986D01*
X59101Y231999D01*
X59477Y231669D01*
Y175010D01*
X59631Y174236D01*
X60069Y173579D01*
X60726Y173141D01*
X61500Y172987D01*
X70199D01*
X70459Y173038D01*
X70723Y173056D01*
X70842Y173115D01*
X70973Y173141D01*
X71034Y173181D01*
X71619Y173424D01*
X72000Y173474D01*
X72381Y173424D01*
X72737Y173276D01*
X73042Y173042D01*
X73276Y172737D01*
X73423Y172381D01*
X73474Y172000D01*
X73423Y171619D01*
X73276Y171263D01*
X73042Y170958D01*
X72737Y170724D01*
X72381Y170577D01*
X72000Y170526D01*
X71619Y170577D01*
X71034Y170819D01*
X70973Y170859D01*
X70842Y170885D01*
X70723Y170944D01*
X70459Y170961D01*
X70199Y171013D01*
X61500D01*
X60726Y170859D01*
X60069Y170421D01*
X59631Y169764D01*
X59477Y168990D01*
Y160010D01*
X59631Y159236D01*
X60069Y158579D01*
X60726Y158141D01*
X61500Y157987D01*
X108699D01*
X108959Y158038D01*
X109223Y158056D01*
X109343Y158115D01*
X109473Y158141D01*
X109534Y158181D01*
X110119Y158423D01*
X110500Y158474D01*
X110881Y158423D01*
X111466Y158181D01*
X111527Y158141D01*
X111658Y158115D01*
X111777Y158056D01*
X112041Y158038D01*
X112301Y157987D01*
X122199D01*
X122459Y158038D01*
X122723Y158056D01*
X122843Y158115D01*
X122973Y158141D01*
X123034Y158181D01*
X123619Y158423D01*
X124000Y158474D01*
X124381Y158423D01*
X124737Y158276D01*
X125042Y158042D01*
X125276Y157737D01*
X125424Y157381D01*
X125474Y157000D01*
X125424Y156619D01*
X125276Y156263D01*
X125042Y155958D01*
X124737Y155724D01*
X124381Y155577D01*
X124000Y155526D01*
X123619Y155577D01*
X123034Y155819D01*
X122973Y155859D01*
X122843Y155885D01*
X122723Y155944D01*
X122459Y155962D01*
X122199Y156013D01*
X112301D01*
X112041Y155962D01*
X111777Y155944D01*
X111658Y155885D01*
X111527Y155859D01*
X111466Y155819D01*
X110881Y155577D01*
X110500Y155526D01*
X110119Y155577D01*
X109534Y155819D01*
X109473Y155859D01*
X109343Y155885D01*
X109223Y155944D01*
X108959Y155962D01*
X108699Y156013D01*
X61500D01*
X60726Y155859D01*
X60069Y155421D01*
X59631Y154764D01*
X59477Y153990D01*
Y138510D01*
X59631Y137736D01*
X60069Y137079D01*
X60726Y136641D01*
X61500Y136487D01*
X132199D01*
X132459Y136539D01*
X132723Y136556D01*
X132843Y136615D01*
X132973Y136641D01*
X133034Y136681D01*
X133619Y136924D01*
X134000Y136974D01*
X134381Y136924D01*
X134737Y136776D01*
X135042Y136542D01*
X135276Y136237D01*
X135424Y135881D01*
X135474Y135500D01*
X135424Y135119D01*
X135276Y134763D01*
X135042Y134458D01*
X134737Y134224D01*
X134381Y134076D01*
X134000Y134026D01*
X133619Y134076D01*
X133034Y134319D01*
X132973Y134359D01*
X132843Y134385D01*
X132723Y134444D01*
X132459Y134461D01*
X132199Y134513D01*
X61500D01*
X60726Y134359D01*
X60069Y133921D01*
X59631Y133264D01*
X59477Y132490D01*
Y116313D01*
X59507Y116164D01*
X59500Y116012D01*
X59583Y115780D01*
X59631Y115539D01*
X59715Y115412D01*
X59767Y115269D01*
X59933Y115087D01*
X60069Y114883D01*
X60075Y114831D01*
X28372Y83128D01*
X27893Y82505D01*
X27593Y81779D01*
X27490Y81000D01*
Y73801D01*
X27457Y73757D01*
X27105Y72910D01*
X26986Y72000D01*
X27105Y71090D01*
X27457Y70243D01*
X28015Y69515D01*
X28743Y68957D01*
X29590Y68605D01*
X30500Y68486D01*
X31410Y68605D01*
X32257Y68957D01*
X32985Y69515D01*
X33544Y70243D01*
X33895Y71090D01*
X34014Y72000D01*
X33895Y72910D01*
X33544Y73757D01*
X33510Y73801D01*
Y79753D01*
X59015Y105258D01*
X59477Y105067D01*
Y84410D01*
X59631Y83636D01*
X60069Y82980D01*
X60069Y82980D01*
X60726Y82541D01*
X61188Y82350D01*
X61962Y82196D01*
X61962D01*
X62736Y82350D01*
X63393Y82788D01*
X75029Y94424D01*
X75176Y94644D01*
X75350Y94844D01*
X75393Y94970D01*
X75467Y95081D01*
X75482Y95152D01*
X75724Y95737D01*
X75958Y96042D01*
X76263Y96276D01*
X76619Y96424D01*
X77000Y96474D01*
X77381Y96424D01*
X77737Y96276D01*
X78042Y96042D01*
X78276Y95737D01*
X78424Y95381D01*
X78474Y95000D01*
X78424Y94619D01*
X78276Y94263D01*
X78042Y93958D01*
X77737Y93724D01*
X77152Y93482D01*
X77081Y93467D01*
X76970Y93393D01*
X76844Y93350D01*
X76644Y93176D01*
X76424Y93029D01*
X60069Y76674D01*
X59631Y76017D01*
X59477Y75243D01*
Y60010D01*
X59631Y59236D01*
X60069Y58579D01*
X60726Y58141D01*
X61500Y57987D01*
X73753D01*
X74527Y58141D01*
X75184Y58579D01*
X119529Y102925D01*
X119676Y103145D01*
X119850Y103343D01*
X119893Y103470D01*
X119967Y103581D01*
X119982Y103652D01*
X120224Y104237D01*
X120458Y104542D01*
X120763Y104776D01*
X121119Y104923D01*
X121500Y104974D01*
X121881Y104923D01*
X122237Y104776D01*
X122542Y104542D01*
X122776Y104237D01*
X122924Y103881D01*
X122974Y103500D01*
X122924Y103119D01*
X122776Y102763D01*
X122542Y102458D01*
X122237Y102224D01*
X121652Y101982D01*
X121581Y101967D01*
X121470Y101893D01*
X121344Y101850D01*
X121144Y101676D01*
X120924Y101529D01*
X81298Y61902D01*
X80860Y61246D01*
X80706Y60472D01*
Y60472D01*
X80860Y59698D01*
X81051Y59236D01*
X81489Y58579D01*
X81489Y58579D01*
X82146Y58141D01*
X82920Y57987D01*
X90253D01*
X91027Y58141D01*
X91684Y58579D01*
X106029Y72925D01*
X106176Y73145D01*
X106350Y73343D01*
X106393Y73470D01*
X106467Y73581D01*
X106482Y73652D01*
X106724Y74237D01*
X106958Y74542D01*
X107263Y74776D01*
X107619Y74923D01*
X108000Y74974D01*
X108381Y74923D01*
X108737Y74776D01*
X109042Y74542D01*
X109276Y74237D01*
X109423Y73881D01*
X109474Y73500D01*
X109423Y73119D01*
X109276Y72763D01*
X109042Y72458D01*
X108737Y72224D01*
X108152Y71982D01*
X108081Y71967D01*
X107970Y71893D01*
X107843Y71850D01*
X107644Y71676D01*
X107424Y71529D01*
X92292Y56396D01*
X91985Y56160D01*
X91751Y56064D01*
X91367Y56013D01*
X68163D01*
X67389Y55859D01*
X66733Y55421D01*
X66733Y55421D01*
X66294Y54764D01*
X66103Y54302D01*
X65949Y53528D01*
Y53528D01*
X66103Y52754D01*
X66541Y52097D01*
X74782Y43857D01*
X74685Y43366D01*
X74428Y43260D01*
X73232Y42342D01*
X72315Y41147D01*
X71738Y39754D01*
X71541Y38260D01*
Y35110D01*
X71738Y33616D01*
X72315Y32223D01*
X73232Y31027D01*
X74428Y30110D01*
X75821Y29533D01*
X77315Y29336D01*
X78809Y29533D01*
X80202Y30110D01*
X81398Y31027D01*
X81986Y31795D01*
X82486D01*
X83075Y31027D01*
X84271Y30110D01*
X85663Y29533D01*
X87157Y29336D01*
X88652Y29533D01*
X90044Y30110D01*
X91240Y31027D01*
X92158Y32223D01*
X92734Y33616D01*
X92737Y33633D01*
X93260Y33773D01*
X93619Y33304D01*
X94609Y32544D01*
X95763Y32067D01*
X97000Y31904D01*
X98237Y32067D01*
X99391Y32544D01*
X100381Y33304D01*
X100740Y33773D01*
X101263Y33633D01*
X101266Y33616D01*
X101842Y32223D01*
X102760Y31027D01*
X103956Y30110D01*
X105348Y29533D01*
X106843Y29336D01*
X108337Y29533D01*
X109729Y30110D01*
X110925Y31027D01*
X111514Y31795D01*
X112014D01*
X112602Y31027D01*
X113798Y30110D01*
X115191Y29533D01*
X116685Y29336D01*
X118179Y29533D01*
X119572Y30110D01*
X120768Y31027D01*
X121126Y30818D01*
X121310Y30742D01*
X121476Y30631D01*
X121671Y30592D01*
X121855Y30516D01*
X122054D01*
X122250Y30477D01*
X145490D01*
X146264Y30631D01*
X146921Y31069D01*
X147359Y31726D01*
X147513Y32500D01*
Y80199D01*
X147461Y80459D01*
X147444Y80723D01*
X147385Y80843D01*
X147359Y80973D01*
X147319Y81034D01*
X147076Y81619D01*
X147026Y82000D01*
X147076Y82381D01*
X147224Y82737D01*
X147458Y83042D01*
X147763Y83276D01*
X148119Y83424D01*
X148500Y83474D01*
X148881Y83424D01*
X149237Y83276D01*
X149542Y83042D01*
X149776Y82737D01*
X149924Y82381D01*
X149974Y82000D01*
X149924Y81619D01*
X149681Y81034D01*
X149641Y80973D01*
X149615Y80843D01*
X149556Y80723D01*
X149539Y80459D01*
X149487Y80199D01*
Y32500D01*
X149641Y31726D01*
X150079Y31069D01*
X150736Y30631D01*
X151510Y30477D01*
X157481D01*
X157741Y30529D01*
X158005Y30546D01*
X158125Y30605D01*
X158256Y30631D01*
X158476Y30778D01*
X158713Y30895D01*
X158801Y30995D01*
X158912Y31069D01*
X159059Y31289D01*
X159233Y31488D01*
X159276Y31615D01*
X159351Y31726D01*
X159402Y31985D01*
X159487Y32236D01*
X159589Y33012D01*
X159787Y33489D01*
X160101Y33899D01*
X160511Y34213D01*
X160988Y34411D01*
X161500Y34478D01*
X162012Y34411D01*
X162489Y34213D01*
X162899Y33899D01*
X163213Y33489D01*
X163411Y33012D01*
X163513Y32236D01*
X163598Y31985D01*
X163649Y31726D01*
X163724Y31615D01*
X163767Y31488D01*
X163941Y31289D01*
X164088Y31069D01*
X164199Y30995D01*
X164287Y30895D01*
X164524Y30778D01*
X164744Y30631D01*
X164875Y30605D01*
X164995Y30546D01*
X165259Y30529D01*
X165519Y30477D01*
X200333D01*
X201107Y30631D01*
X201763Y31069D01*
X202202Y31726D01*
X202356Y32500D01*
Y102410D01*
X202202Y103185D01*
X201763Y103841D01*
X196748Y108856D01*
X196522Y109007D01*
X196474Y109062D01*
X195958Y109458D01*
X195724Y109763D01*
X195577Y110119D01*
X195526Y110500D01*
X195577Y110881D01*
X195724Y111237D01*
X195958Y111542D01*
X196263Y111776D01*
X196619Y111924D01*
X197000Y111974D01*
X197381Y111924D01*
X197737Y111776D01*
X198042Y111542D01*
X198276Y111237D01*
X198424Y110881D01*
X198472Y110515D01*
X198557Y110265D01*
X198608Y110005D01*
X198683Y109894D01*
X198725Y109768D01*
X198900Y109569D01*
X199047Y109349D01*
X203947Y104449D01*
X204182Y104142D01*
X204279Y103908D01*
X204329Y103525D01*
Y32500D01*
X204484Y31726D01*
X204922Y31069D01*
X205578Y30631D01*
X206353Y30477D01*
X214481D01*
X215256Y30631D01*
X215912Y31069D01*
X216351Y31726D01*
X216505Y32500D01*
Y35367D01*
X216589Y36012D01*
X216787Y36489D01*
X217101Y36899D01*
X217511Y37213D01*
X217988Y37411D01*
X218500Y37478D01*
X219012Y37411D01*
X219489Y37213D01*
X219899Y36899D01*
X220213Y36489D01*
X220411Y36012D01*
X220496Y35367D01*
Y32500D01*
X220650Y31726D01*
X221088Y31069D01*
X221744Y30631D01*
X222519Y30477D01*
X259885D01*
X260106Y30521D01*
X260332Y30527D01*
X260489Y30597D01*
X260659Y30631D01*
X260847Y30756D01*
X261053Y30848D01*
X261172Y30973D01*
X261315Y31069D01*
X261868Y31039D01*
X262428Y30610D01*
X263821Y30033D01*
X265315Y29836D01*
X266809Y30033D01*
X268202Y30610D01*
X269398Y31528D01*
X269986Y32295D01*
X270486D01*
X271075Y31528D01*
X272271Y30610D01*
X273663Y30033D01*
X275157Y29836D01*
X276652Y30033D01*
X278044Y30610D01*
X279240Y31528D01*
X280158Y32723D01*
X280734Y34116D01*
X280737Y34133D01*
X281260Y34273D01*
X281619Y33804D01*
X282610Y33044D01*
X283763Y32567D01*
X285000Y32404D01*
X286237Y32567D01*
X287390Y33044D01*
X288381Y33804D01*
X288740Y34273D01*
X289263Y34133D01*
X289265Y34116D01*
X289842Y32723D01*
X290760Y31528D01*
X291956Y30610D01*
X293348Y30033D01*
X294843Y29836D01*
X296337Y30033D01*
X297729Y30610D01*
X298925Y31528D01*
X299514Y32295D01*
X300014D01*
X300602Y31528D01*
X301798Y30610D01*
X303191Y30033D01*
X304685Y29836D01*
X306179Y30033D01*
X307572Y30610D01*
X308768Y31528D01*
X309685Y32723D01*
X310262Y34116D01*
X310459Y35610D01*
Y38760D01*
X310262Y40254D01*
X309685Y41647D01*
X309392Y42029D01*
X309392Y42031D01*
X321959Y54598D01*
X322397Y55254D01*
X322551Y56028D01*
X322562Y56135D01*
X322853Y56490D01*
X347753D01*
X360098Y44145D01*
X360105Y44090D01*
X360456Y43243D01*
X361015Y42515D01*
X361743Y41956D01*
X362590Y41605D01*
X363500Y41486D01*
X364410Y41605D01*
X365257Y41956D01*
X365985Y42515D01*
X366544Y43243D01*
X366895Y44090D01*
X367014Y45000D01*
X366895Y45910D01*
X366544Y46757D01*
X365985Y47485D01*
X365257Y48044D01*
X364410Y48395D01*
X364355Y48402D01*
X351128Y61628D01*
X350505Y62107D01*
X349779Y62407D01*
X349000Y62510D01*
X323023D01*
Y84490D01*
X322869Y85264D01*
X322431Y85921D01*
X321774Y86359D01*
X321000Y86513D01*
X300301D01*
X300041Y86462D01*
X299777Y86444D01*
X299658Y86385D01*
X299527Y86359D01*
X299466Y86319D01*
X298881Y86076D01*
X298500Y86026D01*
X298119Y86076D01*
X297763Y86224D01*
X297458Y86458D01*
X297224Y86763D01*
X297077Y87119D01*
X297026Y87500D01*
X297077Y87881D01*
X297224Y88237D01*
X297458Y88542D01*
X297763Y88776D01*
X298119Y88924D01*
X298500Y88974D01*
X298881Y88924D01*
X299466Y88681D01*
X299527Y88641D01*
X299658Y88615D01*
X299777Y88556D01*
X300041Y88538D01*
X300301Y88487D01*
X321000D01*
X321774Y88641D01*
X322431Y89079D01*
X322869Y89736D01*
X323023Y90510D01*
Y109490D01*
X322869Y110264D01*
X322431Y110921D01*
X321774Y111359D01*
X321000Y111513D01*
X253403D01*
X253020Y111564D01*
X252786Y111660D01*
X252479Y111896D01*
X251387Y112988D01*
X251167Y113135D01*
X250968Y113309D01*
X250842Y113352D01*
X250731Y113426D01*
X250471Y113478D01*
X250221Y113563D01*
X250119Y113576D01*
X249763Y113724D01*
X249458Y113958D01*
X249224Y114263D01*
X249077Y114619D01*
X249026Y115000D01*
X249077Y115381D01*
X249224Y115737D01*
X249458Y116042D01*
X249763Y116276D01*
X250119Y116423D01*
X250500Y116474D01*
X250881Y116423D01*
X251237Y116276D01*
X251542Y116042D01*
X251776Y115737D01*
X251868Y115516D01*
X252306Y114860D01*
X252306Y114860D01*
X253087Y114079D01*
X253743Y113641D01*
X254517Y113487D01*
X321000D01*
X321774Y113641D01*
X322431Y114079D01*
X322869Y114736D01*
X323023Y115510D01*
Y160990D01*
X322869Y161764D01*
X322431Y162421D01*
X321774Y162859D01*
X321000Y163013D01*
X309301D01*
X309041Y162961D01*
X308777Y162944D01*
X308658Y162885D01*
X308527Y162859D01*
X308466Y162819D01*
X307881Y162576D01*
X307500Y162526D01*
X307119Y162576D01*
X306763Y162724D01*
X306458Y162958D01*
X306224Y163263D01*
X306077Y163619D01*
X306026Y164000D01*
X306077Y164381D01*
X306224Y164737D01*
X306458Y165042D01*
X306763Y165276D01*
X307119Y165424D01*
X307500Y165474D01*
X307881Y165424D01*
X308466Y165181D01*
X308527Y165141D01*
X308658Y165115D01*
X308777Y165056D01*
X309041Y165039D01*
X309301Y164987D01*
X321000D01*
X321774Y165141D01*
X322431Y165579D01*
X322869Y166236D01*
X323023Y167010D01*
Y211981D01*
X322869Y212756D01*
X322431Y213412D01*
X321774Y213850D01*
X321000Y214004D01*
X305133D01*
X304488Y214089D01*
X304011Y214287D01*
X303495Y214683D01*
X293266Y224912D01*
X292610Y225350D01*
X291835Y225504D01*
X263633D01*
X262988Y225589D01*
X262347Y225855D01*
X261573Y226009D01*
X228633D01*
X228119Y226077D01*
X227534Y226319D01*
X227473Y226359D01*
X227343Y226385D01*
X227223Y226444D01*
X226959Y226462D01*
X226699Y226513D01*
X215747D01*
X214973Y226359D01*
X214316Y225921D01*
X199471Y211075D01*
X199324Y210856D01*
X199150Y210656D01*
X199107Y210530D01*
X199033Y210419D01*
X199018Y210348D01*
X198776Y209763D01*
X198542Y209458D01*
X198237Y209224D01*
X197881Y209076D01*
X197500Y209026D01*
X197119Y209076D01*
X196763Y209224D01*
X196458Y209458D01*
X196224Y209763D01*
X196077Y210119D01*
X196026Y210500D01*
X196077Y210881D01*
X196224Y211237D01*
X196458Y211542D01*
X196763Y211776D01*
X197348Y212018D01*
X197419Y212033D01*
X197530Y212107D01*
X197657Y212150D01*
X197855Y212324D01*
X198075Y212471D01*
X213708Y228104D01*
X214015Y228340D01*
X214249Y228436D01*
X214633Y228487D01*
X226699D01*
X226959Y228538D01*
X227223Y228556D01*
X227343Y228615D01*
X227473Y228641D01*
X227534Y228681D01*
X228119Y228924D01*
X228633Y228991D01*
X261573D01*
X262347Y229145D01*
X262988Y229411D01*
X263633Y229496D01*
X293367D01*
X294012Y229411D01*
X294489Y229213D01*
X295005Y228817D01*
X305234Y218588D01*
X305890Y218149D01*
X306665Y217996D01*
X321000D01*
X321774Y218149D01*
X322431Y218588D01*
X322869Y219244D01*
X323023Y220019D01*
Y228500D01*
X322869Y229274D01*
X322431Y229931D01*
X296861Y255500D01*
X296823Y255538D01*
X293431Y258931D01*
X292774Y259369D01*
X292000Y259523D01*
X267519D01*
Y272548D01*
X267639Y272704D01*
X268218Y272832D01*
X269350Y271700D01*
X270500D01*
Y275000D01*
Y278300D01*
X269350D01*
X268218Y277168D01*
X267639Y277296D01*
X267056Y278056D01*
X266510Y278474D01*
Y301199D01*
X266544Y301243D01*
X266895Y302090D01*
X267014Y303000D01*
X266895Y303910D01*
X266544Y304757D01*
X265985Y305485D01*
X265257Y306044D01*
X264410Y306395D01*
X263500Y306514D01*
X262590Y306395D01*
X261743Y306044D01*
X261015Y305485D01*
X260456Y304757D01*
X260105Y303910D01*
X259986Y303000D01*
X260105Y302090D01*
X260456Y301243D01*
X260490Y301199D01*
Y277463D01*
X260258Y277161D01*
X259826Y276118D01*
X259811Y276006D01*
X259618Y275540D01*
X259481Y274500D01*
Y261165D01*
X257197Y258881D01*
X256594Y258931D01*
X255938Y259369D01*
X255164Y259523D01*
X220827D01*
X220447Y260023D01*
X220510Y260500D01*
Y263866D01*
X222634D01*
Y274134D01*
X220510D01*
Y276500D01*
X220407Y277279D01*
X220107Y278005D01*
X219628Y278628D01*
X183128Y315128D01*
X182505Y315607D01*
X181779Y315907D01*
X181000Y316010D01*
X37301D01*
X37257Y316043D01*
X36410Y316395D01*
X35500Y316514D01*
X34590Y316395D01*
X33743Y316043D01*
X33699Y316010D01*
X26500D01*
X25721Y315907D01*
X24995Y315607D01*
X24372Y315128D01*
X3372Y294128D01*
X2893Y293505D01*
X2593Y292779D01*
X2490Y292000D01*
Y291062D01*
X1895Y290605D01*
X1084Y289549D01*
X575Y288320D01*
X500Y287750D01*
X0Y287783D01*
Y386217D01*
X500Y386250D01*
X575Y385680D01*
X1084Y384451D01*
X1895Y383395D01*
X2951Y382584D01*
X4180Y382075D01*
X5500Y381901D01*
X6820Y382075D01*
X8049Y382584D01*
X9105Y383395D01*
X9916Y384451D01*
X10425Y385680D01*
X10599Y387000D01*
X10425Y388320D01*
X9916Y389549D01*
X9105Y390605D01*
X8049Y391416D01*
X6820Y391925D01*
X5500Y392099D01*
X4180Y391925D01*
X2951Y391416D01*
X1895Y390605D01*
X1084Y389549D01*
X575Y388320D01*
X500Y387750D01*
X0Y387783D01*
Y393500D01*
X393500D01*
Y255500D01*
D02*
G37*
G36*
X255355Y257038D02*
X249408Y251092D01*
X249346Y251010D01*
X238801D01*
X238757Y251044D01*
X237910Y251395D01*
X237000Y251514D01*
X236090Y251395D01*
X235243Y251044D01*
X234515Y250485D01*
X233957Y249757D01*
X233605Y248910D01*
X233486Y248000D01*
X233605Y247090D01*
X233957Y246243D01*
X234515Y245515D01*
X235243Y244956D01*
X236090Y244605D01*
X237000Y244486D01*
X237910Y244605D01*
X238757Y244956D01*
X238801Y244990D01*
X242653D01*
X242845Y244528D01*
X240835Y242519D01*
X208500D01*
X207460Y242382D01*
X206491Y241980D01*
X205658Y241342D01*
X183537Y219220D01*
X157628Y245128D01*
X157005Y245607D01*
X156279Y245907D01*
X155500Y246010D01*
X78747Y246010D01*
X75628Y249128D01*
X75005Y249607D01*
X74279Y249907D01*
X73500Y250010D01*
X72721Y249907D01*
X71995Y249607D01*
X71372Y249128D01*
X70893Y248505D01*
X70593Y247779D01*
X70490Y247000D01*
X70593Y246221D01*
X70893Y245495D01*
X71372Y244872D01*
X75372Y240872D01*
X75995Y240393D01*
X76721Y240092D01*
X77500Y239990D01*
X154253Y239990D01*
X180481Y213762D01*
Y205453D01*
X150658Y175630D01*
X150020Y174798D01*
X149618Y173829D01*
X149481Y172789D01*
Y149929D01*
X149019Y149737D01*
X121128Y177628D01*
X120505Y178107D01*
X119779Y178407D01*
X119000Y178510D01*
X85747D01*
X81510Y182747D01*
Y187199D01*
X81543Y187243D01*
X81895Y188090D01*
X82014Y189000D01*
X81895Y189910D01*
X81543Y190757D01*
X80985Y191485D01*
X80257Y192043D01*
X79410Y192395D01*
X78500Y192514D01*
X77590Y192395D01*
X76743Y192043D01*
X76015Y191485D01*
X75457Y190757D01*
X75105Y189910D01*
X74986Y189000D01*
X75105Y188090D01*
X75457Y187243D01*
X75490Y187199D01*
Y181500D01*
X75593Y180721D01*
X75893Y179995D01*
X76372Y179372D01*
X82372Y173372D01*
X82995Y172893D01*
X83721Y172593D01*
X84500Y172490D01*
X117753D01*
X149243Y141000D01*
X124253Y116010D01*
X78801D01*
X78757Y116043D01*
X77910Y116395D01*
X77000Y116514D01*
X76090Y116395D01*
X75243Y116043D01*
X75199Y116010D01*
X62500D01*
X62000Y115944D01*
X61500Y116313D01*
Y132490D01*
X132199D01*
X132243Y132457D01*
X133090Y132105D01*
X134000Y131986D01*
X134910Y132105D01*
X135757Y132457D01*
X136485Y133015D01*
X137043Y133743D01*
X137395Y134590D01*
X137514Y135500D01*
X137395Y136410D01*
X137043Y137257D01*
X136485Y137985D01*
X135757Y138543D01*
X134910Y138895D01*
X134000Y139014D01*
X133090Y138895D01*
X132243Y138543D01*
X132199Y138510D01*
X61500D01*
Y153990D01*
X108699D01*
X108743Y153956D01*
X109590Y153605D01*
X110500Y153486D01*
X111410Y153605D01*
X112257Y153956D01*
X112301Y153990D01*
X122199D01*
X122243Y153956D01*
X123090Y153605D01*
X124000Y153486D01*
X124910Y153605D01*
X125757Y153956D01*
X126485Y154515D01*
X127043Y155243D01*
X127395Y156090D01*
X127514Y157000D01*
X127395Y157910D01*
X127043Y158757D01*
X126485Y159485D01*
X125757Y160044D01*
X124910Y160395D01*
X124000Y160514D01*
X123090Y160395D01*
X122243Y160044D01*
X122199Y160010D01*
X112301D01*
X112257Y160044D01*
X111410Y160395D01*
X110500Y160514D01*
X109590Y160395D01*
X108743Y160044D01*
X108699Y160010D01*
X61500D01*
Y168990D01*
X70199D01*
X70243Y168956D01*
X71090Y168605D01*
X72000Y168486D01*
X72910Y168605D01*
X73757Y168956D01*
X74485Y169515D01*
X75043Y170243D01*
X75395Y171090D01*
X75514Y172000D01*
X75395Y172910D01*
X75043Y173757D01*
X74485Y174485D01*
X73757Y175043D01*
X72910Y175395D01*
X72000Y175514D01*
X71090Y175395D01*
X70243Y175043D01*
X70199Y175010D01*
X61500D01*
Y232742D01*
X69358D01*
X73044Y229056D01*
X73105Y228590D01*
X73457Y227743D01*
X74015Y227015D01*
X74743Y226456D01*
X75590Y226105D01*
X76500Y225986D01*
X77410Y226105D01*
X78257Y226456D01*
X78985Y227015D01*
X79544Y227743D01*
X79895Y228590D01*
X80014Y229500D01*
X79895Y230410D01*
X79544Y231257D01*
X78985Y231985D01*
X78257Y232543D01*
X77410Y232895D01*
X76944Y232956D01*
X72450Y237450D01*
X71879Y237888D01*
X71214Y238164D01*
X70500Y238258D01*
X61500D01*
Y249500D01*
X69500Y257500D01*
X209590D01*
X209781Y257038D01*
X198145Y245402D01*
X198090Y245395D01*
X197243Y245043D01*
X196515Y244485D01*
X195957Y243757D01*
X195605Y242910D01*
X195486Y242000D01*
X195605Y241090D01*
X195957Y240243D01*
X196515Y239515D01*
X197243Y238956D01*
X198090Y238605D01*
X199000Y238486D01*
X199910Y238605D01*
X200757Y238956D01*
X201485Y239515D01*
X202044Y240243D01*
X202395Y241090D01*
X202402Y241145D01*
X218757Y257500D01*
X255164D01*
X255355Y257038D01*
D02*
G37*
G36*
X321000Y228500D02*
Y220019D01*
X306665D01*
X296342Y230342D01*
X295509Y230980D01*
X294540Y231382D01*
X293500Y231519D01*
X263500D01*
X262460Y231382D01*
X261573Y231014D01*
X228500D01*
X227590Y230895D01*
X226743Y230543D01*
X226699Y230510D01*
X214500D01*
X213721Y230407D01*
X212995Y230107D01*
X212372Y229628D01*
X196645Y213902D01*
X196590Y213895D01*
X195743Y213544D01*
X195015Y212985D01*
X194457Y212257D01*
X194105Y211410D01*
X193986Y210500D01*
X194105Y209590D01*
X194457Y208743D01*
X195015Y208015D01*
X195743Y207456D01*
X196590Y207105D01*
X197500Y206986D01*
X198410Y207105D01*
X199257Y207456D01*
X199985Y208015D01*
X200543Y208743D01*
X200895Y209590D01*
X200902Y209645D01*
X215747Y224490D01*
X226699D01*
X226743Y224457D01*
X227590Y224105D01*
X228500Y223986D01*
X261573D01*
X262460Y223618D01*
X263500Y223481D01*
X291835D01*
X302158Y213158D01*
X302991Y212520D01*
X303960Y212118D01*
X305000Y211981D01*
X321000D01*
Y167010D01*
X309301D01*
X309257Y167043D01*
X308410Y167395D01*
X307500Y167514D01*
X306590Y167395D01*
X305743Y167043D01*
X305015Y166485D01*
X304456Y165757D01*
X304105Y164910D01*
X303986Y164000D01*
X304105Y163090D01*
X304456Y162243D01*
X305015Y161515D01*
X305743Y160957D01*
X306590Y160605D01*
X307500Y160486D01*
X308410Y160605D01*
X309257Y160957D01*
X309301Y160990D01*
X321000D01*
Y115510D01*
X254517D01*
X253737Y116291D01*
X253543Y116757D01*
X252985Y117485D01*
X252257Y118043D01*
X251410Y118395D01*
X250500Y118514D01*
X249590Y118395D01*
X248743Y118043D01*
X248015Y117485D01*
X247457Y116757D01*
X247105Y115910D01*
X246986Y115000D01*
X247105Y114090D01*
X247457Y113243D01*
X248015Y112515D01*
X248743Y111957D01*
X249590Y111605D01*
X249957Y111557D01*
X251142Y110372D01*
X251766Y109893D01*
X252492Y109593D01*
X253271Y109490D01*
X321000D01*
Y90510D01*
X300301D01*
X300257Y90544D01*
X299410Y90895D01*
X298500Y91014D01*
X297590Y90895D01*
X296743Y90544D01*
X296015Y89985D01*
X295457Y89257D01*
X295105Y88410D01*
X294986Y87500D01*
X295105Y86590D01*
X295457Y85743D01*
X296015Y85015D01*
X296743Y84456D01*
X297590Y84105D01*
X298500Y83986D01*
X299410Y84105D01*
X300257Y84456D01*
X300301Y84490D01*
X321000D01*
Y62510D01*
X281247D01*
X244510Y99247D01*
Y124990D01*
X255043D01*
X260388Y119645D01*
X260395Y119590D01*
X260746Y118743D01*
X261304Y118015D01*
X262032Y117456D01*
X262880Y117105D01*
X263790Y116986D01*
X264699Y117105D01*
X265547Y117456D01*
X266274Y118015D01*
X266833Y118743D01*
X267184Y119590D01*
X267304Y120500D01*
X267184Y121410D01*
X266833Y122257D01*
X266274Y122985D01*
X265547Y123544D01*
X264699Y123895D01*
X264645Y123902D01*
X258418Y130128D01*
X257794Y130607D01*
X257069Y130907D01*
X256290Y131010D01*
X244173D01*
X232470Y142713D01*
X273355Y183598D01*
X273410Y183605D01*
X274257Y183957D01*
X274985Y184515D01*
X275543Y185243D01*
X275895Y186090D01*
X276014Y187000D01*
X275895Y187910D01*
X275543Y188757D01*
X274985Y189485D01*
X274257Y190043D01*
X273410Y190395D01*
X272500Y190514D01*
X271590Y190395D01*
X270743Y190043D01*
X270015Y189485D01*
X269457Y188757D01*
X269105Y187910D01*
X269098Y187855D01*
X232731Y151487D01*
X232269Y151679D01*
Y161039D01*
X232132Y162079D01*
X231730Y163048D01*
X231092Y163880D01*
X188519Y206453D01*
Y212835D01*
X210165Y234481D01*
X242500D01*
X243540Y234618D01*
X244509Y235020D01*
X245342Y235658D01*
X254842Y245158D01*
X254950Y245300D01*
X255092Y245408D01*
X266342Y256658D01*
X266980Y257491D01*
X266984Y257500D01*
X292000D01*
X321000Y228500D01*
D02*
G37*
G36*
X224231Y159374D02*
Y142750D01*
Y141488D01*
X216372Y133628D01*
X215893Y133005D01*
X215593Y132279D01*
X215490Y131500D01*
Y76301D01*
X215457Y76257D01*
X215105Y75410D01*
X214986Y74500D01*
X215105Y73590D01*
X215457Y72743D01*
X216015Y72015D01*
X216743Y71456D01*
X217590Y71105D01*
X218500Y70986D01*
X219410Y71105D01*
X220257Y71456D01*
X220985Y72015D01*
X221544Y72743D01*
X221895Y73590D01*
X222014Y74500D01*
X221895Y75410D01*
X221544Y76257D01*
X221510Y76301D01*
Y130253D01*
X227537Y136280D01*
X238490Y125327D01*
Y98000D01*
X238593Y97221D01*
X238893Y96495D01*
X239372Y95872D01*
X277872Y57372D01*
X278495Y56893D01*
X279221Y56593D01*
X280000Y56490D01*
X320337D01*
X320528Y56028D01*
X307961Y43461D01*
X307572Y43760D01*
X306179Y44337D01*
X304685Y44534D01*
X303191Y44337D01*
X301798Y43760D01*
X300602Y42843D01*
X299685Y41647D01*
X299479Y41150D01*
X299258D01*
X298954Y41188D01*
X298223Y42141D01*
X297233Y42900D01*
X296080Y43378D01*
X295343Y43475D01*
Y37185D01*
X294343D01*
Y43475D01*
X293605Y43378D01*
X292452Y42900D01*
X291462Y42141D01*
X290702Y41150D01*
X290224Y39997D01*
X290061Y38760D01*
Y38659D01*
X289562Y38559D01*
X289141Y39576D01*
X288381Y40566D01*
X287390Y41326D01*
X286237Y41803D01*
X285000Y41966D01*
X283763Y41803D01*
X282610Y41326D01*
X281619Y40566D01*
X280859Y39576D01*
X280438Y38559D01*
X279939Y38659D01*
Y38760D01*
X279776Y39997D01*
X279298Y41150D01*
X278538Y42141D01*
X277548Y42900D01*
X276395Y43378D01*
X275658Y43475D01*
Y37185D01*
X274658D01*
Y43475D01*
X273920Y43378D01*
X272767Y42900D01*
X271777Y42141D01*
X271046Y41188D01*
X270742Y41150D01*
X270521D01*
X270315Y41647D01*
X269398Y42843D01*
X268202Y43760D01*
X266809Y44337D01*
X265315Y44534D01*
X263821Y44337D01*
X262428Y43760D01*
X261232Y42843D01*
X260315Y41647D01*
X259738Y40254D01*
X259541Y38760D01*
Y35610D01*
X259738Y34116D01*
X260200Y33000D01*
X259885Y32500D01*
X222519D01*
Y35500D01*
X222382Y36540D01*
X221980Y37509D01*
X221342Y38342D01*
X220509Y38980D01*
X219540Y39382D01*
X218500Y39519D01*
X217460Y39382D01*
X216491Y38980D01*
X215658Y38342D01*
X215020Y37509D01*
X214618Y36540D01*
X214481Y35500D01*
Y32500D01*
X206353D01*
Y103657D01*
X206250Y104436D01*
X205949Y105162D01*
X205471Y105786D01*
X200478Y110779D01*
X200395Y111410D01*
X200044Y112257D01*
X199485Y112985D01*
X198757Y113543D01*
X197910Y113895D01*
X197000Y114014D01*
X196090Y113895D01*
X195243Y113543D01*
X194515Y112985D01*
X193956Y112257D01*
X193605Y111410D01*
X193486Y110500D01*
X193605Y109590D01*
X193956Y108743D01*
X194515Y108015D01*
X195243Y107457D01*
X195318Y107425D01*
X200333Y102410D01*
Y32500D01*
X165519D01*
X165382Y33540D01*
X164980Y34509D01*
X164342Y35342D01*
X163509Y35980D01*
X162540Y36382D01*
X161500Y36519D01*
X160460Y36382D01*
X159491Y35980D01*
X158658Y35342D01*
X158020Y34509D01*
X157618Y33540D01*
X157481Y32500D01*
X151510D01*
Y80199D01*
X151543Y80243D01*
X151895Y81090D01*
X152014Y82000D01*
X151895Y82910D01*
X151543Y83757D01*
X150985Y84485D01*
X150257Y85044D01*
X149410Y85395D01*
X148500Y85514D01*
X147590Y85395D01*
X146743Y85044D01*
X146015Y84485D01*
X145457Y83757D01*
X145105Y82910D01*
X144986Y82000D01*
X145105Y81090D01*
X145457Y80243D01*
X145490Y80199D01*
Y32500D01*
X122250D01*
X121972Y32916D01*
X122262Y33616D01*
X122459Y35110D01*
Y38260D01*
X122262Y39754D01*
X121685Y41147D01*
X120768Y42342D01*
X119572Y43260D01*
X118179Y43837D01*
X116685Y44034D01*
X115191Y43837D01*
X113798Y43260D01*
X112602Y42342D01*
X111685Y41147D01*
X111479Y40650D01*
X111258D01*
X110954Y40688D01*
X110223Y41641D01*
X109233Y42400D01*
X108080Y42878D01*
X107343Y42975D01*
Y36685D01*
X106342D01*
Y42975D01*
X105605Y42878D01*
X104452Y42400D01*
X103462Y41641D01*
X102702Y40650D01*
X102224Y39497D01*
X102061Y38260D01*
Y38159D01*
X101561Y38059D01*
X101140Y39076D01*
X100381Y40066D01*
X99391Y40826D01*
X98237Y41303D01*
X97000Y41466D01*
X95763Y41303D01*
X94609Y40826D01*
X93619Y40066D01*
X92860Y39076D01*
X92439Y38059D01*
X91939Y38159D01*
Y38260D01*
X91776Y39497D01*
X91298Y40650D01*
X90538Y41641D01*
X89548Y42400D01*
X88395Y42878D01*
X87657Y42975D01*
Y36685D01*
X86657D01*
Y42975D01*
X85920Y42878D01*
X84767Y42400D01*
X83777Y41641D01*
X83046Y40688D01*
X82741Y40650D01*
X82521D01*
X82315Y41147D01*
X81398Y42342D01*
X80202Y43260D01*
X78809Y43837D01*
X77489Y44011D01*
X67972Y53528D01*
X68163Y53990D01*
X91500D01*
X92279Y54093D01*
X93005Y54393D01*
X93628Y54872D01*
X108855Y70098D01*
X108910Y70105D01*
X109757Y70456D01*
X110485Y71015D01*
X111044Y71743D01*
X111395Y72590D01*
X111514Y73500D01*
X111395Y74410D01*
X111044Y75257D01*
X110485Y75985D01*
X109757Y76543D01*
X108910Y76895D01*
X108000Y77014D01*
X107090Y76895D01*
X106243Y76543D01*
X105515Y75985D01*
X104956Y75257D01*
X104605Y74410D01*
X104598Y74355D01*
X90253Y60010D01*
X82920D01*
X82729Y60472D01*
X122355Y100098D01*
X122410Y100105D01*
X123257Y100457D01*
X123985Y101015D01*
X124543Y101743D01*
X124895Y102590D01*
X125014Y103500D01*
X124895Y104410D01*
X124543Y105257D01*
X123985Y105985D01*
X123257Y106544D01*
X122410Y106895D01*
X121500Y107014D01*
X120590Y106895D01*
X119743Y106544D01*
X119015Y105985D01*
X118456Y105257D01*
X118105Y104410D01*
X118098Y104355D01*
X73753Y60010D01*
X61500D01*
Y75243D01*
X77855Y91598D01*
X77910Y91605D01*
X78757Y91957D01*
X79485Y92515D01*
X80044Y93243D01*
X80395Y94090D01*
X80514Y95000D01*
X80395Y95910D01*
X80044Y96757D01*
X79485Y97485D01*
X78757Y98044D01*
X77910Y98395D01*
X77000Y98514D01*
X76090Y98395D01*
X75243Y98044D01*
X74515Y97485D01*
X73957Y96757D01*
X73605Y95910D01*
X73598Y95855D01*
X61962Y84219D01*
X61500Y84410D01*
Y107743D01*
X63747Y109990D01*
X75199D01*
X75243Y109957D01*
X76090Y109605D01*
X77000Y109486D01*
X77910Y109605D01*
X78757Y109957D01*
X78801Y109990D01*
X125500D01*
X126279Y110093D01*
X127005Y110393D01*
X127628Y110872D01*
X153500Y136743D01*
X161490Y128753D01*
Y91000D01*
X161593Y90221D01*
X161893Y89495D01*
X162372Y88872D01*
X168935Y82308D01*
X168980Y81965D01*
X169332Y81118D01*
X169890Y80390D01*
X170618Y79831D01*
X171465Y79480D01*
X172375Y79361D01*
X173285Y79480D01*
X174132Y79831D01*
X174860Y80390D01*
X175418Y81118D01*
X175770Y81965D01*
X175889Y82875D01*
X175770Y83785D01*
X175418Y84632D01*
X174860Y85360D01*
X174132Y85918D01*
X173630Y86126D01*
X167510Y92247D01*
Y130000D01*
X167407Y130779D01*
X167107Y131505D01*
X166628Y132128D01*
X157519Y141238D01*
Y171124D01*
X185000Y198606D01*
X224231Y159374D01*
D02*
G37*
%LPC*%
G36*
X175500Y392099D02*
X174180Y391925D01*
X172951Y391416D01*
X171895Y390605D01*
X171084Y389549D01*
X170771Y388792D01*
X170229D01*
X169916Y389549D01*
X169105Y390605D01*
X168049Y391416D01*
X166820Y391925D01*
X165500Y392099D01*
X164180Y391925D01*
X162951Y391416D01*
X161895Y390605D01*
X161084Y389549D01*
X160771Y388792D01*
X160229D01*
X159916Y389549D01*
X159105Y390605D01*
X158049Y391416D01*
X156820Y391925D01*
X155500Y392099D01*
X154180Y391925D01*
X152951Y391416D01*
X151895Y390605D01*
X151084Y389549D01*
X150771Y388792D01*
X150229D01*
X149916Y389549D01*
X149105Y390605D01*
X148049Y391416D01*
X146820Y391925D01*
X145500Y392099D01*
X144180Y391925D01*
X142951Y391416D01*
X141895Y390605D01*
X141084Y389549D01*
X140771Y388792D01*
X140229D01*
X139916Y389549D01*
X139105Y390605D01*
X138049Y391416D01*
X136820Y391925D01*
X135500Y392099D01*
X134180Y391925D01*
X132951Y391416D01*
X131895Y390605D01*
X131084Y389549D01*
X130771Y388792D01*
X130229D01*
X129916Y389549D01*
X129105Y390605D01*
X128049Y391416D01*
X126820Y391925D01*
X125500Y392099D01*
X124180Y391925D01*
X122951Y391416D01*
X121895Y390605D01*
X121084Y389549D01*
X120771Y388792D01*
X120229D01*
X119916Y389549D01*
X119105Y390605D01*
X118049Y391416D01*
X116820Y391925D01*
X115500Y392099D01*
X114180Y391925D01*
X112951Y391416D01*
X111895Y390605D01*
X111084Y389549D01*
X110771Y388792D01*
X110229D01*
X109916Y389549D01*
X109105Y390605D01*
X108049Y391416D01*
X106820Y391925D01*
X105500Y392099D01*
X104180Y391925D01*
X102951Y391416D01*
X101895Y390605D01*
X101084Y389549D01*
X100771Y388792D01*
X100229D01*
X99916Y389549D01*
X99105Y390605D01*
X98049Y391416D01*
X96820Y391925D01*
X95500Y392099D01*
X94180Y391925D01*
X92951Y391416D01*
X91895Y390605D01*
X91084Y389549D01*
X90771Y388792D01*
X90229D01*
X89916Y389549D01*
X89105Y390605D01*
X88049Y391416D01*
X86820Y391925D01*
X85500Y392099D01*
X84180Y391925D01*
X82951Y391416D01*
X81895Y390605D01*
X81084Y389549D01*
X80771Y388792D01*
X80229D01*
X79916Y389549D01*
X79105Y390605D01*
X78049Y391416D01*
X76820Y391925D01*
X75500Y392099D01*
X74180Y391925D01*
X72951Y391416D01*
X71895Y390605D01*
X71084Y389549D01*
X70771Y388792D01*
X70229D01*
X69916Y389549D01*
X69105Y390605D01*
X68049Y391416D01*
X66820Y391925D01*
X65500Y392099D01*
X64180Y391925D01*
X62951Y391416D01*
X61895Y390605D01*
X61084Y389549D01*
X60771Y388792D01*
X60229D01*
X59916Y389549D01*
X59105Y390605D01*
X58049Y391416D01*
X56820Y391925D01*
X55500Y392099D01*
X54180Y391925D01*
X52951Y391416D01*
X51895Y390605D01*
X51084Y389549D01*
X50575Y388320D01*
X50401Y387000D01*
X50575Y385680D01*
X51084Y384451D01*
X51895Y383395D01*
X52951Y382584D01*
X54180Y382075D01*
X55500Y381901D01*
X56820Y382075D01*
X58049Y382584D01*
X59105Y383395D01*
X59916Y384451D01*
X60229Y385208D01*
X60771D01*
X61084Y384451D01*
X61895Y383395D01*
X62951Y382584D01*
X64180Y382075D01*
X65500Y381901D01*
X66820Y382075D01*
X68049Y382584D01*
X69105Y383395D01*
X69916Y384451D01*
X70229Y385208D01*
X70771D01*
X71084Y384451D01*
X71895Y383395D01*
X72951Y382584D01*
X74180Y382075D01*
X75500Y381901D01*
X76820Y382075D01*
X78049Y382584D01*
X79105Y383395D01*
X79916Y384451D01*
X80229Y385208D01*
X80771D01*
X81084Y384451D01*
X81895Y383395D01*
X82951Y382584D01*
X84180Y382075D01*
X85500Y381901D01*
X86820Y382075D01*
X88049Y382584D01*
X89105Y383395D01*
X89916Y384451D01*
X90229Y385208D01*
X90771D01*
X91084Y384451D01*
X91895Y383395D01*
X92951Y382584D01*
X94180Y382075D01*
X95500Y381901D01*
X96820Y382075D01*
X98049Y382584D01*
X99105Y383395D01*
X99916Y384451D01*
X100229Y385208D01*
X100771D01*
X101084Y384451D01*
X101895Y383395D01*
X102951Y382584D01*
X104180Y382075D01*
X105500Y381901D01*
X106820Y382075D01*
X108049Y382584D01*
X109105Y383395D01*
X109916Y384451D01*
X110229Y385208D01*
X110771D01*
X111084Y384451D01*
X111895Y383395D01*
X112951Y382584D01*
X114180Y382075D01*
X115500Y381901D01*
X116820Y382075D01*
X118049Y382584D01*
X119105Y383395D01*
X119916Y384451D01*
X120229Y385208D01*
X120771D01*
X121084Y384451D01*
X121895Y383395D01*
X122951Y382584D01*
X124180Y382075D01*
X125500Y381901D01*
X126820Y382075D01*
X128049Y382584D01*
X129105Y383395D01*
X129916Y384451D01*
X130229Y385208D01*
X130771D01*
X131084Y384451D01*
X131895Y383395D01*
X132951Y382584D01*
X134180Y382075D01*
X135500Y381901D01*
X136820Y382075D01*
X138049Y382584D01*
X139105Y383395D01*
X139916Y384451D01*
X140229Y385208D01*
X140771D01*
X141084Y384451D01*
X141895Y383395D01*
X142951Y382584D01*
X144180Y382075D01*
X145500Y381901D01*
X146820Y382075D01*
X148049Y382584D01*
X149105Y383395D01*
X149916Y384451D01*
X150229Y385208D01*
X150771D01*
X151084Y384451D01*
X151895Y383395D01*
X152951Y382584D01*
X154180Y382075D01*
X155500Y381901D01*
X156820Y382075D01*
X158049Y382584D01*
X159105Y383395D01*
X159916Y384451D01*
X160229Y385208D01*
X160771D01*
X161084Y384451D01*
X161895Y383395D01*
X162951Y382584D01*
X164180Y382075D01*
X165500Y381901D01*
X166820Y382075D01*
X168049Y382584D01*
X169105Y383395D01*
X169916Y384451D01*
X170229Y385208D01*
X170771D01*
X171084Y384451D01*
X171895Y383395D01*
X172951Y382584D01*
X174180Y382075D01*
X175500Y381901D01*
X176820Y382075D01*
X178049Y382584D01*
X179105Y383395D01*
X179916Y384451D01*
X180425Y385680D01*
X180599Y387000D01*
X180425Y388320D01*
X179916Y389549D01*
X179105Y390605D01*
X178049Y391416D01*
X176820Y391925D01*
X175500Y392099D01*
D02*
G37*
G36*
X35500D02*
X34180Y391925D01*
X32951Y391416D01*
X31895Y390605D01*
X31084Y389549D01*
X30771Y388792D01*
X30229D01*
X29916Y389549D01*
X29105Y390605D01*
X28049Y391416D01*
X26820Y391925D01*
X25500Y392099D01*
X24180Y391925D01*
X22951Y391416D01*
X21895Y390605D01*
X21084Y389549D01*
X20575Y388320D01*
X20401Y387000D01*
X20575Y385680D01*
X21084Y384451D01*
X21895Y383395D01*
X22951Y382584D01*
X24180Y382075D01*
X25500Y381901D01*
X26820Y382075D01*
X28049Y382584D01*
X29105Y383395D01*
X29916Y384451D01*
X30229Y385208D01*
X30771D01*
X31084Y384451D01*
X31895Y383395D01*
X32951Y382584D01*
X34180Y382075D01*
X35500Y381901D01*
X36820Y382075D01*
X38049Y382584D01*
X39105Y383395D01*
X39916Y384451D01*
X40425Y385680D01*
X40599Y387000D01*
X40425Y388320D01*
X39916Y389549D01*
X39105Y390605D01*
X38049Y391416D01*
X36820Y391925D01*
X35500Y392099D01*
D02*
G37*
G36*
X46000Y391040D02*
Y387500D01*
X49540D01*
X49466Y388063D01*
X49056Y389053D01*
X48403Y389903D01*
X47553Y390556D01*
X46563Y390966D01*
X46000Y391040D01*
D02*
G37*
G36*
X16000D02*
Y387500D01*
X19540D01*
X19466Y388063D01*
X19056Y389053D01*
X18403Y389903D01*
X17553Y390556D01*
X16563Y390966D01*
X16000Y391040D01*
D02*
G37*
G36*
X45000D02*
X44437Y390966D01*
X43447Y390556D01*
X42597Y389903D01*
X41944Y389053D01*
X41534Y388063D01*
X41460Y387500D01*
X45000D01*
Y391040D01*
D02*
G37*
G36*
X15000D02*
X14437Y390966D01*
X13447Y390556D01*
X12597Y389903D01*
X11944Y389053D01*
X11534Y388063D01*
X11460Y387500D01*
X15000D01*
Y391040D01*
D02*
G37*
G36*
X49540Y386500D02*
X46000D01*
Y382960D01*
X46563Y383034D01*
X47553Y383444D01*
X48403Y384097D01*
X49056Y384947D01*
X49466Y385937D01*
X49540Y386500D01*
D02*
G37*
G36*
X19540D02*
X16000D01*
Y382960D01*
X16563Y383034D01*
X17553Y383444D01*
X18403Y384097D01*
X19056Y384947D01*
X19466Y385937D01*
X19540Y386500D01*
D02*
G37*
G36*
X15000D02*
X11460D01*
X11534Y385937D01*
X11944Y384947D01*
X12597Y384097D01*
X13447Y383444D01*
X14437Y383034D01*
X15000Y382960D01*
Y386500D01*
D02*
G37*
G36*
X45000D02*
X41460D01*
X41534Y385937D01*
X41944Y384947D01*
X42597Y384097D01*
X43447Y383444D01*
X44437Y383034D01*
X45000Y382960D01*
Y386500D01*
D02*
G37*
G36*
X374016Y385879D02*
X372160Y385733D01*
X370350Y385298D01*
X368630Y384586D01*
X367043Y383613D01*
X365627Y382404D01*
X364418Y380989D01*
X363445Y379402D01*
X362733Y377682D01*
X362298Y375872D01*
X362152Y374016D01*
X362298Y372160D01*
X362733Y370350D01*
X363445Y368630D01*
X364418Y367043D01*
X365627Y365627D01*
X367043Y364418D01*
X368630Y363445D01*
X370350Y362733D01*
X372160Y362298D01*
X374016Y362152D01*
X375872Y362298D01*
X377682Y362733D01*
X379402Y363445D01*
X380989Y364418D01*
X382404Y365627D01*
X383613Y367043D01*
X384586Y368630D01*
X385298Y370350D01*
X385733Y372160D01*
X385879Y374016D01*
X385733Y375872D01*
X385298Y377682D01*
X384586Y379402D01*
X383613Y380989D01*
X382404Y382404D01*
X380989Y383613D01*
X379402Y384586D01*
X377682Y385298D01*
X375872Y385733D01*
X374016Y385879D01*
D02*
G37*
G36*
X19685Y348863D02*
X17829Y348717D01*
X16019Y348283D01*
X14299Y347570D01*
X12712Y346598D01*
X11296Y345389D01*
X10087Y343973D01*
X9115Y342386D01*
X8402Y340666D01*
X7968Y338856D01*
X7822Y337000D01*
X7968Y335144D01*
X8402Y333334D01*
X9115Y331614D01*
X10087Y330027D01*
X11296Y328611D01*
X12712Y327402D01*
X14299Y326430D01*
X16019Y325717D01*
X17829Y325283D01*
X19685Y325137D01*
X21541Y325283D01*
X23351Y325717D01*
X25071Y326430D01*
X26658Y327402D01*
X28074Y328611D01*
X29283Y330027D01*
X30255Y331614D01*
X30968Y333334D01*
X31402Y335144D01*
X31548Y337000D01*
X31402Y338856D01*
X30968Y340666D01*
X30255Y342386D01*
X29283Y343973D01*
X28074Y345389D01*
X26658Y346598D01*
X25071Y347570D01*
X23351Y348283D01*
X21541Y348717D01*
X19685Y348863D01*
D02*
G37*
G36*
X248150Y323800D02*
X247000D01*
Y321000D01*
X249800D01*
Y322150D01*
X248150Y323800D01*
D02*
G37*
G36*
X246000D02*
X244850D01*
X243200Y322150D01*
Y321000D01*
X246000D01*
Y323800D01*
D02*
G37*
G36*
X249800Y320000D02*
X246500D01*
X243200D01*
Y318850D01*
X244332Y317718D01*
X244204Y317139D01*
X243444Y316556D01*
X242758Y315661D01*
X242326Y314618D01*
X242179Y313500D01*
X242326Y312382D01*
X242758Y311339D01*
X243444Y310444D01*
X244339Y309758D01*
X245382Y309326D01*
X246500Y309179D01*
X247618Y309326D01*
X248661Y309758D01*
X249556Y310444D01*
X250242Y311339D01*
X250674Y312382D01*
X250821Y313500D01*
X250674Y314618D01*
X250242Y315661D01*
X249556Y316556D01*
X248796Y317139D01*
X248668Y317718D01*
X249800Y318850D01*
Y320000D01*
D02*
G37*
G36*
X289662Y305324D02*
X288500D01*
Y302500D01*
X291324D01*
Y303662D01*
X289662Y305324D01*
D02*
G37*
G36*
X287500D02*
X286338D01*
X284676Y303662D01*
Y302500D01*
X287500D01*
Y305324D01*
D02*
G37*
G36*
X291324Y301500D02*
X288500D01*
Y298676D01*
X289662D01*
X291324Y300338D01*
Y301500D01*
D02*
G37*
G36*
X287500D02*
X284676D01*
Y300338D01*
X286338Y298676D01*
X287500D01*
Y301500D01*
D02*
G37*
G36*
X295154Y298808D02*
X290846D01*
X288692Y296654D01*
Y292346D01*
X290846Y290192D01*
X295154D01*
X297308Y292346D01*
Y296654D01*
X295154Y298808D01*
D02*
G37*
G36*
X285154D02*
X280846D01*
X278692Y296654D01*
Y292346D01*
X280846Y290192D01*
X285154D01*
X287308Y292346D01*
Y296654D01*
X285154Y298808D01*
D02*
G37*
G36*
X175500Y292099D02*
X174180Y291925D01*
X172951Y291416D01*
X171895Y290605D01*
X171084Y289549D01*
X170771Y288792D01*
X170229D01*
X169916Y289549D01*
X169105Y290605D01*
X168049Y291416D01*
X166820Y291925D01*
X165500Y292099D01*
X164180Y291925D01*
X162951Y291416D01*
X161895Y290605D01*
X161084Y289549D01*
X160771Y288792D01*
X160229D01*
X159916Y289549D01*
X159105Y290605D01*
X158049Y291416D01*
X156820Y291925D01*
X155500Y292099D01*
X154180Y291925D01*
X152951Y291416D01*
X151895Y290605D01*
X151084Y289549D01*
X150771Y288792D01*
X150229D01*
X149916Y289549D01*
X149105Y290605D01*
X148049Y291416D01*
X146820Y291925D01*
X145500Y292099D01*
X144180Y291925D01*
X142951Y291416D01*
X141895Y290605D01*
X141084Y289549D01*
X140771Y288792D01*
X140229D01*
X139916Y289549D01*
X139105Y290605D01*
X138049Y291416D01*
X136820Y291925D01*
X135500Y292099D01*
X134180Y291925D01*
X132951Y291416D01*
X131895Y290605D01*
X131084Y289549D01*
X130771Y288792D01*
X130229D01*
X129916Y289549D01*
X129105Y290605D01*
X128049Y291416D01*
X126820Y291925D01*
X125500Y292099D01*
X124180Y291925D01*
X122951Y291416D01*
X121895Y290605D01*
X121084Y289549D01*
X120771Y288792D01*
X120229D01*
X119916Y289549D01*
X119105Y290605D01*
X118049Y291416D01*
X116820Y291925D01*
X115500Y292099D01*
X114180Y291925D01*
X112951Y291416D01*
X111895Y290605D01*
X111084Y289549D01*
X110771Y288792D01*
X110229D01*
X109916Y289549D01*
X109105Y290605D01*
X108049Y291416D01*
X106820Y291925D01*
X105500Y292099D01*
X104180Y291925D01*
X102951Y291416D01*
X101895Y290605D01*
X101084Y289549D01*
X100771Y288792D01*
X100229D01*
X99916Y289549D01*
X99105Y290605D01*
X98049Y291416D01*
X96820Y291925D01*
X95500Y292099D01*
X94180Y291925D01*
X92951Y291416D01*
X91895Y290605D01*
X91084Y289549D01*
X90771Y288792D01*
X90229D01*
X89916Y289549D01*
X89105Y290605D01*
X88049Y291416D01*
X86820Y291925D01*
X85500Y292099D01*
X84180Y291925D01*
X82951Y291416D01*
X81895Y290605D01*
X81084Y289549D01*
X80771Y288792D01*
X80229D01*
X79916Y289549D01*
X79105Y290605D01*
X78049Y291416D01*
X76820Y291925D01*
X75500Y292099D01*
X74180Y291925D01*
X72951Y291416D01*
X71895Y290605D01*
X71084Y289549D01*
X70771Y288792D01*
X70229D01*
X69916Y289549D01*
X69105Y290605D01*
X68049Y291416D01*
X66820Y291925D01*
X65500Y292099D01*
X64180Y291925D01*
X62951Y291416D01*
X61895Y290605D01*
X61084Y289549D01*
X60771Y288792D01*
X60229D01*
X59916Y289549D01*
X59105Y290605D01*
X58049Y291416D01*
X56820Y291925D01*
X55500Y292099D01*
X54180Y291925D01*
X52951Y291416D01*
X51895Y290605D01*
X51084Y289549D01*
X50575Y288320D01*
X50401Y287000D01*
X50575Y285680D01*
X51084Y284451D01*
X51895Y283395D01*
X52951Y282584D01*
X54180Y282075D01*
X55500Y281901D01*
X56820Y282075D01*
X58049Y282584D01*
X59105Y283395D01*
X59916Y284451D01*
X60229Y285208D01*
X60771D01*
X61084Y284451D01*
X61895Y283395D01*
X62951Y282584D01*
X64180Y282075D01*
X65500Y281901D01*
X66820Y282075D01*
X68049Y282584D01*
X69105Y283395D01*
X69916Y284451D01*
X70229Y285208D01*
X70771D01*
X71084Y284451D01*
X71895Y283395D01*
X72951Y282584D01*
X74180Y282075D01*
X75500Y281901D01*
X76820Y282075D01*
X78049Y282584D01*
X79105Y283395D01*
X79916Y284451D01*
X80229Y285208D01*
X80771D01*
X81084Y284451D01*
X81895Y283395D01*
X82951Y282584D01*
X84180Y282075D01*
X85500Y281901D01*
X86820Y282075D01*
X88049Y282584D01*
X89105Y283395D01*
X89916Y284451D01*
X90229Y285208D01*
X90771D01*
X91084Y284451D01*
X91895Y283395D01*
X92951Y282584D01*
X94180Y282075D01*
X95500Y281901D01*
X96820Y282075D01*
X98049Y282584D01*
X99105Y283395D01*
X99916Y284451D01*
X100229Y285208D01*
X100771D01*
X101084Y284451D01*
X101895Y283395D01*
X102951Y282584D01*
X104180Y282075D01*
X105500Y281901D01*
X106820Y282075D01*
X108049Y282584D01*
X109105Y283395D01*
X109916Y284451D01*
X110229Y285208D01*
X110771D01*
X111084Y284451D01*
X111895Y283395D01*
X112951Y282584D01*
X114180Y282075D01*
X115500Y281901D01*
X116820Y282075D01*
X118049Y282584D01*
X119105Y283395D01*
X119916Y284451D01*
X120229Y285208D01*
X120771D01*
X121084Y284451D01*
X121895Y283395D01*
X122951Y282584D01*
X124180Y282075D01*
X125500Y281901D01*
X126820Y282075D01*
X128049Y282584D01*
X129105Y283395D01*
X129916Y284451D01*
X130229Y285208D01*
X130771D01*
X131084Y284451D01*
X131895Y283395D01*
X132951Y282584D01*
X134180Y282075D01*
X135500Y281901D01*
X136820Y282075D01*
X138049Y282584D01*
X139105Y283395D01*
X139916Y284451D01*
X140229Y285208D01*
X140771D01*
X141084Y284451D01*
X141895Y283395D01*
X142951Y282584D01*
X144180Y282075D01*
X145500Y281901D01*
X146820Y282075D01*
X148049Y282584D01*
X149105Y283395D01*
X149916Y284451D01*
X150229Y285208D01*
X150771D01*
X151084Y284451D01*
X151895Y283395D01*
X152951Y282584D01*
X154180Y282075D01*
X155500Y281901D01*
X156820Y282075D01*
X158049Y282584D01*
X159105Y283395D01*
X159916Y284451D01*
X160229Y285208D01*
X160771D01*
X161084Y284451D01*
X161895Y283395D01*
X162951Y282584D01*
X164180Y282075D01*
X165500Y281901D01*
X166820Y282075D01*
X168049Y282584D01*
X169105Y283395D01*
X169916Y284451D01*
X170229Y285208D01*
X170771D01*
X171084Y284451D01*
X171895Y283395D01*
X172951Y282584D01*
X174180Y282075D01*
X175500Y281901D01*
X176820Y282075D01*
X178049Y282584D01*
X179105Y283395D01*
X179916Y284451D01*
X180425Y285680D01*
X180599Y287000D01*
X180425Y288320D01*
X179916Y289549D01*
X179105Y290605D01*
X178049Y291416D01*
X176820Y291925D01*
X175500Y292099D01*
D02*
G37*
G36*
X46000Y291040D02*
Y287500D01*
X49540D01*
X49466Y288063D01*
X49056Y289053D01*
X48403Y289903D01*
X47553Y290556D01*
X46563Y290966D01*
X46000Y291040D01*
D02*
G37*
G36*
X45000D02*
X44437Y290966D01*
X43447Y290556D01*
X42597Y289903D01*
X41944Y289053D01*
X41534Y288063D01*
X41460Y287500D01*
X45000D01*
Y291040D01*
D02*
G37*
G36*
X49540Y286500D02*
X46000D01*
Y282960D01*
X46563Y283034D01*
X47553Y283444D01*
X48403Y284097D01*
X49056Y284947D01*
X49466Y285937D01*
X49540Y286500D01*
D02*
G37*
G36*
X45000D02*
X41460D01*
X41534Y285937D01*
X41944Y284947D01*
X42597Y284097D01*
X43447Y283444D01*
X44437Y283034D01*
X45000Y282960D01*
Y286500D01*
D02*
G37*
G36*
X272650Y278300D02*
X271500D01*
Y275500D01*
X274300D01*
Y276650D01*
X272650Y278300D01*
D02*
G37*
G36*
X274300Y274500D02*
X271500D01*
Y271700D01*
X272650D01*
X274300Y273350D01*
Y274500D01*
D02*
G37*
G36*
X197500Y274178D02*
X196160Y274002D01*
X194911Y273484D01*
X193839Y272661D01*
X193016Y271589D01*
X192750Y270948D01*
X192250D01*
X191984Y271589D01*
X191162Y272661D01*
X190089Y273484D01*
X188840Y274002D01*
X187500Y274178D01*
X186160Y274002D01*
X184911Y273484D01*
X183838Y272661D01*
X183016Y271589D01*
X182750Y270948D01*
X182250D01*
X181984Y271589D01*
X181161Y272661D01*
X180089Y273484D01*
X178840Y274002D01*
X177500Y274178D01*
X176160Y274002D01*
X174911Y273484D01*
X173838Y272661D01*
X173016Y271589D01*
X172750Y270948D01*
X172250D01*
X171984Y271589D01*
X171161Y272661D01*
X170089Y273484D01*
X168840Y274002D01*
X167500Y274178D01*
X166160Y274002D01*
X164911Y273484D01*
X163839Y272661D01*
X163016Y271589D01*
X162750Y270948D01*
X162250D01*
X161984Y271589D01*
X161161Y272661D01*
X160089Y273484D01*
X158840Y274002D01*
X157500Y274178D01*
X156160Y274002D01*
X154911Y273484D01*
X153839Y272661D01*
X153016Y271589D01*
X152750Y270948D01*
X152250D01*
X151984Y271589D01*
X151162Y272661D01*
X150089Y273484D01*
X148840Y274002D01*
X147500Y274178D01*
X146160Y274002D01*
X144911Y273484D01*
X143839Y272661D01*
X143016Y271589D01*
X142750Y270948D01*
X142250D01*
X141984Y271589D01*
X141162Y272661D01*
X140089Y273484D01*
X138840Y274002D01*
X137500Y274178D01*
X136160Y274002D01*
X134911Y273484D01*
X133838Y272661D01*
X133016Y271589D01*
X132750Y270948D01*
X132250D01*
X131984Y271589D01*
X131161Y272661D01*
X130089Y273484D01*
X128840Y274002D01*
X127500Y274178D01*
X126160Y274002D01*
X124911Y273484D01*
X123838Y272661D01*
X123016Y271589D01*
X122498Y270340D01*
X122322Y269000D01*
X122498Y267660D01*
X123016Y266411D01*
X123838Y265338D01*
X124911Y264516D01*
X126160Y263998D01*
X127500Y263822D01*
X128840Y263998D01*
X130089Y264516D01*
X131161Y265338D01*
X131984Y266411D01*
X132250Y267052D01*
X132750D01*
X133016Y266411D01*
X133838Y265338D01*
X134911Y264516D01*
X136160Y263998D01*
X137500Y263822D01*
X138840Y263998D01*
X140089Y264516D01*
X141162Y265338D01*
X141984Y266411D01*
X142250Y267052D01*
X142750D01*
X143016Y266411D01*
X143839Y265338D01*
X144911Y264516D01*
X146160Y263998D01*
X147500Y263822D01*
X148840Y263998D01*
X150089Y264516D01*
X151162Y265338D01*
X151984Y266411D01*
X152250Y267052D01*
X152750D01*
X153016Y266411D01*
X153839Y265338D01*
X154911Y264516D01*
X156160Y263998D01*
X157500Y263822D01*
X158840Y263998D01*
X160089Y264516D01*
X161161Y265338D01*
X161984Y266411D01*
X162250Y267052D01*
X162750D01*
X163016Y266411D01*
X163839Y265338D01*
X164911Y264516D01*
X166160Y263998D01*
X167500Y263822D01*
X168840Y263998D01*
X170089Y264516D01*
X171161Y265338D01*
X171984Y266411D01*
X172250Y267052D01*
X172750D01*
X173016Y266411D01*
X173838Y265338D01*
X174911Y264516D01*
X176160Y263998D01*
X177500Y263822D01*
X178840Y263998D01*
X180089Y264516D01*
X181161Y265338D01*
X181984Y266411D01*
X182250Y267052D01*
X182750D01*
X183016Y266411D01*
X183838Y265338D01*
X184911Y264516D01*
X186160Y263998D01*
X187500Y263822D01*
X188840Y263998D01*
X190089Y264516D01*
X191162Y265338D01*
X191984Y266411D01*
X192250Y267052D01*
X192750D01*
X193016Y266411D01*
X193839Y265338D01*
X194911Y264516D01*
X196160Y263998D01*
X197500Y263822D01*
X198840Y263998D01*
X200089Y264516D01*
X201162Y265338D01*
X201984Y266411D01*
X202502Y267660D01*
X202678Y269000D01*
X202502Y270340D01*
X201984Y271589D01*
X201162Y272661D01*
X200089Y273484D01*
X198840Y274002D01*
X197500Y274178D01*
D02*
G37*
G36*
X208000Y273120D02*
Y269500D01*
X211620D01*
X211543Y270083D01*
X211125Y271093D01*
X210459Y271959D01*
X209593Y272625D01*
X208583Y273043D01*
X208000Y273120D01*
D02*
G37*
G36*
X207000D02*
X206417Y273043D01*
X205407Y272625D01*
X204540Y271959D01*
X203875Y271093D01*
X203457Y270083D01*
X203380Y269500D01*
X207000D01*
Y273120D01*
D02*
G37*
G36*
X211620Y268500D02*
X208000D01*
Y264880D01*
X208583Y264957D01*
X209593Y265375D01*
X210459Y266040D01*
X211125Y266907D01*
X211543Y267917D01*
X211620Y268500D01*
D02*
G37*
G36*
X207000D02*
X203380D01*
X203457Y267917D01*
X203875Y266907D01*
X204540Y266040D01*
X205407Y265375D01*
X206417Y264957D01*
X207000Y264880D01*
Y268500D01*
D02*
G37*
G36*
X40500Y229014D02*
X39590Y228895D01*
X38743Y228543D01*
X38015Y227985D01*
X37457Y227257D01*
X37105Y226410D01*
X36986Y225500D01*
X37105Y224590D01*
X37457Y223743D01*
X37742Y223371D01*
Y213000D01*
X37836Y212286D01*
X38112Y211621D01*
X38550Y211050D01*
X41742Y207858D01*
Y193599D01*
X41608Y193275D01*
X41506Y192500D01*
X41608Y191725D01*
X41907Y191003D01*
X42383Y190383D01*
X43003Y189907D01*
X43725Y189608D01*
X44500Y189506D01*
X45275Y189608D01*
X45997Y189907D01*
X46617Y190383D01*
X47093Y191003D01*
X47392Y191725D01*
X47494Y192500D01*
X47392Y193275D01*
X47258Y193599D01*
Y209000D01*
X47164Y209714D01*
X46888Y210379D01*
X46450Y210950D01*
X46450Y210950D01*
X43258Y214142D01*
Y223371D01*
X43543Y223743D01*
X43895Y224590D01*
X44014Y225500D01*
X43895Y226410D01*
X43543Y227257D01*
X42985Y227985D01*
X42257Y228543D01*
X41410Y228895D01*
X40500Y229014D01*
D02*
G37*
G36*
X38500Y139987D02*
X37468Y139851D01*
X36507Y139453D01*
X35681Y138819D01*
X35047Y137993D01*
X34649Y137032D01*
X34513Y136000D01*
X34649Y134968D01*
X35047Y134007D01*
X35681Y133181D01*
X36507Y132547D01*
X37468Y132149D01*
X38500Y132013D01*
X39532Y132149D01*
X40493Y132547D01*
X41319Y133181D01*
X41953Y134007D01*
X42351Y134968D01*
X42487Y136000D01*
X42351Y137032D01*
X41953Y137993D01*
X41319Y138819D01*
X40493Y139453D01*
X39532Y139851D01*
X38500Y139987D01*
D02*
G37*
G36*
X18500Y129987D02*
X17468Y129851D01*
X16507Y129453D01*
X15681Y128819D01*
X15047Y127993D01*
X14649Y127032D01*
X14513Y126000D01*
X14649Y124968D01*
X15047Y124007D01*
X15681Y123181D01*
X16507Y122547D01*
X17468Y122149D01*
X18500Y122013D01*
X19532Y122149D01*
X20493Y122547D01*
X21319Y123181D01*
X21953Y124007D01*
X22351Y124968D01*
X22487Y126000D01*
X22351Y127032D01*
X21953Y127993D01*
X21319Y128819D01*
X20493Y129453D01*
X19532Y129851D01*
X18500Y129987D01*
D02*
G37*
G36*
X38500Y119987D02*
X37468Y119851D01*
X36507Y119453D01*
X35681Y118819D01*
X35047Y117993D01*
X34649Y117032D01*
X34513Y116000D01*
X34649Y114968D01*
X35047Y114007D01*
X35681Y113181D01*
X36507Y112547D01*
X37468Y112149D01*
X38500Y112013D01*
X39532Y112149D01*
X40493Y112547D01*
X41319Y113181D01*
X41953Y114007D01*
X42351Y114968D01*
X42487Y116000D01*
X42351Y117032D01*
X41953Y117993D01*
X41319Y118819D01*
X40493Y119453D01*
X39532Y119851D01*
X38500Y119987D01*
D02*
G37*
G36*
X286575Y23274D02*
X283425D01*
X281931Y23077D01*
X280538Y22500D01*
X279343Y21583D01*
X278425Y20387D01*
X277848Y18994D01*
X277651Y17500D01*
X277848Y16006D01*
X278425Y14613D01*
X279343Y13417D01*
X280538Y12500D01*
X281931Y11923D01*
X283425Y11726D01*
X286575D01*
X288069Y11923D01*
X289462Y12500D01*
X290657Y13417D01*
X291575Y14613D01*
X292152Y16006D01*
X292349Y17500D01*
X292152Y18994D01*
X291575Y20387D01*
X290657Y21583D01*
X289462Y22500D01*
X288069Y23077D01*
X286575Y23274D01*
D02*
G37*
G36*
X98575Y22774D02*
X95425D01*
X93931Y22577D01*
X92538Y22000D01*
X91343Y21083D01*
X90425Y19887D01*
X89848Y18494D01*
X89651Y17000D01*
X89848Y15506D01*
X90425Y14113D01*
X91343Y12917D01*
X92538Y12000D01*
X93931Y11423D01*
X95425Y11226D01*
X98575D01*
X100069Y11423D01*
X101462Y12000D01*
X102657Y12917D01*
X103575Y14113D01*
X104152Y15506D01*
X104349Y17000D01*
X104152Y18494D01*
X103575Y19887D01*
X102657Y21083D01*
X101462Y22000D01*
X100069Y22577D01*
X98575Y22774D01*
D02*
G37*
G36*
X374016Y31548D02*
X372160Y31402D01*
X370350Y30968D01*
X368630Y30255D01*
X367043Y29283D01*
X365627Y28074D01*
X364418Y26658D01*
X363445Y25071D01*
X362733Y23351D01*
X362298Y21541D01*
X362152Y19685D01*
X362298Y17829D01*
X362733Y16019D01*
X363445Y14299D01*
X364418Y12712D01*
X365627Y11296D01*
X367043Y10087D01*
X368630Y9115D01*
X370350Y8402D01*
X372160Y7968D01*
X374016Y7822D01*
X375872Y7968D01*
X377682Y8402D01*
X379402Y9115D01*
X380989Y10087D01*
X382404Y11296D01*
X383613Y12712D01*
X384586Y14299D01*
X385298Y16019D01*
X385733Y17829D01*
X385879Y19685D01*
X385733Y21541D01*
X385298Y23351D01*
X384586Y25071D01*
X383613Y26658D01*
X382404Y28074D01*
X380989Y29283D01*
X379402Y30255D01*
X377682Y30968D01*
X375872Y31402D01*
X374016Y31548D01*
D02*
G37*
G36*
X19685D02*
X17829Y31402D01*
X16019Y30968D01*
X14299Y30255D01*
X12712Y29283D01*
X11296Y28074D01*
X10087Y26658D01*
X9115Y25071D01*
X8402Y23351D01*
X7968Y21541D01*
X7822Y19685D01*
X7968Y17829D01*
X8402Y16019D01*
X9115Y14299D01*
X10087Y12712D01*
X11296Y11296D01*
X12712Y10087D01*
X14299Y9115D01*
X16019Y8402D01*
X17829Y7968D01*
X19685Y7822D01*
X21541Y7968D01*
X23351Y8402D01*
X25071Y9115D01*
X26658Y10087D01*
X28074Y11296D01*
X29283Y12712D01*
X30255Y14299D01*
X30968Y16019D01*
X31402Y17829D01*
X31548Y19685D01*
X31402Y21541D01*
X30968Y23351D01*
X30255Y25071D01*
X29283Y26658D01*
X28074Y28074D01*
X26658Y29283D01*
X25071Y30255D01*
X23351Y30968D01*
X21541Y31402D01*
X19685Y31548D01*
D02*
G37*
G36*
X304685Y22281D02*
X303448Y22118D01*
X302294Y21641D01*
X301304Y20881D01*
X300545Y19891D01*
X300067Y18737D01*
X299904Y17500D01*
X300067Y16263D01*
X300545Y15110D01*
X301304Y14119D01*
X302294Y13360D01*
X303448Y12882D01*
X303835Y12831D01*
Y12327D01*
X303448Y12276D01*
X302294Y11798D01*
X301304Y11038D01*
X300545Y10048D01*
X300067Y8895D01*
X299904Y7658D01*
X300067Y6420D01*
X300545Y5267D01*
X301304Y4277D01*
X302294Y3517D01*
X303448Y3039D01*
X304685Y2876D01*
X305923Y3039D01*
X307076Y3517D01*
X308066Y4277D01*
X308826Y5267D01*
X309303Y6420D01*
X309466Y7658D01*
X309303Y8895D01*
X308826Y10048D01*
X308066Y11038D01*
X307076Y11798D01*
X305923Y12276D01*
X305535Y12327D01*
Y12831D01*
X305923Y12882D01*
X307076Y13360D01*
X308066Y14119D01*
X308826Y15110D01*
X309303Y16263D01*
X309466Y17500D01*
X309303Y18737D01*
X308826Y19891D01*
X308066Y20881D01*
X307076Y21641D01*
X305923Y22118D01*
X304685Y22281D01*
D02*
G37*
G36*
X265315D02*
X264077Y22118D01*
X262924Y21641D01*
X261934Y20881D01*
X261174Y19891D01*
X260697Y18737D01*
X260534Y17500D01*
X260697Y16263D01*
X261174Y15110D01*
X261934Y14119D01*
X262924Y13360D01*
X264077Y12882D01*
X264465Y12831D01*
Y12327D01*
X264077Y12276D01*
X262924Y11798D01*
X261934Y11038D01*
X261174Y10048D01*
X260697Y8895D01*
X260534Y7658D01*
X260697Y6420D01*
X261174Y5267D01*
X261934Y4277D01*
X262924Y3517D01*
X264077Y3039D01*
X265315Y2876D01*
X266552Y3039D01*
X267705Y3517D01*
X268696Y4277D01*
X269456Y5267D01*
X269933Y6420D01*
X270096Y7658D01*
X269933Y8895D01*
X269456Y10048D01*
X268696Y11038D01*
X267705Y11798D01*
X266552Y12276D01*
X266165Y12327D01*
Y12831D01*
X266552Y12882D01*
X267705Y13360D01*
X268696Y14119D01*
X269456Y15110D01*
X269933Y16263D01*
X270096Y17500D01*
X269933Y18737D01*
X269456Y19891D01*
X268696Y20881D01*
X267705Y21641D01*
X266552Y22118D01*
X265315Y22281D01*
D02*
G37*
G36*
X116685Y21781D02*
X115448Y21618D01*
X114295Y21140D01*
X113304Y20381D01*
X112545Y19390D01*
X112067Y18237D01*
X111904Y17000D01*
X112067Y15763D01*
X112545Y14609D01*
X113304Y13619D01*
X114295Y12859D01*
X115448Y12382D01*
X115835Y12331D01*
Y11827D01*
X115448Y11776D01*
X114295Y11298D01*
X113304Y10538D01*
X112545Y9548D01*
X112067Y8395D01*
X111904Y7158D01*
X112067Y5920D01*
X112545Y4767D01*
X113304Y3777D01*
X114295Y3017D01*
X115448Y2539D01*
X116685Y2376D01*
X117922Y2539D01*
X119076Y3017D01*
X120066Y3777D01*
X120826Y4767D01*
X121303Y5920D01*
X121466Y7158D01*
X121303Y8395D01*
X120826Y9548D01*
X120066Y10538D01*
X119076Y11298D01*
X117922Y11776D01*
X117535Y11827D01*
Y12331D01*
X117922Y12382D01*
X119076Y12859D01*
X120066Y13619D01*
X120826Y14609D01*
X121303Y15763D01*
X121466Y17000D01*
X121303Y18237D01*
X120826Y19390D01*
X120066Y20381D01*
X119076Y21140D01*
X117922Y21618D01*
X116685Y21781D01*
D02*
G37*
G36*
X77315D02*
X76078Y21618D01*
X74924Y21140D01*
X73934Y20381D01*
X73175Y19390D01*
X72697Y18237D01*
X72534Y17000D01*
X72697Y15763D01*
X73175Y14609D01*
X73934Y13619D01*
X74924Y12859D01*
X76078Y12382D01*
X76465Y12331D01*
Y11827D01*
X76078Y11776D01*
X74924Y11298D01*
X73934Y10538D01*
X73175Y9548D01*
X72697Y8395D01*
X72534Y7158D01*
X72697Y5920D01*
X73175Y4767D01*
X73934Y3777D01*
X74924Y3017D01*
X76078Y2539D01*
X77315Y2376D01*
X78552Y2539D01*
X79706Y3017D01*
X80696Y3777D01*
X81455Y4767D01*
X81933Y5920D01*
X82096Y7158D01*
X81933Y8395D01*
X81455Y9548D01*
X80696Y10538D01*
X79706Y11298D01*
X78552Y11776D01*
X78165Y11827D01*
Y12331D01*
X78552Y12382D01*
X79706Y12859D01*
X80696Y13619D01*
X81455Y14609D01*
X81933Y15763D01*
X82096Y17000D01*
X81933Y18237D01*
X81455Y19390D01*
X80696Y20381D01*
X79706Y21140D01*
X78552Y21618D01*
X77315Y21781D01*
D02*
G37*
G36*
X92500Y199014D02*
X91590Y198895D01*
X90743Y198544D01*
X90015Y197985D01*
X89456Y197257D01*
X89105Y196410D01*
X88986Y195500D01*
X89105Y194590D01*
X89456Y193743D01*
X90015Y193015D01*
X90743Y192456D01*
X91590Y192105D01*
X92500Y191986D01*
X93410Y192105D01*
X94257Y192456D01*
X94301Y192490D01*
X112216D01*
X130598Y174108D01*
X130605Y174053D01*
X130956Y173205D01*
X131515Y172478D01*
X132243Y171919D01*
X133090Y171568D01*
X134000Y171448D01*
X134910Y171568D01*
X135757Y171919D01*
X136485Y172478D01*
X137043Y173205D01*
X137395Y174053D01*
X137514Y174963D01*
X137395Y175872D01*
X137043Y176720D01*
X136485Y177448D01*
X135757Y178006D01*
X134910Y178357D01*
X134855Y178364D01*
X115591Y197628D01*
X114968Y198107D01*
X114242Y198407D01*
X113463Y198510D01*
X94301D01*
X94257Y198544D01*
X93410Y198895D01*
X92500Y199014D01*
D02*
G37*
G36*
X228000Y220514D02*
X227090Y220395D01*
X226243Y220043D01*
X225515Y219485D01*
X224956Y218757D01*
X224605Y217910D01*
X224486Y217000D01*
X224605Y216090D01*
X224956Y215243D01*
X225515Y214515D01*
X226243Y213956D01*
X227090Y213605D01*
X228000Y213486D01*
X228910Y213605D01*
X229757Y213956D01*
X229801Y213990D01*
X250253D01*
X268372Y195872D01*
X268995Y195393D01*
X269721Y195093D01*
X270500Y194990D01*
X284699D01*
X284743Y194957D01*
X285590Y194605D01*
X286500Y194486D01*
X287410Y194605D01*
X288257Y194957D01*
X288985Y195515D01*
X289544Y196243D01*
X289895Y197090D01*
X290014Y198000D01*
X289895Y198910D01*
X289544Y199757D01*
X288985Y200485D01*
X288257Y201044D01*
X287410Y201395D01*
X286500Y201514D01*
X285590Y201395D01*
X284743Y201044D01*
X284699Y201010D01*
X271747D01*
X253628Y219128D01*
X253005Y219607D01*
X252279Y219907D01*
X251500Y220010D01*
X229801D01*
X229757Y220043D01*
X228910Y220395D01*
X228000Y220514D01*
D02*
G37*
G36*
X256500Y193514D02*
X255590Y193395D01*
X254743Y193043D01*
X254699Y193010D01*
X235301D01*
X235257Y193043D01*
X234410Y193395D01*
X233500Y193514D01*
X232590Y193395D01*
X231743Y193043D01*
X231015Y192485D01*
X230456Y191757D01*
X230105Y190910D01*
X229986Y190000D01*
X230105Y189090D01*
X230456Y188243D01*
X231015Y187515D01*
X231743Y186957D01*
X232590Y186605D01*
X233500Y186486D01*
X234410Y186605D01*
X235257Y186957D01*
X235301Y186990D01*
X254699D01*
X254743Y186957D01*
X255590Y186605D01*
X256500Y186486D01*
X257410Y186605D01*
X258257Y186957D01*
X258985Y187515D01*
X259543Y188243D01*
X259895Y189090D01*
X260014Y190000D01*
X259895Y190910D01*
X259543Y191757D01*
X258985Y192485D01*
X258257Y193043D01*
X257410Y193395D01*
X256500Y193514D01*
D02*
G37*
G36*
X198000Y170428D02*
Y168000D01*
X200428D01*
X200392Y168275D01*
X200093Y168997D01*
X199617Y169617D01*
X198997Y170093D01*
X198275Y170392D01*
X198000Y170428D01*
D02*
G37*
G36*
X197000D02*
X196725Y170392D01*
X196003Y170093D01*
X195383Y169617D01*
X194907Y168997D01*
X194608Y168275D01*
X194572Y168000D01*
X197000D01*
Y170428D01*
D02*
G37*
G36*
X200428Y167000D02*
X198000D01*
Y164572D01*
X198275Y164608D01*
X198997Y164907D01*
X199617Y165383D01*
X200093Y166003D01*
X200392Y166725D01*
X200428Y167000D01*
D02*
G37*
G36*
X197000D02*
X194572D01*
X194608Y166725D01*
X194907Y166003D01*
X195383Y165383D01*
X196003Y164907D01*
X196725Y164608D01*
X197000Y164572D01*
Y167000D01*
D02*
G37*
G36*
X218000Y160428D02*
Y158000D01*
X220428D01*
X220392Y158275D01*
X220093Y158997D01*
X219617Y159617D01*
X218997Y160093D01*
X218275Y160392D01*
X218000Y160428D01*
D02*
G37*
G36*
X217000D02*
X216725Y160392D01*
X216003Y160093D01*
X215383Y159617D01*
X214907Y158997D01*
X214608Y158275D01*
X214572Y158000D01*
X217000D01*
Y160428D01*
D02*
G37*
G36*
X220428Y157000D02*
X218000D01*
Y154572D01*
X218275Y154608D01*
X218997Y154907D01*
X219617Y155383D01*
X220093Y156003D01*
X220392Y156725D01*
X220428Y157000D01*
D02*
G37*
G36*
X217000D02*
X214572D01*
X214608Y156725D01*
X214907Y156003D01*
X215383Y155383D01*
X216003Y154907D01*
X216725Y154608D01*
X217000Y154572D01*
Y157000D01*
D02*
G37*
G36*
X197500Y151487D02*
X196468Y151351D01*
X195507Y150953D01*
X194681Y150319D01*
X194047Y149493D01*
X193649Y148532D01*
X193513Y147500D01*
X193649Y146468D01*
X194047Y145507D01*
X194681Y144681D01*
X195507Y144047D01*
X196468Y143649D01*
X197500Y143513D01*
X198532Y143649D01*
X199493Y144047D01*
X200319Y144681D01*
X200953Y145507D01*
X201351Y146468D01*
X201487Y147500D01*
X201351Y148532D01*
X200953Y149493D01*
X200319Y150319D01*
X199493Y150953D01*
X198532Y151351D01*
X197500Y151487D01*
D02*
G37*
%LPD*%
D14*
X40500Y213000D02*
X44500Y209000D01*
Y192500D02*
Y209000D01*
X40500Y213000D02*
Y225500D01*
X59000Y235500D02*
X70500D01*
X76500Y229500D01*
D49*
X307500Y164000D02*
X353500D01*
X196500Y110500D02*
X203343Y103657D01*
X21000Y136500D02*
X30000Y127500D01*
X39000Y57000D02*
X77000Y95000D01*
X39000Y57000D02*
X75000D01*
X14500D02*
X39000D01*
X40500Y127500D02*
X47500D01*
X30000D02*
X40500D01*
X217500Y260500D02*
Y269000D01*
X199000Y242000D02*
X217500Y260500D01*
X252000Y248000D02*
X252250Y248250D01*
X237000Y248000D02*
X252000D01*
X263500Y274500D02*
Y303000D01*
X164500Y91000D02*
X172500Y83000D01*
X184000Y214500D02*
X184500D01*
X155500Y243000D02*
X184000Y214500D01*
X5500Y292000D02*
X26500Y313000D01*
X5500Y287000D02*
Y292000D01*
X26500Y313000D02*
X35500D01*
X217500Y269000D02*
Y276500D01*
X181000Y313000D02*
X217500Y276500D01*
X35500Y313000D02*
X181000D01*
X228250Y142750D02*
X272500Y187000D01*
X53000Y156000D02*
X54000Y157000D01*
X110500D01*
X124000D01*
X353500Y164000D02*
X359500Y158000D01*
X218500Y131500D02*
X228250Y141250D01*
X218500Y74500D02*
Y131500D01*
X164500Y91000D02*
Y130000D01*
X153500Y141000D02*
X164500Y130000D01*
X73500Y247000D02*
X77500Y243000D01*
X155500Y243000D01*
X22787Y172000D02*
X72000D01*
X78500Y181500D02*
Y189000D01*
Y181500D02*
X84500Y175500D01*
X203343Y26250D02*
Y103657D01*
X214500Y227500D02*
X228500D01*
X197500Y210500D02*
X214500Y227500D01*
X13500Y136500D02*
X21000D01*
X47500Y127500D02*
X55500Y135500D01*
X134000D01*
X148500Y26750D02*
X149000Y26250D01*
X148500Y26750D02*
Y82000D01*
X75000Y57000D02*
X91500D01*
X75000D02*
X121500Y103500D01*
X359000Y112500D02*
X359500Y113000D01*
X253271Y112500D02*
X359000D01*
X250771Y115000D02*
X253271Y112500D01*
X250500Y115000D02*
X250771D01*
X125500Y113000D02*
X153500Y141000D01*
X77000Y113000D02*
X125500D01*
X270500Y198000D02*
X286500D01*
X251500Y217000D02*
X270500Y198000D01*
X228000Y217000D02*
X251500D01*
X241500Y98000D02*
Y128000D01*
X256290D02*
X263790Y120500D01*
X241500Y128000D02*
X256290D01*
X346000Y87500D02*
X359500Y101000D01*
X298500Y87500D02*
X346000D01*
X91500Y57000D02*
X108000Y73500D01*
X233500Y190000D02*
X256500D01*
X92500Y195500D02*
X113463D01*
X134000Y174963D01*
X62500Y113000D02*
X77000D01*
X13500Y56000D02*
X14500Y57000D01*
X349000Y59500D02*
X363500Y45000D01*
X280000Y59500D02*
X349000D01*
X241500Y98000D02*
X280000Y59500D01*
X119000Y175500D02*
X153500Y141000D01*
X84500Y175500D02*
X119000D01*
X30500Y72000D02*
Y81000D01*
X62500Y113000D01*
X155500Y287000D02*
Y288000D01*
D50*
X228500Y227500D02*
X263500D01*
D51*
X362250Y26250D02*
X376500Y40500D01*
X359500Y78500D02*
Y101000D01*
X13500Y115500D02*
Y136500D01*
Y151500D02*
Y162713D01*
Y136500D02*
Y151500D01*
Y91500D02*
Y115500D01*
Y42500D02*
Y56000D01*
Y91500D01*
X376500Y55500D02*
Y61500D01*
Y40500D02*
Y55500D01*
X370500Y67500D02*
X376500Y61500D01*
X359500Y78500D02*
X370500Y67500D01*
X252250Y248250D02*
X263500Y259500D01*
X242500Y238500D02*
X252000Y248000D01*
X263500Y259500D02*
Y274500D01*
X208500Y238500D02*
X242500D01*
X184500Y214500D02*
X208500Y238500D01*
X184500Y204789D02*
Y214500D01*
Y204789D02*
X185000Y204289D01*
X293500Y227500D02*
X305000Y216000D01*
X263500Y227500D02*
X293500D01*
X228250Y142750D02*
Y161039D01*
Y141250D02*
Y142750D01*
Y141250D02*
X241500Y128000D01*
X326500Y216000D02*
X327500Y217000D01*
X305000Y216000D02*
X326500D01*
X153500Y172789D02*
X185000Y204289D01*
X153500Y141000D02*
Y172789D01*
X185000Y204289D02*
X228250Y161039D01*
X13500Y162713D02*
X22787Y172000D01*
X203343Y26250D02*
X218500D01*
X149000D02*
X161500D01*
X359500Y101000D02*
Y113000D01*
X161500Y26250D02*
X203343D01*
X13500Y38000D02*
Y42500D01*
X22500D01*
X161500Y26250D02*
Y32500D01*
X218500Y26250D02*
X362250D01*
X218500D02*
Y35500D01*
D52*
X271000Y275000D02*
D03*
D53*
X264000D02*
D03*
X246500Y313500D02*
D03*
D54*
X15500Y287000D02*
D03*
X25500D02*
D03*
X35500D02*
D03*
X15500Y387000D02*
D03*
X25500D02*
D03*
X35500D02*
D03*
X5500Y287000D02*
D03*
Y387000D02*
D03*
X45500Y287000D02*
D03*
X55500D02*
D03*
X65500D02*
D03*
X75500D02*
D03*
X85500D02*
D03*
X95500D02*
D03*
X105500D02*
D03*
X115500D02*
D03*
X125500D02*
D03*
X135500D02*
D03*
X145500D02*
D03*
X155500D02*
D03*
X165500D02*
D03*
X175500D02*
D03*
X45500Y387000D02*
D03*
X55500D02*
D03*
X65500D02*
D03*
X75500D02*
D03*
X85500D02*
D03*
X95500D02*
D03*
X105500D02*
D03*
X115500D02*
D03*
X125500D02*
D03*
X135500D02*
D03*
X145500D02*
D03*
X155500D02*
D03*
X165500D02*
D03*
X175500D02*
D03*
D55*
X207500Y269000D02*
D03*
X187500D02*
D03*
X167500D02*
D03*
X147500D02*
D03*
X137500D02*
D03*
X127500D02*
D03*
X157500D02*
D03*
X177500D02*
D03*
X197500D02*
D03*
D56*
X217500D02*
D03*
D57*
X19685Y337000D02*
D03*
Y19685D02*
D03*
X374016D02*
D03*
Y374016D02*
D03*
D58*
X38500Y136000D02*
D03*
X18500Y126000D02*
D03*
X38500Y116000D02*
D03*
X197500Y167500D02*
D03*
X217500Y157500D02*
D03*
X197500Y147500D02*
D03*
D59*
X97000Y17000D02*
D03*
X285000Y17500D02*
D03*
D60*
X87157Y36685D02*
D03*
X106843D02*
D03*
X116685D02*
D03*
X77315D02*
D03*
X265315Y37185D02*
D03*
X304685D02*
D03*
X294843D02*
D03*
X275157D02*
D03*
D61*
X283000Y294500D02*
D03*
X288000Y302000D02*
D03*
X293000Y294500D02*
D03*
D62*
X246500Y320500D02*
D03*
D63*
X319500Y199500D02*
D03*
X316500Y157500D02*
D03*
X319500Y151500D02*
D03*
X316500Y145500D02*
D03*
X319500Y139500D02*
D03*
X316500Y133500D02*
D03*
X319500Y127500D02*
D03*
X316500Y121500D02*
D03*
X319500Y103500D02*
D03*
X316500Y97500D02*
D03*
X319500Y79500D02*
D03*
X316500Y73500D02*
D03*
X310500Y157500D02*
D03*
X313500Y151500D02*
D03*
X310500Y145500D02*
D03*
X313500Y127500D02*
D03*
X310500Y121500D02*
D03*
X313500Y103500D02*
D03*
Y79500D02*
D03*
X310500Y73500D02*
D03*
Y49500D02*
D03*
X304500Y241500D02*
D03*
X307500Y235500D02*
D03*
X304500Y193500D02*
D03*
Y169500D02*
D03*
Y157500D02*
D03*
X307500Y151500D02*
D03*
X304500Y145500D02*
D03*
X307500Y127500D02*
D03*
X304500Y121500D02*
D03*
X307500Y79500D02*
D03*
X304500Y73500D02*
D03*
Y49500D02*
D03*
X301500Y211500D02*
D03*
Y199500D02*
D03*
X298500Y193500D02*
D03*
X301500Y187500D02*
D03*
Y151500D02*
D03*
X298500Y145500D02*
D03*
Y121500D02*
D03*
Y97500D02*
D03*
X301500Y79500D02*
D03*
X298500Y73500D02*
D03*
Y49500D02*
D03*
X292500Y241500D02*
D03*
Y217500D02*
D03*
X295500Y211500D02*
D03*
Y151500D02*
D03*
X292500Y97500D02*
D03*
X295500Y79500D02*
D03*
Y67500D02*
D03*
X292500Y49500D02*
D03*
X286500Y253500D02*
D03*
X289500Y247500D02*
D03*
X286500Y241500D02*
D03*
X289500Y211500D02*
D03*
X286500Y145500D02*
D03*
Y121500D02*
D03*
Y97500D02*
D03*
Y49500D02*
D03*
X289500Y43500D02*
D03*
X280500Y253500D02*
D03*
X283500Y211500D02*
D03*
X280500Y205500D02*
D03*
Y193500D02*
D03*
Y121500D02*
D03*
Y97500D02*
D03*
Y49500D02*
D03*
X283500Y43500D02*
D03*
X274500Y253500D02*
D03*
X277500Y211500D02*
D03*
X274500Y205500D02*
D03*
Y193500D02*
D03*
Y97500D02*
D03*
Y73500D02*
D03*
Y49500D02*
D03*
X271500Y211500D02*
D03*
X268500Y97500D02*
D03*
X271500Y79500D02*
D03*
X268500Y49500D02*
D03*
X271500Y43500D02*
D03*
X262500Y217500D02*
D03*
Y169500D02*
D03*
X265500Y163500D02*
D03*
Y151500D02*
D03*
X262500Y145500D02*
D03*
X265500Y139500D02*
D03*
X262500Y133500D02*
D03*
Y85500D02*
D03*
Y49500D02*
D03*
X259500Y151500D02*
D03*
X256500Y145500D02*
D03*
X259500Y139500D02*
D03*
X256500Y121500D02*
D03*
Y73500D02*
D03*
Y61500D02*
D03*
X259500Y43500D02*
D03*
X253500Y151500D02*
D03*
X250500Y145500D02*
D03*
X253500Y139500D02*
D03*
Y79500D02*
D03*
X250500Y73500D02*
D03*
Y61500D02*
D03*
X253500Y55500D02*
D03*
X247500Y211500D02*
D03*
Y151500D02*
D03*
X244500Y145500D02*
D03*
X247500Y139500D02*
D03*
X244500Y85500D02*
D03*
X247500Y79500D02*
D03*
X244500Y73500D02*
D03*
X247500Y55500D02*
D03*
X244500Y37500D02*
D03*
X241500Y211500D02*
D03*
X238500Y181500D02*
D03*
Y145500D02*
D03*
X241500Y139500D02*
D03*
X238500Y85500D02*
D03*
X241500Y79500D02*
D03*
X238500Y73500D02*
D03*
X232500Y253500D02*
D03*
Y181500D02*
D03*
Y169500D02*
D03*
Y121500D02*
D03*
X235500Y115500D02*
D03*
X232500Y85500D02*
D03*
X235500Y79500D02*
D03*
X232500Y73500D02*
D03*
Y37500D02*
D03*
X226500Y253500D02*
D03*
X229500Y211500D02*
D03*
X226500Y181500D02*
D03*
X229500Y175500D02*
D03*
Y127500D02*
D03*
X226500Y121500D02*
D03*
X229500Y115500D02*
D03*
X226500Y109500D02*
D03*
Y85500D02*
D03*
X229500Y79500D02*
D03*
X226500Y73500D02*
D03*
X229500Y67500D02*
D03*
X226500Y61500D02*
D03*
X229500Y55500D02*
D03*
X226500Y49500D02*
D03*
X229500Y43500D02*
D03*
X226500Y37500D02*
D03*
X220500Y253500D02*
D03*
X223500Y211500D02*
D03*
X220500Y181500D02*
D03*
X223500Y175500D02*
D03*
X220500Y145500D02*
D03*
X223500Y127500D02*
D03*
Y115500D02*
D03*
Y79500D02*
D03*
Y55500D02*
D03*
X217500Y247500D02*
D03*
Y211500D02*
D03*
Y187500D02*
D03*
Y163500D02*
D03*
Y151500D02*
D03*
X214500Y145500D02*
D03*
X217500Y139500D02*
D03*
Y55500D02*
D03*
X211500Y247500D02*
D03*
Y187500D02*
D03*
X208500Y169500D02*
D03*
X211500Y163500D02*
D03*
X208500Y157500D02*
D03*
X211500Y151500D02*
D03*
X208500Y133500D02*
D03*
X211500Y127500D02*
D03*
X208500Y109500D02*
D03*
X211500Y91500D02*
D03*
X208500Y85500D02*
D03*
X211500Y79500D02*
D03*
X208500Y73500D02*
D03*
X211500Y67500D02*
D03*
X208500Y61500D02*
D03*
X211500Y55500D02*
D03*
X208500Y49500D02*
D03*
X211500Y43500D02*
D03*
X208500Y37500D02*
D03*
X205500Y175500D02*
D03*
X202500Y169500D02*
D03*
X205500Y163500D02*
D03*
X202500Y157500D02*
D03*
X205500Y151500D02*
D03*
X202500Y133500D02*
D03*
X205500Y127500D02*
D03*
Y115500D02*
D03*
X196500Y217500D02*
D03*
Y181500D02*
D03*
X199500Y175500D02*
D03*
Y163500D02*
D03*
X196500Y157500D02*
D03*
X199500Y139500D02*
D03*
X196500Y133500D02*
D03*
Y61500D02*
D03*
X190500Y241500D02*
D03*
X193500Y235500D02*
D03*
Y187500D02*
D03*
X190500Y181500D02*
D03*
X193500Y175500D02*
D03*
X190500Y169500D02*
D03*
X193500Y163500D02*
D03*
X190500Y157500D02*
D03*
X193500Y151500D02*
D03*
X190500Y145500D02*
D03*
X193500Y139500D02*
D03*
X190500Y133500D02*
D03*
Y61500D02*
D03*
Y49500D02*
D03*
X184500Y241500D02*
D03*
X187500Y235500D02*
D03*
Y187500D02*
D03*
X184500Y181500D02*
D03*
X187500Y175500D02*
D03*
X184500Y169500D02*
D03*
X187500Y163500D02*
D03*
X184500Y157500D02*
D03*
X187500Y151500D02*
D03*
X184500Y145500D02*
D03*
X187500Y139500D02*
D03*
X184500Y133500D02*
D03*
Y109500D02*
D03*
X178500Y253500D02*
D03*
X181500Y247500D02*
D03*
X178500Y241500D02*
D03*
X181500Y235500D02*
D03*
X178500Y229500D02*
D03*
X181500Y187500D02*
D03*
X178500Y181500D02*
D03*
X181500Y175500D02*
D03*
X178500Y169500D02*
D03*
X181500Y163500D02*
D03*
X178500Y157500D02*
D03*
X181500Y151500D02*
D03*
X178500Y145500D02*
D03*
X181500Y139500D02*
D03*
X178500Y133500D02*
D03*
Y109500D02*
D03*
Y73500D02*
D03*
Y61500D02*
D03*
Y49500D02*
D03*
X172500Y253500D02*
D03*
X175500Y247500D02*
D03*
X172500Y241500D02*
D03*
X175500Y235500D02*
D03*
X172500Y217500D02*
D03*
X175500Y211500D02*
D03*
X172500Y181500D02*
D03*
X175500Y175500D02*
D03*
X172500Y169500D02*
D03*
X175500Y163500D02*
D03*
X172500Y157500D02*
D03*
X175500Y151500D02*
D03*
X172500Y145500D02*
D03*
X175500Y139500D02*
D03*
X172500Y133500D02*
D03*
X175500Y115500D02*
D03*
X172500Y109500D02*
D03*
X175500Y67500D02*
D03*
X172500Y61500D02*
D03*
X175500Y55500D02*
D03*
X172500Y49500D02*
D03*
X175500Y43500D02*
D03*
X172500Y37500D02*
D03*
X166500Y253500D02*
D03*
X169500Y247500D02*
D03*
X166500Y241500D02*
D03*
X169500Y235500D02*
D03*
X166500Y217500D02*
D03*
X169500Y211500D02*
D03*
X166500Y193500D02*
D03*
X169500Y175500D02*
D03*
X166500Y169500D02*
D03*
X169500Y163500D02*
D03*
X166500Y157500D02*
D03*
X169500Y151500D02*
D03*
X166500Y145500D02*
D03*
X169500Y139500D02*
D03*
Y115500D02*
D03*
Y55500D02*
D03*
Y43500D02*
D03*
X163500Y247500D02*
D03*
Y223500D02*
D03*
Y199500D02*
D03*
X160500Y193500D02*
D03*
Y169500D02*
D03*
X163500Y163500D02*
D03*
X160500Y157500D02*
D03*
X163500Y151500D02*
D03*
X160500Y145500D02*
D03*
X163500Y139500D02*
D03*
X160500Y73500D02*
D03*
X154500Y205500D02*
D03*
X157500Y199500D02*
D03*
X154500Y193500D02*
D03*
X157500Y187500D02*
D03*
X154500Y181500D02*
D03*
Y133500D02*
D03*
X157500Y127500D02*
D03*
X154500Y121500D02*
D03*
Y97500D02*
D03*
Y73500D02*
D03*
Y49500D02*
D03*
Y37500D02*
D03*
X151500Y127500D02*
D03*
X148500Y121500D02*
D03*
X151500Y103500D02*
D03*
X148500Y97500D02*
D03*
X151500Y91500D02*
D03*
X142500Y253500D02*
D03*
Y229500D02*
D03*
Y217500D02*
D03*
Y205500D02*
D03*
Y193500D02*
D03*
Y181500D02*
D03*
Y121500D02*
D03*
X145500Y115500D02*
D03*
X142500Y109500D02*
D03*
X145500Y91500D02*
D03*
X142500Y73500D02*
D03*
X136500Y253500D02*
D03*
X139500Y247500D02*
D03*
Y235500D02*
D03*
X136500Y229500D02*
D03*
X139500Y223500D02*
D03*
X136500Y217500D02*
D03*
X139500Y211500D02*
D03*
X136500Y205500D02*
D03*
X139500Y199500D02*
D03*
Y175500D02*
D03*
Y115500D02*
D03*
X136500Y109500D02*
D03*
Y73500D02*
D03*
X130500Y253500D02*
D03*
X133500Y247500D02*
D03*
Y235500D02*
D03*
X130500Y229500D02*
D03*
X133500Y223500D02*
D03*
X130500Y217500D02*
D03*
X133500Y211500D02*
D03*
X130500Y205500D02*
D03*
X133500Y199500D02*
D03*
Y127500D02*
D03*
X130500Y109500D02*
D03*
X133500Y103500D02*
D03*
X130500Y73500D02*
D03*
X133500Y67500D02*
D03*
Y55500D02*
D03*
X124500Y253500D02*
D03*
X127500Y247500D02*
D03*
Y235500D02*
D03*
X124500Y229500D02*
D03*
X127500Y223500D02*
D03*
X124500Y217500D02*
D03*
X127500Y211500D02*
D03*
Y175500D02*
D03*
Y151500D02*
D03*
X124500Y145500D02*
D03*
X127500Y127500D02*
D03*
X124500Y121500D02*
D03*
X127500Y103500D02*
D03*
X124500Y73500D02*
D03*
X127500Y67500D02*
D03*
Y55500D02*
D03*
X124500Y49500D02*
D03*
X121500Y247500D02*
D03*
Y235500D02*
D03*
X118500Y229500D02*
D03*
X121500Y223500D02*
D03*
Y211500D02*
D03*
X118500Y181500D02*
D03*
Y169500D02*
D03*
X121500Y151500D02*
D03*
X118500Y145500D02*
D03*
X121500Y127500D02*
D03*
X118500Y121500D02*
D03*
Y73500D02*
D03*
X121500Y67500D02*
D03*
X118500Y49500D02*
D03*
X121500Y43500D02*
D03*
X112500Y181500D02*
D03*
Y169500D02*
D03*
X115500Y163500D02*
D03*
Y151500D02*
D03*
X112500Y145500D02*
D03*
Y121500D02*
D03*
X115500Y79500D02*
D03*
Y67500D02*
D03*
X109500Y151500D02*
D03*
X106500Y97500D02*
D03*
X109500Y79500D02*
D03*
Y67500D02*
D03*
X103500Y223500D02*
D03*
X100500Y121500D02*
D03*
X103500Y43500D02*
D03*
X94500Y253500D02*
D03*
X97500Y247500D02*
D03*
Y223500D02*
D03*
Y151500D02*
D03*
X94500Y145500D02*
D03*
X97500Y127500D02*
D03*
X94500Y121500D02*
D03*
X97500Y43500D02*
D03*
X88500Y253500D02*
D03*
X91500Y247500D02*
D03*
Y223500D02*
D03*
Y43500D02*
D03*
X82500Y253500D02*
D03*
X85500Y199500D02*
D03*
X82500Y193500D02*
D03*
Y169500D02*
D03*
Y85500D02*
D03*
Y73500D02*
D03*
X79500Y199500D02*
D03*
X76500Y193500D02*
D03*
Y85500D02*
D03*
X79500Y79500D02*
D03*
X76500Y73500D02*
D03*
X79500Y67500D02*
D03*
X76500Y49500D02*
D03*
X73500Y199500D02*
D03*
Y163500D02*
D03*
Y151500D02*
D03*
X70500Y145500D02*
D03*
X73500Y127500D02*
D03*
X70500Y97500D02*
D03*
X73500Y79500D02*
D03*
X70500Y73500D02*
D03*
X73500Y67500D02*
D03*
X64500Y193500D02*
D03*
X67500Y163500D02*
D03*
Y151500D02*
D03*
X64500Y145500D02*
D03*
Y121500D02*
D03*
X67500Y103500D02*
D03*
X64500Y97500D02*
D03*
X67500Y91500D02*
D03*
Y79500D02*
D03*
X64500Y73500D02*
D03*
X67500Y67500D02*
D03*
X22500Y353500D02*
D03*
X382500Y355500D02*
D03*
X376500Y343500D02*
D03*
X382500Y331500D02*
D03*
X376500Y319500D02*
D03*
X382500Y307500D02*
D03*
X376500Y295500D02*
D03*
X382500Y283500D02*
D03*
X376500Y271500D02*
D03*
X382500Y259500D02*
D03*
X376500Y247500D02*
D03*
X382500Y235500D02*
D03*
X376500Y223500D02*
D03*
X382500Y211500D02*
D03*
X376500Y199500D02*
D03*
X382500Y187500D02*
D03*
X376500Y175500D02*
D03*
X382500Y163500D02*
D03*
X376500Y151500D02*
D03*
X382500Y139500D02*
D03*
X376500Y127500D02*
D03*
X382500Y115500D02*
D03*
X376500Y103500D02*
D03*
X382500Y91500D02*
D03*
X376500Y79500D02*
D03*
X382500Y67500D02*
D03*
X376500Y55500D02*
D03*
X382500Y43500D02*
D03*
X370500Y355500D02*
D03*
X364500Y343500D02*
D03*
X370500Y331500D02*
D03*
X364500Y319500D02*
D03*
X370500Y307500D02*
D03*
X364500Y295500D02*
D03*
X370500Y283500D02*
D03*
X364500Y271500D02*
D03*
X370500Y259500D02*
D03*
X364500Y247500D02*
D03*
X370500Y235500D02*
D03*
X364500Y223500D02*
D03*
X370500Y211500D02*
D03*
X364500Y199500D02*
D03*
X370500Y187500D02*
D03*
X364500Y175500D02*
D03*
X370500Y163500D02*
D03*
X364500Y151500D02*
D03*
X370500Y139500D02*
D03*
X364500Y127500D02*
D03*
X370500Y115500D02*
D03*
X364500Y103500D02*
D03*
X370500Y91500D02*
D03*
X364500Y79500D02*
D03*
X370500Y67500D02*
D03*
X364500Y55500D02*
D03*
X370500Y43500D02*
D03*
X364500Y31500D02*
D03*
Y7500D02*
D03*
X358500Y379500D02*
D03*
X352500Y367500D02*
D03*
X358500Y355500D02*
D03*
X352500Y343500D02*
D03*
X358500Y331500D02*
D03*
X352500Y319500D02*
D03*
X358500Y307500D02*
D03*
X352500Y295500D02*
D03*
X358500Y283500D02*
D03*
X352500Y271500D02*
D03*
X358500Y259500D02*
D03*
X352500Y247500D02*
D03*
X358500Y235500D02*
D03*
X352500Y223500D02*
D03*
X358500Y211500D02*
D03*
X352500Y199500D02*
D03*
X358500Y187500D02*
D03*
X352500Y175500D02*
D03*
X358500Y163500D02*
D03*
X352500Y151500D02*
D03*
X358500Y139500D02*
D03*
X352500Y127500D02*
D03*
X358500Y115500D02*
D03*
X352500Y103500D02*
D03*
X358500Y91500D02*
D03*
X352500Y79500D02*
D03*
Y31500D02*
D03*
X358500Y19500D02*
D03*
X352500Y7500D02*
D03*
X346500Y379500D02*
D03*
X340500Y367500D02*
D03*
X346500Y355500D02*
D03*
X340500Y343500D02*
D03*
X346500Y331500D02*
D03*
X340500Y319500D02*
D03*
X346500Y307500D02*
D03*
X340500Y295500D02*
D03*
X346500Y283500D02*
D03*
X340500Y271500D02*
D03*
X346500Y259500D02*
D03*
X340500Y247500D02*
D03*
X346500Y235500D02*
D03*
X340500Y223500D02*
D03*
X346500Y211500D02*
D03*
X340500Y199500D02*
D03*
X346500Y187500D02*
D03*
X340500Y175500D02*
D03*
X346500Y163500D02*
D03*
X340500Y151500D02*
D03*
X346500Y139500D02*
D03*
X340500Y127500D02*
D03*
X346500Y115500D02*
D03*
X340500Y103500D02*
D03*
X346500Y91500D02*
D03*
X340500Y79500D02*
D03*
X346500Y67500D02*
D03*
Y43500D02*
D03*
X340500Y31500D02*
D03*
X346500Y19500D02*
D03*
X340500Y7500D02*
D03*
X334500Y379500D02*
D03*
X328500Y367500D02*
D03*
X334500Y355500D02*
D03*
X328500Y343500D02*
D03*
X334500Y331500D02*
D03*
X328500Y319500D02*
D03*
X334500Y307500D02*
D03*
X328500Y295500D02*
D03*
X334500Y283500D02*
D03*
X328500Y271500D02*
D03*
X334500Y259500D02*
D03*
X328500Y247500D02*
D03*
X334500Y235500D02*
D03*
Y211500D02*
D03*
Y187500D02*
D03*
X328500Y175500D02*
D03*
X334500Y163500D02*
D03*
X328500Y151500D02*
D03*
X334500Y139500D02*
D03*
X328500Y127500D02*
D03*
X334500Y115500D02*
D03*
X328500Y103500D02*
D03*
X334500Y91500D02*
D03*
X328500Y79500D02*
D03*
Y31500D02*
D03*
X334500Y19500D02*
D03*
X328500Y7500D02*
D03*
X322500Y379500D02*
D03*
X316500Y367500D02*
D03*
X322500Y355500D02*
D03*
X316500Y343500D02*
D03*
X322500Y331500D02*
D03*
X316500Y319500D02*
D03*
X322500Y307500D02*
D03*
X316500Y295500D02*
D03*
X322500Y283500D02*
D03*
X316500Y271500D02*
D03*
X322500Y259500D02*
D03*
X316500Y247500D02*
D03*
X322500Y235500D02*
D03*
Y19500D02*
D03*
X316500Y7500D02*
D03*
X310500Y379500D02*
D03*
X304500Y367500D02*
D03*
X310500Y355500D02*
D03*
X304500Y343500D02*
D03*
X310500Y331500D02*
D03*
X304500Y319500D02*
D03*
X310500Y307500D02*
D03*
X304500Y295500D02*
D03*
X310500Y283500D02*
D03*
X304500Y271500D02*
D03*
X310500Y259500D02*
D03*
Y19500D02*
D03*
X298500Y379500D02*
D03*
X292500Y367500D02*
D03*
X298500Y355500D02*
D03*
X292500Y343500D02*
D03*
X298500Y331500D02*
D03*
X292500Y319500D02*
D03*
X298500Y307500D02*
D03*
Y283500D02*
D03*
X292500Y271500D02*
D03*
X298500Y19500D02*
D03*
X292500Y7500D02*
D03*
X286500Y379500D02*
D03*
X280500Y367500D02*
D03*
X286500Y355500D02*
D03*
X280500Y343500D02*
D03*
X286500Y331500D02*
D03*
X280500Y319500D02*
D03*
X286500Y307500D02*
D03*
Y283500D02*
D03*
X280500Y271500D02*
D03*
Y7500D02*
D03*
X274500Y379500D02*
D03*
X268500Y367500D02*
D03*
X274500Y355500D02*
D03*
X268500Y343500D02*
D03*
X274500Y331500D02*
D03*
X268500Y319500D02*
D03*
X274500Y283500D02*
D03*
Y19500D02*
D03*
X262500Y379500D02*
D03*
X256500Y367500D02*
D03*
X262500Y355500D02*
D03*
X256500Y343500D02*
D03*
X262500Y331500D02*
D03*
X256500Y319500D02*
D03*
Y7500D02*
D03*
X250500Y379500D02*
D03*
X244500Y367500D02*
D03*
X250500Y355500D02*
D03*
X244500Y343500D02*
D03*
X250500Y331500D02*
D03*
Y307500D02*
D03*
Y19500D02*
D03*
X244500Y7500D02*
D03*
X238500Y379500D02*
D03*
X232500Y367500D02*
D03*
X238500Y355500D02*
D03*
X232500Y343500D02*
D03*
X238500Y331500D02*
D03*
Y307500D02*
D03*
Y19500D02*
D03*
X232500Y7500D02*
D03*
X226500Y379500D02*
D03*
X220500Y367500D02*
D03*
X226500Y355500D02*
D03*
X220500Y343500D02*
D03*
X226500Y331500D02*
D03*
X220500Y319500D02*
D03*
X226500Y307500D02*
D03*
X220500Y295500D02*
D03*
X226500Y283500D02*
D03*
Y19500D02*
D03*
X220500Y7500D02*
D03*
X214500Y379500D02*
D03*
X208500Y367500D02*
D03*
X214500Y355500D02*
D03*
X208500Y343500D02*
D03*
X214500Y331500D02*
D03*
X208500Y319500D02*
D03*
X214500Y307500D02*
D03*
Y19500D02*
D03*
X208500Y7500D02*
D03*
X202500Y379500D02*
D03*
Y355500D02*
D03*
Y331500D02*
D03*
Y19500D02*
D03*
X196500Y7500D02*
D03*
X190500Y379500D02*
D03*
X184500Y367500D02*
D03*
Y343500D02*
D03*
Y319500D02*
D03*
X190500Y283500D02*
D03*
Y19500D02*
D03*
X184500Y7500D02*
D03*
X178500Y379500D02*
D03*
X172500Y367500D02*
D03*
X178500Y355500D02*
D03*
X172500Y343500D02*
D03*
X178500Y331500D02*
D03*
X172500Y319500D02*
D03*
X178500Y307500D02*
D03*
Y19500D02*
D03*
X172500Y7500D02*
D03*
X166500Y379500D02*
D03*
X160500Y367500D02*
D03*
X166500Y355500D02*
D03*
X160500Y343500D02*
D03*
X166500Y331500D02*
D03*
X160500Y319500D02*
D03*
X166500Y307500D02*
D03*
X160500Y295500D02*
D03*
X166500Y19500D02*
D03*
X160500Y7500D02*
D03*
X154500Y379500D02*
D03*
X148500Y367500D02*
D03*
X154500Y355500D02*
D03*
X148500Y343500D02*
D03*
X154500Y331500D02*
D03*
X148500Y319500D02*
D03*
X154500Y307500D02*
D03*
X148500Y295500D02*
D03*
X154500Y19500D02*
D03*
X148500Y7500D02*
D03*
X142500Y379500D02*
D03*
X136500Y367500D02*
D03*
X142500Y355500D02*
D03*
X136500Y343500D02*
D03*
X142500Y331500D02*
D03*
X136500Y319500D02*
D03*
X142500Y307500D02*
D03*
X136500Y295500D02*
D03*
X142500Y19500D02*
D03*
X136500Y7500D02*
D03*
X130500Y379500D02*
D03*
X124500Y367500D02*
D03*
X130500Y355500D02*
D03*
X124500Y343500D02*
D03*
X130500Y331500D02*
D03*
X124500Y319500D02*
D03*
X130500Y307500D02*
D03*
X124500Y295500D02*
D03*
X130500Y19500D02*
D03*
X124500Y7500D02*
D03*
X118500Y379500D02*
D03*
X112500Y367500D02*
D03*
X118500Y355500D02*
D03*
X112500Y343500D02*
D03*
X118500Y331500D02*
D03*
X112500Y319500D02*
D03*
X118500Y307500D02*
D03*
X112500Y295500D02*
D03*
Y271500D02*
D03*
X106500Y379500D02*
D03*
X100500Y367500D02*
D03*
X106500Y355500D02*
D03*
X100500Y343500D02*
D03*
X106500Y331500D02*
D03*
X100500Y319500D02*
D03*
X106500Y307500D02*
D03*
X100500Y295500D02*
D03*
Y271500D02*
D03*
Y31500D02*
D03*
Y7500D02*
D03*
X94500Y379500D02*
D03*
X88500Y367500D02*
D03*
X94500Y355500D02*
D03*
X88500Y343500D02*
D03*
X94500Y331500D02*
D03*
X88500Y319500D02*
D03*
X94500Y307500D02*
D03*
X88500Y295500D02*
D03*
Y271500D02*
D03*
Y7500D02*
D03*
X82500Y379500D02*
D03*
X76500Y367500D02*
D03*
X82500Y355500D02*
D03*
X76500Y343500D02*
D03*
X82500Y331500D02*
D03*
X76500Y319500D02*
D03*
X82500Y307500D02*
D03*
X76500Y295500D02*
D03*
Y271500D02*
D03*
X70500Y379500D02*
D03*
X64500Y367500D02*
D03*
X70500Y355500D02*
D03*
X64500Y343500D02*
D03*
X70500Y331500D02*
D03*
Y307500D02*
D03*
X64500Y295500D02*
D03*
Y271500D02*
D03*
X70500Y19500D02*
D03*
X64500Y7500D02*
D03*
X58500Y379500D02*
D03*
X52500Y367500D02*
D03*
X58500Y355500D02*
D03*
X52500Y343500D02*
D03*
Y319500D02*
D03*
X58500Y307500D02*
D03*
X52500Y295500D02*
D03*
Y271500D02*
D03*
X58500Y259500D02*
D03*
X52500Y79500D02*
D03*
Y31500D02*
D03*
X58500Y19500D02*
D03*
X52500Y7500D02*
D03*
X46500Y379500D02*
D03*
X40500Y367500D02*
D03*
X46500Y355500D02*
D03*
Y331500D02*
D03*
X40500Y319500D02*
D03*
Y295500D02*
D03*
Y271500D02*
D03*
X46500Y259500D02*
D03*
X40500Y151500D02*
D03*
Y127500D02*
D03*
Y103500D02*
D03*
Y79500D02*
D03*
Y55500D02*
D03*
Y31500D02*
D03*
X46500Y19500D02*
D03*
X40500Y7500D02*
D03*
X28500Y367500D02*
D03*
X34500Y331500D02*
D03*
X28500Y319500D02*
D03*
Y295500D02*
D03*
Y271500D02*
D03*
X34500Y259500D02*
D03*
X28500Y247500D02*
D03*
Y223500D02*
D03*
Y199500D02*
D03*
Y175500D02*
D03*
X34500Y163500D02*
D03*
X28500Y151500D02*
D03*
X34500Y139500D02*
D03*
X28500Y127500D02*
D03*
Y103500D02*
D03*
X34500Y91500D02*
D03*
X28500Y31500D02*
D03*
X34500Y19500D02*
D03*
X28500Y7500D02*
D03*
X16500Y319500D02*
D03*
Y271500D02*
D03*
X22500Y259500D02*
D03*
X16500Y247500D02*
D03*
X22500Y235500D02*
D03*
X16500Y223500D02*
D03*
X22500Y211500D02*
D03*
X16500Y199500D02*
D03*
X22500Y187500D02*
D03*
X16500Y175500D02*
D03*
X22500Y163500D02*
D03*
X16500Y151500D02*
D03*
X22500Y139500D02*
D03*
Y115500D02*
D03*
X16500Y103500D02*
D03*
X22500Y91500D02*
D03*
X16500Y79500D02*
D03*
X22500Y67500D02*
D03*
X16500Y55500D02*
D03*
X4500Y367500D02*
D03*
X10500Y355500D02*
D03*
X4500Y343500D02*
D03*
Y319500D02*
D03*
Y271500D02*
D03*
X10500Y259500D02*
D03*
X4500Y247500D02*
D03*
X10500Y235500D02*
D03*
X4500Y223500D02*
D03*
X10500Y211500D02*
D03*
X4500Y199500D02*
D03*
X10500Y187500D02*
D03*
X4500Y175500D02*
D03*
X10500Y163500D02*
D03*
X4500Y151500D02*
D03*
X10500Y139500D02*
D03*
X4500Y127500D02*
D03*
X10500Y115500D02*
D03*
X4500Y103500D02*
D03*
X10500Y91500D02*
D03*
X4500Y79500D02*
D03*
X10500Y67500D02*
D03*
X4500Y55500D02*
D03*
X10500Y43500D02*
D03*
X4500Y31500D02*
D03*
Y7500D02*
D03*
D64*
X199000Y242000D02*
D03*
X184500Y214500D02*
D03*
X35500Y313000D02*
D03*
X298000Y243470D02*
D03*
X272500Y187000D02*
D03*
X305000Y216000D02*
D03*
X307500Y164000D02*
D03*
X40500Y225500D02*
D03*
X59000Y235500D02*
D03*
X76500Y229500D02*
D03*
X55000Y247000D02*
D03*
X47000Y220000D02*
D03*
X78500Y189000D02*
D03*
X72000Y172000D02*
D03*
X263500Y303000D02*
D03*
X197824Y50430D02*
D03*
X193887Y58304D02*
D03*
X235000Y165500D02*
D03*
X221446Y160666D02*
D03*
X64000Y151000D02*
D03*
X228500Y227500D02*
D03*
X197500Y210500D02*
D03*
X134000Y135500D02*
D03*
X148500Y82000D02*
D03*
X77000Y95000D02*
D03*
X250500Y115000D02*
D03*
X197000Y110500D02*
D03*
X124000Y157000D02*
D03*
X286500Y198000D02*
D03*
X77000Y113000D02*
D03*
X121500Y103500D02*
D03*
X263790Y120500D02*
D03*
X263500Y227500D02*
D03*
X298500Y87500D02*
D03*
X108000Y73500D02*
D03*
X110500Y157000D02*
D03*
X237000Y248000D02*
D03*
X228000Y217000D02*
D03*
X256500Y190000D02*
D03*
X233500D02*
D03*
X92500Y195500D02*
D03*
X134000Y174963D02*
D03*
X172375Y82875D02*
D03*
X297500Y107500D02*
D03*
X22500Y42500D02*
D03*
X218500Y35500D02*
D03*
X161500Y32500D02*
D03*
X363500Y45000D02*
D03*
X218500Y74500D02*
D03*
X30500Y72000D02*
D03*
X153500Y141000D02*
D03*
X100500Y252000D02*
D03*
D65*
X304000Y226500D02*
D03*
X73500Y247000D02*
D03*
X44500Y192500D02*
D03*
M02*
