G04*
G04 #@! TF.GenerationSoftware,Altium Limited,Altium Designer,19.1.8 (144)*
G04*
G04 Layer_Color=255*
%FSLAX25Y25*%
%MOIN*%
G70*
G01*
G75*
%ADD48C,0.19685*%
%ADD49R,0.06142X0.06142*%
%ADD50C,0.06142*%
%ADD51C,0.03937*%
%ADD52R,0.06299X0.06299*%
%ADD53C,0.06299*%
%ADD54O,0.10630X0.07480*%
%ADD55O,0.07480X0.10630*%
%ADD56P,0.05031X8X22.5*%
%ADD57C,0.04600*%
%ADD58P,0.04979X8X112.5*%
D48*
X19685Y337000D02*
D03*
Y19685D02*
D03*
X374016D02*
D03*
Y374016D02*
D03*
D49*
X185500Y387000D02*
D03*
D50*
X175500D02*
D03*
X165500D02*
D03*
X155500D02*
D03*
X145500D02*
D03*
X135500D02*
D03*
X125500D02*
D03*
X115500D02*
D03*
X105500D02*
D03*
X95500D02*
D03*
X85500D02*
D03*
X75500D02*
D03*
X65500D02*
D03*
X55500D02*
D03*
X45500D02*
D03*
X185500Y287000D02*
D03*
X175500D02*
D03*
X165500D02*
D03*
X155500D02*
D03*
X145500D02*
D03*
X135500D02*
D03*
X125500D02*
D03*
X115500D02*
D03*
X105500D02*
D03*
X95500D02*
D03*
X85500D02*
D03*
X75500D02*
D03*
X65500D02*
D03*
X55500D02*
D03*
X45500D02*
D03*
X5500Y387000D02*
D03*
Y287000D02*
D03*
X35500Y387000D02*
D03*
X25500D02*
D03*
X15500D02*
D03*
X35500Y287000D02*
D03*
X25500D02*
D03*
X15500D02*
D03*
D51*
X38500Y136000D02*
D03*
X18500Y126000D02*
D03*
X38500Y116000D02*
D03*
X197500Y167500D02*
D03*
X217500Y157500D02*
D03*
X197500Y147500D02*
D03*
D52*
X217500Y269000D02*
D03*
D53*
X197500D02*
D03*
X177500D02*
D03*
X157500D02*
D03*
X127500D02*
D03*
X137500D02*
D03*
X147500D02*
D03*
X167500D02*
D03*
X187500D02*
D03*
X207500D02*
D03*
D54*
X97000Y17000D02*
D03*
X285000Y17500D02*
D03*
D55*
X87157Y36685D02*
D03*
X106843D02*
D03*
X116685D02*
D03*
X77315D02*
D03*
X265315Y37185D02*
D03*
X304685D02*
D03*
X294843D02*
D03*
X275157D02*
D03*
D56*
X283000Y294500D02*
D03*
X288000Y302000D02*
D03*
X293000Y294500D02*
D03*
D57*
X246500Y313500D02*
D03*
D58*
Y320500D02*
D03*
M02*
