G04*
G04 #@! TF.GenerationSoftware,Altium Limited,Altium Designer,19.1.8 (144)*
G04*
G04 Layer_Physical_Order=1*
G04 Layer_Color=255*
%FSLAX25Y25*%
%MOIN*%
G70*
G01*
G75*
%ADD14C,0.01500*%
%ADD15C,0.01984*%
%ADD20R,0.02100X0.07800*%
G04:AMPARAMS|DCode=21|XSize=52mil|YSize=60mil|CornerRadius=13mil|HoleSize=0mil|Usage=FLASHONLY|Rotation=90.000|XOffset=0mil|YOffset=0mil|HoleType=Round|Shape=RoundedRectangle|*
%AMROUNDEDRECTD21*
21,1,0.05200,0.03400,0,0,90.0*
21,1,0.02600,0.06000,0,0,90.0*
1,1,0.02600,0.01700,0.01300*
1,1,0.02600,0.01700,-0.01300*
1,1,0.02600,-0.01700,-0.01300*
1,1,0.02600,-0.01700,0.01300*
%
%ADD21ROUNDEDRECTD21*%
%ADD22R,0.05200X0.06000*%
G04:AMPARAMS|DCode=23|XSize=52mil|YSize=60mil|CornerRadius=13mil|HoleSize=0mil|Usage=FLASHONLY|Rotation=0.000|XOffset=0mil|YOffset=0mil|HoleType=Round|Shape=RoundedRectangle|*
%AMROUNDEDRECTD23*
21,1,0.05200,0.03400,0,0,0.0*
21,1,0.02600,0.06000,0,0,0.0*
1,1,0.02600,0.01300,-0.01700*
1,1,0.02600,-0.01300,-0.01700*
1,1,0.02600,-0.01300,0.01700*
1,1,0.02600,0.01300,0.01700*
%
%ADD23ROUNDEDRECTD23*%
%ADD24R,0.07087X0.08661*%
%ADD25R,0.07800X0.02100*%
G04:AMPARAMS|DCode=47|XSize=30mil|YSize=30mil|CornerRadius=15mil|HoleSize=0mil|Usage=FLASHONLY|Rotation=0.000|XOffset=0mil|YOffset=0mil|HoleType=Round|Shape=RoundedRectangle|*
%AMROUNDEDRECTD47*
21,1,0.03000,0.00000,0,0,0.0*
21,1,0.00000,0.03000,0,0,0.0*
1,1,0.03000,0.00000,0.00000*
1,1,0.03000,0.00000,0.00000*
1,1,0.03000,0.00000,0.00000*
1,1,0.03000,0.00000,0.00000*
%
%ADD47ROUNDEDRECTD47*%
G04:AMPARAMS|DCode=48|XSize=30mil|YSize=30mil|CornerRadius=15mil|HoleSize=0mil|Usage=FLASHONLY|Rotation=90.000|XOffset=0mil|YOffset=0mil|HoleType=Round|Shape=RoundedRectangle|*
%AMROUNDEDRECTD48*
21,1,0.03000,0.00000,0,0,90.0*
21,1,0.00000,0.03000,0,0,90.0*
1,1,0.03000,0.00000,0.00000*
1,1,0.03000,0.00000,0.00000*
1,1,0.03000,0.00000,0.00000*
1,1,0.03000,0.00000,0.00000*
%
%ADD48ROUNDEDRECTD48*%
%ADD49C,0.02000*%
%ADD50C,0.03000*%
%ADD51C,0.04000*%
%ADD52P,0.04979X8X22.5*%
%ADD53C,0.04600*%
%ADD54C,0.06142*%
%ADD55C,0.06299*%
%ADD56R,0.06299X0.06299*%
%ADD57C,0.19685*%
%ADD58C,0.03937*%
%ADD59O,0.10630X0.07480*%
%ADD60O,0.07480X0.10630*%
%ADD61P,0.05031X8X22.5*%
%ADD62P,0.04979X8X112.5*%
%ADD63C,0.02362*%
%ADD64C,0.03000*%
%ADD65C,0.01968*%
G36*
X394650Y255700D02*
X393500D01*
Y500D01*
X393538Y462D01*
X393347Y0D01*
X0D01*
Y256000D01*
X1150D01*
Y283587D01*
X1623Y283748D01*
X1895Y283395D01*
X2951Y282584D01*
X4180Y282075D01*
X5500Y281901D01*
X6820Y282075D01*
X8049Y282584D01*
X9105Y283395D01*
X9916Y284451D01*
X10229Y285208D01*
X10771D01*
X11084Y284451D01*
X11895Y283395D01*
X12951Y282584D01*
X14180Y282075D01*
X15500Y281901D01*
X16820Y282075D01*
X18049Y282584D01*
X19105Y283395D01*
X19916Y284451D01*
X20229Y285208D01*
X20771D01*
X21084Y284451D01*
X21895Y283395D01*
X22951Y282584D01*
X24180Y282075D01*
X25500Y281901D01*
X26820Y282075D01*
X28049Y282584D01*
X29105Y283395D01*
X29916Y284451D01*
X30229Y285208D01*
X30771D01*
X31084Y284451D01*
X31895Y283395D01*
X32951Y282584D01*
X34180Y282075D01*
X35500Y281901D01*
X36820Y282075D01*
X38049Y282584D01*
X39105Y283395D01*
X39916Y284451D01*
X40425Y285680D01*
X40599Y287000D01*
X40425Y288320D01*
X39916Y289549D01*
X39105Y290605D01*
X39014Y290675D01*
Y296152D01*
X39542Y296558D01*
X40069Y297244D01*
X40400Y298043D01*
X40513Y298900D01*
Y301500D01*
X40400Y302357D01*
X40069Y303156D01*
X39542Y303842D01*
Y304098D01*
X40069Y304784D01*
X40400Y305583D01*
X40513Y306440D01*
Y309040D01*
X40400Y309897D01*
X40069Y310697D01*
X39542Y311383D01*
X38856Y311909D01*
X38825Y311922D01*
X38895Y312090D01*
X39014Y313000D01*
X38895Y313910D01*
X38543Y314757D01*
X37985Y315485D01*
X37257Y316043D01*
X36410Y316395D01*
X35500Y316514D01*
X34590Y316395D01*
X33743Y316043D01*
X33015Y315485D01*
X32456Y314757D01*
X32105Y313910D01*
X31986Y313000D01*
X32105Y312090D01*
X32175Y311922D01*
X32144Y311909D01*
X31458Y311383D01*
X30931Y310697D01*
X30600Y309897D01*
X30487Y309040D01*
Y306440D01*
X30600Y305583D01*
X30931Y304784D01*
X31458Y304098D01*
Y303842D01*
X30931Y303156D01*
X30600Y302357D01*
X30487Y301500D01*
Y298900D01*
X30600Y298043D01*
X30931Y297244D01*
X31458Y296558D01*
X31986Y296152D01*
Y290675D01*
X31895Y290605D01*
X31084Y289549D01*
X30771Y288792D01*
X30229D01*
X29916Y289549D01*
X29105Y290605D01*
X28049Y291416D01*
X26820Y291925D01*
X25500Y292099D01*
X24180Y291925D01*
X22951Y291416D01*
X21895Y290605D01*
X21084Y289549D01*
X20771Y288792D01*
X20229D01*
X19916Y289549D01*
X19105Y290605D01*
X18049Y291416D01*
X16820Y291925D01*
X15500Y292099D01*
X14180Y291925D01*
X12951Y291416D01*
X11895Y290605D01*
X11084Y289549D01*
X10771Y288792D01*
X10229D01*
X9916Y289549D01*
X9105Y290605D01*
X8049Y291416D01*
X6820Y291925D01*
X5500Y292099D01*
X4180Y291925D01*
X2951Y291416D01*
X1895Y290605D01*
X1623Y290252D01*
X1150Y290413D01*
Y383587D01*
X1623Y383748D01*
X1895Y383395D01*
X1986Y383325D01*
Y378500D01*
X2105Y377590D01*
X2457Y376743D01*
X3015Y376015D01*
X6515Y372515D01*
X7243Y371956D01*
X8090Y371605D01*
X9000Y371486D01*
X12652D01*
X13058Y370958D01*
X13186Y370859D01*
Y366484D01*
X12116D01*
Y356516D01*
X27514D01*
X73515Y310515D01*
X74243Y309957D01*
X75090Y309605D01*
X76000Y309486D01*
X226254D01*
X226943Y309200D01*
X227800Y309087D01*
X231200D01*
X232057Y309200D01*
X232746Y309486D01*
X244996D01*
X245382Y309326D01*
X246500Y309179D01*
X247618Y309326D01*
X248004Y309486D01*
X252044D01*
X261015Y300515D01*
X261743Y299956D01*
X262590Y299605D01*
X263500Y299486D01*
X267848D01*
X267931Y299284D01*
X268277Y298834D01*
X268348Y298640D01*
X268238Y298328D01*
X268146Y298214D01*
X266700D01*
X265790Y298095D01*
X264943Y297744D01*
X264215Y297185D01*
X262044Y295014D01*
X246047D01*
X245642Y295542D01*
X244956Y296069D01*
X244157Y296400D01*
X243300Y296513D01*
X240700D01*
X239843Y296400D01*
X239044Y296069D01*
X238358Y295542D01*
X237932Y294988D01*
X237556Y294893D01*
X237318Y294925D01*
X236657Y295367D01*
X235760Y295545D01*
X234960D01*
Y291500D01*
Y287455D01*
X235387D01*
X235594Y286955D01*
X223023Y274384D01*
X222634Y274134D01*
Y274134D01*
X222634Y274134D01*
X220242D01*
Y277466D01*
X220883Y277958D01*
X221409Y278644D01*
X221740Y279443D01*
X221853Y280300D01*
Y283700D01*
X221740Y284557D01*
X221409Y285356D01*
X220883Y286042D01*
X220197Y286569D01*
X219397Y286900D01*
X218540Y287013D01*
X215940D01*
X215083Y286900D01*
X214284Y286569D01*
X213598Y286042D01*
X213173Y285488D01*
X212796Y285393D01*
X212559Y285425D01*
X211897Y285867D01*
X211000Y286045D01*
X210200D01*
Y282000D01*
Y277955D01*
X211000D01*
X211897Y278133D01*
X212559Y278575D01*
X212796Y278607D01*
X213173Y278512D01*
X213598Y277958D01*
X214238Y277466D01*
Y274134D01*
X212366D01*
Y263866D01*
X220977D01*
X220977Y262338D01*
X218162Y259523D01*
X208861D01*
X208087Y259369D01*
X207431Y258931D01*
X205000Y256500D01*
X203047D01*
X202772Y256445D01*
X202705Y256500D01*
X199240D01*
X198740Y257000D01*
X198740D01*
Y257000D01*
X198240Y257500D01*
X198240D01*
Y257500D01*
X196500Y259240D01*
X198240Y260990D01*
Y261545D01*
X197440D01*
X196543Y261367D01*
X195882Y260925D01*
X195644Y260893D01*
X195267Y260988D01*
X194842Y261542D01*
X194156Y262069D01*
X193357Y262400D01*
X192500Y262513D01*
X189900D01*
X189043Y262400D01*
X188244Y262069D01*
X187558Y261542D01*
X187031Y260856D01*
X186888Y260510D01*
X182247D01*
X180510Y262247D01*
Y264839D01*
X181161Y265338D01*
X181984Y266411D01*
X182250Y267052D01*
X182750D01*
X183016Y266411D01*
X183838Y265338D01*
X184911Y264516D01*
X186160Y263998D01*
X187500Y263822D01*
X188840Y263998D01*
X190089Y264516D01*
X191162Y265338D01*
X191984Y266411D01*
X192250Y267052D01*
X192750D01*
X193016Y266411D01*
X193839Y265338D01*
X194911Y264516D01*
X196160Y263998D01*
X197500Y263822D01*
X198840Y263998D01*
X200089Y264516D01*
X201162Y265338D01*
X201984Y266411D01*
X202502Y267660D01*
X202678Y269000D01*
X202502Y270340D01*
X201984Y271589D01*
X201162Y272661D01*
X200510Y273161D01*
Y287000D01*
X200407Y287779D01*
X200107Y288505D01*
X199628Y289128D01*
X192128Y296628D01*
X191505Y297107D01*
X190779Y297407D01*
X190000Y297510D01*
X171000D01*
X170221Y297407D01*
X169495Y297107D01*
X168872Y296628D01*
X164160Y291916D01*
X162951Y291416D01*
X161895Y290605D01*
X161084Y289549D01*
X160771Y288792D01*
X160229D01*
X159916Y289549D01*
X159105Y290605D01*
X158049Y291416D01*
X156820Y291925D01*
X155500Y292099D01*
X154180Y291925D01*
X152951Y291416D01*
X151895Y290605D01*
X151084Y289549D01*
X150771Y288792D01*
X150229D01*
X149916Y289549D01*
X149105Y290605D01*
X148049Y291416D01*
X146820Y291925D01*
X145500Y292099D01*
X144180Y291925D01*
X142951Y291416D01*
X141895Y290605D01*
X141084Y289549D01*
X140771Y288792D01*
X140229D01*
X139916Y289549D01*
X139105Y290605D01*
X138049Y291416D01*
X136820Y291925D01*
X135500Y292099D01*
X134180Y291925D01*
X132951Y291416D01*
X131895Y290605D01*
X131084Y289549D01*
X130771Y288792D01*
X130229D01*
X129916Y289549D01*
X129105Y290605D01*
X128049Y291416D01*
X126820Y291925D01*
X125500Y292099D01*
X124180Y291925D01*
X122951Y291416D01*
X121895Y290605D01*
X121084Y289549D01*
X120771Y288792D01*
X120229D01*
X119916Y289549D01*
X119105Y290605D01*
X118049Y291416D01*
X116820Y291925D01*
X115500Y292099D01*
X114180Y291925D01*
X112951Y291416D01*
X111895Y290605D01*
X111084Y289549D01*
X110771Y288792D01*
X110229D01*
X109916Y289549D01*
X109105Y290605D01*
X108049Y291416D01*
X106820Y291925D01*
X105500Y292099D01*
X104180Y291925D01*
X102951Y291416D01*
X101895Y290605D01*
X101084Y289549D01*
X100771Y288792D01*
X100229D01*
X99916Y289549D01*
X99105Y290605D01*
X98049Y291416D01*
X96820Y291925D01*
X95500Y292099D01*
X94180Y291925D01*
X92951Y291416D01*
X91895Y290605D01*
X91084Y289549D01*
X90771Y288792D01*
X90229D01*
X89916Y289549D01*
X89105Y290605D01*
X88049Y291416D01*
X86820Y291925D01*
X85500Y292099D01*
X84180Y291925D01*
X82951Y291416D01*
X81895Y290605D01*
X81084Y289549D01*
X80771Y288792D01*
X80229D01*
X79916Y289549D01*
X79105Y290605D01*
X78049Y291416D01*
X76820Y291925D01*
X75500Y292099D01*
X74180Y291925D01*
X72951Y291416D01*
X71895Y290605D01*
X71084Y289549D01*
X70771Y288792D01*
X70229D01*
X69916Y289549D01*
X69105Y290605D01*
X68049Y291416D01*
X66820Y291925D01*
X65500Y292099D01*
X64180Y291925D01*
X62951Y291416D01*
X61895Y290605D01*
X61084Y289549D01*
X60771Y288792D01*
X60229D01*
X59916Y289549D01*
X59105Y290605D01*
X58049Y291416D01*
X56820Y291925D01*
X55500Y292099D01*
X54180Y291925D01*
X52951Y291416D01*
X51895Y290605D01*
X51084Y289549D01*
X50575Y288320D01*
X50401Y287000D01*
X50575Y285680D01*
X51084Y284451D01*
X51895Y283395D01*
X52951Y282584D01*
X54180Y282075D01*
X55500Y281901D01*
X56820Y282075D01*
X58049Y282584D01*
X59105Y283395D01*
X59916Y284451D01*
X60229Y285208D01*
X60771D01*
X61084Y284451D01*
X61895Y283395D01*
X62951Y282584D01*
X64180Y282075D01*
X65500Y281901D01*
X66820Y282075D01*
X68049Y282584D01*
X69105Y283395D01*
X69916Y284451D01*
X70229Y285208D01*
X70771D01*
X71084Y284451D01*
X71895Y283395D01*
X72951Y282584D01*
X74180Y282075D01*
X75500Y281901D01*
X76820Y282075D01*
X78049Y282584D01*
X79105Y283395D01*
X79916Y284451D01*
X80229Y285208D01*
X80771D01*
X81084Y284451D01*
X81895Y283395D01*
X82951Y282584D01*
X84180Y282075D01*
X85500Y281901D01*
X86820Y282075D01*
X88049Y282584D01*
X89105Y283395D01*
X89916Y284451D01*
X90229Y285208D01*
X90771D01*
X91084Y284451D01*
X91895Y283395D01*
X92951Y282584D01*
X94180Y282075D01*
X95500Y281901D01*
X96820Y282075D01*
X98049Y282584D01*
X99105Y283395D01*
X99916Y284451D01*
X100229Y285208D01*
X100771D01*
X101084Y284451D01*
X101895Y283395D01*
X102951Y282584D01*
X104180Y282075D01*
X105500Y281901D01*
X106820Y282075D01*
X108049Y282584D01*
X109105Y283395D01*
X109916Y284451D01*
X110229Y285208D01*
X110771D01*
X111084Y284451D01*
X111895Y283395D01*
X112951Y282584D01*
X114180Y282075D01*
X115500Y281901D01*
X116820Y282075D01*
X118049Y282584D01*
X119105Y283395D01*
X119916Y284451D01*
X120229Y285208D01*
X120771D01*
X121084Y284451D01*
X121895Y283395D01*
X122951Y282584D01*
X124180Y282075D01*
X125500Y281901D01*
X126820Y282075D01*
X128049Y282584D01*
X129105Y283395D01*
X129916Y284451D01*
X130229Y285208D01*
X130771D01*
X131084Y284451D01*
X131895Y283395D01*
X132490Y282938D01*
Y281901D01*
X132593Y281122D01*
X132893Y280396D01*
X133372Y279773D01*
X137273Y275872D01*
X137896Y275393D01*
X138622Y275093D01*
X139401Y274990D01*
X181753D01*
X183667Y273076D01*
Y272439D01*
X183016Y271589D01*
X182750Y270948D01*
X182250D01*
X181984Y271589D01*
X181161Y272661D01*
X180089Y273484D01*
X178840Y274002D01*
X177500Y274178D01*
X176160Y274002D01*
X174911Y273484D01*
X173838Y272661D01*
X173016Y271589D01*
X172750Y270948D01*
X172250D01*
X171984Y271589D01*
X171161Y272661D01*
X170089Y273484D01*
X168840Y274002D01*
X167500Y274178D01*
X166160Y274002D01*
X164911Y273484D01*
X163839Y272661D01*
X163016Y271589D01*
X162750Y270948D01*
X162250D01*
X161984Y271589D01*
X161161Y272661D01*
X160089Y273484D01*
X158840Y274002D01*
X157500Y274178D01*
X156160Y274002D01*
X154911Y273484D01*
X153839Y272661D01*
X153016Y271589D01*
X152750Y270948D01*
X152250D01*
X151984Y271589D01*
X151162Y272661D01*
X150089Y273484D01*
X148840Y274002D01*
X147500Y274178D01*
X146160Y274002D01*
X144911Y273484D01*
X143839Y272661D01*
X143016Y271589D01*
X142750Y270948D01*
X142250D01*
X141984Y271589D01*
X141162Y272661D01*
X140089Y273484D01*
X138840Y274002D01*
X137500Y274178D01*
X136160Y274002D01*
X134911Y273484D01*
X133838Y272661D01*
X133016Y271589D01*
X132750Y270948D01*
X132250D01*
X131984Y271589D01*
X131161Y272661D01*
X130089Y273484D01*
X128840Y274002D01*
X127500Y274178D01*
X126160Y274002D01*
X124911Y273484D01*
X123838Y272661D01*
X123016Y271589D01*
X122498Y270340D01*
X122322Y269000D01*
X122498Y267660D01*
X123016Y266411D01*
X123838Y265338D01*
X124911Y264516D01*
X126160Y263998D01*
X127500Y263822D01*
X128840Y263998D01*
X130089Y264516D01*
X131161Y265338D01*
X131984Y266411D01*
X132250Y267052D01*
X132750D01*
X133016Y266411D01*
X133838Y265338D01*
X134911Y264516D01*
X136160Y263998D01*
X137500Y263822D01*
X138840Y263998D01*
X140089Y264516D01*
X141162Y265338D01*
X141984Y266411D01*
X142250Y267052D01*
X142750D01*
X143016Y266411D01*
X143839Y265338D01*
X144490Y264839D01*
Y259523D01*
X117250D01*
X116476Y259369D01*
X115820Y258931D01*
X115381Y258274D01*
X115227Y257500D01*
Y256528D01*
X114933Y256045D01*
X113548D01*
X113253Y256528D01*
Y257500D01*
X113099Y258274D01*
X112661Y258931D01*
X112004Y259369D01*
X111230Y259523D01*
X69500D01*
X68726Y259369D01*
X68069Y258931D01*
X67289Y258150D01*
X66851Y257494D01*
X66697Y256720D01*
X66686Y256613D01*
X66395Y256258D01*
X41500D01*
X40786Y256164D01*
X40121Y255888D01*
X39876Y255700D01*
X39547D01*
X39615Y255500D01*
X39550Y255450D01*
X31550Y247450D01*
X31112Y246879D01*
X30836Y246214D01*
X30742Y245500D01*
Y244217D01*
X30144Y243969D01*
X29458Y243442D01*
X28931Y242756D01*
X28600Y241957D01*
X28487Y241100D01*
Y238500D01*
X28600Y237643D01*
X28931Y236844D01*
X29458Y236158D01*
Y235902D01*
X28931Y235216D01*
X28600Y234417D01*
X28487Y233560D01*
Y230960D01*
X28600Y230102D01*
X28931Y229304D01*
X29458Y228618D01*
X30144Y228091D01*
X30742Y227843D01*
Y216500D01*
X30836Y215786D01*
X31112Y215121D01*
X31550Y214550D01*
X38050Y208050D01*
X38621Y207612D01*
X39286Y207336D01*
X39655Y207288D01*
X39700Y206943D01*
X40031Y206144D01*
X40558Y205458D01*
X41244Y204931D01*
X42043Y204600D01*
X42900Y204487D01*
X45500D01*
X46357Y204600D01*
X47156Y204931D01*
X47607Y205277D01*
X47970Y205411D01*
X48334Y205277D01*
X48784Y204931D01*
X49012Y204837D01*
Y203139D01*
X48844Y203069D01*
X48393Y202723D01*
X48030Y202589D01*
X47666Y202723D01*
X47216Y203069D01*
X46417Y203400D01*
X45560Y203513D01*
X42960D01*
X42103Y203400D01*
X41304Y203069D01*
X40617Y202542D01*
X40091Y201856D01*
X39760Y201057D01*
X39647Y200200D01*
Y196800D01*
X39760Y195943D01*
X40091Y195144D01*
X40617Y194458D01*
X41304Y193931D01*
X41490Y193854D01*
Y192500D01*
X41593Y191721D01*
X41893Y190995D01*
X42372Y190372D01*
X42990Y189753D01*
Y189112D01*
X42644Y188969D01*
X41958Y188442D01*
X41472Y187810D01*
X38528D01*
X38042Y188442D01*
X37356Y188969D01*
X36557Y189300D01*
X35700Y189413D01*
X32300D01*
X31443Y189300D01*
X30644Y188969D01*
X29958Y188442D01*
X29431Y187756D01*
X29100Y186957D01*
X28987Y186100D01*
Y183500D01*
X29100Y182643D01*
X29431Y181844D01*
X29958Y181158D01*
X30512Y180733D01*
X30607Y180356D01*
X30575Y180118D01*
X30133Y179457D01*
X29955Y178560D01*
Y177760D01*
X34000D01*
X38045D01*
Y178560D01*
X37867Y179457D01*
X37425Y180118D01*
X37393Y180356D01*
X37488Y180733D01*
X38042Y181158D01*
X38528Y181790D01*
X41472D01*
X41958Y181158D01*
Y180902D01*
X41431Y180216D01*
X41100Y179417D01*
X40987Y178560D01*
Y175960D01*
X41100Y175102D01*
X41431Y174303D01*
X41958Y173617D01*
X42644Y173091D01*
X43443Y172760D01*
X44300Y172647D01*
X47700D01*
X48557Y172760D01*
X49356Y173091D01*
X50042Y173617D01*
X50528Y174250D01*
X53472D01*
X53958Y173617D01*
X54644Y173091D01*
X54990Y172948D01*
Y169825D01*
X54644Y169681D01*
X53958Y169155D01*
X53472Y168523D01*
X50528D01*
X50042Y169155D01*
X49356Y169681D01*
X48557Y170012D01*
X47700Y170125D01*
X44300D01*
X43443Y170012D01*
X42644Y169681D01*
X41958Y169155D01*
X41431Y168469D01*
X41100Y167670D01*
X40987Y166813D01*
Y164213D01*
X41100Y163355D01*
X41431Y162556D01*
X41958Y161870D01*
Y161615D01*
X41431Y160929D01*
X41100Y160130D01*
X40987Y159272D01*
Y156672D01*
X41100Y155815D01*
X41431Y155016D01*
X41958Y154330D01*
X42644Y153804D01*
X43144Y153596D01*
X43393Y152995D01*
X43872Y152372D01*
X47372Y148872D01*
X47995Y148393D01*
X48721Y148093D01*
X49500Y147990D01*
X59477D01*
Y140853D01*
X56300D01*
X55443Y140740D01*
X54644Y140409D01*
X53958Y139883D01*
X53472Y139250D01*
X40757D01*
X40493Y139453D01*
X39532Y139851D01*
X38500Y139987D01*
X37468Y139851D01*
X36507Y139453D01*
X35681Y138819D01*
X35047Y137993D01*
X34649Y137032D01*
X34513Y136000D01*
X34649Y134968D01*
X35047Y134007D01*
X35681Y133181D01*
X36507Y132547D01*
X37468Y132149D01*
X38500Y132013D01*
X39532Y132149D01*
X40493Y132547D01*
X41319Y133181D01*
X41357Y133230D01*
X53472D01*
X53958Y132598D01*
Y132342D01*
X53431Y131656D01*
X53100Y130857D01*
X52987Y130000D01*
Y127400D01*
X53100Y126543D01*
X53431Y125744D01*
X53958Y125058D01*
X54644Y124531D01*
X55443Y124200D01*
X56300Y124087D01*
X59477D01*
Y119010D01*
X41070D01*
X40493Y119453D01*
X39532Y119851D01*
X38500Y119987D01*
X37468Y119851D01*
X36507Y119453D01*
X35930Y119010D01*
X29747D01*
X22446Y126311D01*
X22351Y127032D01*
X21953Y127993D01*
X21319Y128819D01*
X20493Y129453D01*
X19532Y129851D01*
X18500Y129987D01*
X17468Y129851D01*
X16507Y129453D01*
X15681Y128819D01*
X15047Y127993D01*
X14649Y127032D01*
X14513Y126000D01*
X14649Y124968D01*
X15047Y124007D01*
X15681Y123181D01*
X16507Y122547D01*
X17468Y122149D01*
X18189Y122054D01*
X26372Y113872D01*
X26995Y113393D01*
X27721Y113093D01*
X28500Y112990D01*
X35930D01*
X36507Y112547D01*
X37468Y112149D01*
X38500Y112013D01*
X39532Y112149D01*
X40493Y112547D01*
X41070Y112990D01*
X59477D01*
Y65510D01*
X56567D01*
Y68815D01*
X45511D01*
Y56185D01*
X48029D01*
Y48815D01*
X45511D01*
Y36185D01*
X56567D01*
Y41790D01*
X59972D01*
X60458Y41158D01*
Y40902D01*
X59931Y40216D01*
X59600Y39417D01*
X59487Y38560D01*
Y35960D01*
X59600Y35102D01*
X59931Y34304D01*
X60458Y33617D01*
X61144Y33091D01*
X61943Y32760D01*
X62800Y32647D01*
X66200D01*
X67057Y32760D01*
X67856Y33091D01*
X68542Y33617D01*
X68807Y33962D01*
X71692D01*
X71738Y33616D01*
X72315Y32223D01*
X73232Y31027D01*
X74428Y30110D01*
X75821Y29533D01*
X77315Y29336D01*
X78809Y29533D01*
X80202Y30110D01*
X81398Y31027D01*
X81986Y31795D01*
X82486D01*
X83075Y31027D01*
X84271Y30110D01*
X85663Y29533D01*
X87157Y29336D01*
X88652Y29533D01*
X90044Y30110D01*
X91240Y31027D01*
X92158Y32223D01*
X92734Y33616D01*
X92737Y33633D01*
X93260Y33773D01*
X93619Y33304D01*
X94609Y32544D01*
X95763Y32067D01*
X97000Y31904D01*
X98237Y32067D01*
X99391Y32544D01*
X100381Y33304D01*
X100740Y33773D01*
X101263Y33633D01*
X101266Y33616D01*
X101842Y32223D01*
X102760Y31027D01*
X103956Y30110D01*
X105348Y29533D01*
X106843Y29336D01*
X108337Y29533D01*
X109729Y30110D01*
X110925Y31027D01*
X111514Y31795D01*
X112014D01*
X112602Y31027D01*
X113798Y30110D01*
X115191Y29533D01*
X116685Y29336D01*
X118179Y29533D01*
X119572Y30110D01*
X120768Y31027D01*
X121685Y32223D01*
X122262Y33616D01*
X122275Y33712D01*
X124001D01*
X124458Y33117D01*
X125144Y32591D01*
X125943Y32260D01*
X126800Y32147D01*
X130200D01*
X130528Y32190D01*
X130643Y31850D01*
X130677Y31792D01*
X130690Y31726D01*
X130873Y31452D01*
X131038Y31166D01*
X131091Y31125D01*
X131128Y31069D01*
X131403Y30886D01*
X131664Y30685D01*
X131729Y30668D01*
X131785Y30631D01*
X132108Y30566D01*
X132427Y30481D01*
X132493Y30490D01*
X132559Y30477D01*
X157481D01*
X158256Y30631D01*
X158912Y31069D01*
X159351Y31726D01*
X159504Y32500D01*
Y35685D01*
X159408Y36169D01*
X159766Y36669D01*
X161039D01*
Y42000D01*
X162039D01*
Y36669D01*
X163234D01*
X163592Y36169D01*
X163496Y35685D01*
Y32500D01*
X163649Y31726D01*
X164088Y31069D01*
X164744Y30631D01*
X165519Y30477D01*
X177626D01*
X177711Y30494D01*
X177797Y30484D01*
X178095Y30570D01*
X178400Y30631D01*
X178472Y30679D01*
X178555Y30703D01*
X178798Y30897D01*
X179037Y31056D01*
X179644Y30591D01*
X179990Y30448D01*
Y29747D01*
X178253Y28010D01*
X106575D01*
X105796Y27907D01*
X105070Y27607D01*
X104446Y27128D01*
X99915Y22597D01*
X98575Y22774D01*
X95425D01*
X93931Y22577D01*
X92538Y22000D01*
X91343Y21083D01*
X90425Y19887D01*
X89848Y18494D01*
X89651Y17000D01*
X89848Y15506D01*
X90425Y14113D01*
X91343Y12917D01*
X92538Y12000D01*
X93931Y11423D01*
X95425Y11226D01*
X98575D01*
X100069Y11423D01*
X101462Y12000D01*
X102657Y12917D01*
X103575Y14113D01*
X104152Y15506D01*
X104349Y17000D01*
X104172Y18340D01*
X107822Y21990D01*
X115039D01*
X115138Y21490D01*
X114295Y21140D01*
X113304Y20381D01*
X112545Y19390D01*
X112067Y18237D01*
X111904Y17000D01*
X112067Y15763D01*
X112545Y14609D01*
X113304Y13619D01*
X114295Y12859D01*
X115448Y12382D01*
X115835Y12331D01*
Y11827D01*
X115448Y11776D01*
X114295Y11298D01*
X113304Y10538D01*
X112545Y9548D01*
X112067Y8395D01*
X111904Y7158D01*
X112067Y5920D01*
X112545Y4767D01*
X113304Y3777D01*
X114295Y3017D01*
X115448Y2539D01*
X116685Y2376D01*
X117922Y2539D01*
X119076Y3017D01*
X120066Y3777D01*
X120826Y4767D01*
X121303Y5920D01*
X121466Y7158D01*
X121303Y8395D01*
X120826Y9548D01*
X120066Y10538D01*
X119076Y11298D01*
X117922Y11776D01*
X117535Y11827D01*
Y12331D01*
X117922Y12382D01*
X119076Y12859D01*
X120066Y13619D01*
X120826Y14609D01*
X121303Y15763D01*
X121466Y17000D01*
X121303Y18237D01*
X120826Y19390D01*
X120066Y20381D01*
X119076Y21140D01*
X118232Y21490D01*
X118331Y21990D01*
X179500D01*
X180279Y22093D01*
X181005Y22393D01*
X181628Y22872D01*
X185128Y26372D01*
X185607Y26995D01*
X185907Y27721D01*
X186010Y28500D01*
Y30448D01*
X186356Y30591D01*
X187042Y31117D01*
X187505Y31720D01*
X188450D01*
X188958Y31058D01*
X189644Y30531D01*
X189990Y30388D01*
Y28500D01*
X190093Y27721D01*
X190393Y26995D01*
X190872Y26372D01*
X194116Y23128D01*
X194739Y22649D01*
X195465Y22348D01*
X196244Y22246D01*
X228251D01*
X228590Y22105D01*
X229500Y21986D01*
X230410Y22105D01*
X230749Y22246D01*
X263079D01*
X263179Y21746D01*
X262924Y21641D01*
X261934Y20881D01*
X261174Y19891D01*
X260697Y18737D01*
X260534Y17500D01*
X260697Y16263D01*
X261174Y15110D01*
X261934Y14119D01*
X262924Y13360D01*
X264077Y12882D01*
X264465Y12831D01*
Y12327D01*
X264077Y12276D01*
X262924Y11798D01*
X261934Y11038D01*
X261174Y10048D01*
X260697Y8895D01*
X260534Y7658D01*
X260697Y6420D01*
X261174Y5267D01*
X261934Y4277D01*
X262924Y3517D01*
X264077Y3039D01*
X265315Y2876D01*
X266552Y3039D01*
X267705Y3517D01*
X268696Y4277D01*
X269456Y5267D01*
X269933Y6420D01*
X270096Y7658D01*
X269933Y8895D01*
X269456Y10048D01*
X268696Y11038D01*
X267705Y11798D01*
X266552Y12276D01*
X266165Y12327D01*
Y12831D01*
X266552Y12882D01*
X267705Y13360D01*
X268696Y14119D01*
X269456Y15110D01*
X269933Y16263D01*
X270096Y17500D01*
X269933Y18737D01*
X269456Y19891D01*
X268696Y20881D01*
X267705Y21641D01*
X267451Y21746D01*
X267550Y22246D01*
X277402D01*
X278788Y20860D01*
X278425Y20387D01*
X277848Y18994D01*
X277651Y17500D01*
X277848Y16006D01*
X278425Y14613D01*
X279343Y13417D01*
X280538Y12500D01*
X281931Y11923D01*
X283425Y11726D01*
X286575D01*
X288069Y11923D01*
X289462Y12500D01*
X290657Y13417D01*
X291575Y14613D01*
X292152Y16006D01*
X292349Y17500D01*
X292152Y18994D01*
X291575Y20387D01*
X290657Y21583D01*
X289462Y22500D01*
X288069Y23077D01*
X286575Y23274D01*
X286102D01*
X285779Y23407D01*
X285000Y23510D01*
X284652D01*
X280778Y27384D01*
X280154Y27863D01*
X279428Y28163D01*
X278649Y28266D01*
X231619D01*
X231257Y28543D01*
X230410Y28895D01*
X229500Y29014D01*
X228590Y28895D01*
X227743Y28543D01*
X227381Y28266D01*
X197491D01*
X196010Y29747D01*
Y30388D01*
X196356Y30531D01*
X197016Y31037D01*
X197242Y30886D01*
X197504Y30685D01*
X197568Y30668D01*
X197624Y30631D01*
X197948Y30567D01*
X198266Y30481D01*
X198333Y30490D01*
X198398Y30477D01*
X215150D01*
X215473Y30541D01*
X215800Y30584D01*
X215858Y30618D01*
X215924Y30631D01*
X216198Y30814D01*
X216484Y30979D01*
X216525Y31032D01*
X216580Y31069D01*
X216763Y31344D01*
X216964Y31605D01*
X217211Y32105D01*
X217296Y32424D01*
X217402Y32736D01*
X217398Y32803D01*
X217415Y32868D01*
X217372Y33195D01*
X217351Y33524D01*
X217321Y33584D01*
X217312Y33650D01*
X217147Y33936D01*
X217001Y34232D01*
X216787Y34511D01*
X216589Y34988D01*
X216505Y35633D01*
Y38685D01*
X216408Y39169D01*
X216766Y39669D01*
X217961D01*
Y45000D01*
X218961D01*
Y39669D01*
X220234D01*
X220592Y39169D01*
X220496Y38685D01*
Y35633D01*
X220411Y34988D01*
X220213Y34511D01*
X219999Y34232D01*
X219853Y33936D01*
X219688Y33650D01*
X219679Y33584D01*
X219650Y33524D01*
X219628Y33195D01*
X219585Y32868D01*
X219602Y32803D01*
X219598Y32736D01*
X219704Y32424D01*
X219789Y32105D01*
X220036Y31605D01*
X220237Y31343D01*
X220420Y31069D01*
X220476Y31032D01*
X220516Y30979D01*
X220802Y30814D01*
X221076Y30631D01*
X221142Y30618D01*
X221200Y30584D01*
X221527Y30541D01*
X221850Y30477D01*
X249764D01*
X249959Y30516D01*
X250159D01*
X250343Y30592D01*
X250538Y30631D01*
X250704Y30742D01*
X250888Y30818D01*
X251029Y30959D01*
X251195Y31069D01*
X251305Y31235D01*
X251446Y31376D01*
X251522Y31560D01*
X251633Y31726D01*
X251672Y31921D01*
X251748Y32105D01*
X251848Y32605D01*
Y32647D01*
X254700D01*
X255557Y32760D01*
X256356Y33091D01*
X257042Y33617D01*
X257499Y34212D01*
X259725D01*
X259738Y34116D01*
X260315Y32723D01*
X261232Y31528D01*
X262428Y30610D01*
X263821Y30033D01*
X265315Y29836D01*
X266809Y30033D01*
X268202Y30610D01*
X269398Y31528D01*
X269986Y32295D01*
X270486D01*
X271075Y31528D01*
X272271Y30610D01*
X273663Y30033D01*
X275157Y29836D01*
X276652Y30033D01*
X278044Y30610D01*
X279240Y31528D01*
X280158Y32723D01*
X280734Y34116D01*
X280737Y34133D01*
X281260Y34273D01*
X281619Y33804D01*
X282610Y33044D01*
X283763Y32567D01*
X285000Y32404D01*
X286237Y32567D01*
X287390Y33044D01*
X288381Y33804D01*
X288740Y34273D01*
X289263Y34133D01*
X289265Y34116D01*
X289842Y32723D01*
X290760Y31528D01*
X291956Y30610D01*
X293348Y30033D01*
X294843Y29836D01*
X296337Y30033D01*
X297729Y30610D01*
X298925Y31528D01*
X299514Y32295D01*
X300014D01*
X300602Y31528D01*
X301798Y30610D01*
X303191Y30033D01*
X304685Y29836D01*
X306179Y30033D01*
X307572Y30610D01*
X308768Y31528D01*
X309685Y32723D01*
X310262Y34116D01*
X310275Y34212D01*
X313501D01*
X313958Y33617D01*
X314644Y33091D01*
X315443Y32760D01*
X316300Y32647D01*
X319700D01*
X320557Y32760D01*
X321356Y33091D01*
X322042Y33617D01*
X322569Y34304D01*
X322900Y35102D01*
X323013Y35960D01*
Y38560D01*
X322900Y39417D01*
X322569Y40216D01*
X322223Y40666D01*
X322089Y41030D01*
X322223Y41394D01*
X322528Y41790D01*
X328933D01*
Y38685D01*
X339989D01*
Y51315D01*
X337471D01*
Y57185D01*
X339989D01*
Y69815D01*
X328933D01*
Y69010D01*
X323023D01*
Y166928D01*
X322984Y167123D01*
Y167322D01*
X322908Y167507D01*
X322869Y167702D01*
X322758Y167868D01*
X322682Y168052D01*
X322541Y168193D01*
X322431Y168358D01*
X322122Y168644D01*
X322452Y169443D01*
X322565Y170300D01*
Y173700D01*
X322452Y174557D01*
X322122Y175356D01*
X321595Y176042D01*
X320963Y176528D01*
Y178472D01*
X321595Y178958D01*
X322122Y179644D01*
X322287Y180043D01*
X323553D01*
X324332Y180145D01*
X325058Y180446D01*
X325681Y180924D01*
X328128Y183372D01*
X328607Y183995D01*
X328907Y184721D01*
X329010Y185500D01*
Y224000D01*
X328907Y224779D01*
X328607Y225505D01*
X328128Y226128D01*
X325128Y229128D01*
X324505Y229607D01*
X323779Y229907D01*
X323000Y230010D01*
X322265D01*
X322122Y230356D01*
X321595Y231042D01*
X320909Y231569D01*
X320110Y231900D01*
X319461Y231985D01*
X319090Y232382D01*
X319049Y232474D01*
X318895Y233249D01*
X318456Y233905D01*
X303926Y248435D01*
X303874Y248470D01*
X303836Y248520D01*
X303547Y248688D01*
X303269Y248874D01*
X303208Y248886D01*
X303154Y248918D01*
X303013Y248937D01*
Y249500D01*
X302900Y250357D01*
X302569Y251156D01*
X302042Y251842D01*
X301488Y252268D01*
X301393Y252644D01*
X301425Y252882D01*
X301867Y253543D01*
X302045Y254440D01*
Y255700D01*
Y257040D01*
X301867Y257938D01*
X301358Y258698D01*
X300597Y259207D01*
X299700Y259385D01*
X298500D01*
Y255740D01*
X297500D01*
Y259385D01*
X296300D01*
X295403Y259207D01*
X294642Y258698D01*
X294469Y258439D01*
X293971Y258390D01*
X293431Y258931D01*
X292774Y259369D01*
X292000Y259523D01*
X273624D01*
X262901Y270319D01*
X263136Y270793D01*
X264000Y270679D01*
X265118Y270826D01*
X266161Y271258D01*
X267056Y271944D01*
X267639Y272704D01*
X268218Y272832D01*
X269350Y271700D01*
X270500D01*
Y275000D01*
Y278300D01*
X269350D01*
X268218Y277168D01*
X267639Y277296D01*
X267056Y278056D01*
X266161Y278742D01*
X265118Y279174D01*
X264000Y279321D01*
X262882Y279174D01*
X261839Y278742D01*
X260944Y278056D01*
X260258Y277161D01*
X259950Y276417D01*
X259430Y276468D01*
X259369Y276774D01*
X259222Y276994D01*
X258930Y277430D01*
X255681Y280680D01*
X255680Y280680D01*
X248837Y287524D01*
X249029Y287986D01*
X263500D01*
X264410Y288105D01*
X265257Y288457D01*
X265985Y289015D01*
X267939Y290969D01*
X268458Y291058D01*
X269144Y290531D01*
X269943Y290200D01*
X270800Y290087D01*
X274200D01*
X275057Y290200D01*
X275856Y290531D01*
X276542Y291058D01*
X276564Y291086D01*
X279952D01*
X280846Y290192D01*
X285154D01*
X285948Y290986D01*
X290052D01*
X290846Y290192D01*
X295154D01*
X297308Y292346D01*
Y296654D01*
X295154Y298808D01*
X290846D01*
X290052Y298014D01*
X285948D01*
X285154Y298808D01*
X280846D01*
X280152Y298114D01*
X276890D01*
X276626Y298570D01*
X276723Y298834D01*
X277069Y299284D01*
X277400Y300083D01*
X277513Y300940D01*
Y303540D01*
X277400Y304398D01*
X277069Y305196D01*
X276542Y305883D01*
X275856Y306409D01*
X275057Y306740D01*
X274200Y306853D01*
X270800D01*
X269943Y306740D01*
X269398Y306514D01*
X264956D01*
X255985Y315485D01*
X255257Y316043D01*
X254410Y316395D01*
X253500Y316514D01*
X249587D01*
X249556Y316556D01*
X248796Y317139D01*
X248668Y317718D01*
X249800Y318850D01*
Y320000D01*
X246500D01*
X243200D01*
Y318850D01*
X244332Y317718D01*
X244204Y317139D01*
X243444Y316556D01*
X243413Y316514D01*
X234128D01*
X234069Y316656D01*
X233542Y317342D01*
X232988Y317768D01*
X232893Y318144D01*
X232925Y318382D01*
X233367Y319043D01*
X233545Y319940D01*
Y320740D01*
X229500D01*
X225455D01*
Y319940D01*
X225633Y319043D01*
X226075Y318382D01*
X226107Y318144D01*
X226012Y317768D01*
X225458Y317342D01*
X224931Y316656D01*
X224872Y316514D01*
X77456D01*
X30355Y363615D01*
X29627Y364173D01*
X28824Y364506D01*
Y366484D01*
X20214D01*
Y370646D01*
X20328Y370738D01*
X20640Y370848D01*
X20834Y370777D01*
X21284Y370431D01*
X22083Y370100D01*
X22940Y369987D01*
X25540D01*
X26397Y370100D01*
X27196Y370431D01*
X27883Y370958D01*
X28409Y371644D01*
X28559Y372006D01*
X29277Y372100D01*
X30001Y372400D01*
X30623Y372877D01*
X37623Y379877D01*
X38100Y380499D01*
X38400Y381223D01*
X38502Y382000D01*
Y382932D01*
X39105Y383395D01*
X39916Y384451D01*
X40425Y385680D01*
X40599Y387000D01*
X40425Y388320D01*
X39916Y389549D01*
X39105Y390605D01*
X38049Y391416D01*
X36820Y391925D01*
X35500Y392099D01*
X34180Y391925D01*
X32951Y391416D01*
X31895Y390605D01*
X31084Y389549D01*
X30771Y388792D01*
X30229D01*
X29916Y389549D01*
X29105Y390605D01*
X28049Y391416D01*
X26820Y391925D01*
X25500Y392099D01*
X24180Y391925D01*
X22951Y391416D01*
X21895Y390605D01*
X21084Y389549D01*
X20575Y388320D01*
X20401Y387000D01*
X20575Y385680D01*
X21084Y384451D01*
X21895Y383395D01*
X22951Y382584D01*
X24180Y382075D01*
X25500Y381901D01*
X26820Y382075D01*
X28049Y382584D01*
X29105Y383395D01*
X29916Y384451D01*
X30229Y385208D01*
X30771D01*
X31084Y384451D01*
X31895Y383395D01*
X32021Y383298D01*
X32053Y382799D01*
X28271Y379017D01*
X27883Y379042D01*
X27196Y379569D01*
X26397Y379900D01*
X25540Y380013D01*
X22940D01*
X22083Y379900D01*
X21284Y379569D01*
X20834Y379223D01*
X20470Y379089D01*
X20107Y379223D01*
X19656Y379569D01*
X18857Y379900D01*
X18000Y380013D01*
X15400D01*
X14543Y379900D01*
X13744Y379569D01*
X13058Y379042D01*
X12652Y378514D01*
X10456D01*
X9014Y379956D01*
Y383325D01*
X9105Y383395D01*
X9916Y384451D01*
X10425Y385680D01*
X10599Y387000D01*
X10425Y388320D01*
X9916Y389549D01*
X9105Y390605D01*
X8049Y391416D01*
X6820Y391925D01*
X5500Y392099D01*
X4180Y391925D01*
X2951Y391416D01*
X1895Y390605D01*
X1623Y390252D01*
X1150Y390413D01*
Y393200D01*
X394650D01*
Y255700D01*
D02*
G37*
G36*
X194490Y285753D02*
Y273161D01*
X193839Y272661D01*
X193016Y271589D01*
X192750Y270948D01*
X192250D01*
X191984Y271589D01*
X191162Y272661D01*
X190089Y273484D01*
X189687Y273651D01*
Y274323D01*
X189585Y275102D01*
X189284Y275828D01*
X188806Y276451D01*
X185128Y280128D01*
X184505Y280607D01*
X183779Y280907D01*
X183000Y281010D01*
X140648D01*
X138897Y282761D01*
X138930Y283260D01*
X139105Y283395D01*
X139916Y284451D01*
X140229Y285208D01*
X140771D01*
X141084Y284451D01*
X141895Y283395D01*
X142951Y282584D01*
X144180Y282075D01*
X145500Y281901D01*
X146820Y282075D01*
X148049Y282584D01*
X149105Y283395D01*
X149916Y284451D01*
X150229Y285208D01*
X150771D01*
X151084Y284451D01*
X151895Y283395D01*
X152951Y282584D01*
X154180Y282075D01*
X155500Y281901D01*
X156820Y282075D01*
X158049Y282584D01*
X159105Y283395D01*
X159916Y284451D01*
X160229Y285208D01*
X160771D01*
X161084Y284451D01*
X161895Y283395D01*
X162951Y282584D01*
X164180Y282075D01*
X165500Y281901D01*
X166820Y282075D01*
X168049Y282584D01*
X169105Y283395D01*
X169916Y284451D01*
X170229Y285208D01*
X170771D01*
X171084Y284451D01*
X171895Y283395D01*
X172951Y282584D01*
X174180Y282075D01*
X175500Y281901D01*
X176820Y282075D01*
X178049Y282584D01*
X179105Y283395D01*
X179916Y284451D01*
X180425Y285680D01*
X180599Y287000D01*
X180425Y288320D01*
X179916Y289549D01*
X179105Y290605D01*
X178604Y290990D01*
X178774Y291490D01*
X188753D01*
X194490Y285753D01*
D02*
G37*
G36*
X173016Y266411D02*
X173838Y265338D01*
X174490Y264839D01*
Y261000D01*
X174593Y260221D01*
X174709Y259939D01*
X174432Y259523D01*
X160510D01*
Y264839D01*
X161161Y265338D01*
X161984Y266411D01*
X162250Y267052D01*
X162750D01*
X163016Y266411D01*
X163839Y265338D01*
X164911Y264516D01*
X166160Y263998D01*
X167500Y263822D01*
X168840Y263998D01*
X170089Y264516D01*
X171161Y265338D01*
X171984Y266411D01*
X172250Y267052D01*
X172750D01*
X173016Y266411D01*
D02*
G37*
G36*
X153016D02*
X153839Y265338D01*
X154490Y264839D01*
Y259523D01*
X150510D01*
Y264839D01*
X151162Y265338D01*
X151984Y266411D01*
X152250Y267052D01*
X152750D01*
X153016Y266411D01*
D02*
G37*
G36*
X144490Y193000D02*
Y189301D01*
X144457Y189257D01*
X144105Y188410D01*
X143986Y187500D01*
X144105Y186590D01*
X144457Y185743D01*
X144490Y185699D01*
Y177247D01*
X143372Y176128D01*
X142893Y175505D01*
X142593Y174779D01*
X142490Y174000D01*
Y173825D01*
X142144Y173681D01*
X141458Y173155D01*
X140931Y172469D01*
X140600Y171670D01*
X140487Y170813D01*
Y168213D01*
X140600Y167355D01*
X140931Y166556D01*
X141277Y166106D01*
X141411Y165743D01*
X141277Y165379D01*
X140949Y164953D01*
X138505D01*
X138223Y165319D01*
X138089Y165683D01*
X138223Y166046D01*
X138569Y166497D01*
X138900Y167295D01*
X139013Y168153D01*
Y170753D01*
X138900Y171610D01*
X138569Y172409D01*
X138042Y173095D01*
X137356Y173622D01*
X137236Y173671D01*
X137395Y174053D01*
X137514Y174963D01*
X137395Y175872D01*
X137236Y176254D01*
X137356Y176304D01*
X138042Y176830D01*
X138569Y177516D01*
X138900Y178315D01*
X139013Y179172D01*
Y181772D01*
X138900Y182630D01*
X138569Y183429D01*
X138223Y183879D01*
X138089Y184242D01*
X138223Y184606D01*
X138569Y185056D01*
X138900Y185855D01*
X139013Y186713D01*
Y189313D01*
X138900Y190170D01*
X138569Y190969D01*
X138042Y191655D01*
X137356Y192181D01*
X136965Y192344D01*
X136907Y192779D01*
X136607Y193505D01*
X136128Y194128D01*
X121328Y208928D01*
X120705Y209407D01*
X119979Y209707D01*
X119200Y209810D01*
X117028D01*
X116542Y210442D01*
X115856Y210969D01*
X115510Y211112D01*
Y211948D01*
X115856Y212091D01*
X116542Y212617D01*
X117069Y213303D01*
X117400Y214103D01*
X117513Y214960D01*
Y217560D01*
X117400Y218417D01*
X117069Y219216D01*
X116542Y219902D01*
Y220158D01*
X117069Y220844D01*
X117400Y221643D01*
X117513Y222500D01*
Y225100D01*
X117400Y225957D01*
X117069Y226756D01*
X116542Y227442D01*
X115856Y227969D01*
X115819Y227984D01*
Y230950D01*
X116043Y231243D01*
X116395Y232090D01*
X116514Y233000D01*
X116395Y233910D01*
X116043Y234757D01*
X115485Y235485D01*
X114757Y236044D01*
X113910Y236395D01*
X113000Y236514D01*
X112090Y236395D01*
X111403Y236110D01*
X109088D01*
X109069Y236156D01*
X108542Y236842D01*
X107988Y237267D01*
X107893Y237644D01*
X107925Y237882D01*
X108367Y238543D01*
X108545Y239440D01*
Y240240D01*
X104500D01*
X100455D01*
Y239440D01*
X100634Y238543D01*
X101075Y237882D01*
X101107Y237644D01*
X101012Y237267D01*
X100458Y236842D01*
X99972Y236210D01*
X98528D01*
X98042Y236842D01*
Y237098D01*
X98569Y237784D01*
X98900Y238583D01*
X99013Y239440D01*
Y242040D01*
X98900Y242898D01*
X98569Y243696D01*
X98042Y244383D01*
X97356Y244909D01*
X96557Y245240D01*
X95700Y245353D01*
X92300D01*
X91443Y245240D01*
X90644Y244909D01*
X89958Y244383D01*
X89495Y243780D01*
X87050D01*
X86542Y244442D01*
X85856Y244969D01*
X85228Y245229D01*
X85164Y245714D01*
X84888Y246379D01*
X84450Y246950D01*
X84450Y246950D01*
X75950Y255450D01*
X75379Y255888D01*
X74714Y256164D01*
X74000Y256258D01*
X68911D01*
X68720Y256720D01*
X69500Y257500D01*
X111230D01*
Y256528D01*
X110598Y256042D01*
X110173Y255488D01*
X109796Y255393D01*
X109558Y255425D01*
X108897Y255867D01*
X108000Y256045D01*
X107200D01*
Y252000D01*
Y247955D01*
X108000D01*
X108897Y248133D01*
X109558Y248575D01*
X109796Y248607D01*
X110173Y248512D01*
X110598Y247958D01*
X111284Y247431D01*
X112083Y247100D01*
X112940Y246987D01*
X115540D01*
X116398Y247100D01*
X117197Y247431D01*
X117883Y247958D01*
X118409Y248644D01*
X118740Y249443D01*
X118853Y250300D01*
Y253700D01*
X118740Y254557D01*
X118409Y255356D01*
X117883Y256042D01*
X117250Y256528D01*
Y257500D01*
X144490D01*
Y193000D01*
D02*
G37*
G36*
X239466Y241816D02*
X241906D01*
X242097Y241354D01*
X240753Y240010D01*
X239000D01*
X238221Y239907D01*
X237495Y239607D01*
X236872Y239128D01*
X233372Y235628D01*
X233010Y235157D01*
X232510Y235327D01*
Y235948D01*
X232856Y236091D01*
X233542Y236617D01*
X234069Y237303D01*
X234400Y238103D01*
X234513Y238960D01*
Y241560D01*
X234400Y242417D01*
X234069Y243216D01*
X233723Y243666D01*
X233589Y244030D01*
X233723Y244393D01*
X234069Y244844D01*
X234088Y244890D01*
X235403D01*
X236090Y244605D01*
X237000Y244486D01*
X237910Y244605D01*
X238757Y244956D01*
X238801Y244990D01*
X239466D01*
Y241816D01*
D02*
G37*
G36*
X254250Y279250D02*
X257500Y276000D01*
X257500Y272887D01*
X273107Y257173D01*
X273376Y257500D01*
X292000D01*
X292987Y256513D01*
Y254440D01*
X293100Y253583D01*
X293431Y252784D01*
X293958Y252098D01*
X294512Y251673D01*
X294607Y251296D01*
X294575Y251059D01*
X294133Y250397D01*
X293955Y249500D01*
Y248700D01*
X298000D01*
Y248200D01*
X298500D01*
Y244555D01*
X299700D01*
X300597Y244733D01*
X301358Y245242D01*
X301867Y246003D01*
X302020Y246773D01*
X302495Y247005D01*
X317025Y232474D01*
X316834Y232013D01*
X316653D01*
X315795Y231900D01*
X314997Y231569D01*
X314546Y231223D01*
X314183Y231089D01*
X313819Y231223D01*
X313369Y231569D01*
X312570Y231900D01*
X311713Y232013D01*
X309300D01*
X308163Y233150D01*
X307592Y233588D01*
X306926Y233864D01*
X306213Y233958D01*
X302651D01*
X302569Y234156D01*
X302042Y234842D01*
X301488Y235267D01*
X301393Y235644D01*
X301425Y235882D01*
X301867Y236543D01*
X302045Y237440D01*
Y238240D01*
X298000D01*
X293955D01*
Y237440D01*
X294133Y236543D01*
X294575Y235882D01*
X294607Y235644D01*
X294512Y235267D01*
X293958Y234842D01*
X293431Y234156D01*
X293100Y233357D01*
X292987Y232500D01*
Y231830D01*
X292739Y231640D01*
X292739Y231640D01*
X291000Y229900D01*
X289913Y230988D01*
Y232700D01*
X289800Y233557D01*
X289469Y234356D01*
X288942Y235042D01*
X288256Y235569D01*
X287457Y235900D01*
X286600Y236013D01*
X284000D01*
X283143Y235900D01*
X282344Y235569D01*
X281893Y235223D01*
X281530Y235089D01*
X281166Y235223D01*
X281010Y235343D01*
Y235888D01*
X281356Y236031D01*
X282042Y236558D01*
X282569Y237244D01*
X282900Y238043D01*
X283013Y238900D01*
Y241500D01*
X282900Y242357D01*
X282569Y243156D01*
X282223Y243606D01*
X282089Y243970D01*
X282223Y244334D01*
X282569Y244784D01*
X282900Y245583D01*
X283013Y246440D01*
Y249040D01*
X282900Y249898D01*
X282569Y250696D01*
X282042Y251382D01*
X281356Y251909D01*
X280557Y252240D01*
X279700Y252353D01*
X276300D01*
X275443Y252240D01*
X274644Y251909D01*
X273958Y251382D01*
X273867Y251264D01*
X273148D01*
X273042Y251402D01*
X272488Y251827D01*
X272393Y252204D01*
X272425Y252442D01*
X272867Y253103D01*
X273045Y254000D01*
Y254800D01*
X269000D01*
X264955D01*
Y254000D01*
X265133Y253103D01*
X265575Y252442D01*
X265607Y252204D01*
X265512Y251827D01*
X264958Y251402D01*
X264472Y250770D01*
X260534D01*
Y253584D01*
X255361D01*
X255357Y253608D01*
X255057Y254333D01*
X254578Y254957D01*
X253907Y255628D01*
X253283Y256107D01*
X252557Y256407D01*
X251778Y256510D01*
X248222D01*
X247443Y256407D01*
X246717Y256107D01*
X246093Y255628D01*
X245422Y254957D01*
X244943Y254333D01*
X244643Y253608D01*
X244639Y253584D01*
X239466D01*
Y251010D01*
X238801D01*
X238757Y251044D01*
X237910Y251395D01*
X237000Y251514D01*
X236090Y251395D01*
X235243Y251044D01*
X235069Y250910D01*
X233951D01*
X233542Y251442D01*
X232856Y251969D01*
X232057Y252300D01*
X231200Y252413D01*
X227800D01*
X226943Y252300D01*
X226144Y251969D01*
X225458Y251442D01*
X224931Y250756D01*
X224600Y249957D01*
X224487Y249100D01*
Y246500D01*
X224600Y245643D01*
X224931Y244844D01*
X225277Y244393D01*
X225411Y244030D01*
X225277Y243666D01*
X224931Y243216D01*
X224600Y242417D01*
X224487Y241560D01*
Y238960D01*
X224600Y238103D01*
X224931Y237303D01*
X225458Y236617D01*
X226144Y236091D01*
X226490Y235948D01*
Y230349D01*
X226361Y230250D01*
X189528D01*
X189042Y230883D01*
X188356Y231409D01*
X187557Y231740D01*
X186700Y231853D01*
X183300D01*
X182443Y231740D01*
X181644Y231409D01*
X180958Y230883D01*
X180431Y230196D01*
X180100Y229398D01*
X179987Y228540D01*
Y225940D01*
X180100Y225083D01*
X180431Y224284D01*
X180777Y223834D01*
X180911Y223470D01*
X180777Y223107D01*
X180431Y222656D01*
X180100Y221857D01*
X179987Y221000D01*
Y218400D01*
X180100Y217543D01*
X180431Y216744D01*
X180958Y216058D01*
X181273Y215815D01*
X181105Y215410D01*
X180986Y214500D01*
X181105Y213590D01*
X181456Y212743D01*
X181681Y212450D01*
Y209310D01*
X181124Y208882D01*
X180598Y208196D01*
X180267Y207398D01*
X180154Y206540D01*
Y203940D01*
X180267Y203083D01*
X180598Y202284D01*
X180943Y201834D01*
X181077Y201470D01*
X180943Y201107D01*
X180662Y200740D01*
X177550D01*
X177223Y201166D01*
X177089Y201530D01*
X177223Y201893D01*
X177569Y202344D01*
X177900Y203143D01*
X178013Y204000D01*
Y206600D01*
X177900Y207457D01*
X177569Y208256D01*
X177042Y208942D01*
X176356Y209469D01*
X175557Y209800D01*
X174700Y209913D01*
X171300D01*
X170443Y209800D01*
X169644Y209469D01*
X168958Y208942D01*
X168549Y208410D01*
X166431D01*
X166257Y208543D01*
X165410Y208895D01*
X165355Y208902D01*
X160510Y213747D01*
Y257500D01*
X176743D01*
X178872Y255372D01*
X179495Y254893D01*
X180221Y254593D01*
X181000Y254490D01*
X186888D01*
X187031Y254144D01*
X187558Y253458D01*
X187858Y253227D01*
Y252727D01*
X187618Y252542D01*
X187091Y251856D01*
X186760Y251057D01*
X186647Y250200D01*
Y246800D01*
X186760Y245943D01*
X187091Y245144D01*
X187618Y244458D01*
X188303Y243931D01*
X189102Y243600D01*
X189960Y243487D01*
X192560D01*
X193417Y243600D01*
X194216Y243931D01*
X194902Y244458D01*
X195158D01*
X195844Y243931D01*
X195890Y243912D01*
Y243597D01*
X195605Y242910D01*
X195486Y242000D01*
X195605Y241090D01*
X195957Y240243D01*
X196515Y239515D01*
X197243Y238956D01*
X198090Y238605D01*
X199000Y238486D01*
X199910Y238605D01*
X200757Y238956D01*
X201485Y239515D01*
X202044Y240243D01*
X202395Y241090D01*
X202514Y242000D01*
X202395Y242910D01*
X202044Y243757D01*
X201910Y243931D01*
Y244049D01*
X202442Y244458D01*
X202969Y245144D01*
X203300Y245943D01*
X203413Y246800D01*
Y250200D01*
X203300Y251057D01*
X202969Y251856D01*
X202442Y252542D01*
X202142Y252773D01*
Y253273D01*
X202382Y253458D01*
X202909Y254144D01*
X203047Y254477D01*
X205000D01*
X205774Y254631D01*
X206431Y255069D01*
X208861Y257500D01*
X219000D01*
X223000Y261500D01*
X223000Y271500D01*
X241000Y289500D01*
X244000D01*
X254250Y279250D01*
D02*
G37*
G36*
X56724Y250242D02*
X56293Y249597D01*
X56115Y248700D01*
Y247500D01*
X59760D01*
Y247000D01*
X60260D01*
Y242955D01*
X61060D01*
X61957Y243133D01*
X62618Y243575D01*
X62856Y243607D01*
X63232Y243512D01*
X63658Y242958D01*
X64290Y242472D01*
Y241034D01*
X62816D01*
Y236699D01*
X62316Y236600D01*
X62043Y237257D01*
X61485Y237985D01*
X60757Y238544D01*
X59910Y238895D01*
X59000Y239014D01*
X58090Y238895D01*
X57243Y238544D01*
X56515Y237985D01*
X55957Y237257D01*
X55684Y236600D01*
X55184Y236699D01*
Y241034D01*
X43416D01*
Y240758D01*
X41642D01*
X41450Y240950D01*
X40879Y241388D01*
X40214Y241664D01*
X39500Y241758D01*
X38426D01*
X38400Y241957D01*
X38069Y242756D01*
X37542Y243442D01*
X36856Y243969D01*
X36658Y244051D01*
X36541Y244641D01*
X42642Y250742D01*
X56545D01*
X56724Y250242D01*
D02*
G37*
G36*
X78585Y245014D02*
X78553Y244515D01*
X78458Y244442D01*
X77931Y243756D01*
X77600Y242957D01*
X77487Y242100D01*
Y239500D01*
X77600Y238643D01*
X77931Y237844D01*
X78458Y237158D01*
Y236902D01*
X77931Y236216D01*
X77600Y235417D01*
X77487Y234560D01*
Y233383D01*
X76987Y232950D01*
X76500Y233014D01*
X75590Y232895D01*
X75084Y232685D01*
X74584Y233019D01*
Y234966D01*
Y241034D01*
X70310D01*
Y242472D01*
X70942Y242958D01*
X71469Y243644D01*
X71612Y243990D01*
X73500D01*
X74279Y244093D01*
X75005Y244393D01*
X75628Y244872D01*
X76107Y245495D01*
X76407Y246221D01*
X76438Y246455D01*
X76966Y246634D01*
X78585Y245014D01*
D02*
G37*
G36*
X230000Y236615D02*
X230225D01*
X230543Y236228D01*
X230487Y235948D01*
Y235327D01*
X230500Y235261D01*
X230491Y235195D01*
X230576Y234876D01*
X230641Y234553D01*
X230678Y234497D01*
X230696Y234432D01*
X230896Y234171D01*
X231079Y233896D01*
X231135Y233859D01*
X231176Y233806D01*
X231462Y233641D01*
X231736Y233458D01*
X231802Y233445D01*
X231860Y233411D01*
X232360Y233241D01*
X232426Y233233D01*
X232486Y233203D01*
X232490Y233203D01*
Y229067D01*
X232387Y228733D01*
X231990Y228603D01*
X231910Y228610D01*
X231895Y228613D01*
X231889Y228612D01*
X231772Y228623D01*
X231667Y228590D01*
X231557Y228588D01*
X231462Y228567D01*
X231297Y228495D01*
X231120Y228460D01*
X230939Y228338D01*
X230738Y228251D01*
X230614Y228121D01*
X230464Y228021D01*
X230343Y227839D01*
X230191Y227682D01*
X230125Y227514D01*
X230026Y227365D01*
X229776Y226763D01*
X229542Y226458D01*
X229237Y226224D01*
X228881Y226077D01*
X228500Y226026D01*
X228119Y226077D01*
X228064Y226099D01*
X227289Y226253D01*
X189528D01*
X189045Y226548D01*
Y226740D01*
X185000D01*
Y227740D01*
X189045D01*
Y227933D01*
X189528Y228227D01*
X226361D01*
X226620Y228279D01*
X226884Y228296D01*
X227004Y228355D01*
X227135Y228381D01*
X227355Y228528D01*
X227592Y228645D01*
X227722Y228744D01*
X227782Y228814D01*
X227791Y228820D01*
X227803Y228837D01*
X227810Y228845D01*
X227921Y228919D01*
X228067Y229139D01*
X228242Y229338D01*
X228285Y229464D01*
X228359Y229575D01*
X228411Y229835D01*
X228496Y230085D01*
X228487Y230219D01*
X228513Y230349D01*
Y235948D01*
X228457Y236228D01*
X228774Y236615D01*
X229000D01*
Y240260D01*
X230000D01*
Y236615D01*
D02*
G37*
G36*
X305800Y227712D02*
Y225300D01*
X305913Y224443D01*
X306244Y223644D01*
X306770Y222958D01*
X307456Y222431D01*
X308255Y222100D01*
X309113Y221987D01*
X311713D01*
X312570Y222100D01*
X313369Y222431D01*
X314055Y222958D01*
X314310D01*
X314997Y222431D01*
X315795Y222100D01*
X316653Y221987D01*
X319253D01*
X320110Y222100D01*
X320500Y222262D01*
X321000Y221928D01*
Y219900D01*
X320500Y219633D01*
X320150Y219867D01*
X319253Y220045D01*
X318453D01*
Y216000D01*
Y211955D01*
X319253D01*
X320150Y212133D01*
X320500Y212367D01*
X321000Y212100D01*
Y208900D01*
X320500Y208633D01*
X320150Y208867D01*
X319253Y209045D01*
X318453D01*
Y205000D01*
Y200955D01*
X319253D01*
X320150Y201133D01*
X320500Y201367D01*
X321000Y201100D01*
Y197900D01*
X320500Y197633D01*
X320150Y197867D01*
X319253Y198045D01*
X318453D01*
Y194000D01*
X317453D01*
Y198045D01*
X316653D01*
X315755Y197867D01*
X315094Y197425D01*
X314857Y197393D01*
X314480Y197488D01*
X314055Y198042D01*
X313369Y198569D01*
X312570Y198900D01*
X311713Y199013D01*
X309113D01*
X308255Y198900D01*
X307456Y198569D01*
X306770Y198042D01*
X306244Y197356D01*
X305913Y196557D01*
X305800Y195700D01*
Y192300D01*
X305913Y191443D01*
X306244Y190644D01*
X306770Y189958D01*
X307403Y189472D01*
Y187528D01*
X306770Y187042D01*
X306244Y186356D01*
X306100Y186010D01*
X299534D01*
Y189084D01*
X294691D01*
X294484Y189584D01*
X296250Y191350D01*
X296688Y191921D01*
X296964Y192586D01*
X297058Y193300D01*
X297058Y193300D01*
Y200349D01*
X297256Y200431D01*
X297942Y200958D01*
X298469Y201644D01*
X298612Y201990D01*
X306100D01*
X306244Y201644D01*
X306770Y200958D01*
X307456Y200431D01*
X308255Y200100D01*
X309113Y199987D01*
X311713D01*
X312570Y200100D01*
X313369Y200431D01*
X314055Y200958D01*
X314480Y201512D01*
X314857Y201607D01*
X315094Y201575D01*
X315755Y201133D01*
X316653Y200955D01*
X317453D01*
Y205000D01*
Y209045D01*
X316653D01*
X315755Y208867D01*
X315094Y208425D01*
X314857Y208393D01*
X314480Y208488D01*
X314055Y209042D01*
X313369Y209569D01*
X312570Y209900D01*
X311713Y210013D01*
X309113D01*
X308255Y209900D01*
X307456Y209569D01*
X306770Y209042D01*
X306244Y208356D01*
X306100Y208010D01*
X298612D01*
X298469Y208356D01*
X297942Y209042D01*
X297256Y209569D01*
X296457Y209900D01*
X295600Y210013D01*
X293000D01*
X292143Y209900D01*
X291344Y209569D01*
X290658Y209042D01*
X290402D01*
X289716Y209569D01*
X288917Y209900D01*
X288060Y210013D01*
X285460D01*
X284602Y209900D01*
X283804Y209569D01*
X283118Y209042D01*
X282591Y208356D01*
X282260Y207557D01*
X282147Y206700D01*
Y203300D01*
X282260Y202443D01*
X282591Y201644D01*
X283118Y200958D01*
X283750Y200472D01*
Y200139D01*
X283456Y199757D01*
X283105Y198910D01*
X282986Y198000D01*
X283105Y197090D01*
X283456Y196243D01*
X283742Y195871D01*
Y189084D01*
X278466D01*
Y184810D01*
X277028D01*
X276542Y185442D01*
X275856Y185969D01*
X275846Y185973D01*
X275895Y186090D01*
X276014Y187000D01*
X275895Y187910D01*
X275543Y188757D01*
X274985Y189485D01*
X274257Y190043D01*
X273410Y190395D01*
X272500Y190514D01*
X271590Y190395D01*
X270743Y190043D01*
X270015Y189485D01*
X269457Y188757D01*
X269105Y187910D01*
X268986Y187000D01*
X269105Y186090D01*
X269154Y185973D01*
X269144Y185969D01*
X268458Y185442D01*
X268258Y185182D01*
X267758Y185352D01*
Y209858D01*
X273486Y215585D01*
X273985Y215553D01*
X274058Y215458D01*
X274744Y214931D01*
X275543Y214600D01*
X276400Y214487D01*
X279000D01*
X279857Y214600D01*
X280656Y214931D01*
X281342Y215458D01*
X281598D01*
X282284Y214931D01*
X283083Y214600D01*
X283940Y214487D01*
X286540D01*
X287398Y214600D01*
X288196Y214931D01*
X288882Y215458D01*
X289409Y216144D01*
X289740Y216943D01*
X289853Y217800D01*
Y220782D01*
X291640Y222570D01*
X291910Y222605D01*
X292757Y222956D01*
X293485Y223515D01*
X294043Y224243D01*
X294395Y225090D01*
X294456Y225556D01*
X295582Y226682D01*
X296300Y226587D01*
X299700D01*
X300557Y226700D01*
X301356Y227031D01*
X302042Y227558D01*
X302569Y228244D01*
X302651Y228442D01*
X305070D01*
X305800Y227712D01*
D02*
G37*
G36*
X274604Y235932D02*
X274689Y235543D01*
X274681Y235475D01*
X274117Y235042D01*
X273591Y234356D01*
X273260Y233557D01*
X273147Y232700D01*
Y229300D01*
X273260Y228443D01*
X273591Y227644D01*
X274117Y226958D01*
X274803Y226431D01*
X275603Y226100D01*
X276460Y225987D01*
X279060D01*
X279917Y226100D01*
X280716Y226431D01*
X281166Y226777D01*
X281530Y226911D01*
X281893Y226777D01*
X282344Y226431D01*
X283143Y226100D01*
X284000Y225987D01*
X286550D01*
X286640Y225877D01*
X286776Y225506D01*
X285783Y224513D01*
X283940D01*
X283083Y224400D01*
X282284Y224069D01*
X281834Y223723D01*
X281470Y223589D01*
X281106Y223723D01*
X280656Y224069D01*
X279857Y224400D01*
X279000Y224513D01*
X276400D01*
X275543Y224400D01*
X274744Y224069D01*
X274058Y223542D01*
X273531Y222856D01*
X273271Y222228D01*
X272786Y222164D01*
X272121Y221888D01*
X271550Y221450D01*
X271550Y221450D01*
X263050Y212950D01*
X262612Y212379D01*
X262336Y211714D01*
X262242Y211000D01*
Y182642D01*
X261728Y182128D01*
X261304Y182411D01*
X261400Y182643D01*
X261513Y183500D01*
Y186100D01*
X261400Y186957D01*
X261069Y187756D01*
X260542Y188442D01*
X259856Y188969D01*
X259846Y188973D01*
X259895Y189090D01*
X260014Y190000D01*
X259895Y190910D01*
X259543Y191757D01*
X259510Y191801D01*
Y193448D01*
X259856Y193591D01*
X260542Y194117D01*
X261069Y194804D01*
X261400Y195603D01*
X261513Y196460D01*
Y199060D01*
X261400Y199917D01*
X261069Y200716D01*
X260723Y201166D01*
X260589Y201530D01*
X260723Y201893D01*
X261069Y202344D01*
X261400Y203143D01*
X261513Y204000D01*
Y206600D01*
X261400Y207457D01*
X261069Y208256D01*
X260542Y208942D01*
X259856Y209469D01*
X259510Y209612D01*
Y214500D01*
X259407Y215279D01*
X259107Y216005D01*
X258628Y216628D01*
X255510Y219747D01*
Y222416D01*
X260534D01*
Y224490D01*
X261699D01*
X261743Y224457D01*
X262590Y224105D01*
X263500Y223986D01*
X264410Y224105D01*
X265257Y224457D01*
X265985Y225015D01*
X266544Y225743D01*
X266895Y226590D01*
X267014Y227500D01*
X266895Y228410D01*
X266544Y229257D01*
X265985Y229985D01*
X265257Y230543D01*
X264410Y230895D01*
X263500Y231014D01*
X262590Y230895D01*
X261743Y230543D01*
X261699Y230510D01*
X260534D01*
Y234184D01*
X253594D01*
X253403Y234646D01*
X254747Y235990D01*
X274571D01*
X274604Y235932D01*
D02*
G37*
G36*
X40842Y229742D02*
X40056Y228956D01*
X39590Y228895D01*
X38743Y228543D01*
X38015Y227985D01*
X37457Y227257D01*
X37105Y226410D01*
X36986Y225500D01*
X37105Y224590D01*
X37457Y223743D01*
X38015Y223015D01*
X38743Y222457D01*
X39590Y222105D01*
X40500Y221986D01*
X41410Y222105D01*
X42257Y222457D01*
X42985Y223015D01*
X43543Y223743D01*
X43895Y224590D01*
X43900Y224632D01*
X44400Y224599D01*
Y223500D01*
X54200D01*
Y224966D01*
X55184D01*
X55242Y224490D01*
Y214215D01*
X54794Y213994D01*
X54697Y214069D01*
X53898Y214400D01*
X53040Y214513D01*
X50440D01*
X49583Y214400D01*
X48784Y214069D01*
X48334Y213723D01*
X47970Y213589D01*
X47607Y213723D01*
X47156Y214069D01*
X46357Y214400D01*
X45500Y214513D01*
X42900D01*
X42043Y214400D01*
X41244Y214069D01*
X40558Y213542D01*
X40370Y213530D01*
X36258Y217642D01*
Y227843D01*
X36856Y228091D01*
X37542Y228618D01*
X38069Y229304D01*
X38400Y230102D01*
X38418Y230242D01*
X40635D01*
X40842Y229742D01*
D02*
G37*
G36*
X239466Y232556D02*
Y222416D01*
X239590D01*
X239593Y222393D01*
X239893Y221667D01*
X240372Y221043D01*
X241543Y219872D01*
X242167Y219393D01*
X242893Y219093D01*
X243672Y218990D01*
X246500D01*
X247279Y219093D01*
X248005Y219393D01*
X248628Y219872D01*
X249028Y220271D01*
X249490Y220080D01*
Y218500D01*
X249593Y217721D01*
X249893Y216995D01*
X250372Y216372D01*
X253490Y213253D01*
Y209612D01*
X253144Y209469D01*
X252458Y208942D01*
X251950Y208280D01*
X249505D01*
X249042Y208882D01*
X248356Y209409D01*
X247557Y209740D01*
X246700Y209853D01*
X243300D01*
X242443Y209740D01*
X241644Y209409D01*
X240958Y208882D01*
X240431Y208196D01*
X240100Y207398D01*
X239987Y206540D01*
Y203940D01*
X240100Y203083D01*
X240431Y202284D01*
X240777Y201834D01*
X240911Y201470D01*
X240777Y201107D01*
X240472Y200710D01*
X238028D01*
X237723Y201107D01*
X237589Y201470D01*
X237723Y201834D01*
X238069Y202284D01*
X238400Y203083D01*
X238513Y203940D01*
Y206540D01*
X238465Y206900D01*
X238510Y207240D01*
Y232253D01*
X239004Y232747D01*
X239466Y232556D01*
D02*
G37*
G36*
X59477Y208423D02*
Y189413D01*
X56300D01*
X55443Y189300D01*
X54644Y188969D01*
X53958Y188442D01*
X53472Y187810D01*
X50528D01*
X50042Y188442D01*
X49356Y188969D01*
X49010Y189112D01*
Y191000D01*
X48907Y191779D01*
X48607Y192505D01*
X48128Y193128D01*
X47564Y193693D01*
X47586Y194215D01*
X47666Y194277D01*
X48030Y194411D01*
X48393Y194277D01*
X48844Y193931D01*
X49643Y193600D01*
X50500Y193487D01*
X53100D01*
X53957Y193600D01*
X54756Y193931D01*
X55442Y194458D01*
X55969Y195144D01*
X56300Y195943D01*
X56413Y196800D01*
Y200200D01*
X56300Y201057D01*
X55969Y201856D01*
X55442Y202542D01*
X54756Y203069D01*
X54528Y203163D01*
Y204861D01*
X54697Y204931D01*
X55383Y205458D01*
X55909Y206144D01*
X56166Y206764D01*
X56714Y206836D01*
X57379Y207112D01*
X57950Y207550D01*
X59015Y208615D01*
X59477Y208423D01*
D02*
G37*
G36*
X229277Y201834D02*
X229411Y201470D01*
X229277Y201107D01*
X228931Y200656D01*
X228600Y199857D01*
X228487Y199000D01*
Y196400D01*
X228600Y195543D01*
X228931Y194744D01*
X229458Y194058D01*
X230144Y193531D01*
X230195Y193510D01*
X230095Y193010D01*
X225747D01*
X225333Y193423D01*
X225366Y193922D01*
X225542Y194058D01*
X226069Y194744D01*
X226400Y195543D01*
X226513Y196400D01*
Y199000D01*
X226400Y199857D01*
X226069Y200656D01*
X225723Y201107D01*
X225589Y201470D01*
X225723Y201834D01*
X226028Y202230D01*
X228972D01*
X229277Y201834D01*
D02*
G37*
G36*
X129966Y191778D02*
X129958Y191655D01*
X129431Y190969D01*
X129271Y190581D01*
X128729D01*
X128569Y190969D01*
X128042Y191655D01*
X127356Y192181D01*
X126557Y192512D01*
X125700Y192625D01*
X122300D01*
X121443Y192512D01*
X120644Y192181D01*
X119958Y191655D01*
X119549Y191123D01*
X115010D01*
Y194754D01*
X115057Y194760D01*
X115856Y195091D01*
X116542Y195617D01*
X117069Y196303D01*
X117400Y197102D01*
X117513Y197960D01*
Y200560D01*
X117400Y201417D01*
X117069Y202216D01*
X116542Y202902D01*
Y203158D01*
X117028Y203790D01*
X117953D01*
X129966Y191778D01*
D02*
G37*
G36*
X154490Y212500D02*
X154593Y211721D01*
X154893Y210995D01*
X155372Y210372D01*
X161098Y204645D01*
X161105Y204590D01*
X161457Y203743D01*
X162015Y203015D01*
X162743Y202456D01*
X163590Y202105D01*
X164500Y201986D01*
X165410Y202105D01*
X166097Y202390D01*
X168412D01*
X168431Y202344D01*
X168777Y201893D01*
X168911Y201530D01*
X168777Y201166D01*
X168431Y200716D01*
X168100Y199917D01*
X167987Y199060D01*
Y196460D01*
X168100Y195603D01*
X168431Y194804D01*
X168958Y194117D01*
X169644Y193591D01*
X170443Y193260D01*
X171300Y193147D01*
X174700D01*
X175557Y193260D01*
X176356Y193591D01*
X177042Y194117D01*
X177505Y194720D01*
X180616D01*
X181124Y194058D01*
X181810Y193531D01*
X182609Y193200D01*
X183467Y193087D01*
X186867D01*
X187724Y193200D01*
X188523Y193531D01*
X189209Y194058D01*
X189717Y194720D01*
X192829D01*
X193291Y194117D01*
X193977Y193591D01*
X194776Y193260D01*
X195633Y193147D01*
X199033D01*
X199891Y193260D01*
X200690Y193591D01*
X201376Y194117D01*
X201838Y194720D01*
X204949D01*
X205458Y194058D01*
X206144Y193531D01*
X206943Y193200D01*
X207800Y193087D01*
X211200D01*
X212057Y193200D01*
X212856Y193531D01*
X213542Y194058D01*
X214069Y194744D01*
X214400Y195543D01*
X214513Y196400D01*
Y199000D01*
X214400Y199857D01*
X214069Y200656D01*
X213723Y201107D01*
X213589Y201470D01*
X213723Y201834D01*
X214069Y202284D01*
X214400Y203083D01*
X214513Y203940D01*
Y206540D01*
X214400Y207398D01*
X214069Y208196D01*
X213542Y208882D01*
X212856Y209409D01*
X212510Y209552D01*
Y210246D01*
X216254Y213990D01*
X226199D01*
X226243Y213956D01*
X227090Y213605D01*
X228000Y213486D01*
X228910Y213605D01*
X229757Y213956D01*
X230485Y214515D01*
X231044Y215243D01*
X231395Y216090D01*
X231514Y217000D01*
X231395Y217910D01*
X231044Y218757D01*
X230485Y219485D01*
X229757Y220043D01*
X228910Y220395D01*
X228000Y220514D01*
X227090Y220395D01*
X226243Y220043D01*
X226199Y220010D01*
X215007D01*
X214228Y219907D01*
X213502Y219607D01*
X212879Y219128D01*
X207372Y213621D01*
X206893Y212998D01*
X206592Y212272D01*
X206490Y211493D01*
Y209552D01*
X206144Y209409D01*
X205458Y208882D01*
X204931Y208196D01*
X204600Y207398D01*
X204487Y206540D01*
Y203940D01*
X204600Y203083D01*
X204931Y202284D01*
X205277Y201834D01*
X205411Y201470D01*
X205277Y201107D01*
X204995Y200740D01*
X201884D01*
X201557Y201166D01*
X201423Y201530D01*
X201557Y201893D01*
X201902Y202344D01*
X202233Y203143D01*
X202346Y204000D01*
Y206600D01*
X202233Y207457D01*
X201902Y208256D01*
X201376Y208942D01*
X200807Y209379D01*
X200895Y209590D01*
X201014Y210500D01*
X200895Y211410D01*
X200543Y212257D01*
X199985Y212985D01*
X199257Y213544D01*
X198410Y213895D01*
X197500Y214014D01*
X196590Y213895D01*
X195743Y213544D01*
X195015Y212985D01*
X194457Y212257D01*
X194105Y211410D01*
X193986Y210500D01*
X194105Y209590D01*
X194130Y209532D01*
X193977Y209469D01*
X193291Y208942D01*
X192764Y208256D01*
X192434Y207457D01*
X192321Y206600D01*
Y204000D01*
X192434Y203143D01*
X192764Y202344D01*
X193110Y201893D01*
X193244Y201530D01*
X193110Y201166D01*
X192783Y200740D01*
X189671D01*
X189390Y201107D01*
X189256Y201470D01*
X189390Y201834D01*
X189735Y202284D01*
X190066Y203083D01*
X190179Y203940D01*
Y206540D01*
X190066Y207398D01*
X189735Y208196D01*
X189209Y208882D01*
X188523Y209409D01*
X187724Y209740D01*
X187701Y209743D01*
Y213124D01*
X187895Y213590D01*
X188014Y214500D01*
X187903Y215344D01*
X188356Y215531D01*
X189042Y216058D01*
X189569Y216744D01*
X189900Y217543D01*
X190013Y218400D01*
Y221000D01*
X189900Y221857D01*
X189569Y222656D01*
X189223Y223107D01*
X189089Y223470D01*
X189223Y223834D01*
X189528Y224230D01*
X227289D01*
X227590Y224105D01*
X228500Y223986D01*
X229410Y224105D01*
X230257Y224457D01*
X230985Y225015D01*
X231543Y225743D01*
X231895Y226590D01*
X231990Y226611D01*
X232490Y226209D01*
Y209853D01*
X231800D01*
X230943Y209740D01*
X230144Y209409D01*
X229458Y208882D01*
X228972Y208250D01*
X226028D01*
X225542Y208882D01*
X224856Y209409D01*
X224057Y209740D01*
X223200Y209853D01*
X219800D01*
X218943Y209740D01*
X218144Y209409D01*
X217458Y208882D01*
X216931Y208196D01*
X216600Y207398D01*
X216487Y206540D01*
Y203940D01*
X216600Y203083D01*
X216931Y202284D01*
X217277Y201834D01*
X217411Y201470D01*
X217277Y201107D01*
X216931Y200656D01*
X216600Y199857D01*
X216487Y199000D01*
Y196400D01*
X216600Y195543D01*
X216931Y194744D01*
X217458Y194058D01*
X218144Y193531D01*
X218490Y193388D01*
Y193000D01*
X218593Y192221D01*
X218893Y191495D01*
X219372Y190872D01*
X222372Y187872D01*
X222995Y187393D01*
X223721Y187093D01*
X224500Y186990D01*
X231699D01*
X231743Y186957D01*
X232590Y186605D01*
X233500Y186486D01*
X234410Y186605D01*
X235257Y186957D01*
X235985Y187515D01*
X236543Y188243D01*
X236895Y189090D01*
X237014Y190000D01*
X236895Y190910D01*
X236543Y191757D01*
X235985Y192485D01*
X235761Y192657D01*
X235901Y193180D01*
X236057Y193200D01*
X236856Y193531D01*
X237542Y194058D01*
X238028Y194690D01*
X240472D01*
X240958Y194058D01*
X241644Y193531D01*
X241990Y193388D01*
Y189052D01*
X241644Y188909D01*
X240958Y188382D01*
X240431Y187697D01*
X240100Y186898D01*
X239987Y186040D01*
Y183440D01*
X240100Y182583D01*
X240431Y181784D01*
X240777Y181334D01*
X240911Y180970D01*
X240777Y180606D01*
X240431Y180156D01*
X240247Y179711D01*
X239995Y179607D01*
X239372Y179128D01*
X236563Y176320D01*
X236085Y175696D01*
X235784Y174970D01*
X235681Y174191D01*
Y174050D01*
X235456Y173757D01*
X235105Y172910D01*
X234986Y172000D01*
X235105Y171090D01*
X235456Y170243D01*
X235681Y169950D01*
Y169309D01*
X235784Y168530D01*
X236085Y167804D01*
X236563Y167180D01*
X239572Y164172D01*
X240195Y163693D01*
X240305Y163648D01*
X240431Y163344D01*
X240958Y162658D01*
X241512Y162232D01*
X241607Y161856D01*
X241575Y161618D01*
X241133Y160957D01*
X240955Y160060D01*
Y159260D01*
X245000D01*
X249045D01*
Y160060D01*
X248867Y160957D01*
X248425Y161618D01*
X248393Y161856D01*
X248488Y162232D01*
X249042Y162658D01*
X249569Y163344D01*
X249900Y164143D01*
X250013Y165000D01*
Y167600D01*
X249900Y168457D01*
X249569Y169256D01*
X249042Y169942D01*
X248356Y170469D01*
X247557Y170800D01*
X246700Y170913D01*
X243300D01*
X242443Y170800D01*
X242289Y170736D01*
X241958Y171034D01*
X241898Y171115D01*
X242014Y172000D01*
X241968Y172356D01*
X242425Y172707D01*
X242443Y172700D01*
X243300Y172587D01*
X246700D01*
X247557Y172700D01*
X248356Y173031D01*
X249042Y173558D01*
X249551Y174220D01*
X251995D01*
X252458Y173617D01*
X253144Y173091D01*
X253490Y172948D01*
Y170612D01*
X253144Y170469D01*
X252458Y169942D01*
X251931Y169256D01*
X251600Y168457D01*
X251487Y167600D01*
Y165000D01*
X251600Y164143D01*
X251931Y163344D01*
X252277Y162893D01*
X252411Y162530D01*
X252277Y162166D01*
X251931Y161716D01*
X251600Y160917D01*
X251487Y160060D01*
Y157460D01*
X251600Y156603D01*
X251931Y155804D01*
X252458Y155117D01*
X253144Y154591D01*
X253943Y154260D01*
X254800Y154147D01*
X258200D01*
X259057Y154260D01*
X259856Y154591D01*
X260542Y155117D01*
X260928Y155620D01*
X268832D01*
Y147612D01*
X268729Y147569D01*
X268043Y147042D01*
X267516Y146356D01*
X267185Y145557D01*
X267072Y144700D01*
Y141300D01*
X267185Y140443D01*
X267516Y139644D01*
X268043Y138958D01*
X268729Y138431D01*
X268789Y138406D01*
Y137940D01*
X268270Y137542D01*
X267744Y136856D01*
X267413Y136057D01*
X267300Y135200D01*
Y131800D01*
X267413Y130943D01*
X267744Y130144D01*
X268270Y129458D01*
X268956Y128931D01*
X269346Y128770D01*
X269246Y128270D01*
X264987D01*
X258128Y135128D01*
X257505Y135607D01*
X256779Y135907D01*
X256000Y136010D01*
X252146D01*
X252069Y136196D01*
X251542Y136882D01*
X250856Y137409D01*
X250057Y137740D01*
X249200Y137853D01*
X245800D01*
X244943Y137740D01*
X244144Y137409D01*
X243458Y136882D01*
X242972Y136250D01*
X218507D01*
X205128Y149628D01*
X204505Y150107D01*
X203779Y150407D01*
X203000Y150510D01*
X200070D01*
X199493Y150953D01*
X198532Y151351D01*
X197500Y151487D01*
X196468Y151351D01*
X195507Y150953D01*
X194681Y150319D01*
X194047Y149493D01*
X193649Y148532D01*
X193513Y147500D01*
X193649Y146468D01*
X194047Y145507D01*
X194681Y144681D01*
X195507Y144047D01*
X196468Y143649D01*
X197500Y143513D01*
X198532Y143649D01*
X199493Y144047D01*
X200070Y144490D01*
X201753D01*
X215131Y131112D01*
X215755Y130633D01*
X216481Y130333D01*
X217260Y130230D01*
X242972D01*
X243458Y129598D01*
X244012Y129173D01*
X244107Y128796D01*
X244075Y128559D01*
X243633Y127897D01*
X243455Y127000D01*
Y126200D01*
X247500D01*
X251545D01*
Y127000D01*
X251367Y127897D01*
X250925Y128559D01*
X250893Y128796D01*
X250988Y129173D01*
X251542Y129598D01*
X251843Y129990D01*
X254753D01*
X261332Y123411D01*
X261304Y122985D01*
X260746Y122257D01*
X260395Y121410D01*
X260275Y120500D01*
X260395Y119590D01*
X260395Y119590D01*
X260344Y119569D01*
X259658Y119042D01*
X259402D01*
X258716Y119569D01*
X257917Y119900D01*
X257060Y120013D01*
X254460D01*
X253603Y119900D01*
X252803Y119569D01*
X252117Y119042D01*
X251591Y118356D01*
X251578Y118325D01*
X251410Y118395D01*
X250500Y118514D01*
X249590Y118395D01*
X248743Y118043D01*
X248015Y117485D01*
X247457Y116757D01*
X247105Y115910D01*
X246986Y115000D01*
X247105Y114090D01*
X247457Y113243D01*
X248015Y112515D01*
X248743Y111957D01*
X249590Y111605D01*
X250500Y111486D01*
X251410Y111605D01*
X251578Y111675D01*
X251591Y111644D01*
X252117Y110958D01*
X252803Y110431D01*
X253603Y110100D01*
X254460Y109987D01*
X257060D01*
X257917Y110100D01*
X258716Y110431D01*
X259402Y110958D01*
X259658D01*
X260344Y110431D01*
X261143Y110100D01*
X262000Y109987D01*
X264600D01*
X265457Y110100D01*
X266256Y110431D01*
X266942Y110958D01*
X267469Y111644D01*
X267612Y111990D01*
X275466D01*
Y110210D01*
X268200D01*
X267421Y110107D01*
X266695Y109807D01*
X266072Y109328D01*
X263513Y106770D01*
X259129D01*
X259042Y106883D01*
X258356Y107409D01*
X257557Y107740D01*
X256700Y107853D01*
X253300D01*
X252443Y107740D01*
X251644Y107409D01*
X250958Y106883D01*
X250935Y106853D01*
X250436Y106820D01*
X249628Y107628D01*
X249005Y108107D01*
X248279Y108407D01*
X247500Y108510D01*
X245112D01*
X244969Y108856D01*
X244442Y109542D01*
X243756Y110069D01*
X242957Y110400D01*
X242100Y110513D01*
X239500D01*
X238643Y110400D01*
X237844Y110069D01*
X237393Y109723D01*
X237030Y109589D01*
X236666Y109723D01*
X236216Y110069D01*
X235417Y110400D01*
X234560Y110513D01*
X231960D01*
X231102Y110400D01*
X230304Y110069D01*
X229618Y109542D01*
X229091Y108856D01*
X228760Y108057D01*
X228754Y108010D01*
X221000D01*
X220221Y107907D01*
X219495Y107607D01*
X219458Y107579D01*
X219010Y107800D01*
Y111000D01*
X218907Y111779D01*
X218607Y112505D01*
X218128Y113128D01*
X204628Y126628D01*
X204005Y127107D01*
X203279Y127407D01*
X202500Y127510D01*
X164500D01*
X163721Y127407D01*
X162995Y127107D01*
X162372Y126628D01*
X137899Y102156D01*
X137421Y101533D01*
X137120Y100807D01*
X137018Y100028D01*
Y98453D01*
X136784Y98356D01*
X136334Y98011D01*
X135970Y97877D01*
X135607Y98011D01*
X135156Y98356D01*
X134357Y98687D01*
X133500Y98800D01*
X130900D01*
X130043Y98687D01*
X129244Y98356D01*
X128558Y97830D01*
X128031Y97144D01*
X127730Y96417D01*
X123997D01*
X123356Y96909D01*
X122557Y97240D01*
X121700Y97353D01*
X118300D01*
X117443Y97240D01*
X116644Y96909D01*
X115958Y96382D01*
X115431Y95697D01*
X115354Y95510D01*
X105050D01*
Y98700D01*
X103000D01*
Y99200D01*
X102500D01*
Y104100D01*
X101034D01*
Y105084D01*
X101010D01*
Y108753D01*
X107128Y114872D01*
X107607Y115495D01*
X107907Y116221D01*
X108010Y117000D01*
Y125709D01*
X108542Y126118D01*
X109069Y126804D01*
X109400Y127603D01*
X109513Y128460D01*
Y131060D01*
X109400Y131917D01*
X109069Y132716D01*
X108542Y133402D01*
Y133658D01*
X109028Y134290D01*
X110972D01*
X111458Y133658D01*
X112012Y133232D01*
X112107Y132856D01*
X112075Y132618D01*
X111633Y131957D01*
X111455Y131060D01*
Y130260D01*
X115500D01*
X119545D01*
Y131060D01*
X119367Y131957D01*
X118925Y132618D01*
X118893Y132856D01*
X118988Y133232D01*
X119542Y133658D01*
X120069Y134344D01*
X120400Y135143D01*
X120513Y136000D01*
Y138600D01*
X120400Y139457D01*
X120069Y140256D01*
X119542Y140942D01*
X118856Y141469D01*
X118057Y141800D01*
X117200Y141913D01*
X113800D01*
X112943Y141800D01*
X112144Y141469D01*
X111458Y140942D01*
X110972Y140310D01*
X109028D01*
X108542Y140942D01*
X107856Y141469D01*
X107057Y141800D01*
X106200Y141913D01*
X105757D01*
Y145759D01*
X105895Y146090D01*
X106014Y147000D01*
X105895Y147910D01*
X105757Y148241D01*
Y153253D01*
X105655Y154032D01*
X105354Y154758D01*
X104876Y155381D01*
X103090Y157166D01*
X103282Y157628D01*
X106689D01*
X107019Y157252D01*
X106986Y157000D01*
X107105Y156090D01*
X107457Y155243D01*
X108015Y154515D01*
X108743Y153956D01*
X109590Y153605D01*
X110500Y153486D01*
X111410Y153605D01*
X112257Y153956D01*
X112985Y154515D01*
X113543Y155243D01*
X113895Y156090D01*
X114014Y157000D01*
X113895Y157910D01*
X113543Y158757D01*
X113510Y158801D01*
Y162000D01*
X113407Y162779D01*
X113107Y163505D01*
X112628Y164128D01*
X111116Y165641D01*
X110492Y166119D01*
X109766Y166420D01*
X108987Y166523D01*
X107534D01*
Y169397D01*
X86466D01*
Y166523D01*
X85013D01*
X84234Y166420D01*
X83508Y166119D01*
X82884Y165641D01*
X79464Y162221D01*
X78986Y161598D01*
X78781Y161102D01*
X62435D01*
X62223Y161379D01*
X62042Y161870D01*
X62569Y162556D01*
X62900Y163355D01*
X63013Y164213D01*
Y166813D01*
X62900Y167670D01*
X62569Y168469D01*
X62042Y169155D01*
X61500Y169571D01*
Y173201D01*
X62042Y173617D01*
X62328Y173990D01*
X63000D01*
X63779Y174093D01*
X64505Y174393D01*
X65128Y174872D01*
X67355Y177098D01*
X67410Y177105D01*
X68257Y177456D01*
X68985Y178015D01*
X69543Y178743D01*
X69895Y179590D01*
X69902Y179645D01*
X71128Y180872D01*
X71607Y181495D01*
X71907Y182221D01*
X72010Y183000D01*
Y201388D01*
X72356Y201531D01*
X73042Y202058D01*
X73528Y202690D01*
X74972D01*
X75458Y202058D01*
X76144Y201531D01*
X76943Y201200D01*
X77800Y201087D01*
X81200D01*
X82057Y201200D01*
X82856Y201531D01*
X83542Y202058D01*
X84069Y202744D01*
X84400Y203543D01*
X84513Y204400D01*
Y207000D01*
X84400Y207857D01*
X84069Y208656D01*
X83542Y209342D01*
Y209598D01*
X84069Y210284D01*
X84400Y211083D01*
X84513Y211940D01*
Y214540D01*
X84400Y215398D01*
X84069Y216196D01*
X83542Y216882D01*
X83035Y217271D01*
X82939Y217795D01*
X82963Y217906D01*
X93644Y228587D01*
X95700D01*
X96557Y228700D01*
X97356Y229031D01*
X98042Y229558D01*
X98528Y230190D01*
X99972D01*
X100458Y229558D01*
X101144Y229031D01*
X101943Y228700D01*
X102800Y228587D01*
X106200D01*
X107057Y228700D01*
X107856Y229031D01*
X108542Y229558D01*
X108951Y230090D01*
X109799D01*
Y228240D01*
X109144Y227969D01*
X108458Y227442D01*
X107931Y226756D01*
X107600Y225957D01*
X107487Y225100D01*
Y222500D01*
X107600Y221643D01*
X107931Y220844D01*
X108458Y220158D01*
Y219902D01*
X107931Y219216D01*
X107600Y218417D01*
X107487Y217560D01*
Y214960D01*
X107600Y214103D01*
X107931Y213303D01*
X108458Y212617D01*
X109144Y212091D01*
X109490Y211948D01*
Y211112D01*
X109144Y210969D01*
X108458Y210442D01*
X107931Y209756D01*
X107600Y208957D01*
X107487Y208100D01*
Y205500D01*
X107600Y204643D01*
X107931Y203844D01*
X108458Y203158D01*
Y202902D01*
X107931Y202216D01*
X107600Y201417D01*
X107487Y200560D01*
Y197960D01*
X107600Y197102D01*
X107931Y196303D01*
X108458Y195617D01*
X108990Y195209D01*
Y189459D01*
X107996Y188466D01*
X107534Y188657D01*
Y188797D01*
X102510D01*
Y191753D01*
X103381Y192624D01*
X103859Y193248D01*
X104160Y193974D01*
X104263Y194753D01*
Y200088D01*
X104469Y200356D01*
X104800Y201155D01*
X104913Y202013D01*
Y205413D01*
X104800Y206270D01*
X104469Y207069D01*
X103942Y207755D01*
X103280Y208263D01*
Y210208D01*
X103883Y210670D01*
X104409Y211356D01*
X104740Y212155D01*
X104853Y213013D01*
Y216413D01*
X104740Y217270D01*
X104409Y218069D01*
X103883Y218755D01*
X103197Y219281D01*
X102398Y219612D01*
X101540Y219725D01*
X98940D01*
X98083Y219612D01*
X97284Y219281D01*
X96598Y218755D01*
X96173Y218201D01*
X95796Y218106D01*
X95559Y218137D01*
X94897Y218579D01*
X94000Y218758D01*
X93200D01*
Y214713D01*
Y210667D01*
X94000D01*
X94897Y210846D01*
X95559Y211288D01*
X95796Y211319D01*
X96173Y211224D01*
X96598Y210670D01*
X97260Y210162D01*
Y208217D01*
X96894Y207936D01*
X96530Y207802D01*
X96166Y207936D01*
X95716Y208281D01*
X94917Y208612D01*
X94060Y208725D01*
X91460D01*
X90602Y208612D01*
X89803Y208281D01*
X89117Y207755D01*
X88591Y207069D01*
X88260Y206270D01*
X88147Y205413D01*
Y202013D01*
X88260Y201155D01*
X88591Y200356D01*
X89117Y199670D01*
X89370Y199477D01*
Y197048D01*
X89105Y196410D01*
X88986Y195500D01*
X89105Y194590D01*
X89456Y193743D01*
X90015Y193015D01*
X90743Y192456D01*
X91490Y192147D01*
Y188797D01*
X86466D01*
Y187310D01*
X83028D01*
X82542Y187942D01*
X81936Y188407D01*
X82014Y189000D01*
X81895Y189910D01*
X81543Y190757D01*
X80985Y191485D01*
X80257Y192043D01*
X79410Y192395D01*
X78500Y192514D01*
X77590Y192395D01*
X76743Y192043D01*
X76015Y191485D01*
X75457Y190757D01*
X75105Y189910D01*
X74986Y189000D01*
X75064Y188407D01*
X74458Y187942D01*
X73931Y187256D01*
X73600Y186457D01*
X73487Y185600D01*
Y183000D01*
X73600Y182143D01*
X73931Y181344D01*
X74458Y180658D01*
Y180402D01*
X73931Y179716D01*
X73600Y178917D01*
X73487Y178060D01*
Y176404D01*
X72528Y175445D01*
X72000Y175514D01*
X71090Y175395D01*
X70243Y175043D01*
X69515Y174485D01*
X68957Y173757D01*
X68605Y172910D01*
X68486Y172000D01*
X68605Y171090D01*
X68957Y170243D01*
X69515Y169515D01*
X70243Y168956D01*
X71090Y168605D01*
X72000Y168486D01*
X72910Y168605D01*
X73757Y168956D01*
X74158Y169264D01*
X74310Y169284D01*
X75037Y169585D01*
X75660Y170063D01*
X77744Y172147D01*
X80200D01*
X81057Y172260D01*
X81856Y172591D01*
X82542Y173117D01*
X83069Y173803D01*
X83400Y174602D01*
X83513Y175460D01*
Y178060D01*
X83400Y178917D01*
X83069Y179716D01*
X82542Y180402D01*
Y180658D01*
X83028Y181290D01*
X86466D01*
Y177028D01*
X107534D01*
Y180523D01*
X108066Y180593D01*
X108792Y180893D01*
X109416Y181372D01*
X113147Y185103D01*
X119412D01*
X119431Y185056D01*
X119958Y184370D01*
X120512Y183945D01*
X120607Y183569D01*
X120575Y183331D01*
X120133Y182670D01*
X119955Y181772D01*
Y180973D01*
X124000D01*
X128045D01*
Y181772D01*
X127867Y182670D01*
X127425Y183331D01*
X127393Y183569D01*
X127488Y183945D01*
X128042Y184370D01*
X128569Y185056D01*
X128729Y185444D01*
X129271D01*
X129431Y185056D01*
X129777Y184606D01*
X129911Y184242D01*
X129777Y183879D01*
X129431Y183429D01*
X129100Y182630D01*
X128987Y181772D01*
Y179172D01*
X129100Y178315D01*
X129431Y177516D01*
X129958Y176830D01*
X130644Y176304D01*
X130764Y176254D01*
X130605Y175872D01*
X130486Y174963D01*
X130605Y174053D01*
X130764Y173671D01*
X130644Y173622D01*
X129958Y173095D01*
X129431Y172409D01*
X129100Y171610D01*
X128987Y170753D01*
Y168153D01*
X129100Y167295D01*
X129431Y166497D01*
X129777Y166046D01*
X129911Y165683D01*
X129777Y165319D01*
X129431Y164869D01*
X129239Y164405D01*
X128698D01*
X128569Y164716D01*
X128042Y165402D01*
X127488Y165827D01*
X127393Y166204D01*
X127425Y166442D01*
X127867Y167103D01*
X128045Y168000D01*
Y168800D01*
X124000D01*
X119955D01*
Y168000D01*
X120133Y167103D01*
X120575Y166442D01*
X120607Y166204D01*
X120512Y165827D01*
X119958Y165402D01*
X119431Y164716D01*
X119100Y163917D01*
X118987Y163060D01*
Y160460D01*
X119100Y159602D01*
X119431Y158803D01*
X119958Y158117D01*
X120571Y157647D01*
X120486Y157000D01*
X120605Y156090D01*
X120957Y155243D01*
X121515Y154515D01*
X122243Y153956D01*
X123090Y153605D01*
X124000Y153486D01*
X124910Y153605D01*
X125757Y153956D01*
X126485Y154515D01*
X127043Y155243D01*
X127395Y156090D01*
X127514Y157000D01*
X127429Y157647D01*
X128042Y158117D01*
X128569Y158803D01*
X128761Y159268D01*
X129302D01*
X129431Y158956D01*
X129958Y158270D01*
X130644Y157744D01*
X130990Y157600D01*
Y152552D01*
X130644Y152409D01*
X129958Y151883D01*
X129431Y151197D01*
X129100Y150398D01*
X128987Y149540D01*
Y146940D01*
X129100Y146083D01*
X129431Y145284D01*
X129958Y144598D01*
Y144342D01*
X129431Y143656D01*
X129100Y142857D01*
X128987Y142000D01*
Y139400D01*
X129100Y138543D01*
X129431Y137744D01*
X129958Y137058D01*
X130644Y136531D01*
X130654Y136527D01*
X130605Y136410D01*
X130486Y135500D01*
X130605Y134590D01*
X130956Y133743D01*
X131515Y133015D01*
X132243Y132457D01*
X133090Y132105D01*
X134000Y131986D01*
X134910Y132105D01*
X135757Y132457D01*
X136485Y133015D01*
X137043Y133743D01*
X137395Y134590D01*
X137514Y135500D01*
X137395Y136410D01*
X137346Y136527D01*
X137356Y136531D01*
X138042Y137058D01*
X138569Y137744D01*
X138900Y138543D01*
X139013Y139400D01*
Y142000D01*
X138900Y142857D01*
X138569Y143656D01*
X138223Y144106D01*
X138089Y144470D01*
X138223Y144834D01*
X138569Y145284D01*
X138900Y146083D01*
X139013Y146940D01*
Y149540D01*
X138900Y150398D01*
X138569Y151197D01*
X138042Y151883D01*
X137356Y152409D01*
X137010Y152552D01*
Y157600D01*
X137356Y157744D01*
X138042Y158270D01*
X138550Y158932D01*
X140995D01*
X141458Y158330D01*
X142144Y157804D01*
X142490Y157660D01*
Y152825D01*
X142144Y152681D01*
X141458Y152155D01*
X140931Y151469D01*
X140600Y150670D01*
X140487Y149813D01*
Y147213D01*
X140600Y146355D01*
X140931Y145556D01*
X141277Y145106D01*
X141411Y144743D01*
X141277Y144379D01*
X140931Y143929D01*
X140600Y143130D01*
X140487Y142272D01*
Y139672D01*
X140600Y138815D01*
X140931Y138016D01*
X141458Y137330D01*
X142144Y136804D01*
X142943Y136473D01*
X143800Y136360D01*
X147200D01*
X148057Y136473D01*
X148856Y136804D01*
X149542Y137330D01*
X150038Y137976D01*
X151717D01*
X151743Y137957D01*
X152590Y137605D01*
X153500Y137486D01*
X154410Y137605D01*
X155257Y137957D01*
X155985Y138515D01*
X156544Y139243D01*
X156895Y140090D01*
X157014Y141000D01*
X156895Y141910D01*
X156544Y142757D01*
X155985Y143485D01*
X155257Y144044D01*
X154410Y144395D01*
X153500Y144514D01*
X152590Y144395D01*
X151743Y144044D01*
X151681Y143996D01*
X150017D01*
X149723Y144379D01*
X149589Y144743D01*
X149723Y145106D01*
X150069Y145556D01*
X150400Y146355D01*
X150513Y147213D01*
Y149813D01*
X150400Y150670D01*
X150069Y151469D01*
X149542Y152155D01*
X148856Y152681D01*
X148510Y152825D01*
Y157660D01*
X148856Y157804D01*
X149542Y158330D01*
X150069Y159016D01*
X150400Y159815D01*
X150513Y160672D01*
Y163272D01*
X150400Y164130D01*
X150069Y164929D01*
X149723Y165379D01*
X149589Y165743D01*
X149723Y166106D01*
X150069Y166556D01*
X150400Y167355D01*
X150513Y168213D01*
Y170813D01*
X150400Y171670D01*
X150069Y172469D01*
X149542Y173155D01*
X149486Y173198D01*
X149454Y173697D01*
X149628Y173872D01*
X150107Y174495D01*
X150407Y175221D01*
X150510Y176000D01*
Y185699D01*
X150543Y185743D01*
X150895Y186590D01*
X151014Y187500D01*
X150895Y188410D01*
X150543Y189257D01*
X150510Y189301D01*
Y193000D01*
Y257500D01*
X154490D01*
Y212500D01*
D02*
G37*
G36*
X62816Y227262D02*
Y224966D01*
Y219966D01*
X66242D01*
Y217657D01*
X65644Y217409D01*
X64958Y216882D01*
X64431Y216196D01*
X64100Y215398D01*
X63987Y214540D01*
Y211940D01*
X64100Y211083D01*
X64431Y210284D01*
X64958Y209598D01*
Y209342D01*
X64431Y208656D01*
X64100Y207857D01*
X63987Y207000D01*
Y204400D01*
X64100Y203543D01*
X64431Y202744D01*
X64958Y202058D01*
X65644Y201531D01*
X65990Y201388D01*
Y184247D01*
X65645Y183902D01*
X65590Y183895D01*
X64743Y183544D01*
X64015Y182985D01*
X63456Y182257D01*
X63105Y181410D01*
X63098Y181355D01*
X62846Y181103D01*
X62253Y181217D01*
X62194Y181355D01*
X62569Y181844D01*
X62900Y182643D01*
X63013Y183500D01*
Y186100D01*
X62900Y186957D01*
X62569Y187756D01*
X62042Y188442D01*
X61500Y188858D01*
Y226600D01*
X62354Y227454D01*
X62816Y227262D01*
D02*
G37*
G36*
X252277Y201893D02*
X252411Y201530D01*
X252277Y201166D01*
X251931Y200716D01*
X251600Y199917D01*
X251487Y199060D01*
Y196460D01*
X251600Y195603D01*
X251931Y194804D01*
X252458Y194117D01*
X253144Y193591D01*
X253490Y193448D01*
Y191801D01*
X253456Y191757D01*
X253105Y190910D01*
X252986Y190000D01*
X253105Y189090D01*
X253154Y188973D01*
X253144Y188969D01*
X252458Y188442D01*
X251931Y187756D01*
X251600Y186957D01*
X251487Y186100D01*
Y183500D01*
X251600Y182643D01*
X251931Y181844D01*
X252277Y181394D01*
X252411Y181030D01*
X252277Y180666D01*
X251950Y180240D01*
X249505D01*
X249223Y180606D01*
X249089Y180970D01*
X249223Y181334D01*
X249569Y181784D01*
X249900Y182583D01*
X250013Y183440D01*
Y186040D01*
X249900Y186898D01*
X249569Y187697D01*
X249042Y188382D01*
X248356Y188909D01*
X248010Y189052D01*
Y193388D01*
X248356Y193531D01*
X249042Y194058D01*
X249569Y194744D01*
X249900Y195543D01*
X250013Y196400D01*
Y199000D01*
X249900Y199857D01*
X249569Y200656D01*
X249223Y201107D01*
X249089Y201470D01*
X249223Y201834D01*
X249551Y202260D01*
X251995D01*
X252277Y201893D01*
D02*
G37*
G36*
X305800Y172712D02*
Y170300D01*
X305913Y169443D01*
X306244Y168644D01*
X306770Y167958D01*
X306852Y167895D01*
X306723Y167412D01*
X306590Y167395D01*
X305743Y167043D01*
X305699Y167010D01*
X299534D01*
Y169684D01*
X299168D01*
X299164Y169714D01*
X298888Y170379D01*
X298450Y170950D01*
X296658Y172742D01*
X296865Y173242D01*
X305270D01*
X305800Y172712D01*
D02*
G37*
G36*
X278466Y177316D02*
X284031D01*
X284112Y177121D01*
X284550Y176550D01*
X287050Y174050D01*
X287050Y174050D01*
X287621Y173612D01*
X288286Y173336D01*
X289000Y173242D01*
X294310D01*
X294635Y172742D01*
X294789Y171968D01*
X295227Y171312D01*
X295228Y171312D01*
X296926Y169613D01*
X297121Y169359D01*
X297187Y169200D01*
X297000Y168889D01*
Y163800D01*
X296000D01*
Y168700D01*
X294534D01*
Y169684D01*
X283779D01*
X283462Y170071D01*
X283477Y170146D01*
X283323Y170920D01*
X282884Y171577D01*
X281528Y172933D01*
X280872Y173371D01*
X280098Y173525D01*
X277151D01*
X277045Y173504D01*
X276641Y173760D01*
X272500D01*
Y174760D01*
X276545D01*
Y175560D01*
X276367Y176457D01*
X275925Y177118D01*
X275893Y177356D01*
X275988Y177733D01*
X276542Y178158D01*
X277028Y178790D01*
X278466D01*
Y177316D01*
D02*
G37*
G36*
X267455Y179666D02*
X267618Y179599D01*
X267931Y178844D01*
X268277Y178393D01*
X268411Y178030D01*
X268277Y177666D01*
X267931Y177216D01*
X267600Y176417D01*
X267487Y175560D01*
Y172960D01*
X267600Y172102D01*
X267931Y171303D01*
X268458Y170617D01*
X269144Y170091D01*
X269943Y169760D01*
X270800Y169647D01*
X274200D01*
X275057Y169760D01*
X275856Y170091D01*
X276542Y170617D01*
X277069Y171303D01*
X277151Y171502D01*
X280098D01*
X281454Y170146D01*
X281262Y169684D01*
X278466D01*
Y166810D01*
X276725D01*
X275946Y166707D01*
X275220Y166407D01*
X274597Y165928D01*
X270308Y161640D01*
X261100D01*
X261069Y161716D01*
X260723Y162166D01*
X260589Y162530D01*
X260723Y162893D01*
X261069Y163344D01*
X261400Y164143D01*
X261513Y165000D01*
Y167600D01*
X261400Y168457D01*
X261069Y169256D01*
X260542Y169942D01*
X259856Y170469D01*
X259510Y170612D01*
Y172948D01*
X259856Y173091D01*
X260542Y173617D01*
X261069Y174303D01*
X261265Y174777D01*
X261714Y174836D01*
X262379Y175112D01*
X262950Y175550D01*
X266950Y179550D01*
X266950Y179550D01*
X267085Y179726D01*
X267455Y179666D01*
D02*
G37*
G36*
X314546Y167777D02*
X314997Y167431D01*
X315795Y167100D01*
X316653Y166987D01*
X319253D01*
X320110Y167100D01*
X320500Y167262D01*
X321000Y166928D01*
Y69010D01*
X302000D01*
X301221Y68907D01*
X300495Y68607D01*
X299872Y68128D01*
X297631Y65888D01*
X297153Y65265D01*
X296852Y64539D01*
X296750Y63760D01*
Y63028D01*
X296117Y62542D01*
X295591Y61856D01*
X295448Y61510D01*
X293332D01*
X293263Y61678D01*
Y78500D01*
X293160Y79279D01*
X292860Y80005D01*
X292381Y80628D01*
X291594Y81416D01*
X291712Y81916D01*
X296534D01*
Y84012D01*
X297034Y84336D01*
X297590Y84105D01*
X298500Y83986D01*
X299410Y84105D01*
X300257Y84456D01*
X300550Y84681D01*
X302191D01*
X302970Y84784D01*
X303696Y85085D01*
X304320Y85563D01*
X307128Y88372D01*
X307607Y88995D01*
X307907Y89721D01*
X307933Y89916D01*
X308356Y90091D01*
X309042Y90618D01*
X309569Y91303D01*
X309900Y92102D01*
X310013Y92960D01*
Y95560D01*
X309900Y96417D01*
X309569Y97216D01*
X309042Y97902D01*
X308488Y98327D01*
X308393Y98704D01*
X308425Y98941D01*
X308867Y99603D01*
X309045Y100500D01*
Y101300D01*
X305000D01*
X300955D01*
Y100500D01*
X301133Y99603D01*
X301575Y98941D01*
X301607Y98704D01*
X301512Y98327D01*
X300958Y97902D01*
X300431Y97216D01*
X300100Y96417D01*
X299987Y95560D01*
Y92960D01*
X300100Y92102D01*
X300431Y91303D01*
X300549Y91150D01*
X300328Y90701D01*
X299876D01*
X299410Y90895D01*
X298500Y91014D01*
X297590Y90895D01*
X297034Y90664D01*
X296534Y90988D01*
Y93684D01*
X275466D01*
Y90810D01*
X272447D01*
X265928Y97328D01*
X265305Y97807D01*
X264579Y98107D01*
X263800Y98210D01*
X259754D01*
X259569Y98656D01*
X259223Y99107D01*
X259089Y99470D01*
X259223Y99834D01*
X259569Y100284D01*
X259762Y100750D01*
X264760D01*
X265539Y100852D01*
X266265Y101153D01*
X266888Y101631D01*
X269447Y104190D01*
X275466D01*
Y101316D01*
X291534D01*
Y102300D01*
X293000D01*
Y107200D01*
Y112100D01*
X291534D01*
Y113084D01*
X291510D01*
Y115753D01*
X293128Y117372D01*
X293607Y117995D01*
X293907Y118721D01*
X294010Y119500D01*
Y124948D01*
X294356Y125091D01*
X295042Y125618D01*
X295569Y126304D01*
X295900Y127102D01*
X296013Y127960D01*
Y130560D01*
X295900Y131417D01*
X295569Y132216D01*
X295223Y132666D01*
X295089Y133030D01*
X295223Y133394D01*
X295528Y133790D01*
X297472D01*
X297958Y133158D01*
X298512Y132732D01*
X298607Y132356D01*
X298575Y132118D01*
X298133Y131457D01*
X297955Y130560D01*
Y129760D01*
X302000D01*
X306045D01*
Y130560D01*
X305867Y131457D01*
X305425Y132118D01*
X305393Y132356D01*
X305488Y132732D01*
X306042Y133158D01*
X306413Y133640D01*
X310504D01*
X310743Y133457D01*
X311590Y133105D01*
X312500Y132986D01*
X313410Y133105D01*
X314257Y133457D01*
X314985Y134015D01*
X315544Y134743D01*
X315895Y135590D01*
X316014Y136500D01*
X315895Y137410D01*
X315544Y138257D01*
X314985Y138985D01*
X314257Y139543D01*
X313410Y139895D01*
X312500Y140014D01*
X311590Y139895D01*
X311024Y139660D01*
X306609D01*
X306569Y139756D01*
X306042Y140442D01*
X305356Y140969D01*
X304557Y141300D01*
X303700Y141413D01*
X300300D01*
X299443Y141300D01*
X298644Y140969D01*
X297958Y140442D01*
X297472Y139810D01*
X295528D01*
X295042Y140442D01*
X294356Y140969D01*
X294258Y141010D01*
Y157916D01*
X299534D01*
Y160990D01*
X305699D01*
X305743Y160957D01*
X306590Y160605D01*
X307500Y160486D01*
X308410Y160605D01*
X309257Y160957D01*
X309985Y161515D01*
X310543Y162243D01*
X310895Y163090D01*
X311014Y164000D01*
X310895Y164910D01*
X310543Y165757D01*
X309985Y166485D01*
X309947Y166514D01*
X310108Y166987D01*
X311713D01*
X312570Y167100D01*
X313369Y167431D01*
X313819Y167777D01*
X314183Y167911D01*
X314546Y167777D01*
D02*
G37*
G36*
X107534Y164499D02*
X108855D01*
X109238Y164449D01*
X109472Y164352D01*
X109779Y164117D01*
X111104Y162792D01*
X111340Y162485D01*
X111436Y162251D01*
X111487Y161867D01*
Y158801D01*
X111539Y158541D01*
X111556Y158277D01*
X111615Y158158D01*
X111641Y158027D01*
X111681Y157966D01*
X111924Y157381D01*
X111974Y157000D01*
X111924Y156619D01*
X111776Y156263D01*
X111542Y155958D01*
X111237Y155724D01*
X110881Y155577D01*
X110500Y155526D01*
X110119Y155577D01*
X109763Y155724D01*
X109458Y155958D01*
X109224Y156263D01*
X109076Y156619D01*
X109022Y157035D01*
X109020Y157055D01*
X109038Y157120D01*
X108995Y157447D01*
X108973Y157776D01*
X108943Y157836D01*
X108935Y157903D01*
X108770Y158188D01*
X108624Y158484D01*
X108573Y158528D01*
X108540Y158586D01*
X108210Y158962D01*
X108157Y159003D01*
X108120Y159059D01*
X107846Y159242D01*
X107584Y159443D01*
X107519Y159460D01*
X107463Y159497D01*
X107140Y159562D01*
X106822Y159647D01*
X106550Y160053D01*
Y163013D01*
X104500D01*
Y164013D01*
X106550D01*
Y164238D01*
X107050Y164596D01*
X107534Y164499D01*
D02*
G37*
G36*
X278466Y160775D02*
Y157916D01*
X283742D01*
Y156642D01*
X277275Y150175D01*
X276837Y149604D01*
X276561Y148939D01*
X276467Y148225D01*
Y147651D01*
X276269Y147569D01*
X275819Y147223D01*
X275455Y147089D01*
X275092Y147223D01*
X274852Y147407D01*
Y157670D01*
X277966Y160784D01*
X278466Y160775D01*
D02*
G37*
G36*
X86466Y160002D02*
Y157628D01*
X90218D01*
X90410Y157166D01*
X86884Y153641D01*
X86406Y153018D01*
X86105Y152292D01*
X86003Y151513D01*
Y146028D01*
X85606Y145723D01*
X85242Y145589D01*
X84879Y145723D01*
X84746Y145825D01*
Y157949D01*
X84644Y158728D01*
X84602Y158827D01*
Y158846D01*
X85966Y160209D01*
X86466Y160002D01*
D02*
G37*
G36*
X78726Y146156D02*
X78516Y146069D01*
X77830Y145542D01*
X77304Y144856D01*
X76973Y144057D01*
X76860Y143200D01*
Y139800D01*
X76973Y138943D01*
X77304Y138144D01*
X77830Y137458D01*
X78312Y137088D01*
Y133609D01*
X78216Y133569D01*
X77530Y133042D01*
X77004Y132356D01*
X76673Y131557D01*
X76560Y130700D01*
Y127300D01*
X76673Y126443D01*
X77004Y125644D01*
X77530Y124958D01*
X78216Y124431D01*
X79015Y124100D01*
X79872Y123987D01*
X82472D01*
X83330Y124100D01*
X84129Y124431D01*
X84579Y124777D01*
X84943Y124911D01*
X85306Y124777D01*
X85593Y124557D01*
X85691Y124055D01*
X85669Y123926D01*
X84753Y123010D01*
X73247D01*
X72010Y124247D01*
Y125630D01*
Y131388D01*
X71907Y132167D01*
X71607Y132893D01*
X71128Y133517D01*
X66277Y138369D01*
X65653Y138847D01*
X64927Y139148D01*
X64148Y139250D01*
X62528D01*
X62042Y139883D01*
X61500Y140299D01*
Y153914D01*
X62042Y154330D01*
X62569Y155016D01*
X62596Y155082D01*
X78726D01*
Y146156D01*
D02*
G37*
G36*
X288742Y153135D02*
Y141339D01*
X288443Y141300D01*
X287644Y140969D01*
X286958Y140442D01*
X286431Y139756D01*
X286100Y138957D01*
X285987Y138100D01*
Y135500D01*
X286100Y134643D01*
X286431Y133844D01*
X286777Y133394D01*
X286911Y133030D01*
X286777Y132666D01*
X286431Y132216D01*
X286100Y131417D01*
X285987Y130560D01*
Y127960D01*
X286100Y127102D01*
X286431Y126304D01*
X286958Y125618D01*
X287644Y125091D01*
X287990Y124948D01*
Y120747D01*
X286372Y119128D01*
X285893Y118505D01*
X285593Y117779D01*
X285490Y117000D01*
Y115749D01*
X285028Y115557D01*
X283457Y117128D01*
X282833Y117607D01*
X282107Y117907D01*
X281328Y118010D01*
X267612D01*
X267469Y118356D01*
X266952Y119030D01*
X267184Y119590D01*
X267304Y120500D01*
X267184Y121410D01*
X267008Y121834D01*
X267286Y122250D01*
X277760D01*
X278539Y122352D01*
X279265Y122653D01*
X279888Y123131D01*
X281581Y124824D01*
X282060Y125448D01*
X282360Y126174D01*
X282463Y126953D01*
Y128972D01*
X283095Y129458D01*
X283622Y130144D01*
X283952Y130943D01*
X284065Y131800D01*
Y135200D01*
X283952Y136057D01*
X283622Y136856D01*
X283095Y137542D01*
X282436Y138048D01*
X282408Y138221D01*
X282405Y138603D01*
X282868Y138958D01*
X283394Y139644D01*
X283725Y140443D01*
X283838Y141300D01*
Y144700D01*
X283725Y145557D01*
X283394Y146356D01*
X282868Y147042D01*
X282645Y147213D01*
X282612Y147712D01*
X288242Y153342D01*
X288742Y153135D01*
D02*
G37*
G36*
X97123Y154695D02*
X97372Y154372D01*
X99737Y152006D01*
Y149123D01*
X99457Y148757D01*
X99105Y147910D01*
X98986Y147000D01*
X99105Y146090D01*
X99457Y145243D01*
X99737Y144877D01*
Y139788D01*
X99600Y139457D01*
X99487Y138600D01*
Y136000D01*
X99600Y135143D01*
X99931Y134344D01*
X100458Y133658D01*
Y133402D01*
X99931Y132716D01*
X99600Y131917D01*
X99487Y131060D01*
Y128460D01*
X99600Y127603D01*
X99931Y126804D01*
X100458Y126118D01*
X101144Y125591D01*
X101943Y125260D01*
X101990Y125254D01*
Y118247D01*
X95872Y112128D01*
X95393Y111505D01*
X95093Y110779D01*
X94990Y110000D01*
Y107920D01*
X94528Y107729D01*
X92628Y109628D01*
X92005Y110107D01*
X91279Y110407D01*
X90500Y110510D01*
X80954D01*
X80356Y110969D01*
X80087Y111080D01*
X80044Y111243D01*
X80395Y112090D01*
X80514Y113000D01*
X80395Y113910D01*
X80044Y114757D01*
X79485Y115485D01*
X78757Y116043D01*
X77910Y116395D01*
X77185Y116490D01*
X77218Y116990D01*
X86000D01*
X86779Y117093D01*
X87505Y117393D01*
X88128Y117872D01*
X91128Y120872D01*
X91607Y121495D01*
X91907Y122221D01*
X92010Y123000D01*
Y124693D01*
X92355Y124958D01*
X92881Y125644D01*
X93212Y126443D01*
X93325Y127300D01*
Y130700D01*
X93212Y131557D01*
X92881Y132356D01*
X92355Y133042D01*
X91873Y133413D01*
Y136891D01*
X91969Y136931D01*
X92655Y137458D01*
X93181Y138144D01*
X93512Y138943D01*
X93625Y139800D01*
Y143200D01*
X93512Y144057D01*
X93181Y144856D01*
X92655Y145542D01*
X92023Y146028D01*
Y150266D01*
X96486Y154729D01*
X96974Y154749D01*
X97123Y154695D01*
D02*
G37*
G36*
X212990Y109753D02*
Y103510D01*
X203084D01*
Y108534D01*
X200488D01*
X200164Y109034D01*
X200395Y109590D01*
X200514Y110500D01*
X200395Y111410D01*
X200044Y112257D01*
X200010Y112301D01*
Y114000D01*
X199907Y114779D01*
X199607Y115505D01*
X199128Y116128D01*
X197628Y117628D01*
X197005Y118107D01*
X196660Y118249D01*
X196409Y118856D01*
X195882Y119542D01*
X195196Y120069D01*
X194397Y120400D01*
X193540Y120513D01*
X190940D01*
X190083Y120400D01*
X189284Y120069D01*
X188598Y119542D01*
X188173Y118988D01*
X187796Y118893D01*
X187558Y118925D01*
X186897Y119367D01*
X186000Y119545D01*
X185200D01*
Y115500D01*
Y111455D01*
X186000D01*
X186897Y111633D01*
X187558Y112075D01*
X187796Y112107D01*
X188173Y112012D01*
X188598Y111458D01*
X189284Y110931D01*
X190083Y110600D01*
X190940Y110487D01*
X193487D01*
X193605Y109590D01*
X193836Y109034D01*
X193512Y108534D01*
X191316D01*
Y102466D01*
Y100594D01*
X190854Y100403D01*
X188628Y102628D01*
X188005Y103107D01*
X187279Y103407D01*
X186500Y103510D01*
X183684D01*
Y103534D01*
X182700D01*
Y105000D01*
X177800D01*
X172900D01*
Y103560D01*
X165857D01*
X165569Y104256D01*
X165042Y104942D01*
X164356Y105469D01*
X163557Y105800D01*
X162700Y105913D01*
X159300D01*
X158443Y105800D01*
X157644Y105469D01*
X156958Y104942D01*
X156431Y104256D01*
X156100Y103457D01*
X155987Y102600D01*
Y100000D01*
X156100Y99143D01*
X156431Y98344D01*
X156777Y97894D01*
X156911Y97530D01*
X156777Y97166D01*
X156431Y96716D01*
X156100Y95917D01*
X155987Y95060D01*
Y92460D01*
X156100Y91602D01*
X156431Y90803D01*
X156958Y90118D01*
X157644Y89591D01*
X158443Y89260D01*
X159300Y89147D01*
X162700D01*
X163557Y89260D01*
X164356Y89591D01*
X165042Y90118D01*
X165569Y90803D01*
X165646Y90990D01*
X169000D01*
X169779Y91093D01*
X170505Y91393D01*
X171128Y91872D01*
X171416Y92159D01*
X171916Y91952D01*
Y90646D01*
X171890Y90450D01*
Y86647D01*
X171520Y86277D01*
X171465Y86270D01*
X170618Y85918D01*
X170411Y85760D01*
X166009D01*
X165969Y85856D01*
X165442Y86542D01*
X164756Y87069D01*
X163957Y87400D01*
X163100Y87513D01*
X160500D01*
X159643Y87400D01*
X158844Y87069D01*
X158394Y86723D01*
X158030Y86589D01*
X157666Y86723D01*
X157216Y87069D01*
X156417Y87400D01*
X155560Y87513D01*
X152960D01*
X152102Y87400D01*
X151304Y87069D01*
X150618Y86542D01*
X150091Y85856D01*
X149828Y85221D01*
X149410Y85395D01*
X148500Y85514D01*
X147590Y85395D01*
X146743Y85044D01*
X146015Y84485D01*
X145457Y83757D01*
X145105Y82910D01*
X144986Y82000D01*
X145105Y81090D01*
X145457Y80243D01*
X146015Y79515D01*
X146743Y78957D01*
X147590Y78605D01*
X148500Y78486D01*
X149410Y78605D01*
X150240Y78949D01*
X150618Y78458D01*
X151304Y77931D01*
X152102Y77600D01*
X152960Y77487D01*
X155560D01*
X156417Y77600D01*
X157216Y77931D01*
X157666Y78277D01*
X158030Y78411D01*
X158394Y78277D01*
X158844Y77931D01*
X159643Y77600D01*
X160500Y77487D01*
X163100D01*
X163957Y77600D01*
X164756Y77931D01*
X165442Y78458D01*
X165969Y79144D01*
X166216Y79740D01*
X169490D01*
Y76495D01*
X162310Y69315D01*
X155511D01*
Y56685D01*
X166567D01*
Y65058D01*
X174628Y73120D01*
X175107Y73743D01*
X175407Y74469D01*
X175510Y75248D01*
Y81339D01*
X175770Y81965D01*
X175777Y82020D01*
X177028Y83272D01*
X177507Y83895D01*
X177807Y84621D01*
X177910Y85400D01*
Y87466D01*
X182490D01*
Y46913D01*
X181300D01*
X180443Y46800D01*
X179644Y46469D01*
X178958Y45942D01*
X178431Y45256D01*
X178100Y44457D01*
X177987Y43600D01*
Y41000D01*
X178100Y40143D01*
X178431Y39344D01*
X178777Y38893D01*
X178911Y38530D01*
X178777Y38166D01*
X178431Y37716D01*
X178100Y36917D01*
X177987Y36060D01*
Y33460D01*
X178048Y33000D01*
X177626Y32500D01*
X165519D01*
Y35685D01*
X167067D01*
Y48315D01*
X156011D01*
Y35685D01*
X157481D01*
Y32500D01*
X132559D01*
X132389Y33000D01*
X132542Y33117D01*
X133069Y33803D01*
X133400Y34602D01*
X133513Y35460D01*
Y38060D01*
X133400Y38917D01*
X133069Y39716D01*
X132723Y40166D01*
X132589Y40530D01*
X132723Y40894D01*
X133028Y41290D01*
X135933D01*
Y35685D01*
X146989D01*
Y48315D01*
X143971D01*
Y56685D01*
X146489D01*
Y69315D01*
X135433D01*
Y66010D01*
X110500D01*
X109721Y65907D01*
X108995Y65607D01*
X108372Y65128D01*
X106372Y63128D01*
X105893Y62505D01*
X105593Y61779D01*
X105490Y61000D01*
Y58876D01*
X105091Y58356D01*
X104948Y58010D01*
X103582D01*
X103439Y58356D01*
X102912Y59042D01*
X102280Y59528D01*
Y66770D01*
X102178Y67549D01*
X101877Y68275D01*
X101399Y68898D01*
X101010Y69287D01*
Y73916D01*
X101778D01*
X104130Y71563D01*
X104754Y71085D01*
X105480Y70784D01*
X105886Y70730D01*
X106243Y70456D01*
X107090Y70105D01*
X108000Y69986D01*
X108910Y70105D01*
X109757Y70456D01*
X110485Y71015D01*
X111044Y71743D01*
X111395Y72590D01*
X111514Y73500D01*
X111395Y74410D01*
X111044Y75257D01*
X110485Y75985D01*
X109757Y76543D01*
X108910Y76895D01*
X108000Y77014D01*
X107286Y76920D01*
X106034Y78172D01*
Y82977D01*
X115127D01*
X115431Y82244D01*
X115958Y81558D01*
X116644Y81031D01*
X117443Y80700D01*
X118300Y80587D01*
X121700D01*
X122557Y80700D01*
X123356Y81031D01*
X124042Y81558D01*
X124096Y81627D01*
X127648D01*
X127700Y81230D01*
X128031Y80431D01*
X128558Y79745D01*
X129244Y79219D01*
X130043Y78888D01*
X130900Y78775D01*
X133500D01*
X134357Y78888D01*
X135156Y79219D01*
X135607Y79564D01*
X135970Y79698D01*
X136334Y79564D01*
X136784Y79219D01*
X137583Y78888D01*
X138440Y78775D01*
X141040D01*
X141897Y78888D01*
X142696Y79219D01*
X143383Y79745D01*
X143909Y80431D01*
X144240Y81230D01*
X144353Y82087D01*
Y85487D01*
X144240Y86345D01*
X143909Y87144D01*
X143383Y87830D01*
X143038Y88094D01*
Y89480D01*
X143383Y89745D01*
X143909Y90431D01*
X144240Y91230D01*
X144353Y92087D01*
Y95487D01*
X144240Y96345D01*
X143909Y97144D01*
X143383Y97830D01*
X143038Y98094D01*
Y98781D01*
X165747Y121490D01*
X201253D01*
X212990Y109753D01*
D02*
G37*
G36*
X247372Y101372D02*
X247995Y100893D01*
X248721Y100593D01*
X249500Y100490D01*
X250346D01*
X250431Y100284D01*
X250777Y99834D01*
X250911Y99470D01*
X250777Y99107D01*
X250431Y98656D01*
X250246Y98210D01*
X247700D01*
X246921Y98107D01*
X246195Y97807D01*
X245572Y97328D01*
X245536Y97293D01*
X245012Y97351D01*
X244936Y97399D01*
X244442Y98042D01*
X243756Y98569D01*
X242957Y98900D01*
X242100Y99013D01*
X239500D01*
X238643Y98900D01*
X237844Y98569D01*
X237393Y98223D01*
X237030Y98089D01*
X236666Y98223D01*
X236216Y98569D01*
X235417Y98900D01*
X234560Y99013D01*
X231960D01*
X231102Y98900D01*
X230304Y98569D01*
X229618Y98042D01*
X229091Y97356D01*
X228948Y97010D01*
X224247D01*
X220757Y100500D01*
X222247Y101990D01*
X229209D01*
X229618Y101458D01*
X230304Y100931D01*
X231102Y100600D01*
X231960Y100487D01*
X234560D01*
X235417Y100600D01*
X236216Y100931D01*
X236902Y101458D01*
X237158D01*
X237844Y100931D01*
X238643Y100600D01*
X239500Y100487D01*
X242100D01*
X242957Y100600D01*
X243756Y100931D01*
X244442Y101458D01*
X244969Y102144D01*
X245112Y102490D01*
X246253D01*
X247372Y101372D01*
D02*
G37*
G36*
X305500Y90615D02*
X305547D01*
X305881Y90115D01*
X305840Y90015D01*
X305604Y89708D01*
X302983Y87087D01*
X302676Y86852D01*
X302442Y86755D01*
X302059Y86704D01*
X300550D01*
X300291Y86653D01*
X300026Y86636D01*
X299907Y86576D01*
X299776Y86550D01*
X299556Y86403D01*
X299319Y86286D01*
X299237Y86224D01*
X298881Y86076D01*
X298500Y86026D01*
X298119Y86076D01*
X297809Y86205D01*
X297627Y86241D01*
X297457Y86314D01*
X297244Y86317D01*
X297034Y86359D01*
X296853Y86323D01*
X296668Y86325D01*
X296469Y86247D01*
X296260Y86205D01*
X296106Y86102D01*
X296050Y86080D01*
X295550Y86304D01*
Y87300D01*
X293500D01*
Y88300D01*
X295550D01*
Y88696D01*
X296050Y88920D01*
X296106Y88898D01*
X296260Y88795D01*
X296469Y88753D01*
X296668Y88675D01*
X296853Y88677D01*
X297034Y88641D01*
X297244Y88683D01*
X297457Y88686D01*
X297627Y88759D01*
X297809Y88795D01*
X298119Y88924D01*
X298500Y88974D01*
X298881Y88924D01*
X299102Y88832D01*
X299876Y88678D01*
X300328D01*
X300652Y88743D01*
X300978Y88786D01*
X301037Y88819D01*
X301102Y88832D01*
X301377Y89015D01*
X301662Y89180D01*
X301703Y89233D01*
X301759Y89271D01*
X301942Y89545D01*
X302143Y89807D01*
X302364Y90255D01*
X302449Y90574D01*
X302516Y90771D01*
X303300Y90615D01*
X304500D01*
Y94260D01*
X305500D01*
Y90615D01*
D02*
G37*
G36*
X197090Y83640D02*
X197193Y82861D01*
X197493Y82135D01*
X197972Y81512D01*
X198610Y80873D01*
Y75403D01*
X198583Y75400D01*
X197784Y75069D01*
X197098Y74542D01*
X196842D01*
X196156Y75069D01*
X195510Y75336D01*
Y76500D01*
X195407Y77279D01*
X195107Y78005D01*
X194628Y78628D01*
X193010Y80247D01*
Y87466D01*
X197090D01*
Y83640D01*
D02*
G37*
G36*
X286372Y78124D02*
X287243Y77253D01*
Y63450D01*
X286863Y63400D01*
X286064Y63069D01*
X285614Y62723D01*
X285250Y62589D01*
X284886Y62723D01*
X284436Y63069D01*
X284250Y63146D01*
Y76753D01*
X285628Y78132D01*
X285747Y78286D01*
X286247D01*
X286372Y78124D01*
D02*
G37*
G36*
X214243Y97457D02*
X215090Y97105D01*
X215721Y97022D01*
X220872Y91872D01*
X221495Y91393D01*
X222221Y91093D01*
X223000Y90990D01*
X228948D01*
X229091Y90644D01*
X229618Y89958D01*
X230304Y89431D01*
X231102Y89100D01*
X231960Y88987D01*
X234560D01*
X235417Y89100D01*
X236216Y89431D01*
X236666Y89777D01*
X237030Y89911D01*
X237393Y89777D01*
X237844Y89431D01*
X238643Y89100D01*
X239500Y88987D01*
X242100D01*
X242957Y89100D01*
X243756Y89431D01*
X244442Y89958D01*
X244969Y90644D01*
X245112Y90990D01*
X246500D01*
X247279Y91093D01*
X248005Y91393D01*
X248628Y91872D01*
X248947Y92190D01*
X250856D01*
X250958Y92058D01*
X251644Y91531D01*
X252443Y91200D01*
X253300Y91087D01*
X256700D01*
X257557Y91200D01*
X258356Y91531D01*
X259042Y92058D01*
X259144Y92190D01*
X262553D01*
X269072Y85672D01*
X269695Y85193D01*
X270421Y84893D01*
X271200Y84790D01*
X275466D01*
Y81916D01*
X280270D01*
X280399Y81416D01*
X279112Y80128D01*
X278633Y79505D01*
X278332Y78779D01*
X278230Y78000D01*
Y62843D01*
X277838Y62542D01*
X277311Y61856D01*
X277168Y61510D01*
X275052D01*
X274909Y61856D01*
X274382Y62542D01*
X274010Y62828D01*
Y64000D01*
X273907Y64779D01*
X273607Y65505D01*
X273128Y66128D01*
X269628Y69628D01*
X269005Y70107D01*
X268279Y70407D01*
X267500Y70510D01*
X244106D01*
Y71315D01*
X233050D01*
Y58685D01*
X234529D01*
Y51315D01*
X233011D01*
Y38685D01*
X244067D01*
Y41790D01*
X248472D01*
X248777Y41394D01*
X248911Y41030D01*
X248777Y40666D01*
X248431Y40216D01*
X248100Y39417D01*
X247987Y38560D01*
Y35960D01*
X248100Y35102D01*
X248431Y34304D01*
X248958Y33617D01*
X249644Y33091D01*
X249864Y33000D01*
X249764Y32500D01*
X221850D01*
X221604Y33000D01*
X221980Y33491D01*
X222382Y34460D01*
X222519Y35500D01*
Y38685D01*
X223989D01*
Y51315D01*
X212933D01*
Y38685D01*
X214481D01*
Y35500D01*
X214618Y34460D01*
X215020Y33491D01*
X215396Y33000D01*
X215150Y32500D01*
X198398D01*
X197960Y33000D01*
X198013Y33400D01*
Y36000D01*
X197900Y36857D01*
X197569Y37656D01*
X197223Y38107D01*
X197089Y38470D01*
X197223Y38834D01*
X197569Y39284D01*
X197900Y40083D01*
X198013Y40940D01*
Y43540D01*
X197900Y44398D01*
X197569Y45197D01*
X197042Y45882D01*
X196356Y46409D01*
X195557Y46740D01*
X194700Y46853D01*
X191300D01*
X190443Y46740D01*
X189644Y46409D01*
X189010Y45923D01*
X188538Y46025D01*
X188510Y46035D01*
Y67095D01*
X189010Y67195D01*
X189031Y67144D01*
X189558Y66458D01*
X190244Y65931D01*
X191043Y65600D01*
X191900Y65487D01*
X194500D01*
X195357Y65600D01*
X196156Y65931D01*
X196842Y66458D01*
X197098D01*
X197784Y65931D01*
X198583Y65600D01*
X199440Y65487D01*
X202040D01*
X202898Y65600D01*
X203696Y65931D01*
X204382Y66458D01*
X204909Y67144D01*
X205240Y67943D01*
X205353Y68800D01*
Y72200D01*
X205240Y73057D01*
X204909Y73856D01*
X204630Y74220D01*
Y82120D01*
X204527Y82899D01*
X204227Y83625D01*
X203748Y84249D01*
X203110Y84887D01*
Y90450D01*
X203084Y90646D01*
Y92466D01*
Y97490D01*
X214199D01*
X214243Y97457D01*
D02*
G37*
G36*
X65990Y130141D02*
Y125630D01*
Y123000D01*
X66093Y122221D01*
X66393Y121495D01*
X66872Y120872D01*
X69872Y117872D01*
X70495Y117393D01*
X71221Y117093D01*
X72000Y116990D01*
X76783D01*
X76815Y116490D01*
X76090Y116395D01*
X75243Y116043D01*
X74515Y115485D01*
X73957Y114757D01*
X73605Y113910D01*
X73486Y113000D01*
X73605Y112090D01*
X73890Y111403D01*
Y111071D01*
X73644Y110969D01*
X72958Y110442D01*
X72431Y109756D01*
X72100Y108957D01*
X71987Y108100D01*
Y105500D01*
X72100Y104643D01*
X72431Y103844D01*
X72958Y103158D01*
Y102902D01*
X72431Y102216D01*
X72100Y101417D01*
X71987Y100560D01*
Y97960D01*
X72100Y97102D01*
X72431Y96303D01*
X72958Y95618D01*
X73511Y95193D01*
X73486Y95000D01*
X73605Y94090D01*
X73957Y93243D01*
X74515Y92515D01*
X75243Y91957D01*
X76090Y91605D01*
X77000Y91486D01*
X77910Y91605D01*
X78757Y91957D01*
X79485Y92515D01*
X80044Y93243D01*
X80395Y94090D01*
X80514Y95000D01*
X80489Y95193D01*
X81042Y95618D01*
X81569Y96303D01*
X81900Y97102D01*
X82013Y97960D01*
Y100560D01*
X81900Y101417D01*
X81569Y102216D01*
X81042Y102902D01*
Y103158D01*
X81569Y103844D01*
X81836Y104490D01*
X84966D01*
Y93316D01*
X85080D01*
X85093Y93221D01*
X85393Y92495D01*
X85872Y91872D01*
X87372Y90372D01*
X87995Y89893D01*
X88721Y89593D01*
X89500Y89490D01*
X89898D01*
X89931Y88990D01*
X89208Y88895D01*
X88482Y88594D01*
X87859Y88116D01*
X85922Y86178D01*
X85542Y85684D01*
X84966D01*
Y73916D01*
X89990D01*
Y69287D01*
X89601Y68898D01*
X89123Y68275D01*
X88823Y67549D01*
X88720Y66770D01*
Y59528D01*
X88088Y59042D01*
X87561Y58356D01*
X87418Y58010D01*
X86052D01*
X85909Y58356D01*
X85382Y59042D01*
X84750Y59528D01*
Y61020D01*
X84648Y61799D01*
X84347Y62525D01*
X83869Y63148D01*
X82388Y64628D01*
X81765Y65107D01*
X81039Y65407D01*
X80260Y65510D01*
X61500D01*
Y125954D01*
X61866Y126503D01*
X62045Y127400D01*
Y130000D01*
X61866Y130897D01*
X61500Y131446D01*
Y132182D01*
X62042Y132598D01*
X62446Y133123D01*
X62984Y133148D01*
X65990Y130141D01*
D02*
G37*
G36*
X135433Y56685D02*
X137951D01*
Y48315D01*
X135933D01*
Y47310D01*
X133028D01*
X132542Y47942D01*
X131856Y48469D01*
X131057Y48800D01*
X130200Y48913D01*
X126800D01*
X125943Y48800D01*
X125144Y48469D01*
X124458Y47942D01*
X123931Y47256D01*
X123600Y46457D01*
X123487Y45600D01*
Y43000D01*
X123600Y42143D01*
X123931Y41344D01*
X124277Y40894D01*
X124411Y40530D01*
X124277Y40166D01*
X123944Y39732D01*
X122265D01*
X122262Y39754D01*
X121685Y41147D01*
X120768Y42342D01*
X119572Y43260D01*
X118179Y43837D01*
X116685Y44034D01*
X115191Y43837D01*
X113798Y43260D01*
X112602Y42342D01*
X111685Y41147D01*
X111479Y40650D01*
X111258D01*
X110954Y40688D01*
X110223Y41641D01*
X109233Y42400D01*
X108080Y42878D01*
X107343Y42975D01*
Y36685D01*
X106342D01*
Y42975D01*
X105605Y42878D01*
X104452Y42400D01*
X103462Y41641D01*
X102702Y40650D01*
X102224Y39497D01*
X102061Y38260D01*
Y38159D01*
X101561Y38059D01*
X101140Y39076D01*
X100381Y40066D01*
X99391Y40826D01*
X98237Y41303D01*
X97000Y41466D01*
X95763Y41303D01*
X94609Y40826D01*
X93619Y40066D01*
X92860Y39076D01*
X92439Y38059D01*
X91939Y38159D01*
Y38260D01*
X91776Y39497D01*
X91298Y40650D01*
X90538Y41641D01*
X89548Y42400D01*
X88395Y42878D01*
X87657Y42975D01*
Y36685D01*
X86657D01*
Y42975D01*
X85920Y42878D01*
X84767Y42400D01*
X83777Y41641D01*
X83046Y40688D01*
X82741Y40650D01*
X82521D01*
X82315Y41147D01*
X81398Y42342D01*
X80202Y43260D01*
X78809Y43837D01*
X77489Y44011D01*
X62472Y59028D01*
X62663Y59490D01*
X72574D01*
X72623Y58990D01*
X72003Y58867D01*
X71242Y58358D01*
X70733Y57597D01*
X70555Y56700D01*
Y55500D01*
X74200D01*
Y55000D01*
X74700D01*
Y50955D01*
X75500D01*
X76397Y51133D01*
X77059Y51575D01*
X77296Y51607D01*
X77673Y51512D01*
X78098Y50958D01*
X78784Y50431D01*
X79583Y50100D01*
X80440Y49987D01*
X83040D01*
X83898Y50100D01*
X84697Y50431D01*
X85382Y50958D01*
X85909Y51644D01*
X86052Y51990D01*
X87418D01*
X87561Y51644D01*
X88088Y50958D01*
X88774Y50431D01*
X89573Y50100D01*
X90430Y49987D01*
X93030D01*
X93887Y50100D01*
X94686Y50431D01*
X95136Y50777D01*
X95500Y50911D01*
X95864Y50777D01*
X96314Y50431D01*
X97113Y50100D01*
X97970Y49987D01*
X100570D01*
X101427Y50100D01*
X102226Y50431D01*
X102912Y50958D01*
X103439Y51644D01*
X103582Y51990D01*
X104948D01*
X105091Y51644D01*
X105617Y50958D01*
X106304Y50431D01*
X107103Y50100D01*
X107960Y49987D01*
X110560D01*
X111417Y50100D01*
X112216Y50431D01*
X112902Y50958D01*
X113327Y51512D01*
X113704Y51607D01*
X113942Y51575D01*
X114603Y51133D01*
X115500Y50955D01*
X116300D01*
Y55000D01*
Y59045D01*
X115500D01*
X114603Y58867D01*
X113942Y58425D01*
X113704Y58393D01*
X113327Y58488D01*
X112902Y59042D01*
X112319Y59490D01*
X112416Y59932D01*
X112448Y59990D01*
X135433D01*
Y56685D01*
D02*
G37*
G36*
X328933Y57185D02*
X331451D01*
Y51315D01*
X328933D01*
Y47810D01*
X322528D01*
X322042Y48442D01*
X321356Y48969D01*
X320557Y49300D01*
X319700Y49413D01*
X317427D01*
X317236Y49874D01*
X322431Y55069D01*
X322869Y55726D01*
X323023Y56500D01*
Y62990D01*
X328933D01*
Y57185D01*
D02*
G37*
G36*
X267454Y63289D02*
X267421Y62790D01*
X267098Y62542D01*
X266673Y61988D01*
X266296Y61893D01*
X266058Y61925D01*
X265397Y62366D01*
X264500Y62545D01*
X263700D01*
Y58500D01*
Y54455D01*
X264500D01*
X265397Y54633D01*
X266058Y55075D01*
X266296Y55107D01*
X266673Y55012D01*
X267098Y54458D01*
X267784Y53931D01*
X268583Y53600D01*
X269440Y53487D01*
X272040D01*
X272898Y53600D01*
X273696Y53931D01*
X274382Y54458D01*
X274909Y55144D01*
X275052Y55490D01*
X277168D01*
X277311Y55144D01*
X277838Y54458D01*
X278524Y53931D01*
X279323Y53600D01*
X280180Y53487D01*
X282780D01*
X283637Y53600D01*
X284436Y53931D01*
X284886Y54277D01*
X285250Y54411D01*
X285614Y54277D01*
X286064Y53931D01*
X286863Y53600D01*
X287720Y53487D01*
X290320D01*
X291177Y53600D01*
X291976Y53931D01*
X292662Y54458D01*
X293189Y55144D01*
X293332Y55490D01*
X295448D01*
X295591Y55144D01*
X296117Y54458D01*
X296803Y53931D01*
X297603Y53600D01*
X298460Y53487D01*
X301060D01*
X301917Y53600D01*
X302716Y53931D01*
X303402Y54458D01*
X303827Y55012D01*
X304204Y55107D01*
X304441Y55075D01*
X305103Y54633D01*
X306000Y54455D01*
X306800D01*
Y58500D01*
X307300D01*
Y59000D01*
X310945D01*
Y60200D01*
X310767Y61097D01*
X310258Y61858D01*
X309497Y62366D01*
X308877Y62490D01*
X308926Y62990D01*
X321000D01*
Y56500D01*
X307961Y43461D01*
X307572Y43760D01*
X306179Y44337D01*
X304685Y44534D01*
X303191Y44337D01*
X301798Y43760D01*
X300602Y42843D01*
X299685Y41647D01*
X299479Y41150D01*
X299258D01*
X298954Y41188D01*
X298223Y42141D01*
X297233Y42900D01*
X296080Y43378D01*
X295343Y43475D01*
Y37185D01*
X294343D01*
Y43475D01*
X293605Y43378D01*
X292452Y42900D01*
X291462Y42141D01*
X290702Y41150D01*
X290224Y39997D01*
X290061Y38760D01*
Y38659D01*
X289562Y38559D01*
X289141Y39576D01*
X288381Y40566D01*
X287390Y41326D01*
X286237Y41803D01*
X285000Y41966D01*
X283763Y41803D01*
X282610Y41326D01*
X281619Y40566D01*
X280859Y39576D01*
X280438Y38559D01*
X279939Y38659D01*
Y38760D01*
X279776Y39997D01*
X279298Y41150D01*
X278538Y42141D01*
X277548Y42900D01*
X276395Y43378D01*
X275658Y43475D01*
Y37185D01*
X274658D01*
Y43475D01*
X273920Y43378D01*
X272767Y42900D01*
X271777Y42141D01*
X271046Y41188D01*
X270742Y41150D01*
X270521D01*
X270315Y41647D01*
X269398Y42843D01*
X268202Y43760D01*
X266809Y44337D01*
X265315Y44534D01*
X263821Y44337D01*
X262428Y43760D01*
X261232Y42843D01*
X260315Y41647D01*
X259738Y40254D01*
X259735Y40232D01*
X257556D01*
X257223Y40666D01*
X257089Y41030D01*
X257223Y41394D01*
X257569Y41844D01*
X257900Y42643D01*
X258013Y43500D01*
Y46100D01*
X257900Y46957D01*
X257569Y47756D01*
X257042Y48442D01*
X256356Y48969D01*
X255557Y49300D01*
X254700Y49413D01*
X251300D01*
X250443Y49300D01*
X249644Y48969D01*
X248958Y48442D01*
X248472Y47810D01*
X244067D01*
Y51315D01*
X240549D01*
Y58685D01*
X244106D01*
Y64490D01*
X266253D01*
X267454Y63289D01*
D02*
G37*
G36*
X60464Y59104D02*
X60449Y59028D01*
X60603Y58254D01*
X61041Y57598D01*
X74782Y43857D01*
X74685Y43366D01*
X74428Y43260D01*
X73232Y42342D01*
X72315Y41147D01*
X71832Y39982D01*
X69166D01*
X69069Y40216D01*
X68542Y40902D01*
Y41158D01*
X69069Y41844D01*
X69400Y42643D01*
X69513Y43500D01*
Y46100D01*
X69400Y46957D01*
X69069Y47756D01*
X68542Y48442D01*
X67856Y48969D01*
X67057Y49300D01*
X66200Y49413D01*
X62800D01*
X61943Y49300D01*
X61144Y48969D01*
X60458Y48442D01*
X59972Y47810D01*
X56567D01*
Y48815D01*
X54049D01*
Y56185D01*
X56567D01*
Y59490D01*
X60147D01*
X60464Y59104D01*
D02*
G37*
%LPC*%
G36*
X175500Y392099D02*
X174180Y391925D01*
X172951Y391416D01*
X171895Y390605D01*
X171084Y389549D01*
X170771Y388792D01*
X170229D01*
X169916Y389549D01*
X169105Y390605D01*
X168049Y391416D01*
X166820Y391925D01*
X165500Y392099D01*
X164180Y391925D01*
X162951Y391416D01*
X161895Y390605D01*
X161084Y389549D01*
X160771Y388792D01*
X160229D01*
X159916Y389549D01*
X159105Y390605D01*
X158049Y391416D01*
X156820Y391925D01*
X155500Y392099D01*
X154180Y391925D01*
X152951Y391416D01*
X151895Y390605D01*
X151084Y389549D01*
X150771Y388792D01*
X150229D01*
X149916Y389549D01*
X149105Y390605D01*
X148049Y391416D01*
X146820Y391925D01*
X145500Y392099D01*
X144180Y391925D01*
X142951Y391416D01*
X141895Y390605D01*
X141084Y389549D01*
X140771Y388792D01*
X140229D01*
X139916Y389549D01*
X139105Y390605D01*
X138049Y391416D01*
X136820Y391925D01*
X135500Y392099D01*
X134180Y391925D01*
X132951Y391416D01*
X131895Y390605D01*
X131084Y389549D01*
X130771Y388792D01*
X130229D01*
X129916Y389549D01*
X129105Y390605D01*
X128049Y391416D01*
X126820Y391925D01*
X125500Y392099D01*
X124180Y391925D01*
X122951Y391416D01*
X121895Y390605D01*
X121084Y389549D01*
X120771Y388792D01*
X120229D01*
X119916Y389549D01*
X119105Y390605D01*
X118049Y391416D01*
X116820Y391925D01*
X115500Y392099D01*
X114180Y391925D01*
X112951Y391416D01*
X111895Y390605D01*
X111084Y389549D01*
X110771Y388792D01*
X110229D01*
X109916Y389549D01*
X109105Y390605D01*
X108049Y391416D01*
X106820Y391925D01*
X105500Y392099D01*
X104180Y391925D01*
X102951Y391416D01*
X101895Y390605D01*
X101084Y389549D01*
X100771Y388792D01*
X100229D01*
X99916Y389549D01*
X99105Y390605D01*
X98049Y391416D01*
X96820Y391925D01*
X95500Y392099D01*
X94180Y391925D01*
X92951Y391416D01*
X91895Y390605D01*
X91084Y389549D01*
X90771Y388792D01*
X90229D01*
X89916Y389549D01*
X89105Y390605D01*
X88049Y391416D01*
X86820Y391925D01*
X85500Y392099D01*
X84180Y391925D01*
X82951Y391416D01*
X81895Y390605D01*
X81084Y389549D01*
X80771Y388792D01*
X80229D01*
X79916Y389549D01*
X79105Y390605D01*
X78049Y391416D01*
X76820Y391925D01*
X75500Y392099D01*
X74180Y391925D01*
X72951Y391416D01*
X71895Y390605D01*
X71084Y389549D01*
X70771Y388792D01*
X70229D01*
X69916Y389549D01*
X69105Y390605D01*
X68049Y391416D01*
X66820Y391925D01*
X65500Y392099D01*
X64180Y391925D01*
X62951Y391416D01*
X61895Y390605D01*
X61084Y389549D01*
X60771Y388792D01*
X60229D01*
X59916Y389549D01*
X59105Y390605D01*
X58049Y391416D01*
X56820Y391925D01*
X55500Y392099D01*
X54180Y391925D01*
X52951Y391416D01*
X51895Y390605D01*
X51084Y389549D01*
X50575Y388320D01*
X50401Y387000D01*
X50575Y385680D01*
X51084Y384451D01*
X51895Y383395D01*
X52951Y382584D01*
X54180Y382075D01*
X55500Y381901D01*
X56820Y382075D01*
X58049Y382584D01*
X59105Y383395D01*
X59916Y384451D01*
X60229Y385208D01*
X60771D01*
X61084Y384451D01*
X61895Y383395D01*
X62951Y382584D01*
X64180Y382075D01*
X65500Y381901D01*
X66820Y382075D01*
X68049Y382584D01*
X69105Y383395D01*
X69916Y384451D01*
X70229Y385208D01*
X70771D01*
X71084Y384451D01*
X71895Y383395D01*
X72951Y382584D01*
X74180Y382075D01*
X75500Y381901D01*
X76820Y382075D01*
X78049Y382584D01*
X79105Y383395D01*
X79916Y384451D01*
X80229Y385208D01*
X80771D01*
X81084Y384451D01*
X81895Y383395D01*
X82951Y382584D01*
X84180Y382075D01*
X85500Y381901D01*
X86820Y382075D01*
X88049Y382584D01*
X89105Y383395D01*
X89916Y384451D01*
X90229Y385208D01*
X90771D01*
X91084Y384451D01*
X91895Y383395D01*
X92951Y382584D01*
X94180Y382075D01*
X95500Y381901D01*
X96820Y382075D01*
X98049Y382584D01*
X99105Y383395D01*
X99916Y384451D01*
X100229Y385208D01*
X100771D01*
X101084Y384451D01*
X101895Y383395D01*
X102951Y382584D01*
X104180Y382075D01*
X105500Y381901D01*
X106820Y382075D01*
X108049Y382584D01*
X109105Y383395D01*
X109916Y384451D01*
X110229Y385208D01*
X110771D01*
X111084Y384451D01*
X111895Y383395D01*
X112951Y382584D01*
X114180Y382075D01*
X115500Y381901D01*
X116820Y382075D01*
X118049Y382584D01*
X119105Y383395D01*
X119916Y384451D01*
X120229Y385208D01*
X120771D01*
X121084Y384451D01*
X121895Y383395D01*
X122951Y382584D01*
X124180Y382075D01*
X125500Y381901D01*
X126820Y382075D01*
X128049Y382584D01*
X129105Y383395D01*
X129916Y384451D01*
X130229Y385208D01*
X130771D01*
X131084Y384451D01*
X131895Y383395D01*
X132951Y382584D01*
X134180Y382075D01*
X135500Y381901D01*
X136820Y382075D01*
X138049Y382584D01*
X139105Y383395D01*
X139916Y384451D01*
X140229Y385208D01*
X140771D01*
X141084Y384451D01*
X141895Y383395D01*
X142951Y382584D01*
X144180Y382075D01*
X145500Y381901D01*
X146820Y382075D01*
X148049Y382584D01*
X149105Y383395D01*
X149916Y384451D01*
X150229Y385208D01*
X150771D01*
X151084Y384451D01*
X151895Y383395D01*
X152951Y382584D01*
X154180Y382075D01*
X155500Y381901D01*
X156820Y382075D01*
X158049Y382584D01*
X159105Y383395D01*
X159916Y384451D01*
X160229Y385208D01*
X160771D01*
X161084Y384451D01*
X161895Y383395D01*
X162951Y382584D01*
X164180Y382075D01*
X165500Y381901D01*
X166820Y382075D01*
X168049Y382584D01*
X169105Y383395D01*
X169916Y384451D01*
X170229Y385208D01*
X170771D01*
X171084Y384451D01*
X171895Y383395D01*
X172951Y382584D01*
X174180Y382075D01*
X175500Y381901D01*
X176820Y382075D01*
X178049Y382584D01*
X179105Y383395D01*
X179916Y384451D01*
X180425Y385680D01*
X180599Y387000D01*
X180425Y388320D01*
X179916Y389549D01*
X179105Y390605D01*
X178049Y391416D01*
X176820Y391925D01*
X175500Y392099D01*
D02*
G37*
G36*
X46000Y391040D02*
Y387500D01*
X49540D01*
X49466Y388063D01*
X49056Y389053D01*
X48403Y389903D01*
X47553Y390556D01*
X46563Y390966D01*
X46000Y391040D01*
D02*
G37*
G36*
X16000D02*
Y387500D01*
X19540D01*
X19466Y388063D01*
X19056Y389053D01*
X18403Y389903D01*
X17553Y390556D01*
X16563Y390966D01*
X16000Y391040D01*
D02*
G37*
G36*
X45000D02*
X44437Y390966D01*
X43447Y390556D01*
X42597Y389903D01*
X41944Y389053D01*
X41534Y388063D01*
X41460Y387500D01*
X45000D01*
Y391040D01*
D02*
G37*
G36*
X15000D02*
X14437Y390966D01*
X13447Y390556D01*
X12597Y389903D01*
X11944Y389053D01*
X11534Y388063D01*
X11460Y387500D01*
X15000D01*
Y391040D01*
D02*
G37*
G36*
X49540Y386500D02*
X46000D01*
Y382960D01*
X46563Y383034D01*
X47553Y383444D01*
X48403Y384097D01*
X49056Y384947D01*
X49466Y385937D01*
X49540Y386500D01*
D02*
G37*
G36*
X19540D02*
X16000D01*
Y382960D01*
X16563Y383034D01*
X17553Y383444D01*
X18403Y384097D01*
X19056Y384947D01*
X19466Y385937D01*
X19540Y386500D01*
D02*
G37*
G36*
X45000D02*
X41460D01*
X41534Y385937D01*
X41944Y384947D01*
X42597Y384097D01*
X43447Y383444D01*
X44437Y383034D01*
X45000Y382960D01*
Y386500D01*
D02*
G37*
G36*
X15000D02*
X11460D01*
X11534Y385937D01*
X11944Y384947D01*
X12597Y384097D01*
X13447Y383444D01*
X14437Y383034D01*
X15000Y382960D01*
Y386500D01*
D02*
G37*
G36*
X374016Y385879D02*
X372160Y385733D01*
X370350Y385298D01*
X368630Y384586D01*
X367043Y383613D01*
X365627Y382404D01*
X364418Y380989D01*
X363445Y379402D01*
X362733Y377682D01*
X362298Y375872D01*
X362152Y374016D01*
X362298Y372160D01*
X362733Y370350D01*
X363445Y368630D01*
X364418Y367043D01*
X365627Y365627D01*
X367043Y364418D01*
X368630Y363445D01*
X370350Y362733D01*
X372160Y362298D01*
X374016Y362152D01*
X375872Y362298D01*
X377682Y362733D01*
X379402Y363445D01*
X380989Y364418D01*
X382404Y365627D01*
X383613Y367043D01*
X384586Y368630D01*
X385298Y370350D01*
X385733Y372160D01*
X385879Y374016D01*
X385733Y375872D01*
X385298Y377682D01*
X384586Y379402D01*
X383613Y380989D01*
X382404Y382404D01*
X380989Y383613D01*
X379402Y384586D01*
X377682Y385298D01*
X375872Y385733D01*
X374016Y385879D01*
D02*
G37*
G36*
X19685Y348863D02*
X17829Y348717D01*
X16019Y348283D01*
X14299Y347570D01*
X12712Y346598D01*
X11296Y345389D01*
X10087Y343973D01*
X9115Y342386D01*
X8402Y340666D01*
X7968Y338856D01*
X7822Y337000D01*
X7968Y335144D01*
X8402Y333334D01*
X9115Y331614D01*
X10087Y330027D01*
X11296Y328611D01*
X12712Y327402D01*
X14299Y326430D01*
X16019Y325717D01*
X17829Y325283D01*
X19685Y325137D01*
X21541Y325283D01*
X23351Y325717D01*
X25071Y326430D01*
X26658Y327402D01*
X28074Y328611D01*
X29283Y330027D01*
X30255Y331614D01*
X30968Y333334D01*
X31402Y335144D01*
X31548Y337000D01*
X31402Y338856D01*
X30968Y340666D01*
X30255Y342386D01*
X29283Y343973D01*
X28074Y345389D01*
X26658Y346598D01*
X25071Y347570D01*
X23351Y348283D01*
X21541Y348717D01*
X19685Y348863D01*
D02*
G37*
G36*
X231200Y324885D02*
X230000D01*
Y321740D01*
X233545D01*
Y322540D01*
X233367Y323438D01*
X232858Y324198D01*
X232097Y324707D01*
X231200Y324885D01*
D02*
G37*
G36*
X229000D02*
X227800D01*
X226903Y324707D01*
X226142Y324198D01*
X225633Y323438D01*
X225455Y322540D01*
Y321740D01*
X229000D01*
Y324885D01*
D02*
G37*
G36*
X248150Y323800D02*
X247000D01*
Y321000D01*
X249800D01*
Y322150D01*
X248150Y323800D01*
D02*
G37*
G36*
X246000D02*
X244850D01*
X243200Y322150D01*
Y321000D01*
X246000D01*
Y323800D01*
D02*
G37*
G36*
X289662Y305324D02*
X288500D01*
Y302500D01*
X291324D01*
Y303662D01*
X289662Y305324D01*
D02*
G37*
G36*
X287500D02*
X286338D01*
X284676Y303662D01*
Y302500D01*
X287500D01*
Y305324D01*
D02*
G37*
G36*
X291324Y301500D02*
X288500D01*
Y298676D01*
X289662D01*
X291324Y300338D01*
Y301500D01*
D02*
G37*
G36*
X287500D02*
X284676D01*
Y300338D01*
X286338Y298676D01*
X287500D01*
Y301500D01*
D02*
G37*
G36*
X233960Y295545D02*
X233160D01*
X232262Y295367D01*
X231502Y294858D01*
X230993Y294097D01*
X230815Y293200D01*
Y292000D01*
X233960D01*
Y295545D01*
D02*
G37*
G36*
X46000Y291040D02*
Y287500D01*
X49540D01*
X49466Y288063D01*
X49056Y289053D01*
X48403Y289903D01*
X47553Y290556D01*
X46563Y290966D01*
X46000Y291040D01*
D02*
G37*
G36*
X45000D02*
X44437Y290966D01*
X43447Y290556D01*
X42597Y289903D01*
X41944Y289053D01*
X41534Y288063D01*
X41460Y287500D01*
X45000D01*
Y291040D01*
D02*
G37*
G36*
X233960Y291000D02*
X230815D01*
Y289800D01*
X230993Y288903D01*
X231502Y288142D01*
X232262Y287633D01*
X233160Y287455D01*
X233960D01*
Y291000D01*
D02*
G37*
G36*
X49540Y286500D02*
X46000D01*
Y282960D01*
X46563Y283034D01*
X47553Y283444D01*
X48403Y284097D01*
X49056Y284947D01*
X49466Y285937D01*
X49540Y286500D01*
D02*
G37*
G36*
X45000D02*
X41460D01*
X41534Y285937D01*
X41944Y284947D01*
X42597Y284097D01*
X43447Y283444D01*
X44437Y283034D01*
X45000Y282960D01*
Y286500D01*
D02*
G37*
G36*
X209200Y286045D02*
X208400D01*
X207503Y285867D01*
X206742Y285358D01*
X206233Y284597D01*
X206055Y283700D01*
Y282500D01*
X209200D01*
Y286045D01*
D02*
G37*
G36*
Y281500D02*
X206055D01*
Y280300D01*
X206233Y279403D01*
X206742Y278642D01*
X207503Y278133D01*
X208400Y277955D01*
X209200D01*
Y281500D01*
D02*
G37*
G36*
X272650Y278300D02*
X271500D01*
Y275500D01*
X274300D01*
Y276650D01*
X272650Y278300D01*
D02*
G37*
G36*
X274300Y274500D02*
X271500D01*
Y271700D01*
X272650D01*
X274300Y273350D01*
Y274500D01*
D02*
G37*
G36*
X208000Y273120D02*
Y269500D01*
X211620D01*
X211543Y270083D01*
X211125Y271093D01*
X210459Y271959D01*
X209593Y272625D01*
X208583Y273043D01*
X208000Y273120D01*
D02*
G37*
G36*
X207000D02*
X206417Y273043D01*
X205407Y272625D01*
X204540Y271959D01*
X203875Y271093D01*
X203457Y270083D01*
X203380Y269500D01*
X207000D01*
Y273120D01*
D02*
G37*
G36*
X210000Y268500D02*
X208000D01*
Y268500D01*
X210000Y268500D01*
D02*
G37*
G36*
X207000D02*
X203380D01*
X203457Y267917D01*
X203875Y266907D01*
X203991Y266756D01*
X205735Y268500D01*
X207000Y268500D01*
Y268500D01*
D02*
G37*
G36*
X211620D02*
X210000D01*
Y265688D01*
X210459Y266040D01*
X211125Y266907D01*
X211543Y267917D01*
X211620Y268500D01*
D02*
G37*
G36*
X38045Y176760D02*
X34500D01*
Y173615D01*
X35700D01*
X36597Y173793D01*
X37358Y174302D01*
X37867Y175062D01*
X38045Y175960D01*
Y176760D01*
D02*
G37*
G36*
X33500D02*
X29955D01*
Y175960D01*
X30133Y175062D01*
X30642Y174302D01*
X31403Y173793D01*
X32300Y173615D01*
X33500D01*
Y176760D01*
D02*
G37*
G36*
X359083Y68831D02*
X355039D01*
Y64000D01*
X359083D01*
Y68831D01*
D02*
G37*
G36*
X354039D02*
X349995D01*
Y64000D01*
X354039D01*
Y68831D01*
D02*
G37*
G36*
X359083Y63000D02*
X355039D01*
Y58170D01*
X359083D01*
Y63000D01*
D02*
G37*
G36*
X354039D02*
X349995D01*
Y58170D01*
X354039D01*
Y63000D01*
D02*
G37*
G36*
X30500Y75514D02*
X29590Y75395D01*
X28743Y75043D01*
X28015Y74485D01*
X27457Y73757D01*
X27105Y72910D01*
X26986Y72000D01*
X27105Y71090D01*
X27457Y70243D01*
X27490Y70199D01*
Y68815D01*
X25433D01*
Y56185D01*
X36489D01*
Y68815D01*
X33510D01*
Y70199D01*
X33544Y70243D01*
X33895Y71090D01*
X34014Y72000D01*
X33895Y72910D01*
X33544Y73757D01*
X32985Y74485D01*
X32257Y75043D01*
X31410Y75395D01*
X30500Y75514D01*
D02*
G37*
G36*
X35504Y47831D02*
X31461D01*
Y43000D01*
X35504D01*
Y47831D01*
D02*
G37*
G36*
X30461D02*
X26417D01*
Y43000D01*
X30461D01*
Y47831D01*
D02*
G37*
G36*
X360067Y51315D02*
X349011D01*
Y38685D01*
X360067D01*
Y41990D01*
X361699D01*
X361743Y41956D01*
X362590Y41605D01*
X363500Y41486D01*
X364410Y41605D01*
X365257Y41956D01*
X365985Y42515D01*
X366544Y43243D01*
X366895Y44090D01*
X367014Y45000D01*
X366895Y45910D01*
X366544Y46757D01*
X365985Y47485D01*
X365257Y48044D01*
X364410Y48395D01*
X363500Y48514D01*
X362590Y48395D01*
X361743Y48044D01*
X361699Y48010D01*
X360067D01*
Y51315D01*
D02*
G37*
G36*
X35504Y42000D02*
X31461D01*
Y37170D01*
X35504D01*
Y42000D01*
D02*
G37*
G36*
X30461D02*
X26417D01*
Y37170D01*
X30461D01*
Y42000D01*
D02*
G37*
G36*
X374016Y31548D02*
X372160Y31402D01*
X370350Y30968D01*
X368630Y30255D01*
X367043Y29283D01*
X365627Y28074D01*
X364418Y26658D01*
X363445Y25071D01*
X362733Y23351D01*
X362298Y21541D01*
X362152Y19685D01*
X362298Y17829D01*
X362733Y16019D01*
X363445Y14299D01*
X364418Y12712D01*
X365627Y11296D01*
X367043Y10087D01*
X368630Y9115D01*
X370350Y8402D01*
X372160Y7968D01*
X374016Y7822D01*
X375872Y7968D01*
X377682Y8402D01*
X379402Y9115D01*
X380989Y10087D01*
X382404Y11296D01*
X383613Y12712D01*
X384586Y14299D01*
X385298Y16019D01*
X385733Y17829D01*
X385879Y19685D01*
X385733Y21541D01*
X385298Y23351D01*
X384586Y25071D01*
X383613Y26658D01*
X382404Y28074D01*
X380989Y29283D01*
X379402Y30255D01*
X377682Y30968D01*
X375872Y31402D01*
X374016Y31548D01*
D02*
G37*
G36*
X19685D02*
X17829Y31402D01*
X16019Y30968D01*
X14299Y30255D01*
X12712Y29283D01*
X11296Y28074D01*
X10087Y26658D01*
X9115Y25071D01*
X8402Y23351D01*
X7968Y21541D01*
X7822Y19685D01*
X7968Y17829D01*
X8402Y16019D01*
X9115Y14299D01*
X10087Y12712D01*
X11296Y11296D01*
X12712Y10087D01*
X14299Y9115D01*
X16019Y8402D01*
X17829Y7968D01*
X19685Y7822D01*
X21541Y7968D01*
X23351Y8402D01*
X25071Y9115D01*
X26658Y10087D01*
X28074Y11296D01*
X29283Y12712D01*
X30255Y14299D01*
X30968Y16019D01*
X31402Y17829D01*
X31548Y19685D01*
X31402Y21541D01*
X30968Y23351D01*
X30255Y25071D01*
X29283Y26658D01*
X28074Y28074D01*
X26658Y29283D01*
X25071Y30255D01*
X23351Y30968D01*
X21541Y31402D01*
X19685Y31548D01*
D02*
G37*
G36*
X304685Y22281D02*
X303448Y22118D01*
X302294Y21641D01*
X301304Y20881D01*
X300545Y19891D01*
X300067Y18737D01*
X299904Y17500D01*
X300067Y16263D01*
X300545Y15110D01*
X301304Y14119D01*
X302294Y13360D01*
X303448Y12882D01*
X303835Y12831D01*
Y12327D01*
X303448Y12276D01*
X302294Y11798D01*
X301304Y11038D01*
X300545Y10048D01*
X300067Y8895D01*
X299904Y7658D01*
X300067Y6420D01*
X300545Y5267D01*
X301304Y4277D01*
X302294Y3517D01*
X303448Y3039D01*
X304685Y2876D01*
X305923Y3039D01*
X307076Y3517D01*
X308066Y4277D01*
X308826Y5267D01*
X309303Y6420D01*
X309466Y7658D01*
X309303Y8895D01*
X308826Y10048D01*
X308066Y11038D01*
X307076Y11798D01*
X305923Y12276D01*
X305535Y12327D01*
Y12831D01*
X305923Y12882D01*
X307076Y13360D01*
X308066Y14119D01*
X308826Y15110D01*
X309303Y16263D01*
X309466Y17500D01*
X309303Y18737D01*
X308826Y19891D01*
X308066Y20881D01*
X307076Y21641D01*
X305923Y22118D01*
X304685Y22281D01*
D02*
G37*
G36*
X77315Y21781D02*
X76078Y21618D01*
X74924Y21140D01*
X73934Y20381D01*
X73175Y19390D01*
X72697Y18237D01*
X72534Y17000D01*
X72697Y15763D01*
X73175Y14609D01*
X73934Y13619D01*
X74924Y12859D01*
X76078Y12382D01*
X76465Y12331D01*
Y11827D01*
X76078Y11776D01*
X74924Y11298D01*
X73934Y10538D01*
X73175Y9548D01*
X72697Y8395D01*
X72534Y7158D01*
X72697Y5920D01*
X73175Y4767D01*
X73934Y3777D01*
X74924Y3017D01*
X76078Y2539D01*
X77315Y2376D01*
X78552Y2539D01*
X79706Y3017D01*
X80696Y3777D01*
X81455Y4767D01*
X81933Y5920D01*
X82096Y7158D01*
X81933Y8395D01*
X81455Y9548D01*
X80696Y10538D01*
X79706Y11298D01*
X78552Y11776D01*
X78165Y11827D01*
Y12331D01*
X78552Y12382D01*
X79706Y12859D01*
X80696Y13619D01*
X81455Y14609D01*
X81933Y15763D01*
X82096Y17000D01*
X81933Y18237D01*
X81455Y19390D01*
X80696Y20381D01*
X79706Y21140D01*
X78552Y21618D01*
X77315Y21781D01*
D02*
G37*
G36*
X106200Y256045D02*
X105400D01*
X104503Y255867D01*
X103742Y255358D01*
X103233Y254597D01*
X103055Y253700D01*
Y252500D01*
X106200D01*
Y256045D01*
D02*
G37*
G36*
Y251500D02*
X103055D01*
Y250300D01*
X103233Y249403D01*
X103742Y248642D01*
X104503Y248133D01*
X105400Y247955D01*
X106200D01*
Y251500D01*
D02*
G37*
G36*
Y244385D02*
X105000D01*
Y241240D01*
X108545D01*
Y242040D01*
X108367Y242938D01*
X107858Y243698D01*
X107097Y244207D01*
X106200Y244385D01*
D02*
G37*
G36*
X104000D02*
X102800D01*
X101903Y244207D01*
X101142Y243698D01*
X100634Y242938D01*
X100455Y242040D01*
Y241240D01*
X104000D01*
Y244385D01*
D02*
G37*
G36*
X265016Y256907D02*
X264955Y256600D01*
Y255800D01*
X269000D01*
X273045D01*
Y256600D01*
X272984Y256907D01*
X265016Y256907D01*
D02*
G37*
G36*
X297500Y247700D02*
X293955D01*
Y246900D01*
X294133Y246003D01*
X294642Y245242D01*
X295403Y244733D01*
X296300Y244555D01*
X297500D01*
Y247700D01*
D02*
G37*
G36*
X299700Y242385D02*
X298500D01*
Y239240D01*
X302045D01*
Y240040D01*
X301867Y240938D01*
X301358Y241698D01*
X300597Y242207D01*
X299700Y242385D01*
D02*
G37*
G36*
X297500D02*
X296300D01*
X295403Y242207D01*
X294642Y241698D01*
X294133Y240938D01*
X293955Y240040D01*
Y239240D01*
X297500D01*
Y242385D01*
D02*
G37*
G36*
X59260Y246500D02*
X56115D01*
Y245300D01*
X56293Y244403D01*
X56802Y243642D01*
X57562Y243133D01*
X58460Y242955D01*
X59260D01*
Y246500D01*
D02*
G37*
G36*
X311713Y221013D02*
X309113D01*
X308255Y220900D01*
X307456Y220569D01*
X306770Y220042D01*
X306244Y219356D01*
X306208Y219271D01*
X305910Y219395D01*
X305000Y219514D01*
X304090Y219395D01*
X303243Y219043D01*
X302515Y218485D01*
X301957Y217757D01*
X301605Y216910D01*
X301486Y216000D01*
X301605Y215090D01*
X301957Y214243D01*
X302515Y213515D01*
X303243Y212957D01*
X304090Y212605D01*
X305000Y212486D01*
X305910Y212605D01*
X306208Y212729D01*
X306244Y212644D01*
X306770Y211958D01*
X307456Y211431D01*
X308255Y211100D01*
X309113Y210987D01*
X311713D01*
X312570Y211100D01*
X313369Y211431D01*
X314055Y211958D01*
X314480Y212512D01*
X314857Y212607D01*
X315094Y212575D01*
X315755Y212133D01*
X316653Y211955D01*
X317453D01*
Y216000D01*
Y220045D01*
X316653D01*
X315755Y219867D01*
X315094Y219425D01*
X314857Y219393D01*
X314480Y219488D01*
X314055Y220042D01*
X313369Y220569D01*
X312570Y220900D01*
X311713Y221013D01*
D02*
G37*
G36*
X54200Y222500D02*
X49800D01*
Y220950D01*
X54200D01*
Y222500D01*
D02*
G37*
G36*
X48800D02*
X44400D01*
Y220950D01*
X48800D01*
Y222500D01*
D02*
G37*
G36*
X92200Y218758D02*
X91400D01*
X90503Y218579D01*
X89742Y218071D01*
X89233Y217310D01*
X89055Y216413D01*
Y215213D01*
X92200D01*
Y218758D01*
D02*
G37*
G36*
Y214213D02*
X89055D01*
Y213013D01*
X89233Y212115D01*
X89742Y211354D01*
X90503Y210846D01*
X91400Y210667D01*
X92200D01*
Y214213D01*
D02*
G37*
G36*
X128045Y179973D02*
X124500D01*
Y176827D01*
X125700D01*
X126597Y177006D01*
X127358Y177514D01*
X127867Y178275D01*
X128045Y179172D01*
Y179973D01*
D02*
G37*
G36*
X123500D02*
X119955D01*
Y179172D01*
X120133Y178275D01*
X120642Y177514D01*
X121403Y177006D01*
X122300Y176827D01*
X123500D01*
Y179973D01*
D02*
G37*
G36*
X125700Y172945D02*
X124500D01*
Y169800D01*
X128045D01*
Y170600D01*
X127867Y171497D01*
X127358Y172258D01*
X126597Y172767D01*
X125700Y172945D01*
D02*
G37*
G36*
X123500D02*
X122300D01*
X121403Y172767D01*
X120642Y172258D01*
X120133Y171497D01*
X119955Y170600D01*
Y169800D01*
X123500D01*
Y172945D01*
D02*
G37*
G36*
X198000Y170428D02*
Y168000D01*
X200428D01*
X200392Y168275D01*
X200093Y168997D01*
X199617Y169617D01*
X198997Y170093D01*
X198275Y170392D01*
X198000Y170428D01*
D02*
G37*
G36*
X197000D02*
X196725Y170392D01*
X196003Y170093D01*
X195383Y169617D01*
X194907Y168997D01*
X194608Y168275D01*
X194572Y168000D01*
X197000D01*
Y170428D01*
D02*
G37*
G36*
X200428Y167000D02*
X198000D01*
Y164572D01*
X198275Y164608D01*
X198997Y164907D01*
X199617Y165383D01*
X200093Y166003D01*
X200392Y166725D01*
X200428Y167000D01*
D02*
G37*
G36*
X197000D02*
X194572D01*
X194608Y166725D01*
X194907Y166003D01*
X195383Y165383D01*
X196003Y164907D01*
X196725Y164608D01*
X197000Y164572D01*
Y167000D01*
D02*
G37*
G36*
X218000Y160428D02*
Y158000D01*
X220428D01*
X220392Y158275D01*
X220093Y158997D01*
X219617Y159617D01*
X218997Y160093D01*
X218275Y160392D01*
X218000Y160428D01*
D02*
G37*
G36*
X217000D02*
X216725Y160392D01*
X216003Y160093D01*
X215383Y159617D01*
X214907Y158997D01*
X214608Y158275D01*
X214572Y158000D01*
X217000D01*
Y160428D01*
D02*
G37*
G36*
X249045Y158260D02*
X245500D01*
Y155115D01*
X246700D01*
X247597Y155293D01*
X248358Y155802D01*
X248867Y156562D01*
X249045Y157460D01*
Y158260D01*
D02*
G37*
G36*
X244500D02*
X240955D01*
Y157460D01*
X241133Y156562D01*
X241642Y155802D01*
X242403Y155293D01*
X243300Y155115D01*
X244500D01*
Y158260D01*
D02*
G37*
G36*
X220428Y157000D02*
X218000D01*
Y154572D01*
X218275Y154608D01*
X218997Y154907D01*
X219617Y155383D01*
X220093Y156003D01*
X220392Y156725D01*
X220428Y157000D01*
D02*
G37*
G36*
X217000D02*
X214572D01*
X214608Y156725D01*
X214907Y156003D01*
X215383Y155383D01*
X216003Y154907D01*
X216725Y154608D01*
X217000Y154572D01*
Y157000D01*
D02*
G37*
G36*
X119545Y129260D02*
X116000D01*
Y126115D01*
X117200D01*
X118097Y126293D01*
X118858Y126802D01*
X119367Y127562D01*
X119545Y128460D01*
Y129260D01*
D02*
G37*
G36*
X115000D02*
X111455D01*
Y128460D01*
X111633Y127562D01*
X112142Y126802D01*
X112903Y126293D01*
X113800Y126115D01*
X115000D01*
Y129260D01*
D02*
G37*
G36*
X251545Y125200D02*
X248000D01*
Y122055D01*
X249200D01*
X250097Y122233D01*
X250858Y122742D01*
X251367Y123503D01*
X251545Y124400D01*
Y125200D01*
D02*
G37*
G36*
X247000D02*
X243455D01*
Y124400D01*
X243633Y123503D01*
X244142Y122742D01*
X244903Y122233D01*
X245800Y122055D01*
X247000D01*
Y125200D01*
D02*
G37*
G36*
X117200Y114945D02*
X116000D01*
Y111800D01*
X119545D01*
Y112600D01*
X119367Y113497D01*
X118858Y114258D01*
X118097Y114767D01*
X117200Y114945D01*
D02*
G37*
G36*
X115000D02*
X113800D01*
X112903Y114767D01*
X112142Y114258D01*
X111633Y113497D01*
X111455Y112600D01*
Y111800D01*
X115000D01*
Y114945D01*
D02*
G37*
G36*
X119545Y110800D02*
X115500D01*
X111455D01*
Y110000D01*
X111633Y109103D01*
X112075Y108441D01*
X112107Y108204D01*
X112012Y107827D01*
X111458Y107402D01*
X110931Y106716D01*
X110600Y105917D01*
X110487Y105060D01*
Y102460D01*
X110600Y101602D01*
X110931Y100803D01*
X111458Y100118D01*
X112144Y99591D01*
X112943Y99260D01*
X113800Y99147D01*
X117200D01*
X118057Y99260D01*
X118856Y99591D01*
X119542Y100118D01*
X119788Y100438D01*
X120590Y100105D01*
X121500Y99986D01*
X122410Y100105D01*
X123257Y100457D01*
X123985Y101015D01*
X124543Y101743D01*
X124895Y102590D01*
X125014Y103500D01*
X124895Y104410D01*
X124543Y105257D01*
X123985Y105985D01*
X123257Y106544D01*
X122410Y106895D01*
X121500Y107014D01*
X120590Y106895D01*
X120082Y106684D01*
X120069Y106716D01*
X119542Y107402D01*
X118988Y107827D01*
X118893Y108204D01*
X118925Y108441D01*
X119367Y109103D01*
X119545Y110000D01*
Y110800D01*
D02*
G37*
G36*
X105050Y104100D02*
X103500D01*
Y99700D01*
X105050D01*
Y104100D01*
D02*
G37*
G36*
X306045Y128760D02*
X302500D01*
Y125615D01*
X303700D01*
X304597Y125793D01*
X305358Y126302D01*
X305867Y127062D01*
X306045Y127960D01*
Y128760D01*
D02*
G37*
G36*
X301500D02*
X297955D01*
Y127960D01*
X298133Y127062D01*
X298642Y126302D01*
X299403Y125793D01*
X300300Y125615D01*
X301500D01*
Y128760D01*
D02*
G37*
G36*
X295550Y112100D02*
X294000D01*
Y107700D01*
X295550D01*
Y112100D01*
D02*
G37*
G36*
X306700Y105445D02*
X305500D01*
Y102300D01*
X309045D01*
Y103100D01*
X308867Y103997D01*
X308358Y104758D01*
X307597Y105267D01*
X306700Y105445D01*
D02*
G37*
G36*
X295550Y106700D02*
X294000D01*
Y102300D01*
X295550D01*
Y106700D01*
D02*
G37*
G36*
X304500Y105445D02*
X303300D01*
X302403Y105267D01*
X301642Y104758D01*
X301133Y103997D01*
X300955Y103100D01*
Y102300D01*
X304500D01*
Y105445D01*
D02*
G37*
G36*
X184200Y119545D02*
X183400D01*
X182503Y119367D01*
X181742Y118858D01*
X181233Y118097D01*
X181055Y117200D01*
Y116000D01*
X184200D01*
Y119545D01*
D02*
G37*
G36*
Y115000D02*
X181055D01*
Y113800D01*
X181233Y112903D01*
X181742Y112142D01*
X182503Y111633D01*
X183400Y111455D01*
X184200D01*
Y115000D01*
D02*
G37*
G36*
X182700Y107550D02*
X178300D01*
Y106000D01*
X182700D01*
Y107550D01*
D02*
G37*
G36*
X177300D02*
X172900D01*
Y106000D01*
X177300D01*
Y107550D01*
D02*
G37*
G36*
X218500Y78014D02*
X217590Y77895D01*
X216743Y77543D01*
X216015Y76985D01*
X215457Y76257D01*
X215105Y75410D01*
X214986Y74500D01*
X215105Y73590D01*
X215457Y72743D01*
X215490Y72699D01*
Y71315D01*
X212972D01*
Y58685D01*
X224028D01*
Y71315D01*
X221510D01*
Y72699D01*
X221544Y72743D01*
X221895Y73590D01*
X222014Y74500D01*
X221895Y75410D01*
X221544Y76257D01*
X220985Y76985D01*
X220257Y77543D01*
X219410Y77895D01*
X218500Y78014D01*
D02*
G37*
G36*
X118100Y59045D02*
X117300D01*
Y55500D01*
X120445D01*
Y56700D01*
X120267Y57597D01*
X119758Y58358D01*
X118997Y58867D01*
X118100Y59045D01*
D02*
G37*
G36*
X120445Y54500D02*
X117300D01*
Y50955D01*
X118100D01*
X118997Y51133D01*
X119758Y51642D01*
X120267Y52403D01*
X120445Y53300D01*
Y54500D01*
D02*
G37*
G36*
X73700D02*
X70555D01*
Y53300D01*
X70733Y52403D01*
X71242Y51642D01*
X72003Y51133D01*
X72900Y50955D01*
X73700D01*
Y54500D01*
D02*
G37*
G36*
X262700Y62545D02*
X261900D01*
X261003Y62366D01*
X260242Y61858D01*
X259733Y61097D01*
X259555Y60200D01*
Y59000D01*
X262700D01*
Y62545D01*
D02*
G37*
G36*
X310945Y58000D02*
X307800D01*
Y54455D01*
X308600D01*
X309497Y54633D01*
X310258Y55142D01*
X310767Y55903D01*
X310945Y56800D01*
Y58000D01*
D02*
G37*
G36*
X262700D02*
X259555D01*
Y56800D01*
X259733Y55903D01*
X260242Y55142D01*
X261003Y54633D01*
X261900Y54455D01*
X262700D01*
Y58000D01*
D02*
G37*
%LPD*%
D14*
X284500Y171000D02*
X294500D01*
X281240Y174260D02*
X284500Y171000D01*
X272500Y174260D02*
X281240D01*
X294500Y171000D02*
X296500Y169000D01*
X306413Y176000D02*
X310413Y172000D01*
X289000Y176000D02*
X306413D01*
X286500Y178500D02*
X289000Y176000D01*
X296500Y163950D02*
Y169000D01*
Y163800D02*
Y163950D01*
X286500Y178500D02*
Y183200D01*
X294689Y229690D02*
X296490D01*
X291000Y226000D02*
X294689Y229690D01*
X285270Y230928D02*
Y230970D01*
Y230928D02*
X287108Y229089D01*
X287911D01*
X291000Y226000D01*
Y225830D02*
Y226000D01*
X285240Y220070D02*
X291000Y225830D01*
X285240Y219500D02*
Y220070D01*
X306213Y231200D02*
X308502Y228910D01*
X308605D01*
X310413Y227102D01*
Y227000D02*
Y227102D01*
X298000Y231200D02*
X306213D01*
X296490Y229690D02*
X298000Y231200D01*
X285240Y219500D02*
X285270Y219530D01*
X265000Y211000D02*
X273500Y219500D01*
X265000Y181500D02*
Y211000D01*
X261000Y177500D02*
X265000Y181500D01*
X273500Y219500D02*
X277700D01*
X256740Y177500D02*
X261000D01*
X256500Y177260D02*
X256740Y177500D01*
X291500Y138300D02*
Y163800D01*
X279225Y148225D02*
X286500Y155500D01*
Y163800D01*
X51770Y198530D02*
X51800Y198500D01*
X51770Y198530D02*
Y209470D01*
X51740Y209500D02*
X51770Y209470D01*
X40500Y225500D02*
X43000Y228000D01*
X49300D01*
X40000Y210000D02*
X43700D01*
X44200Y209500D01*
X33500Y216500D02*
X40000Y210000D01*
X64000Y233000D02*
X68700D01*
X58000Y227000D02*
X64000Y233000D01*
X58000Y211500D02*
Y227000D01*
X56000Y209500D02*
X58000Y211500D01*
X51740Y209500D02*
X56000D01*
X49300Y233000D02*
X56197D01*
X58697Y235500D01*
X59000D01*
X75000Y228000D02*
X76500Y229500D01*
X68700Y228000D02*
X75000D01*
X82500Y228500D02*
Y233260D01*
X77000Y223000D02*
X82500Y228500D01*
X68700Y223000D02*
X77000D01*
X68700D02*
X69000Y222700D01*
Y213240D02*
Y222700D01*
X40500Y238000D02*
X49300D01*
X39500Y239000D02*
X40500Y238000D01*
X34300Y239000D02*
X39500D01*
X33500Y239800D02*
X34300Y239000D01*
X82500Y240800D02*
Y245000D01*
X74000Y253500D02*
X82500Y245000D01*
X41500Y253500D02*
X74000D01*
X33500Y245500D02*
X41500Y253500D01*
X33500Y239800D02*
Y245500D01*
X34240Y233000D02*
X49300D01*
X33500Y232260D02*
X34240Y233000D01*
X33500Y216500D02*
Y232260D01*
X294300Y193300D02*
Y205000D01*
X286500Y183200D02*
Y197628D01*
X291500Y190500D02*
X294300Y193300D01*
X291500Y183200D02*
Y190500D01*
X279225Y143000D02*
Y148225D01*
X128463Y36722D02*
X128500Y36760D01*
X116685Y36685D02*
X116722Y36722D01*
D15*
X28500Y375000D02*
X35500Y382000D01*
X26740Y375000D02*
X28500D01*
X217240Y269260D02*
X217500Y269000D01*
X217240Y269260D02*
Y282000D01*
X35500Y382000D02*
Y387000D01*
D20*
X281500Y163800D02*
D03*
X286500D02*
D03*
X291500D02*
D03*
X296500D02*
D03*
Y183200D02*
D03*
X291500D02*
D03*
X286500D02*
D03*
X281500D02*
D03*
X88000Y99200D02*
D03*
X93000D02*
D03*
X98000D02*
D03*
X103000D02*
D03*
Y79800D02*
D03*
X98000D02*
D03*
X93000D02*
D03*
X88000D02*
D03*
X242500Y228300D02*
D03*
X247500D02*
D03*
X252500D02*
D03*
X257500D02*
D03*
Y247700D02*
D03*
X252500D02*
D03*
X247500D02*
D03*
X242500D02*
D03*
X278500Y87800D02*
D03*
X283500D02*
D03*
X288500D02*
D03*
X293500D02*
D03*
Y107200D02*
D03*
X288500D02*
D03*
X283500D02*
D03*
X278500D02*
D03*
X89500Y182913D02*
D03*
X94500D02*
D03*
X99500D02*
D03*
X104500D02*
D03*
Y163513D02*
D03*
X99500D02*
D03*
X94500D02*
D03*
X89500D02*
D03*
D21*
X272500Y174260D02*
D03*
Y181800D02*
D03*
X209500Y205240D02*
D03*
Y197700D02*
D03*
X197333Y205300D02*
D03*
Y197760D02*
D03*
X173000Y205300D02*
D03*
Y197760D02*
D03*
X185167Y197700D02*
D03*
Y205240D02*
D03*
X185000Y219700D02*
D03*
Y227240D02*
D03*
X35500Y307740D02*
D03*
Y300200D02*
D03*
X128500Y44300D02*
D03*
Y36760D02*
D03*
X78500Y176760D02*
D03*
Y184300D02*
D03*
X256500Y197760D02*
D03*
Y205300D02*
D03*
X245000Y177200D02*
D03*
Y184740D02*
D03*
Y197700D02*
D03*
Y205240D02*
D03*
X233500D02*
D03*
Y197700D02*
D03*
X221500D02*
D03*
Y205240D02*
D03*
X256500Y177260D02*
D03*
Y184800D02*
D03*
X269000Y255300D02*
D03*
Y247760D02*
D03*
X278000Y240200D02*
D03*
Y247740D02*
D03*
X64500Y44800D02*
D03*
Y37260D02*
D03*
X120000Y85200D02*
D03*
Y92740D02*
D03*
X115500Y103760D02*
D03*
Y111300D02*
D03*
X77000Y99260D02*
D03*
Y106800D02*
D03*
X33500Y239800D02*
D03*
Y232260D02*
D03*
X82500Y240800D02*
D03*
Y233260D02*
D03*
X94000Y240740D02*
D03*
Y233200D02*
D03*
X104500D02*
D03*
Y240740D02*
D03*
X112500Y223800D02*
D03*
Y216260D02*
D03*
Y206800D02*
D03*
Y199260D02*
D03*
X79500Y205700D02*
D03*
Y213240D02*
D03*
X69000Y205700D02*
D03*
Y213240D02*
D03*
X34000Y184800D02*
D03*
Y177260D02*
D03*
X46000D02*
D03*
Y184800D02*
D03*
Y165513D02*
D03*
Y157972D02*
D03*
X58000D02*
D03*
Y165513D02*
D03*
Y128700D02*
D03*
Y136240D02*
D03*
X104500Y129760D02*
D03*
Y137300D02*
D03*
X115500D02*
D03*
Y129760D02*
D03*
X145500Y169513D02*
D03*
Y161972D02*
D03*
Y148513D02*
D03*
Y140972D02*
D03*
X134000Y140700D02*
D03*
Y148240D02*
D03*
Y169453D02*
D03*
Y161913D02*
D03*
X124000Y161760D02*
D03*
Y169300D02*
D03*
X256500Y158760D02*
D03*
Y166300D02*
D03*
X245000D02*
D03*
Y158760D02*
D03*
X255000Y95700D02*
D03*
Y103240D02*
D03*
X193000Y34700D02*
D03*
Y42240D02*
D03*
X183000Y34760D02*
D03*
Y42300D02*
D03*
X229500Y240260D02*
D03*
Y247800D02*
D03*
X272500Y294700D02*
D03*
Y302240D02*
D03*
X229500Y321240D02*
D03*
Y313700D02*
D03*
X58000Y177260D02*
D03*
Y184800D02*
D03*
X305000Y101800D02*
D03*
Y94260D02*
D03*
X298000Y248200D02*
D03*
Y255740D02*
D03*
X161000Y93760D02*
D03*
Y101300D02*
D03*
X298000Y231200D02*
D03*
Y238740D02*
D03*
X124000Y188013D02*
D03*
Y180472D02*
D03*
X134000Y188013D02*
D03*
Y180472D02*
D03*
X247500Y133240D02*
D03*
Y125700D02*
D03*
X253000Y37260D02*
D03*
Y44800D02*
D03*
X291000Y136800D02*
D03*
Y129260D02*
D03*
X302000D02*
D03*
Y136800D02*
D03*
X318000Y37260D02*
D03*
Y44800D02*
D03*
D22*
X24240Y361500D02*
D03*
X16700D02*
D03*
D23*
X240800Y94000D02*
D03*
X233260D02*
D03*
X109260Y55000D02*
D03*
X116800D02*
D03*
X99270D02*
D03*
X91730D02*
D03*
X310413Y227000D02*
D03*
X317953D02*
D03*
X310413Y172000D02*
D03*
X317953D02*
D03*
Y183000D02*
D03*
X310413D02*
D03*
X317953Y194000D02*
D03*
X310413D02*
D03*
X317953Y205000D02*
D03*
X310413D02*
D03*
Y216000D02*
D03*
X317953D02*
D03*
X294300Y205000D02*
D03*
X286760D02*
D03*
X277700Y219500D02*
D03*
X285240D02*
D03*
X277760Y231000D02*
D03*
X285300D02*
D03*
X16700Y375000D02*
D03*
X24240D02*
D03*
X81740Y55000D02*
D03*
X74200D02*
D03*
X154260Y82500D02*
D03*
X161800D02*
D03*
X132200Y83787D02*
D03*
X139740D02*
D03*
X132200Y93787D02*
D03*
X139740D02*
D03*
X114240Y252000D02*
D03*
X106700D02*
D03*
X100300Y203713D02*
D03*
X92760D02*
D03*
X92700Y214713D02*
D03*
X100240D02*
D03*
X51740Y209500D02*
D03*
X44200D02*
D03*
X51800Y198500D02*
D03*
X44260D02*
D03*
X89013Y141500D02*
D03*
X81472D02*
D03*
X88713Y129000D02*
D03*
X81172D02*
D03*
X279225Y143000D02*
D03*
X271685D02*
D03*
X279453Y133500D02*
D03*
X271913D02*
D03*
X255760Y115000D02*
D03*
X263300D02*
D03*
X217240Y282000D02*
D03*
X209700D02*
D03*
X234460Y291500D02*
D03*
X242000D02*
D03*
X67300Y247000D02*
D03*
X59760D02*
D03*
X193200Y70500D02*
D03*
X200740D02*
D03*
X191200Y257500D02*
D03*
X198740D02*
D03*
X198800Y248500D02*
D03*
X191260D02*
D03*
X184700Y115500D02*
D03*
X192240D02*
D03*
X263200Y58500D02*
D03*
X270740D02*
D03*
X281480D02*
D03*
X289020D02*
D03*
X233260Y105500D02*
D03*
X240800D02*
D03*
X307300Y58500D02*
D03*
X299760D02*
D03*
D24*
X141461Y42000D02*
D03*
X161539D02*
D03*
X30961Y62500D02*
D03*
X51039D02*
D03*
Y42500D02*
D03*
X30961D02*
D03*
X161039Y63000D02*
D03*
X140961D02*
D03*
X238539Y45000D02*
D03*
X218461D02*
D03*
X218500Y65000D02*
D03*
X238578D02*
D03*
X354539Y63500D02*
D03*
X334461D02*
D03*
Y45000D02*
D03*
X354539D02*
D03*
D25*
X177800Y90500D02*
D03*
Y95500D02*
D03*
Y100500D02*
D03*
Y105500D02*
D03*
X197200D02*
D03*
Y100500D02*
D03*
Y95500D02*
D03*
Y90500D02*
D03*
X68700Y238000D02*
D03*
Y233000D02*
D03*
Y228000D02*
D03*
Y223000D02*
D03*
X49300D02*
D03*
Y228000D02*
D03*
Y233000D02*
D03*
Y238000D02*
D03*
D47*
X66500Y180500D02*
D03*
X291000Y226000D02*
D03*
X113000Y233000D02*
D03*
X102500Y147000D02*
D03*
X164500Y205500D02*
D03*
X238500Y172000D02*
D03*
X147500Y187500D02*
D03*
X312500Y136500D02*
D03*
X216000Y100500D02*
D03*
D48*
X229500Y25500D02*
D03*
D49*
X185000Y227240D02*
X228500D01*
X198900Y242100D02*
X199000Y242000D01*
X198900Y242100D02*
Y248400D01*
X184500Y214500D02*
X184691Y214309D01*
Y205715D02*
Y214309D01*
Y205715D02*
X185167Y205240D01*
X263300Y114000D02*
X264300Y115000D01*
X172500Y75248D02*
Y83000D01*
X76800Y107500D02*
X90500D01*
X184500Y214500D02*
Y219200D01*
X185000Y219700D01*
X35500Y307740D02*
Y313000D01*
X190000Y294500D02*
X197500Y287000D01*
X171000Y294500D02*
X190000D01*
X197500Y269000D02*
Y287000D01*
X165500D02*
Y288000D01*
Y287000D02*
X167000D01*
X69000Y123000D02*
Y125630D01*
Y131388D01*
X38500Y136240D02*
X58000D01*
X64148D02*
X69000Y131388D01*
X58000Y136240D02*
X64148D01*
X281500Y181850D02*
Y183200D01*
X281450Y181800D02*
X281500Y181850D01*
X272500Y181800D02*
X281450D01*
X272500D02*
Y187000D01*
X305000Y216000D02*
X310413D01*
X277760Y231000D02*
X278000Y231240D01*
Y240200D01*
X323553Y183053D02*
X326000Y185500D01*
X318005Y183053D02*
X323553D01*
X317953Y183000D02*
X318005Y183053D01*
X326000Y185500D02*
Y224000D01*
X323000Y227000D02*
X326000Y224000D01*
X317953Y227000D02*
X323000D01*
X294300Y205000D02*
X310413D01*
Y183000D02*
Y194000D01*
X296500Y183050D02*
Y183200D01*
Y183050D02*
X296550Y183000D01*
X310413D01*
X317953Y172000D02*
Y183000D01*
X290000Y136800D02*
X291500Y138300D01*
X276725Y163800D02*
X281500D01*
X296550Y164000D02*
X307500D01*
X296500Y163950D02*
X296550Y164000D01*
X67300Y238050D02*
Y247000D01*
Y238050D02*
X67350Y238000D01*
X68700D01*
X67300Y247000D02*
X73500D01*
X112000Y188213D02*
Y198760D01*
X112500Y199260D01*
X58000Y177000D02*
X63000D01*
X46000Y177260D02*
X58000D01*
X46000Y165513D02*
X58000D01*
Y177000D01*
X44500Y192500D02*
Y198260D01*
X44260Y198500D02*
X44500Y198260D01*
X46000Y184800D02*
Y191000D01*
X44500Y192500D02*
X46000Y191000D01*
X282015Y294023D02*
X282692Y293346D01*
X301500Y128760D02*
X303240D01*
X92500Y214606D02*
Y220000D01*
X45167Y157972D02*
X46000Y157139D01*
X114800Y111300D02*
X115500Y112000D01*
X178375Y106075D02*
X178950Y105500D01*
X49500Y151000D02*
X64000D01*
X46000Y154500D02*
X49500Y151000D01*
X46000Y154500D02*
Y157139D01*
Y184800D02*
X58000D01*
X34000D02*
X46000D01*
X66500Y180500D02*
X69000Y183000D01*
X55000Y247000D02*
X59760D01*
X69000Y205700D02*
X79500D01*
X63000Y177000D02*
X66500Y180500D01*
X69000Y183000D02*
Y205700D01*
X47000Y220000D02*
Y222950D01*
X47050Y223000D01*
X49300D01*
X93970Y240770D02*
X94000Y240740D01*
X82530Y240770D02*
X93970D01*
X82500Y240800D02*
X82530Y240770D01*
X79500Y213240D02*
X79640Y213380D01*
Y218840D01*
X92185Y231385D01*
Y231623D01*
X93762Y233200D01*
X94000D01*
X104500D01*
X112900Y233100D02*
X113000Y233000D01*
X104600Y233100D02*
X112900D01*
X104500Y233200D02*
X104600Y233100D01*
X112809Y232809D02*
X113000Y233000D01*
X112809Y224109D02*
Y232809D01*
X112500Y223800D02*
X112809Y224109D01*
X112500Y206800D02*
Y216260D01*
X134000Y188013D02*
Y192000D01*
X119200Y206800D02*
X134000Y192000D01*
X112500Y206800D02*
X119200D01*
X92500Y214606D02*
X92594D01*
X78500Y184300D02*
X89450D01*
X89500Y184250D01*
Y182913D02*
Y184250D01*
X78500Y184300D02*
Y189000D01*
X73532Y172191D02*
X78100Y176760D01*
X78500D01*
X178375Y106075D02*
Y112375D01*
X183000Y278000D02*
X186677Y274323D01*
X139401Y278000D02*
X183000D01*
X135500Y281901D02*
X139401Y278000D01*
X226000Y306000D02*
X226120Y306120D01*
X242880D02*
X243000Y306240D01*
X272600Y294600D02*
X273177Y294023D01*
X247500Y133240D02*
X247740Y133000D01*
X256000D01*
X263740Y125260D01*
X277760D01*
X160265Y94000D02*
X169000D01*
X187260Y42240D02*
X193000D01*
X185500Y44000D02*
X187260Y42240D01*
X185500Y44000D02*
Y44800D01*
X184815Y44115D02*
X185500Y44800D01*
X184815Y43877D02*
Y44115D01*
X183238Y42300D02*
X184815Y43877D01*
X183000Y42300D02*
X183238D01*
X185500Y44800D02*
Y93500D01*
X183500Y95500D02*
X185500Y93500D01*
X177800Y95500D02*
X183500D01*
X190000Y79000D02*
Y97000D01*
X186500Y100500D02*
X190000Y97000D01*
X177800Y100500D02*
X186500D01*
X190000Y79000D02*
X192500Y76500D01*
X114240Y262740D02*
X114500Y263000D01*
X114240Y252000D02*
Y262740D01*
X251778Y253500D02*
X252450Y252828D01*
X248222Y253500D02*
X251778D01*
X247550Y252828D02*
X248222Y253500D01*
X252450Y247750D02*
Y252828D01*
X203000Y147500D02*
X217260Y133240D01*
X197500Y147500D02*
X203000D01*
X209470Y197730D02*
X209500Y197700D01*
X209500Y197700D01*
X62500Y116000D02*
X63000Y116500D01*
X38500Y116000D02*
X62500D01*
X28500D02*
X38500D01*
X18500Y126000D02*
X28500Y116000D01*
X58200Y128500D02*
X63000D01*
X58000Y128700D02*
X58200Y128500D01*
X145470Y161943D02*
X145500Y161913D01*
X115500Y112000D02*
Y129760D01*
X297240Y265740D02*
X297500Y266000D01*
X229500Y228500D02*
Y240260D01*
X228500Y227500D02*
X229500Y228500D01*
X235500Y233500D02*
X239000Y237000D01*
X235500Y207240D02*
Y233500D01*
X233500Y205240D02*
X235500Y207240D01*
X197500Y205467D02*
Y210500D01*
X197333Y205300D02*
X197500Y205467D01*
X134000Y135500D02*
Y140700D01*
X148500Y82000D02*
X153760D01*
X154260Y82500D01*
X77000Y95000D02*
Y99260D01*
X133760Y148000D02*
X134000Y148240D01*
X302000Y107500D02*
X304500Y105000D01*
X297500Y107500D02*
X302000D01*
X304500Y102300D02*
Y105000D01*
Y102300D02*
X305000Y101800D01*
X302191Y87691D02*
X305000Y90500D01*
X298691Y87691D02*
X302191D01*
X298500Y87500D02*
X298691Y87691D01*
X305000Y90500D02*
Y94260D01*
X250500Y115000D02*
X255760D01*
X197000Y110500D02*
Y114000D01*
X195500Y115500D02*
X197000Y114000D01*
X192240Y115500D02*
X195500D01*
X181500D02*
X184500D01*
X178375Y112375D02*
X181500Y115500D01*
X197000Y105550D02*
Y110500D01*
Y105550D02*
X197050Y105500D01*
X124000Y157000D02*
Y161760D01*
Y169300D02*
Y180472D01*
X100500Y252000D02*
X106700D01*
X286760Y198260D02*
Y205000D01*
X121370Y103630D02*
X121500Y103500D01*
X115630Y103630D02*
X121370D01*
X115500Y103760D02*
X115630Y103630D01*
X103000Y76950D02*
X106259Y73691D01*
X103000Y76950D02*
Y79800D01*
X76900Y112900D02*
X77000Y113000D01*
X76900Y107600D02*
Y112900D01*
X76800Y107500D02*
X76900Y107600D01*
X108800Y111300D02*
X114800D01*
X103000Y105500D02*
X108800Y111300D01*
X103000Y99200D02*
Y105500D01*
X257550Y247760D02*
X269000D01*
X257500Y247710D02*
X257550Y247760D01*
X257500Y247700D02*
Y247710D01*
X253500Y239000D02*
X276800D01*
X247500Y233000D02*
X253500Y239000D01*
X247500Y228300D02*
Y233000D01*
X276800Y239000D02*
X278000Y240200D01*
X236900Y247900D02*
X237000Y248000D01*
X229600Y247900D02*
X236900D01*
X229500Y247800D02*
X229600Y247900D01*
X263598Y115298D02*
Y120309D01*
X263790Y120500D01*
X263300Y115000D02*
X263598Y115298D01*
X257550Y227500D02*
X263500D01*
X257500Y227550D02*
X257550Y227500D01*
X293800Y87500D02*
X298500D01*
X293500Y87800D02*
X293800Y87500D01*
X108987Y163513D02*
X110500Y162000D01*
Y157000D02*
Y162000D01*
X104500Y163513D02*
X108987D01*
X237000Y248000D02*
X242450D01*
X242500Y247950D01*
Y247700D02*
Y247950D01*
X209500Y211493D02*
X215007Y217000D01*
X209500Y205240D02*
Y211493D01*
X215007Y217000D02*
X228000D01*
X239000Y237000D02*
X242000D01*
X247450Y242450D01*
X140028Y83713D02*
Y95213D01*
X164500Y124500D02*
X202500D01*
X140028Y100028D02*
X164500Y124500D01*
X140028Y95287D02*
Y100028D01*
X118972Y92500D02*
X120000Y93528D01*
X89500Y92500D02*
X118972D01*
X89987Y85987D02*
X120000D01*
X88050Y84050D02*
X89987Y85987D01*
X88050Y79850D02*
Y84050D01*
X88000Y94000D02*
Y99200D01*
Y94000D02*
X89500Y92500D01*
X88000Y79800D02*
X88050Y79850D01*
X120000Y85987D02*
X120850Y85137D01*
Y84637D02*
X131350D01*
Y85137D02*
X132200Y84287D01*
X120000Y93528D02*
X120380Y93907D01*
Y93407D02*
X131820D01*
Y93907D02*
X132200Y94287D01*
X110500Y63000D02*
X140961D01*
X202500Y124500D02*
X216000Y111000D01*
Y100500D02*
Y111000D01*
X177800Y105500D02*
X178950D01*
X197050D02*
X197200D01*
X256500Y190000D02*
Y197760D01*
Y184800D02*
Y190000D01*
X224500D02*
X233500D01*
X221500Y193000D02*
X224500Y190000D01*
X221500Y193000D02*
Y197700D01*
X164500Y205500D02*
X164600Y205400D01*
X172900D01*
X157500Y212500D02*
X164500Y205500D01*
X157500Y212500D02*
Y269000D01*
X257500Y227550D02*
Y228300D01*
X247450Y242450D02*
Y247650D01*
X247500Y247700D01*
X247450Y222950D02*
Y228250D01*
X246500Y222000D02*
X247450Y222950D01*
X243672Y222000D02*
X246500D01*
X247450Y228250D02*
X247500Y228300D01*
X242500Y223172D02*
X243672Y222000D01*
X242500Y223172D02*
Y228300D01*
X252450Y247750D02*
X252500Y247700D01*
X247550Y247750D02*
Y252828D01*
X247500Y247700D02*
X247550Y247750D01*
X252500Y218500D02*
Y228300D01*
Y218500D02*
X256500Y214500D01*
X221000Y105000D02*
X232760D01*
X216500Y100500D02*
X221000Y105000D01*
X197200Y100500D02*
X216000D01*
X216500D01*
X223000Y94000D01*
X134000Y174963D02*
Y180472D01*
Y169453D02*
Y174963D01*
X107287Y183500D02*
X112000Y188213D01*
X105087Y183500D02*
X107287D01*
X104500Y182913D02*
X105087Y183500D01*
X101253Y194753D02*
Y202760D01*
X99500Y193000D02*
X101253Y194753D01*
X99500Y182913D02*
Y193000D01*
X94500Y182913D02*
Y193500D01*
X92380Y195620D02*
X94500Y193500D01*
X92380Y195620D02*
Y203333D01*
X81593Y158092D02*
Y160092D01*
X85013Y163513D01*
X89500D01*
X94500Y157000D02*
Y163513D01*
X89013Y151513D02*
X94500Y157000D01*
X89013Y141500D02*
Y151513D01*
X102747Y138877D02*
Y153253D01*
X99500Y156500D02*
Y163513D01*
Y156500D02*
X102747Y153253D01*
X271555Y158630D02*
X276725Y163800D01*
X172375Y82875D02*
X172500Y83000D01*
X172250Y82750D02*
X172375Y82875D01*
X279225Y133500D02*
Y143000D01*
X172500Y83000D02*
X174900Y85400D01*
Y90450D01*
X174950Y90500D01*
X177800D01*
X160013Y93747D02*
X160265Y94000D01*
X169000D02*
X170500Y95500D01*
X177800D01*
X161000Y101300D02*
X161750Y100550D01*
X177750D01*
X177800Y100500D01*
X192500Y71200D02*
Y76500D01*
Y71200D02*
X193200Y70500D01*
X200100Y83640D02*
X201620Y82120D01*
X200100Y83640D02*
Y90450D01*
X200050Y90500D02*
X200100Y90450D01*
X197200Y90500D02*
X200050D01*
X197200D02*
Y95500D01*
X159000Y102300D02*
X159350Y102650D01*
X159000Y94760D02*
X160013Y93747D01*
X293550Y107500D02*
X297500D01*
X293500Y107450D02*
X293550Y107500D01*
X293500Y107200D02*
Y107450D01*
X281328Y115000D02*
X283450Y112878D01*
X264300Y115000D02*
X281328D01*
X283450Y107250D02*
Y112878D01*
Y107250D02*
X283500Y107200D01*
X247700Y95200D02*
X263800D01*
X271200Y87800D02*
X278500D01*
X263800Y95200D02*
X271200Y87800D01*
X255000Y103760D02*
X264760D01*
X254740Y103500D02*
X255000Y103760D01*
X268200Y107200D02*
X278500D01*
X264760Y103760D02*
X268200Y107200D01*
X288500Y117000D02*
X291000Y119500D01*
X288500Y107200D02*
Y117000D01*
X290253Y59733D02*
Y78500D01*
X288500Y80253D02*
X290253Y78500D01*
X288500Y80253D02*
Y87800D01*
X281240Y58740D02*
Y78000D01*
X283500Y80260D01*
Y87800D01*
X93000Y68040D02*
Y79800D01*
X91730Y66770D02*
X93000Y68040D01*
X108500Y55000D02*
Y61000D01*
X98000Y68040D02*
Y79800D01*
Y68040D02*
X99270Y66770D01*
X98000Y100000D02*
Y110000D01*
X105000Y117000D01*
X93000Y99200D02*
Y105000D01*
X90500Y107500D02*
X93000Y105000D01*
X354539Y45000D02*
X363500D01*
X30500Y62961D02*
Y72000D01*
Y62961D02*
X30961Y62500D01*
X218500Y65000D02*
Y74500D01*
X153486Y140986D02*
X153500Y141000D01*
X145514Y140986D02*
X153486D01*
X145500Y140972D02*
X145514Y140986D01*
X162050Y82750D02*
X172250D01*
X161800Y82500D02*
X162050Y82750D01*
X164500Y287000D02*
X165500Y288000D01*
Y289000D01*
X171000Y294500D01*
X164500Y287000D02*
X165500D01*
X208000Y261500D02*
Y268500D01*
X135500Y281901D02*
Y287000D01*
X186677Y269823D02*
Y274323D01*
Y269823D02*
X187500Y269000D01*
X198800Y248500D02*
X198900Y248400D01*
X191200Y257500D02*
X191230Y257470D01*
Y248530D02*
Y257470D01*
Y248530D02*
X191260Y248500D01*
X177500Y261000D02*
Y269000D01*
Y261000D02*
X181000Y257500D01*
X191200D01*
X155500Y287000D02*
X156292Y287792D01*
X207500Y269000D02*
X208000Y268500D01*
X223000Y94000D02*
X233260D01*
X232760Y105000D02*
X233260Y105500D01*
X249500Y103500D02*
X254740D01*
X247500Y105500D02*
X249500Y103500D01*
X240800Y105500D02*
X247500D01*
X100356Y251856D02*
X100500Y252000D01*
X92594Y214606D02*
X92700Y214713D01*
X302000Y136800D02*
X302150Y136650D01*
X312350D01*
X312500Y136500D01*
X245000Y177200D02*
X245030Y177230D01*
X244800Y177000D02*
X245000Y177200D01*
X245030Y177230D02*
X256470D01*
X256500Y177260D01*
X241500Y177000D02*
X244800D01*
X238691Y174191D02*
X241500Y177000D01*
X238691Y172191D02*
Y174191D01*
X241700Y166300D02*
X245000D01*
X238691Y169309D02*
X241700Y166300D01*
X238691Y169309D02*
Y171809D01*
X238500Y172000D02*
X238691Y171809D01*
X238500Y172000D02*
X238691Y172191D01*
X256500Y205300D02*
Y214500D01*
X147500Y193000D02*
Y269000D01*
Y176000D02*
Y193000D01*
X145500Y174000D02*
X147500Y176000D01*
X145500Y169513D02*
Y174000D01*
X172900Y205400D02*
X173000Y205300D01*
Y197760D02*
X173030Y197730D01*
X185137D01*
X185167Y197700D01*
X197303Y197730D02*
X197333Y197760D01*
X185197Y197730D02*
X197303D01*
X185167Y197700D02*
X185197Y197730D01*
X197333Y197760D02*
X197363Y197730D01*
X209470D01*
X271555Y158630D02*
X271843Y158343D01*
X256630Y158630D02*
X271555D01*
X256500Y158760D02*
X256630Y158630D01*
X256500Y166300D02*
Y177260D01*
X245000Y184740D02*
Y197700D01*
X233500D02*
X245000D01*
X221500Y205240D02*
X233500D01*
X245000D02*
X245030Y205270D01*
X256470D01*
X256500Y205300D01*
X217260Y133240D02*
X247500D01*
X99270Y55000D02*
Y66770D01*
X91730Y55000D02*
Y66770D01*
Y55000D02*
X92200D01*
X81740D02*
X91730D01*
X271799Y133614D02*
X271913Y133500D01*
X271799Y133614D02*
Y142886D01*
X271685Y143000D02*
X271799Y142886D01*
X271685Y143000D02*
X271843Y143157D01*
Y158343D01*
X279453Y126953D02*
Y133500D01*
X277760Y125260D02*
X279453Y126953D01*
X289020Y58500D02*
X290253Y59733D01*
X281240Y58740D02*
X281480Y58500D01*
X237539Y47500D02*
Y65000D01*
X300500Y128760D02*
X301000Y129260D01*
X291000Y136800D02*
X302000D01*
X291000Y119500D02*
Y129260D01*
X246500Y94000D02*
X247700Y95200D01*
X240800Y94000D02*
X246500D01*
X271000Y58760D02*
Y64000D01*
X270740Y58500D02*
X271000Y58760D01*
X267500Y67500D02*
X271000Y64000D01*
X241078Y67500D02*
X267500D01*
X238578Y65000D02*
X241078Y67500D01*
X238539Y45000D02*
X238739Y44800D01*
X253000D01*
X270740Y58500D02*
X281480D01*
X289240D02*
X289620Y58880D01*
X289240Y58500D02*
X299760D01*
X302000Y66000D02*
X331961D01*
X299760Y63760D02*
X302000Y66000D01*
X299760Y58500D02*
Y63760D01*
X331961Y66000D02*
X334461Y63500D01*
Y45000D02*
Y63500D01*
X334261Y44800D02*
X334461Y45000D01*
X318000Y44800D02*
X334261D01*
X317963Y37222D02*
X318000Y37260D01*
X304722Y37222D02*
X317963D01*
X304685Y37185D02*
X304722Y37222D01*
X253000Y37260D02*
X253037Y37222D01*
X265278D01*
X265315Y37185D01*
X283405Y20500D02*
X285000D01*
X193000Y28500D02*
X196244Y25256D01*
X278649D01*
X283405Y20500D01*
X193000Y28500D02*
Y34700D01*
X183000Y34760D02*
X183030Y34730D01*
X192970D01*
X193000Y34700D01*
X98575Y17000D02*
X106575Y25000D01*
X97000Y17000D02*
X98575D01*
X106575Y25000D02*
X179500D01*
X183000Y28500D01*
Y34760D01*
Y42300D02*
X183030Y42270D01*
X200740Y70500D02*
X201620Y71380D01*
Y82120D01*
X161039Y63787D02*
X172500Y75248D01*
X161039Y63000D02*
Y63787D01*
X134000Y148240D02*
Y161913D01*
X145500Y148513D02*
Y161913D01*
X134030Y161943D02*
X145470D01*
X134000Y161913D02*
X134030Y161943D01*
X112000Y188213D02*
X112100Y188113D01*
X123900D01*
X124000Y188013D01*
X100240Y214713D02*
X100270Y214683D01*
Y203743D02*
Y214683D01*
Y203743D02*
X100300Y203713D01*
X101253Y202760D01*
X92380Y203333D02*
X92760Y203713D01*
X89000Y123000D02*
Y128713D01*
X88713Y129000D02*
X89000Y128713D01*
X86000Y120000D02*
X89000Y123000D01*
X72000Y120000D02*
X86000D01*
X69000Y123000D02*
X72000Y120000D01*
X81593Y158092D02*
X81736Y157949D01*
X58120Y158092D02*
X81593D01*
X58000Y157972D02*
X58120Y158092D01*
X81736Y141764D02*
Y157949D01*
X81472Y141500D02*
X81736Y141764D01*
X81172Y129000D02*
X81322Y129150D01*
Y141350D01*
X81472Y141500D01*
X88863Y141350D02*
X89013Y141500D01*
X88863Y129150D02*
Y141350D01*
X88713Y129000D02*
X88863Y129150D01*
X102747Y138877D02*
X104324Y137300D01*
X104500D01*
X115500D01*
X104500Y129760D02*
X105000Y129260D01*
Y117000D02*
Y129260D01*
X91950Y54750D02*
X92200Y54500D01*
X108500Y55000D02*
X109260D01*
X99740D02*
X108500D01*
Y61000D02*
X110500Y63000D01*
X80260Y62500D02*
X81740Y61020D01*
Y55000D02*
Y61020D01*
X51039Y62500D02*
X80260D01*
X51039Y42500D02*
Y62500D01*
Y42500D02*
X53339Y44800D01*
X64500D01*
Y37260D02*
X64787Y36972D01*
X77028D01*
X77315Y36685D01*
X139161Y44300D02*
X140961Y42500D01*
Y63000D01*
Y42500D02*
X141461Y42000D01*
X128500Y44300D02*
X139161D01*
X116722Y36722D02*
X128463D01*
D50*
X76000Y313000D02*
X253500D01*
X271740Y303000D02*
X272500Y302240D01*
X263500Y303000D02*
X271740D01*
X35500Y287000D02*
Y300200D01*
X27870Y361130D02*
X76000Y313000D01*
X25870Y361130D02*
X27870D01*
X16700Y361500D02*
Y375000D01*
X5500Y378500D02*
X9000Y375000D01*
X5500Y378500D02*
Y387000D01*
X9000Y375000D02*
X16700D01*
X298000Y238740D02*
Y248200D01*
X317953Y205000D02*
Y216000D01*
Y194000D02*
Y205000D01*
X242700Y292500D02*
X243700Y291500D01*
X242500Y285500D02*
Y292500D01*
X266700Y294700D02*
X272500D01*
X263500Y291500D02*
X266700Y294700D01*
X243700Y291500D02*
X263500D01*
X272500Y294700D02*
X272600Y294600D01*
X282900D01*
X283000Y294500D01*
X293000D01*
X253500Y313000D02*
X263500Y303000D01*
X269000Y247760D02*
X269010Y247750D01*
X277990D01*
X278000Y247740D01*
D51*
X22500Y42500D02*
X30961D01*
X218500Y35500D02*
Y44961D01*
X218461Y45000D02*
X218500Y44961D01*
X161500Y32500D02*
Y41961D01*
X161539Y42000D01*
D52*
X271000Y275000D02*
D03*
D53*
X264000D02*
D03*
X246500Y313500D02*
D03*
D54*
X15500Y287000D02*
D03*
X25500D02*
D03*
X35500D02*
D03*
X15500Y387000D02*
D03*
X25500D02*
D03*
X35500D02*
D03*
X5500Y287000D02*
D03*
Y387000D02*
D03*
X45500Y287000D02*
D03*
X55500D02*
D03*
X65500D02*
D03*
X75500D02*
D03*
X85500D02*
D03*
X95500D02*
D03*
X105500D02*
D03*
X115500D02*
D03*
X125500D02*
D03*
X135500D02*
D03*
X145500D02*
D03*
X155500D02*
D03*
X165500D02*
D03*
X175500D02*
D03*
X45500Y387000D02*
D03*
X55500D02*
D03*
X65500D02*
D03*
X75500D02*
D03*
X85500D02*
D03*
X95500D02*
D03*
X105500D02*
D03*
X115500D02*
D03*
X125500D02*
D03*
X135500D02*
D03*
X145500D02*
D03*
X155500D02*
D03*
X165500D02*
D03*
X175500D02*
D03*
D55*
X207500Y269000D02*
D03*
X187500D02*
D03*
X167500D02*
D03*
X147500D02*
D03*
X137500D02*
D03*
X127500D02*
D03*
X157500D02*
D03*
X177500D02*
D03*
X197500D02*
D03*
D56*
X217500D02*
D03*
D57*
X19685Y337000D02*
D03*
Y19685D02*
D03*
X374016D02*
D03*
Y374016D02*
D03*
D58*
X38500Y136000D02*
D03*
X18500Y126000D02*
D03*
X38500Y116000D02*
D03*
X197500Y167500D02*
D03*
X217500Y157500D02*
D03*
X197500Y147500D02*
D03*
D59*
X97000Y17000D02*
D03*
X285000Y17500D02*
D03*
D60*
X87157Y36685D02*
D03*
X106843D02*
D03*
X116685D02*
D03*
X77315D02*
D03*
X265315Y37185D02*
D03*
X304685D02*
D03*
X294843D02*
D03*
X275157D02*
D03*
D61*
X283000Y294500D02*
D03*
X288000Y302000D02*
D03*
X293000Y294500D02*
D03*
D62*
X246500Y320500D02*
D03*
D63*
X319500Y199500D02*
D03*
X316500Y157500D02*
D03*
X319500Y151500D02*
D03*
X316500Y145500D02*
D03*
X319500Y139500D02*
D03*
X316500Y133500D02*
D03*
X319500Y127500D02*
D03*
X316500Y121500D02*
D03*
X319500Y103500D02*
D03*
X316500Y97500D02*
D03*
X319500Y79500D02*
D03*
X316500Y73500D02*
D03*
X310500Y157500D02*
D03*
X313500Y151500D02*
D03*
X310500Y145500D02*
D03*
X313500Y127500D02*
D03*
X310500Y121500D02*
D03*
X313500Y103500D02*
D03*
Y79500D02*
D03*
X310500Y73500D02*
D03*
Y49500D02*
D03*
X304500Y241500D02*
D03*
X307500Y235500D02*
D03*
X304500Y193500D02*
D03*
Y169500D02*
D03*
Y157500D02*
D03*
X307500Y151500D02*
D03*
X304500Y145500D02*
D03*
X307500Y127500D02*
D03*
X304500Y121500D02*
D03*
X307500Y79500D02*
D03*
X304500Y73500D02*
D03*
Y49500D02*
D03*
X301500Y211500D02*
D03*
Y199500D02*
D03*
X298500Y193500D02*
D03*
X301500Y187500D02*
D03*
Y151500D02*
D03*
X298500Y145500D02*
D03*
Y121500D02*
D03*
Y97500D02*
D03*
X301500Y79500D02*
D03*
X298500Y73500D02*
D03*
Y49500D02*
D03*
X292500Y241500D02*
D03*
Y217500D02*
D03*
X295500Y211500D02*
D03*
Y151500D02*
D03*
X292500Y97500D02*
D03*
X295500Y79500D02*
D03*
Y67500D02*
D03*
X292500Y49500D02*
D03*
X286500Y253500D02*
D03*
X289500Y247500D02*
D03*
X286500Y241500D02*
D03*
X289500Y211500D02*
D03*
X286500Y145500D02*
D03*
Y121500D02*
D03*
Y97500D02*
D03*
Y49500D02*
D03*
X289500Y43500D02*
D03*
X280500Y253500D02*
D03*
X283500Y211500D02*
D03*
X280500Y205500D02*
D03*
Y193500D02*
D03*
Y121500D02*
D03*
Y97500D02*
D03*
Y49500D02*
D03*
X283500Y43500D02*
D03*
X274500Y253500D02*
D03*
X277500Y211500D02*
D03*
X274500Y205500D02*
D03*
Y193500D02*
D03*
Y97500D02*
D03*
Y73500D02*
D03*
Y49500D02*
D03*
X271500Y211500D02*
D03*
X268500Y97500D02*
D03*
X271500Y79500D02*
D03*
X268500Y49500D02*
D03*
X271500Y43500D02*
D03*
X262500Y217500D02*
D03*
Y169500D02*
D03*
X265500Y163500D02*
D03*
Y151500D02*
D03*
X262500Y145500D02*
D03*
X265500Y139500D02*
D03*
X262500Y133500D02*
D03*
Y85500D02*
D03*
Y49500D02*
D03*
X259500Y151500D02*
D03*
X256500Y145500D02*
D03*
X259500Y139500D02*
D03*
X256500Y121500D02*
D03*
Y73500D02*
D03*
Y61500D02*
D03*
X259500Y43500D02*
D03*
X253500Y151500D02*
D03*
X250500Y145500D02*
D03*
X253500Y139500D02*
D03*
Y79500D02*
D03*
X250500Y73500D02*
D03*
Y61500D02*
D03*
X253500Y55500D02*
D03*
X247500Y211500D02*
D03*
Y151500D02*
D03*
X244500Y145500D02*
D03*
X247500Y139500D02*
D03*
X244500Y85500D02*
D03*
X247500Y79500D02*
D03*
X244500Y73500D02*
D03*
X247500Y55500D02*
D03*
X244500Y37500D02*
D03*
X241500Y211500D02*
D03*
X238500Y181500D02*
D03*
Y145500D02*
D03*
X241500Y139500D02*
D03*
X238500Y85500D02*
D03*
X241500Y79500D02*
D03*
X238500Y73500D02*
D03*
X232500Y253500D02*
D03*
Y181500D02*
D03*
Y169500D02*
D03*
Y121500D02*
D03*
X235500Y115500D02*
D03*
X232500Y85500D02*
D03*
X235500Y79500D02*
D03*
X232500Y73500D02*
D03*
Y37500D02*
D03*
X226500Y253500D02*
D03*
X229500Y211500D02*
D03*
X226500Y181500D02*
D03*
X229500Y175500D02*
D03*
Y127500D02*
D03*
X226500Y121500D02*
D03*
X229500Y115500D02*
D03*
X226500Y109500D02*
D03*
Y85500D02*
D03*
X229500Y79500D02*
D03*
X226500Y73500D02*
D03*
X229500Y67500D02*
D03*
X226500Y61500D02*
D03*
X229500Y55500D02*
D03*
X226500Y49500D02*
D03*
X229500Y43500D02*
D03*
X226500Y37500D02*
D03*
X220500Y253500D02*
D03*
X223500Y211500D02*
D03*
X220500Y181500D02*
D03*
X223500Y175500D02*
D03*
X220500Y145500D02*
D03*
X223500Y127500D02*
D03*
Y115500D02*
D03*
Y79500D02*
D03*
Y55500D02*
D03*
X217500Y247500D02*
D03*
Y211500D02*
D03*
Y187500D02*
D03*
Y163500D02*
D03*
Y151500D02*
D03*
X214500Y145500D02*
D03*
X217500Y139500D02*
D03*
Y55500D02*
D03*
X211500Y247500D02*
D03*
Y187500D02*
D03*
X208500Y169500D02*
D03*
X211500Y163500D02*
D03*
X208500Y157500D02*
D03*
X211500Y151500D02*
D03*
X208500Y133500D02*
D03*
X211500Y127500D02*
D03*
X208500Y109500D02*
D03*
X211500Y91500D02*
D03*
X208500Y85500D02*
D03*
X211500Y79500D02*
D03*
X208500Y73500D02*
D03*
X211500Y67500D02*
D03*
X208500Y61500D02*
D03*
X211500Y55500D02*
D03*
X208500Y49500D02*
D03*
X211500Y43500D02*
D03*
X208500Y37500D02*
D03*
X205500Y175500D02*
D03*
X202500Y169500D02*
D03*
X205500Y163500D02*
D03*
X202500Y157500D02*
D03*
X205500Y151500D02*
D03*
X202500Y133500D02*
D03*
X205500Y127500D02*
D03*
Y115500D02*
D03*
X196500Y217500D02*
D03*
Y181500D02*
D03*
X199500Y175500D02*
D03*
Y163500D02*
D03*
X196500Y157500D02*
D03*
X199500Y139500D02*
D03*
X196500Y133500D02*
D03*
Y61500D02*
D03*
X190500Y241500D02*
D03*
X193500Y235500D02*
D03*
Y187500D02*
D03*
X190500Y181500D02*
D03*
X193500Y175500D02*
D03*
X190500Y169500D02*
D03*
X193500Y163500D02*
D03*
X190500Y157500D02*
D03*
X193500Y151500D02*
D03*
X190500Y145500D02*
D03*
X193500Y139500D02*
D03*
X190500Y133500D02*
D03*
Y61500D02*
D03*
Y49500D02*
D03*
X184500Y241500D02*
D03*
X187500Y235500D02*
D03*
Y187500D02*
D03*
X184500Y181500D02*
D03*
X187500Y175500D02*
D03*
X184500Y169500D02*
D03*
X187500Y163500D02*
D03*
X184500Y157500D02*
D03*
X187500Y151500D02*
D03*
X184500Y145500D02*
D03*
X187500Y139500D02*
D03*
X184500Y133500D02*
D03*
Y109500D02*
D03*
X178500Y253500D02*
D03*
X181500Y247500D02*
D03*
X178500Y241500D02*
D03*
X181500Y235500D02*
D03*
X178500Y229500D02*
D03*
X181500Y187500D02*
D03*
X178500Y181500D02*
D03*
X181500Y175500D02*
D03*
X178500Y169500D02*
D03*
X181500Y163500D02*
D03*
X178500Y157500D02*
D03*
X181500Y151500D02*
D03*
X178500Y145500D02*
D03*
X181500Y139500D02*
D03*
X178500Y133500D02*
D03*
Y109500D02*
D03*
Y73500D02*
D03*
Y61500D02*
D03*
Y49500D02*
D03*
X172500Y253500D02*
D03*
X175500Y247500D02*
D03*
X172500Y241500D02*
D03*
X175500Y235500D02*
D03*
X172500Y217500D02*
D03*
X175500Y211500D02*
D03*
X172500Y181500D02*
D03*
X175500Y175500D02*
D03*
X172500Y169500D02*
D03*
X175500Y163500D02*
D03*
X172500Y157500D02*
D03*
X175500Y151500D02*
D03*
X172500Y145500D02*
D03*
X175500Y139500D02*
D03*
X172500Y133500D02*
D03*
X175500Y115500D02*
D03*
X172500Y109500D02*
D03*
X175500Y67500D02*
D03*
X172500Y61500D02*
D03*
X175500Y55500D02*
D03*
X172500Y49500D02*
D03*
X175500Y43500D02*
D03*
X172500Y37500D02*
D03*
X166500Y253500D02*
D03*
X169500Y247500D02*
D03*
X166500Y241500D02*
D03*
X169500Y235500D02*
D03*
X166500Y217500D02*
D03*
X169500Y211500D02*
D03*
X166500Y193500D02*
D03*
X169500Y175500D02*
D03*
X166500Y169500D02*
D03*
X169500Y163500D02*
D03*
X166500Y157500D02*
D03*
X169500Y151500D02*
D03*
X166500Y145500D02*
D03*
X169500Y139500D02*
D03*
Y115500D02*
D03*
Y55500D02*
D03*
Y43500D02*
D03*
X163500Y247500D02*
D03*
Y223500D02*
D03*
Y199500D02*
D03*
X160500Y193500D02*
D03*
Y169500D02*
D03*
X163500Y163500D02*
D03*
X160500Y157500D02*
D03*
X163500Y151500D02*
D03*
X160500Y145500D02*
D03*
X163500Y139500D02*
D03*
X160500Y73500D02*
D03*
X154500Y205500D02*
D03*
X157500Y199500D02*
D03*
X154500Y193500D02*
D03*
X157500Y187500D02*
D03*
X154500Y181500D02*
D03*
Y133500D02*
D03*
X157500Y127500D02*
D03*
X154500Y121500D02*
D03*
Y97500D02*
D03*
Y73500D02*
D03*
Y49500D02*
D03*
Y37500D02*
D03*
X151500Y127500D02*
D03*
X148500Y121500D02*
D03*
X151500Y103500D02*
D03*
X148500Y97500D02*
D03*
X151500Y91500D02*
D03*
X142500Y253500D02*
D03*
Y229500D02*
D03*
Y217500D02*
D03*
Y205500D02*
D03*
Y193500D02*
D03*
Y181500D02*
D03*
Y121500D02*
D03*
X145500Y115500D02*
D03*
X142500Y109500D02*
D03*
X145500Y91500D02*
D03*
X142500Y73500D02*
D03*
X136500Y253500D02*
D03*
X139500Y247500D02*
D03*
Y235500D02*
D03*
X136500Y229500D02*
D03*
X139500Y223500D02*
D03*
X136500Y217500D02*
D03*
X139500Y211500D02*
D03*
X136500Y205500D02*
D03*
X139500Y199500D02*
D03*
Y175500D02*
D03*
Y115500D02*
D03*
X136500Y109500D02*
D03*
Y73500D02*
D03*
X130500Y253500D02*
D03*
X133500Y247500D02*
D03*
Y235500D02*
D03*
X130500Y229500D02*
D03*
X133500Y223500D02*
D03*
X130500Y217500D02*
D03*
X133500Y211500D02*
D03*
X130500Y205500D02*
D03*
X133500Y199500D02*
D03*
Y127500D02*
D03*
X130500Y109500D02*
D03*
X133500Y103500D02*
D03*
X130500Y73500D02*
D03*
X133500Y67500D02*
D03*
Y55500D02*
D03*
X124500Y253500D02*
D03*
X127500Y247500D02*
D03*
Y235500D02*
D03*
X124500Y229500D02*
D03*
X127500Y223500D02*
D03*
X124500Y217500D02*
D03*
X127500Y211500D02*
D03*
Y175500D02*
D03*
Y151500D02*
D03*
X124500Y145500D02*
D03*
X127500Y127500D02*
D03*
X124500Y121500D02*
D03*
X127500Y103500D02*
D03*
X124500Y73500D02*
D03*
X127500Y67500D02*
D03*
Y55500D02*
D03*
X124500Y49500D02*
D03*
X121500Y247500D02*
D03*
Y235500D02*
D03*
X118500Y229500D02*
D03*
X121500Y223500D02*
D03*
Y211500D02*
D03*
X118500Y181500D02*
D03*
Y169500D02*
D03*
X121500Y151500D02*
D03*
X118500Y145500D02*
D03*
X121500Y127500D02*
D03*
X118500Y121500D02*
D03*
Y73500D02*
D03*
X121500Y67500D02*
D03*
X118500Y49500D02*
D03*
X121500Y43500D02*
D03*
X112500Y181500D02*
D03*
Y169500D02*
D03*
X115500Y163500D02*
D03*
Y151500D02*
D03*
X112500Y145500D02*
D03*
Y121500D02*
D03*
X115500Y79500D02*
D03*
Y67500D02*
D03*
X109500Y151500D02*
D03*
X106500Y97500D02*
D03*
X109500Y79500D02*
D03*
Y67500D02*
D03*
X103500Y223500D02*
D03*
X100500Y121500D02*
D03*
X103500Y43500D02*
D03*
X94500Y253500D02*
D03*
X97500Y247500D02*
D03*
Y223500D02*
D03*
Y151500D02*
D03*
X94500Y145500D02*
D03*
X97500Y127500D02*
D03*
X94500Y121500D02*
D03*
X97500Y43500D02*
D03*
X88500Y253500D02*
D03*
X91500Y247500D02*
D03*
Y223500D02*
D03*
Y43500D02*
D03*
X82500Y253500D02*
D03*
X85500Y199500D02*
D03*
X82500Y193500D02*
D03*
Y169500D02*
D03*
Y85500D02*
D03*
Y73500D02*
D03*
X79500Y199500D02*
D03*
X76500Y193500D02*
D03*
Y85500D02*
D03*
X79500Y79500D02*
D03*
X76500Y73500D02*
D03*
X79500Y67500D02*
D03*
X76500Y49500D02*
D03*
X73500Y199500D02*
D03*
Y163500D02*
D03*
Y151500D02*
D03*
X70500Y145500D02*
D03*
X73500Y127500D02*
D03*
X70500Y97500D02*
D03*
X73500Y79500D02*
D03*
X70500Y73500D02*
D03*
X73500Y67500D02*
D03*
X64500Y193500D02*
D03*
X67500Y163500D02*
D03*
Y151500D02*
D03*
X64500Y145500D02*
D03*
Y121500D02*
D03*
X67500Y103500D02*
D03*
X64500Y97500D02*
D03*
X67500Y91500D02*
D03*
Y79500D02*
D03*
X64500Y73500D02*
D03*
X67500Y67500D02*
D03*
X22500Y353500D02*
D03*
X382500Y355500D02*
D03*
X376500Y343500D02*
D03*
X382500Y331500D02*
D03*
X376500Y319500D02*
D03*
X382500Y307500D02*
D03*
X376500Y295500D02*
D03*
X382500Y283500D02*
D03*
X376500Y271500D02*
D03*
X382500Y259500D02*
D03*
X376500Y247500D02*
D03*
X382500Y235500D02*
D03*
X376500Y223500D02*
D03*
X382500Y211500D02*
D03*
X376500Y199500D02*
D03*
X382500Y187500D02*
D03*
X376500Y175500D02*
D03*
X382500Y163500D02*
D03*
X376500Y151500D02*
D03*
X382500Y139500D02*
D03*
X376500Y127500D02*
D03*
X382500Y115500D02*
D03*
X376500Y103500D02*
D03*
X382500Y91500D02*
D03*
X376500Y79500D02*
D03*
X382500Y67500D02*
D03*
X376500Y55500D02*
D03*
X382500Y43500D02*
D03*
X370500Y355500D02*
D03*
X364500Y343500D02*
D03*
X370500Y331500D02*
D03*
X364500Y319500D02*
D03*
X370500Y307500D02*
D03*
X364500Y295500D02*
D03*
X370500Y283500D02*
D03*
X364500Y271500D02*
D03*
X370500Y259500D02*
D03*
X364500Y247500D02*
D03*
X370500Y235500D02*
D03*
X364500Y223500D02*
D03*
X370500Y211500D02*
D03*
X364500Y199500D02*
D03*
X370500Y187500D02*
D03*
X364500Y175500D02*
D03*
X370500Y163500D02*
D03*
X364500Y151500D02*
D03*
X370500Y139500D02*
D03*
X364500Y127500D02*
D03*
X370500Y115500D02*
D03*
X364500Y103500D02*
D03*
X370500Y91500D02*
D03*
X364500Y79500D02*
D03*
X370500Y67500D02*
D03*
X364500Y55500D02*
D03*
X370500Y43500D02*
D03*
X364500Y31500D02*
D03*
Y7500D02*
D03*
X358500Y379500D02*
D03*
X352500Y367500D02*
D03*
X358500Y355500D02*
D03*
X352500Y343500D02*
D03*
X358500Y331500D02*
D03*
X352500Y319500D02*
D03*
X358500Y307500D02*
D03*
X352500Y295500D02*
D03*
X358500Y283500D02*
D03*
X352500Y271500D02*
D03*
X358500Y259500D02*
D03*
X352500Y247500D02*
D03*
X358500Y235500D02*
D03*
X352500Y223500D02*
D03*
X358500Y211500D02*
D03*
X352500Y199500D02*
D03*
X358500Y187500D02*
D03*
X352500Y175500D02*
D03*
X358500Y163500D02*
D03*
X352500Y151500D02*
D03*
X358500Y139500D02*
D03*
X352500Y127500D02*
D03*
X358500Y115500D02*
D03*
X352500Y103500D02*
D03*
X358500Y91500D02*
D03*
X352500Y79500D02*
D03*
Y31500D02*
D03*
X358500Y19500D02*
D03*
X352500Y7500D02*
D03*
X346500Y379500D02*
D03*
X340500Y367500D02*
D03*
X346500Y355500D02*
D03*
X340500Y343500D02*
D03*
X346500Y331500D02*
D03*
X340500Y319500D02*
D03*
X346500Y307500D02*
D03*
X340500Y295500D02*
D03*
X346500Y283500D02*
D03*
X340500Y271500D02*
D03*
X346500Y259500D02*
D03*
X340500Y247500D02*
D03*
X346500Y235500D02*
D03*
X340500Y223500D02*
D03*
X346500Y211500D02*
D03*
X340500Y199500D02*
D03*
X346500Y187500D02*
D03*
X340500Y175500D02*
D03*
X346500Y163500D02*
D03*
X340500Y151500D02*
D03*
X346500Y139500D02*
D03*
X340500Y127500D02*
D03*
X346500Y115500D02*
D03*
X340500Y103500D02*
D03*
X346500Y91500D02*
D03*
X340500Y79500D02*
D03*
X346500Y67500D02*
D03*
Y43500D02*
D03*
X340500Y31500D02*
D03*
X346500Y19500D02*
D03*
X340500Y7500D02*
D03*
X334500Y379500D02*
D03*
X328500Y367500D02*
D03*
X334500Y355500D02*
D03*
X328500Y343500D02*
D03*
X334500Y331500D02*
D03*
X328500Y319500D02*
D03*
X334500Y307500D02*
D03*
X328500Y295500D02*
D03*
X334500Y283500D02*
D03*
X328500Y271500D02*
D03*
X334500Y259500D02*
D03*
X328500Y247500D02*
D03*
X334500Y235500D02*
D03*
Y211500D02*
D03*
Y187500D02*
D03*
X328500Y175500D02*
D03*
X334500Y163500D02*
D03*
X328500Y151500D02*
D03*
X334500Y139500D02*
D03*
X328500Y127500D02*
D03*
X334500Y115500D02*
D03*
X328500Y103500D02*
D03*
X334500Y91500D02*
D03*
X328500Y79500D02*
D03*
Y31500D02*
D03*
X334500Y19500D02*
D03*
X328500Y7500D02*
D03*
X322500Y379500D02*
D03*
X316500Y367500D02*
D03*
X322500Y355500D02*
D03*
X316500Y343500D02*
D03*
X322500Y331500D02*
D03*
X316500Y319500D02*
D03*
X322500Y307500D02*
D03*
X316500Y295500D02*
D03*
X322500Y283500D02*
D03*
X316500Y271500D02*
D03*
X322500Y259500D02*
D03*
X316500Y247500D02*
D03*
X322500Y235500D02*
D03*
Y19500D02*
D03*
X316500Y7500D02*
D03*
X310500Y379500D02*
D03*
X304500Y367500D02*
D03*
X310500Y355500D02*
D03*
X304500Y343500D02*
D03*
X310500Y331500D02*
D03*
X304500Y319500D02*
D03*
X310500Y307500D02*
D03*
X304500Y295500D02*
D03*
X310500Y283500D02*
D03*
X304500Y271500D02*
D03*
X310500Y259500D02*
D03*
Y19500D02*
D03*
X298500Y379500D02*
D03*
X292500Y367500D02*
D03*
X298500Y355500D02*
D03*
X292500Y343500D02*
D03*
X298500Y331500D02*
D03*
X292500Y319500D02*
D03*
X298500Y307500D02*
D03*
Y283500D02*
D03*
X292500Y271500D02*
D03*
X298500Y19500D02*
D03*
X292500Y7500D02*
D03*
X286500Y379500D02*
D03*
X280500Y367500D02*
D03*
X286500Y355500D02*
D03*
X280500Y343500D02*
D03*
X286500Y331500D02*
D03*
X280500Y319500D02*
D03*
X286500Y307500D02*
D03*
Y283500D02*
D03*
X280500Y271500D02*
D03*
Y7500D02*
D03*
X274500Y379500D02*
D03*
X268500Y367500D02*
D03*
X274500Y355500D02*
D03*
X268500Y343500D02*
D03*
X274500Y331500D02*
D03*
X268500Y319500D02*
D03*
X274500Y283500D02*
D03*
Y19500D02*
D03*
X262500Y379500D02*
D03*
X256500Y367500D02*
D03*
X262500Y355500D02*
D03*
X256500Y343500D02*
D03*
X262500Y331500D02*
D03*
X256500Y319500D02*
D03*
Y7500D02*
D03*
X250500Y379500D02*
D03*
X244500Y367500D02*
D03*
X250500Y355500D02*
D03*
X244500Y343500D02*
D03*
X250500Y331500D02*
D03*
Y307500D02*
D03*
Y19500D02*
D03*
X244500Y7500D02*
D03*
X238500Y379500D02*
D03*
X232500Y367500D02*
D03*
X238500Y355500D02*
D03*
X232500Y343500D02*
D03*
X238500Y331500D02*
D03*
Y307500D02*
D03*
Y19500D02*
D03*
X232500Y7500D02*
D03*
X226500Y379500D02*
D03*
X220500Y367500D02*
D03*
X226500Y355500D02*
D03*
X220500Y343500D02*
D03*
X226500Y331500D02*
D03*
X220500Y319500D02*
D03*
X226500Y307500D02*
D03*
X220500Y295500D02*
D03*
X226500Y283500D02*
D03*
Y19500D02*
D03*
X220500Y7500D02*
D03*
X214500Y379500D02*
D03*
X208500Y367500D02*
D03*
X214500Y355500D02*
D03*
X208500Y343500D02*
D03*
X214500Y331500D02*
D03*
X208500Y319500D02*
D03*
X214500Y307500D02*
D03*
Y19500D02*
D03*
X208500Y7500D02*
D03*
X202500Y379500D02*
D03*
Y355500D02*
D03*
Y331500D02*
D03*
Y19500D02*
D03*
X196500Y7500D02*
D03*
X190500Y379500D02*
D03*
X184500Y367500D02*
D03*
Y343500D02*
D03*
Y319500D02*
D03*
X190500Y283500D02*
D03*
Y19500D02*
D03*
X184500Y7500D02*
D03*
X178500Y379500D02*
D03*
X172500Y367500D02*
D03*
X178500Y355500D02*
D03*
X172500Y343500D02*
D03*
X178500Y331500D02*
D03*
X172500Y319500D02*
D03*
X178500Y307500D02*
D03*
Y19500D02*
D03*
X172500Y7500D02*
D03*
X166500Y379500D02*
D03*
X160500Y367500D02*
D03*
X166500Y355500D02*
D03*
X160500Y343500D02*
D03*
X166500Y331500D02*
D03*
X160500Y319500D02*
D03*
X166500Y307500D02*
D03*
X160500Y295500D02*
D03*
X166500Y19500D02*
D03*
X160500Y7500D02*
D03*
X154500Y379500D02*
D03*
X148500Y367500D02*
D03*
X154500Y355500D02*
D03*
X148500Y343500D02*
D03*
X154500Y331500D02*
D03*
X148500Y319500D02*
D03*
X154500Y307500D02*
D03*
X148500Y295500D02*
D03*
X154500Y19500D02*
D03*
X148500Y7500D02*
D03*
X142500Y379500D02*
D03*
X136500Y367500D02*
D03*
X142500Y355500D02*
D03*
X136500Y343500D02*
D03*
X142500Y331500D02*
D03*
X136500Y319500D02*
D03*
X142500Y307500D02*
D03*
X136500Y295500D02*
D03*
X142500Y19500D02*
D03*
X136500Y7500D02*
D03*
X130500Y379500D02*
D03*
X124500Y367500D02*
D03*
X130500Y355500D02*
D03*
X124500Y343500D02*
D03*
X130500Y331500D02*
D03*
X124500Y319500D02*
D03*
X130500Y307500D02*
D03*
X124500Y295500D02*
D03*
X130500Y19500D02*
D03*
X124500Y7500D02*
D03*
X118500Y379500D02*
D03*
X112500Y367500D02*
D03*
X118500Y355500D02*
D03*
X112500Y343500D02*
D03*
X118500Y331500D02*
D03*
X112500Y319500D02*
D03*
X118500Y307500D02*
D03*
X112500Y295500D02*
D03*
Y271500D02*
D03*
X106500Y379500D02*
D03*
X100500Y367500D02*
D03*
X106500Y355500D02*
D03*
X100500Y343500D02*
D03*
X106500Y331500D02*
D03*
X100500Y319500D02*
D03*
X106500Y307500D02*
D03*
X100500Y295500D02*
D03*
Y271500D02*
D03*
Y31500D02*
D03*
Y7500D02*
D03*
X94500Y379500D02*
D03*
X88500Y367500D02*
D03*
X94500Y355500D02*
D03*
X88500Y343500D02*
D03*
X94500Y331500D02*
D03*
X88500Y319500D02*
D03*
X94500Y307500D02*
D03*
X88500Y295500D02*
D03*
Y271500D02*
D03*
Y7500D02*
D03*
X82500Y379500D02*
D03*
X76500Y367500D02*
D03*
X82500Y355500D02*
D03*
X76500Y343500D02*
D03*
X82500Y331500D02*
D03*
X76500Y319500D02*
D03*
X82500Y307500D02*
D03*
X76500Y295500D02*
D03*
Y271500D02*
D03*
X70500Y379500D02*
D03*
X64500Y367500D02*
D03*
X70500Y355500D02*
D03*
X64500Y343500D02*
D03*
X70500Y331500D02*
D03*
Y307500D02*
D03*
X64500Y295500D02*
D03*
Y271500D02*
D03*
X70500Y19500D02*
D03*
X64500Y7500D02*
D03*
X58500Y379500D02*
D03*
X52500Y367500D02*
D03*
X58500Y355500D02*
D03*
X52500Y343500D02*
D03*
Y319500D02*
D03*
X58500Y307500D02*
D03*
X52500Y295500D02*
D03*
Y271500D02*
D03*
X58500Y259500D02*
D03*
X52500Y79500D02*
D03*
Y31500D02*
D03*
X58500Y19500D02*
D03*
X52500Y7500D02*
D03*
X46500Y379500D02*
D03*
X40500Y367500D02*
D03*
X46500Y355500D02*
D03*
Y331500D02*
D03*
X40500Y319500D02*
D03*
Y295500D02*
D03*
Y271500D02*
D03*
X46500Y259500D02*
D03*
X40500Y151500D02*
D03*
Y127500D02*
D03*
Y103500D02*
D03*
Y79500D02*
D03*
Y55500D02*
D03*
Y31500D02*
D03*
X46500Y19500D02*
D03*
X40500Y7500D02*
D03*
X28500Y367500D02*
D03*
X34500Y331500D02*
D03*
X28500Y319500D02*
D03*
Y295500D02*
D03*
Y271500D02*
D03*
X34500Y259500D02*
D03*
X28500Y247500D02*
D03*
Y223500D02*
D03*
Y199500D02*
D03*
Y175500D02*
D03*
X34500Y163500D02*
D03*
X28500Y151500D02*
D03*
X34500Y139500D02*
D03*
X28500Y127500D02*
D03*
Y103500D02*
D03*
X34500Y91500D02*
D03*
X28500Y31500D02*
D03*
X34500Y19500D02*
D03*
X28500Y7500D02*
D03*
X16500Y319500D02*
D03*
Y271500D02*
D03*
X22500Y259500D02*
D03*
X16500Y247500D02*
D03*
X22500Y235500D02*
D03*
X16500Y223500D02*
D03*
X22500Y211500D02*
D03*
X16500Y199500D02*
D03*
X22500Y187500D02*
D03*
X16500Y175500D02*
D03*
X22500Y163500D02*
D03*
X16500Y151500D02*
D03*
X22500Y139500D02*
D03*
Y115500D02*
D03*
X16500Y103500D02*
D03*
X22500Y91500D02*
D03*
X16500Y79500D02*
D03*
X22500Y67500D02*
D03*
X16500Y55500D02*
D03*
X4500Y367500D02*
D03*
X10500Y355500D02*
D03*
X4500Y343500D02*
D03*
Y319500D02*
D03*
Y271500D02*
D03*
X10500Y259500D02*
D03*
X4500Y247500D02*
D03*
X10500Y235500D02*
D03*
X4500Y223500D02*
D03*
X10500Y211500D02*
D03*
X4500Y199500D02*
D03*
X10500Y187500D02*
D03*
X4500Y175500D02*
D03*
X10500Y163500D02*
D03*
X4500Y151500D02*
D03*
X10500Y139500D02*
D03*
X4500Y127500D02*
D03*
X10500Y115500D02*
D03*
X4500Y103500D02*
D03*
X10500Y91500D02*
D03*
X4500Y79500D02*
D03*
X10500Y67500D02*
D03*
X4500Y55500D02*
D03*
X10500Y43500D02*
D03*
X4500Y31500D02*
D03*
Y7500D02*
D03*
D64*
X199000Y242000D02*
D03*
X184500Y214500D02*
D03*
X35500Y313000D02*
D03*
X298000Y243470D02*
D03*
X272500Y187000D02*
D03*
X305000Y216000D02*
D03*
X307500Y164000D02*
D03*
X40500Y225500D02*
D03*
X59000Y235500D02*
D03*
X76500Y229500D02*
D03*
X55000Y247000D02*
D03*
X47000Y220000D02*
D03*
X78500Y189000D02*
D03*
X72000Y172000D02*
D03*
X263500Y303000D02*
D03*
X197824Y50430D02*
D03*
X193887Y58304D02*
D03*
X235000Y165500D02*
D03*
X221446Y160666D02*
D03*
X64000Y151000D02*
D03*
X228500Y227500D02*
D03*
X197500Y210500D02*
D03*
X134000Y135500D02*
D03*
X148500Y82000D02*
D03*
X77000Y95000D02*
D03*
X250500Y115000D02*
D03*
X197000Y110500D02*
D03*
X124000Y157000D02*
D03*
X286500Y198000D02*
D03*
X77000Y113000D02*
D03*
X121500Y103500D02*
D03*
X263790Y120500D02*
D03*
X263500Y227500D02*
D03*
X298500Y87500D02*
D03*
X108000Y73500D02*
D03*
X110500Y157000D02*
D03*
X237000Y248000D02*
D03*
X228000Y217000D02*
D03*
X256500Y190000D02*
D03*
X233500D02*
D03*
X92500Y195500D02*
D03*
X134000Y174963D02*
D03*
X172375Y82875D02*
D03*
X297500Y107500D02*
D03*
X22500Y42500D02*
D03*
X218500Y35500D02*
D03*
X161500Y32500D02*
D03*
X363500Y45000D02*
D03*
X218500Y74500D02*
D03*
X30500Y72000D02*
D03*
X153500Y141000D02*
D03*
X100500Y252000D02*
D03*
D65*
X304000Y226500D02*
D03*
X73500Y247000D02*
D03*
X44500Y192500D02*
D03*
M02*
