G04*
G04 #@! TF.GenerationSoftware,Altium Limited,Altium Designer,19.1.8 (144)*
G04*
G04 Layer_Color=16711935*
%FSLAX25Y25*%
%MOIN*%
G70*
G01*
G75*
%ADD34P,0.05845X8X22.5*%
%ADD35C,0.05400*%
%ADD36C,0.06942*%
%ADD37C,0.07099*%
%ADD38R,0.07099X0.07099*%
%ADD39C,0.20485*%
%ADD40C,0.04737*%
%ADD41O,0.11430X0.08280*%
%ADD42O,0.08280X0.11430*%
%ADD43C,0.00800*%
%ADD44P,0.05897X8X22.5*%
%ADD45P,0.05845X8X112.5*%
%ADD46C,0.03800*%
D34*
X271000Y275000D02*
D03*
D35*
X264000D02*
D03*
X246500Y313500D02*
D03*
D36*
X15500Y287000D02*
D03*
X25500D02*
D03*
X35500D02*
D03*
X15500Y387000D02*
D03*
X25500D02*
D03*
X35500D02*
D03*
X5500Y287000D02*
D03*
Y387000D02*
D03*
X45500Y287000D02*
D03*
X55500D02*
D03*
X65500D02*
D03*
X75500D02*
D03*
X85500D02*
D03*
X95500D02*
D03*
X105500D02*
D03*
X115500D02*
D03*
X125500D02*
D03*
X135500D02*
D03*
X145500D02*
D03*
X155500D02*
D03*
X165500D02*
D03*
X175500D02*
D03*
X45500Y387000D02*
D03*
X55500D02*
D03*
X65500D02*
D03*
X75500D02*
D03*
X85500D02*
D03*
X95500D02*
D03*
X105500D02*
D03*
X115500D02*
D03*
X125500D02*
D03*
X135500D02*
D03*
X145500D02*
D03*
X155500D02*
D03*
X165500D02*
D03*
X175500D02*
D03*
D37*
X207500Y269000D02*
D03*
X187500D02*
D03*
X167500D02*
D03*
X147500D02*
D03*
X137500D02*
D03*
X127500D02*
D03*
X157500D02*
D03*
X177500D02*
D03*
X197500D02*
D03*
D38*
X217500D02*
D03*
D39*
X19685Y337000D02*
D03*
Y19685D02*
D03*
X374016D02*
D03*
Y374016D02*
D03*
D40*
X38500Y136000D02*
D03*
X18500Y126000D02*
D03*
X38500Y116000D02*
D03*
X197500Y167500D02*
D03*
X217500Y157500D02*
D03*
X197500Y147500D02*
D03*
D41*
X97000Y17000D02*
D03*
X285000Y17500D02*
D03*
D42*
X87157Y36685D02*
D03*
X106843D02*
D03*
X116685D02*
D03*
X77315D02*
D03*
X265315Y37185D02*
D03*
X304685D02*
D03*
X294843D02*
D03*
X275157D02*
D03*
D43*
X116685Y7158D02*
D03*
X77315D02*
D03*
Y17000D02*
D03*
X116685D02*
D03*
X97000Y36685D02*
D03*
X285000Y37185D02*
D03*
X304685Y17500D02*
D03*
X265315D02*
D03*
Y7658D02*
D03*
X304685D02*
D03*
D44*
X283000Y294500D02*
D03*
X288000Y302000D02*
D03*
X293000Y294500D02*
D03*
D45*
X246500Y320500D02*
D03*
D46*
X199000Y242000D02*
D03*
X184500Y214500D02*
D03*
X35500Y313000D02*
D03*
X307500Y164000D02*
D03*
X78500Y189000D02*
D03*
X72000Y172000D02*
D03*
X263500Y303000D02*
D03*
X197824Y50430D02*
D03*
X193887Y58304D02*
D03*
X235000Y165500D02*
D03*
X64000Y151000D02*
D03*
X228500Y227500D02*
D03*
X197500Y210500D02*
D03*
X134000Y135500D02*
D03*
X148500Y82000D02*
D03*
X77000Y95000D02*
D03*
X250500Y115000D02*
D03*
X197000Y110500D02*
D03*
X124000Y157000D02*
D03*
X286500Y198000D02*
D03*
X77000Y113000D02*
D03*
X121500Y103500D02*
D03*
X263790Y120500D02*
D03*
X263500Y227500D02*
D03*
X298500Y87500D02*
D03*
X108000Y73500D02*
D03*
X110500Y157000D02*
D03*
X237000Y248000D02*
D03*
X228000Y217000D02*
D03*
X256500Y190000D02*
D03*
X233500D02*
D03*
X92500Y195500D02*
D03*
X134000Y174963D02*
D03*
X172375Y82875D02*
D03*
X297500Y107500D02*
D03*
X22500Y42500D02*
D03*
X218500Y35500D02*
D03*
X161500Y32500D02*
D03*
X363500Y45000D02*
D03*
X218500Y74500D02*
D03*
X30500Y72000D02*
D03*
X153500Y141000D02*
D03*
X100500Y252000D02*
D03*
M02*
