G04*
G04 #@! TF.GenerationSoftware,Altium Limited,Altium Designer,19.1.8 (144)*
G04*
G04 Layer_Color=65535*
%FSLAX25Y25*%
%MOIN*%
G70*
G01*
G75*
%ADD10C,0.00600*%
%ADD11C,0.01000*%
%ADD12C,0.00500*%
%ADD13C,0.00787*%
%ADD14C,0.01500*%
%ADD15C,0.01984*%
%ADD16C,0.00700*%
%ADD17C,0.00591*%
%ADD18C,0.00800*%
%ADD19R,0.01181X0.08268*%
D10*
X275500Y275000D02*
G03*
X275500Y275000I-8000J0D01*
G01*
X254500Y317000D02*
G03*
X254500Y317000I-8000J0D01*
G01*
X263500Y280500D02*
X265500D01*
X264500Y279500D02*
Y281500D01*
X299350Y165150D02*
Y181850D01*
X278650Y165150D02*
Y181850D01*
X276043Y174063D02*
Y181937D01*
X268957Y174063D02*
Y181937D01*
X205957Y197563D02*
Y205437D01*
X213043Y197563D02*
Y205437D01*
X193790Y197563D02*
Y205437D01*
X200877Y197563D02*
Y205437D01*
X169457Y197563D02*
Y205437D01*
X176543Y197563D02*
Y205437D01*
X188710Y197563D02*
Y205437D01*
X181623Y197563D02*
Y205437D01*
X188543Y219563D02*
Y227437D01*
X181457Y219563D02*
Y227437D01*
X31957Y300063D02*
Y307937D01*
X39043Y300063D02*
Y307937D01*
X233063Y97543D02*
X240937D01*
X233063Y90457D02*
X240937D01*
X124957Y36563D02*
Y44437D01*
X132043Y36563D02*
Y44437D01*
X109063Y51457D02*
X116937D01*
X109063Y58543D02*
X116937D01*
X91593D02*
X99467D01*
X91593Y51457D02*
X99467D01*
X82043Y176563D02*
Y184437D01*
X74957Y176563D02*
Y184437D01*
X260043Y197563D02*
Y205437D01*
X252957Y197563D02*
Y205437D01*
X248543Y177063D02*
Y184937D01*
X241457Y177063D02*
Y184937D01*
X248543Y197563D02*
Y205437D01*
X241457Y197563D02*
Y205437D01*
X229957Y197563D02*
Y205437D01*
X237043Y197563D02*
Y205437D01*
X225043Y197563D02*
Y205437D01*
X217957Y197563D02*
Y205437D01*
X260043Y177063D02*
Y184937D01*
X252957Y177063D02*
Y184937D01*
X310276Y223457D02*
X318150D01*
X310276Y230543D02*
X318150D01*
X310216Y168457D02*
X318090D01*
X310216Y175543D02*
X318090D01*
X310216Y186543D02*
X318090D01*
X310216Y179457D02*
X318090D01*
X310276Y197543D02*
X318150D01*
X310276Y190457D02*
X318150D01*
X310216Y208543D02*
X318090D01*
X310216Y201457D02*
X318090D01*
X310216Y212457D02*
X318090D01*
X310216Y219543D02*
X318090D01*
X286563Y208543D02*
X294437D01*
X286563Y201457D02*
X294437D01*
X277563Y215957D02*
X285437D01*
X277563Y223043D02*
X285437D01*
X277563Y227457D02*
X285437D01*
X277563Y234543D02*
X285437D01*
X265457Y247563D02*
Y255437D01*
X272543Y247563D02*
Y255437D01*
X281543Y240063D02*
Y247937D01*
X274457Y240063D02*
Y247937D01*
X16563Y371457D02*
X24437D01*
X16563Y378543D02*
X24437D01*
X60957Y37063D02*
Y44937D01*
X68043Y37063D02*
Y44937D01*
X74063Y58543D02*
X81937D01*
X74063Y51457D02*
X81937D01*
X154063Y78957D02*
X161937D01*
X154063Y86043D02*
X161937D01*
X132063Y80244D02*
X139937D01*
X132063Y87331D02*
X139937D01*
X132063Y90244D02*
X139937D01*
X132063Y97331D02*
X139937D01*
X123543Y85063D02*
Y92937D01*
X116457Y85063D02*
Y92937D01*
X119043Y103563D02*
Y111437D01*
X111957Y103563D02*
Y111437D01*
X85150Y81150D02*
Y97850D01*
X105850Y81150D02*
Y97850D01*
X80543Y99063D02*
Y106937D01*
X73457Y99063D02*
Y106937D01*
X29957Y232063D02*
Y239937D01*
X37043Y232063D02*
Y239937D01*
X106563Y255543D02*
X114437D01*
X106563Y248457D02*
X114437D01*
X78957Y233063D02*
Y240937D01*
X86043Y233063D02*
Y240937D01*
X90457Y233063D02*
Y240937D01*
X97543Y233063D02*
Y240937D01*
X108043Y233063D02*
Y240937D01*
X100957Y233063D02*
Y240937D01*
X108957Y216063D02*
Y223937D01*
X116043Y216063D02*
Y223937D01*
X108957Y199063D02*
Y206937D01*
X116043Y199063D02*
Y206937D01*
X92563Y207256D02*
X100437D01*
X92563Y200169D02*
X100437D01*
X92563Y211169D02*
X100437D01*
X92563Y218256D02*
X100437D01*
X83043Y205563D02*
Y213437D01*
X75957Y205563D02*
Y213437D01*
X72543Y205563D02*
Y213437D01*
X65457Y205563D02*
Y213437D01*
X44063Y213043D02*
X51937D01*
X44063Y205957D02*
X51937D01*
X44063Y202043D02*
X51937D01*
X44063Y194957D02*
X51937D01*
X30457Y177063D02*
Y184937D01*
X37543Y177063D02*
Y184937D01*
X49543Y177123D02*
Y184997D01*
X42457Y177123D02*
Y184997D01*
Y157776D02*
Y165650D01*
X49543Y157776D02*
Y165650D01*
X61543Y157776D02*
Y165650D01*
X54457Y157776D02*
Y165650D01*
X61543Y128563D02*
Y136437D01*
X54457Y128563D02*
Y136437D01*
X81276Y145043D02*
X89150D01*
X81276Y137957D02*
X89150D01*
X81035Y132543D02*
X88910D01*
X81035Y125457D02*
X88910D01*
X108043Y129563D02*
Y137437D01*
X100957Y129563D02*
Y137437D01*
X111957Y129563D02*
Y137437D01*
X119043Y129563D02*
Y137437D01*
X141957Y161776D02*
Y169650D01*
X149043Y161776D02*
Y169650D01*
X141957Y140776D02*
Y148650D01*
X149043Y140776D02*
Y148650D01*
X137543Y140563D02*
Y148437D01*
X130457Y140563D02*
Y148437D01*
Y161776D02*
Y169650D01*
X137543Y161776D02*
Y169650D01*
X127543Y161563D02*
Y169437D01*
X120457Y161563D02*
Y169437D01*
X260043Y158563D02*
Y166437D01*
X252957Y158563D02*
Y166437D01*
X241457Y158563D02*
Y166437D01*
X248543Y158563D02*
Y166437D01*
X271488Y146543D02*
X279362D01*
X271488Y139457D02*
X279362D01*
X271776Y137043D02*
X279650D01*
X271776Y129957D02*
X279650D01*
X255563Y111457D02*
X263437D01*
X255563Y118543D02*
X263437D01*
X258543Y95563D02*
Y103437D01*
X251457Y95563D02*
Y103437D01*
X196543Y34563D02*
Y42437D01*
X189457Y34563D02*
Y42437D01*
X186543Y34563D02*
Y42437D01*
X179457Y34563D02*
Y42437D01*
X233043Y240063D02*
Y247937D01*
X225957Y240063D02*
Y247937D01*
X260350Y229650D02*
Y246350D01*
X239650Y229650D02*
Y246350D01*
X209563Y285543D02*
X217437D01*
X209563Y278457D02*
X217437D01*
X234263Y287957D02*
X242137D01*
X234263Y295043D02*
X242137D01*
X276043Y294563D02*
Y302437D01*
X268957Y294563D02*
Y302437D01*
X240000Y314000D02*
X242000D01*
X241000Y313000D02*
Y315000D01*
X225957Y313563D02*
Y321437D01*
X233043Y313563D02*
Y321437D01*
X179150Y87650D02*
X195850D01*
X179150Y108350D02*
X195850D01*
X296350Y89150D02*
Y105850D01*
X275650Y89150D02*
Y105850D01*
X50650Y240850D02*
X67350D01*
X50650Y220150D02*
X67350D01*
X86650Y164863D02*
Y181563D01*
X107350Y164863D02*
Y181563D01*
X61543Y177063D02*
Y184937D01*
X54457Y177063D02*
Y184937D01*
X301457Y94063D02*
Y101937D01*
X308543Y94063D02*
Y101937D01*
X301543Y248063D02*
Y255937D01*
X294457Y248063D02*
Y255937D01*
X59563Y250543D02*
X67437D01*
X59563Y243457D02*
X67437D01*
X193063Y66957D02*
X200937D01*
X193063Y74043D02*
X200937D01*
X191063Y253957D02*
X198937D01*
X191063Y261043D02*
X198937D01*
X191063Y252043D02*
X198937D01*
X191063Y244957D02*
X198937D01*
X164543Y93563D02*
Y101437D01*
X157457Y93563D02*
Y101437D01*
X301543Y231063D02*
Y238937D01*
X294457Y231063D02*
Y238937D01*
X184563Y111957D02*
X192437D01*
X184563Y119043D02*
X192437D01*
X120457Y180276D02*
Y188150D01*
X127543Y180276D02*
Y188150D01*
X130457Y180276D02*
Y188150D01*
X137543Y180276D02*
Y188150D01*
X243957Y125563D02*
Y133437D01*
X251043Y125563D02*
Y133437D01*
X263063Y54957D02*
X270937D01*
X263063Y62043D02*
X270937D01*
X256543Y37063D02*
Y44937D01*
X249457Y37063D02*
Y44937D01*
X281343Y54957D02*
X289217D01*
X281343Y62043D02*
X289217D01*
X287457Y129063D02*
Y136937D01*
X294543Y129063D02*
Y136937D01*
X233063Y101957D02*
X240937D01*
X233063Y109043D02*
X240937D01*
X305543Y129063D02*
Y136937D01*
X298457Y129063D02*
Y136937D01*
X321543Y37063D02*
Y44937D01*
X314457Y37063D02*
Y44937D01*
X299563Y62043D02*
X307437D01*
X299563Y54957D02*
X307437D01*
D11*
X281500Y170500D02*
G03*
X281500Y170500I-500J0D01*
G01*
X88000Y86500D02*
G03*
X88000Y86500I-500J0D01*
G01*
X242500Y235000D02*
G03*
X242500Y235000I-500J0D01*
G01*
X191000Y90000D02*
G03*
X191000Y90000I-500J0D01*
G01*
X278500Y94500D02*
G03*
X278500Y94500I-500J0D01*
G01*
X56500Y238500D02*
G03*
X56500Y238500I-500J0D01*
G01*
X89500Y170213D02*
G03*
X89500Y170213I-500J0D01*
G01*
X146776Y42000D02*
X151697Y44756D01*
Y39244D02*
Y44756D01*
X146776Y42000D02*
X151697Y39244D01*
X9543Y107102D02*
X47791D01*
X7083Y109563D02*
X9543Y107102D01*
X9677Y144898D02*
X47791D01*
X9617D02*
X9677D01*
X7083Y142364D02*
X9617Y144898D01*
X9287Y112752D02*
Y139052D01*
X7083Y110547D02*
X9287Y112752D01*
Y139052D02*
Y139097D01*
X7083Y141302D02*
X9287Y139097D01*
X7083Y109563D02*
Y110547D01*
Y141302D02*
Y142364D01*
X47791Y107102D02*
Y144898D01*
X36276Y62500D02*
X41197Y65256D01*
Y59744D02*
Y65256D01*
X36276Y62500D02*
X41197Y59744D01*
X40803Y39744D02*
X45724Y42500D01*
X40803Y39744D02*
Y45256D01*
X45724Y42500D01*
X104874Y-716D02*
X108811D01*
X104874D02*
Y4008D01*
X85189Y-716D02*
X89126D01*
X85189Y-7803D02*
Y-716D01*
X73378D02*
X85189D01*
X89126D02*
Y4008D01*
X108811Y-716D02*
X120622D01*
X108811Y-7803D02*
Y-716D01*
X85189Y-7803D02*
X108811D01*
X89126Y4008D02*
X104874D01*
X120622Y-716D02*
Y47315D01*
X73378Y-716D02*
Y47315D01*
X120622D01*
X150803Y60244D02*
X155724Y63000D01*
X150803Y60244D02*
Y65756D01*
X155724Y63000D01*
X261378Y47815D02*
X308622D01*
X261378Y-216D02*
Y47815D01*
X308622Y-216D02*
Y47815D01*
X277126Y4508D02*
X292874D01*
X273189Y-7303D02*
X296811D01*
Y-216D01*
X308622D01*
X277126D02*
Y4508D01*
X261378Y-216D02*
X273189D01*
Y-7303D02*
Y-216D01*
X277126D01*
X292874D02*
Y4508D01*
Y-216D02*
X296811D01*
X228303Y42244D02*
X233224Y45000D01*
X228303Y42244D02*
Y47756D01*
X233224Y45000D01*
X223815Y65000D02*
X228736Y67756D01*
Y62244D02*
Y67756D01*
X223815Y65000D02*
X228736Y62244D01*
X188209Y138602D02*
Y176398D01*
X228917Y141136D02*
Y142198D01*
Y172953D02*
Y173937D01*
X226713Y144403D02*
X228917Y142198D01*
X226713Y144403D02*
Y144448D01*
Y170748D02*
X228917Y172953D01*
X226713Y144448D02*
Y170748D01*
X226383Y138602D02*
X228917Y141136D01*
X226323Y138602D02*
X226383D01*
X188209D02*
X226323D01*
X226457Y176398D02*
X228917Y173937D01*
X188209Y176398D02*
X226457D01*
X339776Y63500D02*
X344697Y60744D01*
Y66256D01*
X339776Y63500D02*
X344697Y66256D01*
X344303Y47756D02*
X349224Y45000D01*
X344303Y42244D02*
Y47756D01*
Y42244D02*
X349224Y45000D01*
X185999Y239398D02*
X184999Y240398D01*
X183000D01*
X182000Y239398D01*
Y235400D01*
X183000Y234400D01*
X184999D01*
X185999Y235400D01*
X187998Y234400D02*
X189997D01*
X188998D01*
Y240398D01*
X187998Y239398D01*
X192996Y234400D02*
X194996D01*
X193996D01*
Y240398D01*
X192996Y239398D01*
D12*
X296246Y288000D02*
G03*
X291096Y304533I-8246J6500D01*
G01*
X284904Y304533D02*
G03*
X277548Y293500I3096J-10033D01*
G01*
X277548D02*
G03*
X279754Y288000I10452J1000D01*
G01*
X421Y282079D02*
X182500Y282079D01*
Y291921D01*
X421Y282079D02*
Y292500D01*
Y382079D02*
Y391921D01*
Y291921D02*
X182500Y291921D01*
X500Y382079D02*
X182500D01*
Y391921D01*
X421Y391921D02*
X182500Y391921D01*
X296873Y293500D02*
X298452D01*
X286873D02*
X289127D01*
X277548D02*
X279127D01*
X279754Y288000D02*
X296246D01*
D13*
X122500Y264000D02*
Y274000D01*
Y264000D02*
X222500D01*
Y274000D01*
X122500D02*
X222500D01*
D14*
X116500Y208500D02*
Y212437D01*
Y274063D02*
Y278000D01*
X228500Y208500D02*
Y212437D01*
Y274063D02*
Y278000D01*
X116500Y208500D02*
X120437D01*
X224563D02*
X228500D01*
X116500Y278000D02*
X120437D01*
X224563D02*
X228500D01*
D15*
X24000Y335750D02*
Y338250D01*
D16*
X280166Y277832D02*
X279499Y278499D01*
X278166D01*
X277500Y277832D01*
Y275166D01*
X278166Y274500D01*
X279499D01*
X280166Y275166D01*
X281499Y277832D02*
X282165Y278499D01*
X283498D01*
X284165Y277832D01*
Y277166D01*
X283498Y276499D01*
X282832D01*
X283498D01*
X284165Y275833D01*
Y275166D01*
X283498Y274500D01*
X282165D01*
X281499Y275166D01*
X288163Y278499D02*
X286830Y277832D01*
X285497Y276499D01*
Y275166D01*
X286164Y274500D01*
X287497D01*
X288163Y275166D01*
Y275833D01*
X287497Y276499D01*
X285497D01*
D17*
X281000Y158649D02*
Y156025D01*
X281525Y155500D01*
X282574D01*
X283099Y156025D01*
Y158649D01*
X286248D02*
X284149D01*
Y157074D01*
X285198Y157599D01*
X285723D01*
X286248Y157074D01*
Y156025D01*
X285723Y155500D01*
X284673D01*
X284149Y156025D01*
X270099Y170124D02*
X269574Y170649D01*
X268525D01*
X268000Y170124D01*
Y168025D01*
X268525Y167500D01*
X269574D01*
X270099Y168025D01*
X273248Y170649D02*
X271149D01*
Y169074D01*
X272198Y169599D01*
X272723D01*
X273248Y169074D01*
Y168025D01*
X272723Y167500D01*
X271673D01*
X271149Y168025D01*
X276396Y167500D02*
X274297D01*
X276396Y169599D01*
Y170124D01*
X275871Y170649D01*
X274822D01*
X274297Y170124D01*
X207599Y212124D02*
X207074Y212649D01*
X206025D01*
X205500Y212124D01*
Y210025D01*
X206025Y209500D01*
X207074D01*
X207599Y210025D01*
X208649Y209500D02*
X209698D01*
X209173D01*
Y212649D01*
X208649Y212124D01*
X211272Y210025D02*
X211797Y209500D01*
X212847D01*
X213371Y210025D01*
Y212124D01*
X212847Y212649D01*
X211797D01*
X211272Y212124D01*
Y211599D01*
X211797Y211074D01*
X213371D01*
X193000Y191000D02*
Y194149D01*
X194574D01*
X195099Y193624D01*
Y192574D01*
X194574Y192050D01*
X193000D01*
X194050D02*
X195099Y191000D01*
X196149Y193624D02*
X196673Y194149D01*
X197723D01*
X198248Y193624D01*
Y193099D01*
X197723Y192574D01*
X197198D01*
X197723D01*
X198248Y192050D01*
Y191525D01*
X197723Y191000D01*
X196673D01*
X196149Y191525D01*
X199297D02*
X199822Y191000D01*
X200871D01*
X201396Y191525D01*
Y193624D01*
X200871Y194149D01*
X199822D01*
X199297Y193624D01*
Y193099D01*
X199822Y192574D01*
X201396D01*
X168500Y190500D02*
Y193649D01*
X170074D01*
X170599Y193124D01*
Y192074D01*
X170074Y191550D01*
X168500D01*
X169550D02*
X170599Y190500D01*
X171649Y193124D02*
X172173Y193649D01*
X173223D01*
X173748Y193124D01*
Y192599D01*
X173223Y192074D01*
X172698D01*
X173223D01*
X173748Y191550D01*
Y191025D01*
X173223Y190500D01*
X172173D01*
X171649Y191025D01*
X176896Y190500D02*
X174797D01*
X176896Y192599D01*
Y193124D01*
X176372Y193649D01*
X175322D01*
X174797Y193124D01*
X180500Y190500D02*
Y193649D01*
X182074D01*
X182599Y193124D01*
Y192074D01*
X182074Y191550D01*
X180500D01*
X181550D02*
X182599Y190500D01*
X185748D02*
X183649D01*
X185748Y192599D01*
Y193124D01*
X185223Y193649D01*
X184173D01*
X183649Y193124D01*
X186797Y191025D02*
X187322Y190500D01*
X188372D01*
X188896Y191025D01*
Y193124D01*
X188372Y193649D01*
X187322D01*
X186797Y193124D01*
Y192599D01*
X187322Y192074D01*
X188896D01*
X45500Y299500D02*
X41564D01*
Y301468D01*
X42220Y302124D01*
X43532D01*
X44188Y301468D01*
Y299500D01*
Y300812D02*
X45500Y302124D01*
Y306060D02*
Y303436D01*
X42876Y306060D01*
X42220D01*
X41564Y305404D01*
Y304092D01*
X42220Y303436D01*
X41564Y309995D02*
Y307371D01*
X43532D01*
X42876Y308683D01*
Y309339D01*
X43532Y309995D01*
X44844D01*
X45500Y309339D01*
Y308027D01*
X44844Y307371D01*
X29000Y362649D02*
Y359500D01*
X31099D01*
X32149D02*
X33198D01*
X32673D01*
Y362649D01*
X32149Y362124D01*
X31500Y244000D02*
Y247149D01*
X33074D01*
X33599Y246624D01*
Y245574D01*
X33074Y245050D01*
X31500D01*
X32550D02*
X33599Y244000D01*
X36748D02*
X34649D01*
X36748Y246099D01*
Y246624D01*
X36223Y247149D01*
X35173D01*
X34649Y246624D01*
X227599Y328624D02*
X227074Y329149D01*
X226025D01*
X225500Y328624D01*
Y326525D01*
X226025Y326000D01*
X227074D01*
X227599Y326525D01*
X228649Y328624D02*
X229173Y329149D01*
X230223D01*
X230748Y328624D01*
Y328099D01*
X230223Y327574D01*
X229698D01*
X230223D01*
X230748Y327049D01*
Y326525D01*
X230223Y326000D01*
X229173D01*
X228649Y326525D01*
X233371Y326000D02*
Y329149D01*
X231797Y327574D01*
X233896D01*
X244099Y329124D02*
X243574Y329649D01*
X242525D01*
X242000Y329124D01*
Y327025D01*
X242525Y326500D01*
X243574D01*
X244099Y327025D01*
X245149Y329124D02*
X245673Y329649D01*
X246723D01*
X247248Y329124D01*
Y328599D01*
X246723Y328074D01*
X246198D01*
X246723D01*
X247248Y327550D01*
Y327025D01*
X246723Y326500D01*
X245673D01*
X245149Y327025D01*
X248297Y329124D02*
X248822Y329649D01*
X249871D01*
X250396Y329124D01*
Y328599D01*
X249871Y328074D01*
X249347D01*
X249871D01*
X250396Y327550D01*
Y327025D01*
X249871Y326500D01*
X248822D01*
X248297Y327025D01*
X75500Y217500D02*
Y220649D01*
X77074D01*
X77599Y220124D01*
Y219074D01*
X77074Y218549D01*
X75500D01*
X76550D02*
X77599Y217500D01*
X80748Y220649D02*
X79698Y220124D01*
X78649Y219074D01*
Y218025D01*
X79173Y217500D01*
X80223D01*
X80748Y218025D01*
Y218549D01*
X80223Y219074D01*
X78649D01*
X81797Y217500D02*
X82847D01*
X82322D01*
Y220649D01*
X81797Y220124D01*
X273000Y215000D02*
X269851D01*
Y216574D01*
X270376Y217099D01*
X271426D01*
X271951Y216574D01*
Y215000D01*
Y216050D02*
X273000Y217099D01*
X269851Y220248D02*
X270376Y219198D01*
X271426Y218149D01*
X272475D01*
X273000Y218673D01*
Y219723D01*
X272475Y220248D01*
X271951D01*
X271426Y219723D01*
Y218149D01*
X270376Y221297D02*
X269851Y221822D01*
Y222871D01*
X270376Y223396D01*
X272475D01*
X273000Y222871D01*
Y221822D01*
X272475Y221297D01*
X270376D01*
X219099Y290624D02*
X218574Y291149D01*
X217525D01*
X217000Y290624D01*
Y288525D01*
X217525Y288000D01*
X218574D01*
X219099Y288525D01*
X222248Y291149D02*
X220149D01*
Y289574D01*
X221198Y290099D01*
X221723D01*
X222248Y289574D01*
Y288525D01*
X221723Y288000D01*
X220673D01*
X220149Y288525D01*
X225396Y291149D02*
X223297D01*
Y289574D01*
X224347Y290099D01*
X224871D01*
X225396Y289574D01*
Y288525D01*
X224871Y288000D01*
X223822D01*
X223297Y288525D01*
X28500Y373500D02*
Y376649D01*
X30074D01*
X30599Y376124D01*
Y375074D01*
X30074Y374550D01*
X28500D01*
X29550D02*
X30599Y373500D01*
X33748Y376649D02*
X31649D01*
Y375074D01*
X32698Y375599D01*
X33223D01*
X33748Y375074D01*
Y374025D01*
X33223Y373500D01*
X32173D01*
X31649Y374025D01*
X34797D02*
X35322Y373500D01*
X36371D01*
X36896Y374025D01*
Y376124D01*
X36371Y376649D01*
X35322D01*
X34797Y376124D01*
Y375599D01*
X35322Y375074D01*
X36896D01*
X233000Y27649D02*
X235099D01*
X234050D01*
Y24500D01*
X236149D02*
Y27649D01*
X237723D01*
X238248Y27124D01*
Y26074D01*
X237723Y25550D01*
X236149D01*
X239297Y24500D02*
X240347D01*
X239822D01*
Y27649D01*
X239297Y27124D01*
X241921D02*
X242446Y27649D01*
X243495D01*
X244020Y27124D01*
Y25025D01*
X243495Y24500D01*
X242446D01*
X241921Y25025D01*
Y27124D01*
X214700Y108149D02*
X216799D01*
X215750D01*
Y105000D01*
X217849D02*
Y108149D01*
X219423D01*
X219948Y107624D01*
Y106574D01*
X219423Y106050D01*
X217849D01*
X220997Y105525D02*
X221522Y105000D01*
X222571D01*
X223096Y105525D01*
Y107624D01*
X222571Y108149D01*
X221522D01*
X220997Y107624D01*
Y107099D01*
X221522Y106574D01*
X223096D01*
X293500Y223649D02*
X295599D01*
X294549D01*
Y220500D01*
X296649D02*
Y223649D01*
X298223D01*
X298748Y223124D01*
Y222074D01*
X298223Y221550D01*
X296649D01*
X299797Y223124D02*
X300322Y223649D01*
X301372D01*
X301896Y223124D01*
Y222599D01*
X301372Y222074D01*
X301896Y221550D01*
Y221025D01*
X301372Y220500D01*
X300322D01*
X299797Y221025D01*
Y221550D01*
X300322Y222074D01*
X299797Y222599D01*
Y223124D01*
X300322Y222074D02*
X301372D01*
X311200Y144149D02*
X313299D01*
X312249D01*
Y141000D01*
X314349D02*
Y144149D01*
X315923D01*
X316448Y143624D01*
Y142574D01*
X315923Y142050D01*
X314349D01*
X317497Y144149D02*
X319596D01*
Y143624D01*
X317497Y141525D01*
Y141000D01*
X231500Y177649D02*
X233599D01*
X232550D01*
Y174500D01*
X234649D02*
Y177649D01*
X236223D01*
X236748Y177124D01*
Y176074D01*
X236223Y175549D01*
X234649D01*
X239896Y177649D02*
X238847Y177124D01*
X237797Y176074D01*
Y175025D01*
X238322Y174500D01*
X239371D01*
X239896Y175025D01*
Y175549D01*
X239371Y176074D01*
X237797D01*
X157500Y211149D02*
X159599D01*
X158549D01*
Y208000D01*
X160649D02*
Y211149D01*
X162223D01*
X162748Y210624D01*
Y209574D01*
X162223Y209050D01*
X160649D01*
X165896Y211149D02*
X163797D01*
Y209574D01*
X164847Y210099D01*
X165372D01*
X165896Y209574D01*
Y208525D01*
X165372Y208000D01*
X164322D01*
X163797Y208525D01*
X109500Y230649D02*
X111599D01*
X110549D01*
Y227500D01*
X112649D02*
Y230649D01*
X114223D01*
X114748Y230124D01*
Y229074D01*
X114223Y228550D01*
X112649D01*
X117371Y227500D02*
Y230649D01*
X115797Y229074D01*
X117896D01*
X105500Y150149D02*
X107599D01*
X106550D01*
Y147000D01*
X108649D02*
Y150149D01*
X110223D01*
X110748Y149624D01*
Y148574D01*
X110223Y148049D01*
X108649D01*
X111797Y149624D02*
X112322Y150149D01*
X113372D01*
X113896Y149624D01*
Y149099D01*
X113372Y148574D01*
X112847D01*
X113372D01*
X113896Y148049D01*
Y147525D01*
X113372Y147000D01*
X112322D01*
X111797Y147525D01*
X65851Y184000D02*
Y186099D01*
Y185049D01*
X69000D01*
Y187149D02*
X65851D01*
Y188723D01*
X66376Y189248D01*
X67426D01*
X67950Y188723D01*
Y187149D01*
X69000Y192396D02*
Y190297D01*
X66901Y192396D01*
X66376D01*
X65851Y191872D01*
Y190822D01*
X66376Y190297D01*
X146200Y195149D02*
X148299D01*
X147249D01*
Y192000D01*
X149349D02*
Y195149D01*
X150923D01*
X151448Y194624D01*
Y193574D01*
X150923Y193050D01*
X149349D01*
X152497Y192000D02*
X153547D01*
X153022D01*
Y195149D01*
X152497Y194624D01*
X58299Y256224D02*
X57774Y256749D01*
X56725D01*
X56200Y256224D01*
Y254125D01*
X56725Y253600D01*
X57774D01*
X58299Y254125D01*
X61448Y256749D02*
X59349D01*
Y255174D01*
X60398Y255699D01*
X60923D01*
X61448Y255174D01*
Y254125D01*
X60923Y253600D01*
X59873D01*
X59349Y254125D01*
X64072Y253600D02*
Y256749D01*
X62497Y255174D01*
X64596D01*
X221376Y242099D02*
X220851Y241574D01*
Y240525D01*
X221376Y240000D01*
X223475D01*
X224000Y240525D01*
Y241574D01*
X223475Y242099D01*
X220851Y245248D02*
Y243149D01*
X222426D01*
X221901Y244198D01*
Y244723D01*
X222426Y245248D01*
X223475D01*
X224000Y244723D01*
Y243673D01*
X223475Y243149D01*
X221376Y246297D02*
X220851Y246822D01*
Y247871D01*
X221376Y248396D01*
X221901D01*
X222426Y247871D01*
Y247347D01*
Y247871D01*
X222951Y248396D01*
X223475D01*
X224000Y247871D01*
Y246822D01*
X223475Y246297D01*
X303699Y111124D02*
X303174Y111649D01*
X302125D01*
X301600Y111124D01*
Y109025D01*
X302125Y108500D01*
X303174D01*
X303699Y109025D01*
X306323Y108500D02*
Y111649D01*
X304749Y110074D01*
X306848D01*
X307897Y111124D02*
X308422Y111649D01*
X309472D01*
X309996Y111124D01*
Y110599D01*
X309472Y110074D01*
X309996Y109549D01*
Y109025D01*
X309472Y108500D01*
X308422D01*
X307897Y109025D01*
Y109549D01*
X308422Y110074D01*
X307897Y110599D01*
Y111124D01*
X308422Y110074D02*
X309472D01*
X113599Y118124D02*
X113074Y118649D01*
X112025D01*
X111500Y118124D01*
Y116025D01*
X112025Y115500D01*
X113074D01*
X113599Y116025D01*
X116223Y115500D02*
Y118649D01*
X114649Y117074D01*
X116748D01*
X117797Y118649D02*
X119896D01*
Y118124D01*
X117797Y116025D01*
Y115500D01*
X296699Y265124D02*
X296174Y265649D01*
X295125D01*
X294600Y265124D01*
Y263025D01*
X295125Y262500D01*
X296174D01*
X296699Y263025D01*
X299323Y262500D02*
Y265649D01*
X297749Y264074D01*
X299848D01*
X302996Y265649D02*
X301947Y265124D01*
X300897Y264074D01*
Y263025D01*
X301422Y262500D01*
X302471D01*
X302996Y263025D01*
Y263549D01*
X302471Y264074D01*
X300897D01*
X290000Y310149D02*
Y307525D01*
X290525Y307000D01*
X291574D01*
X292099Y307525D01*
Y310149D01*
X293149Y309624D02*
X293673Y310149D01*
X294723D01*
X295248Y309624D01*
Y309099D01*
X294723Y308574D01*
X295248Y308050D01*
Y307525D01*
X294723Y307000D01*
X293673D01*
X293149Y307525D01*
Y308050D01*
X293673Y308574D01*
X293149Y309099D01*
Y309624D01*
X293673Y308574D02*
X294723D01*
X174100Y114349D02*
Y111725D01*
X174625Y111200D01*
X175674D01*
X176199Y111725D01*
Y114349D01*
X177249D02*
X179348D01*
Y113824D01*
X177249Y111725D01*
Y111200D01*
X246500Y260149D02*
Y257525D01*
X247025Y257000D01*
X248074D01*
X248599Y257525D01*
Y260149D01*
X251748D02*
X250698Y259624D01*
X249649Y258574D01*
Y257525D01*
X250173Y257000D01*
X251223D01*
X251748Y257525D01*
Y258050D01*
X251223Y258574D01*
X249649D01*
X275900Y117249D02*
Y114625D01*
X276425Y114100D01*
X277474D01*
X277999Y114625D01*
Y117249D01*
X280623Y114100D02*
Y117249D01*
X279049Y115674D01*
X281148D01*
X44500Y246149D02*
Y243525D01*
X45025Y243000D01*
X46074D01*
X46599Y243525D01*
Y246149D01*
X47649Y245624D02*
X48173Y246149D01*
X49223D01*
X49748Y245624D01*
Y245099D01*
X49223Y244574D01*
X48698D01*
X49223D01*
X49748Y244050D01*
Y243525D01*
X49223Y243000D01*
X48173D01*
X47649Y243525D01*
X86900Y192949D02*
Y190325D01*
X87425Y189800D01*
X88474D01*
X88999Y190325D01*
Y192949D01*
X92148Y189800D02*
X90049D01*
X92148Y191899D01*
Y192424D01*
X91623Y192949D01*
X90573D01*
X90049Y192424D01*
X107500Y94649D02*
Y92025D01*
X108025Y91500D01*
X109074D01*
X109599Y92025D01*
Y94649D01*
X110649Y91500D02*
X111698D01*
X111173D01*
Y94649D01*
X110649Y94124D01*
X188300Y182649D02*
X190399D01*
X189349D01*
Y179500D01*
X191449D02*
Y182649D01*
X193023D01*
X193548Y182124D01*
Y181074D01*
X193023Y180550D01*
X191449D01*
X192498D02*
X193548Y179500D01*
X194597Y182649D02*
X195647D01*
X195122D01*
Y179500D01*
X194597D01*
X195647D01*
X197221D02*
Y182649D01*
X198270Y181599D01*
X199320Y182649D01*
Y179500D01*
X202469D02*
X200370D01*
X202469Y181599D01*
Y182124D01*
X201944Y182649D01*
X200894D01*
X200370Y182124D01*
X15500Y149649D02*
X17599D01*
X16549D01*
Y146500D01*
X18649D02*
Y149649D01*
X20223D01*
X20748Y149124D01*
Y148074D01*
X20223Y147549D01*
X18649D01*
X19698D02*
X20748Y146500D01*
X21797Y149649D02*
X22847D01*
X22322D01*
Y146500D01*
X21797D01*
X22847D01*
X24421D02*
Y149649D01*
X25471Y148599D01*
X26520Y149649D01*
Y146500D01*
X27570D02*
X28619D01*
X28094D01*
Y149649D01*
X27570Y149124D01*
X202500Y255500D02*
Y258649D01*
X204074D01*
X204599Y258124D01*
Y257074D01*
X204074Y256550D01*
X202500D01*
X203550D02*
X204599Y255500D01*
X207748Y258649D02*
X205649D01*
Y257074D01*
X206698Y257599D01*
X207223D01*
X207748Y257074D01*
Y256025D01*
X207223Y255500D01*
X206173D01*
X205649Y256025D01*
X208797Y258124D02*
X209322Y258649D01*
X210371D01*
X210896Y258124D01*
Y257599D01*
X210371Y257074D01*
X210896Y256550D01*
Y256025D01*
X210371Y255500D01*
X209322D01*
X208797Y256025D01*
Y256550D01*
X209322Y257074D01*
X208797Y257599D01*
Y258124D01*
X209322Y257074D02*
X210371D01*
X204500Y246500D02*
Y249649D01*
X206074D01*
X206599Y249124D01*
Y248074D01*
X206074Y247550D01*
X204500D01*
X205550D02*
X206599Y246500D01*
X209748Y249649D02*
X207649D01*
Y248074D01*
X208698Y248599D01*
X209223D01*
X209748Y248074D01*
Y247025D01*
X209223Y246500D01*
X208173D01*
X207649Y247025D01*
X210797Y249649D02*
X212896D01*
Y249124D01*
X210797Y247025D01*
Y246500D01*
X268000Y287000D02*
Y290149D01*
X269574D01*
X270099Y289624D01*
Y288574D01*
X269574Y288050D01*
X268000D01*
X269050D02*
X270099Y287000D01*
X273248Y290149D02*
X271149D01*
Y288574D01*
X272198Y289099D01*
X272723D01*
X273248Y288574D01*
Y287525D01*
X272723Y287000D01*
X271673D01*
X271149Y287525D01*
X275871Y287000D02*
Y290149D01*
X274297Y288574D01*
X276396D01*
X191500Y28000D02*
Y31149D01*
X193074D01*
X193599Y30624D01*
Y29574D01*
X193074Y29050D01*
X191500D01*
X192550D02*
X193599Y28000D01*
X196223D02*
Y31149D01*
X194649Y29574D01*
X196748D01*
X197797Y30624D02*
X198322Y31149D01*
X199372D01*
X199896Y30624D01*
Y30099D01*
X199372Y29574D01*
X199896Y29050D01*
Y28525D01*
X199372Y28000D01*
X198322D01*
X197797Y28525D01*
Y29050D01*
X198322Y29574D01*
X197797Y30099D01*
Y30624D01*
X198322Y29574D02*
X199372D01*
X189500Y59500D02*
Y62649D01*
X191074D01*
X191599Y62124D01*
Y61074D01*
X191074Y60549D01*
X189500D01*
X190550D02*
X191599Y59500D01*
X194223D02*
Y62649D01*
X192649Y61074D01*
X194748D01*
X195797Y62649D02*
X197896D01*
Y62124D01*
X195797Y60025D01*
Y59500D01*
X264500Y260000D02*
Y263149D01*
X266074D01*
X266599Y262624D01*
Y261574D01*
X266074Y261050D01*
X264500D01*
X265549D02*
X266599Y260000D01*
X269223D02*
Y263149D01*
X267649Y261574D01*
X269748D01*
X272896Y263149D02*
X271847Y262624D01*
X270797Y261574D01*
Y260525D01*
X271322Y260000D01*
X272372D01*
X272896Y260525D01*
Y261050D01*
X272372Y261574D01*
X270797D01*
X275000Y254500D02*
Y257649D01*
X276574D01*
X277099Y257124D01*
Y256074D01*
X276574Y255550D01*
X275000D01*
X276049D02*
X277099Y254500D01*
X279723D02*
Y257649D01*
X278149Y256074D01*
X280248D01*
X283396Y257649D02*
X281297D01*
Y256074D01*
X282347Y256599D01*
X282872D01*
X283396Y256074D01*
Y255025D01*
X282872Y254500D01*
X281822D01*
X281297Y255025D01*
X241000Y152500D02*
Y155649D01*
X242574D01*
X243099Y155124D01*
Y154074D01*
X242574Y153550D01*
X241000D01*
X242050D02*
X243099Y152500D01*
X245723D02*
Y155649D01*
X244149Y154074D01*
X246248D01*
X248871Y152500D02*
Y155649D01*
X247297Y154074D01*
X249396D01*
X217000Y191000D02*
Y194149D01*
X218574D01*
X219099Y193624D01*
Y192574D01*
X218574Y192050D01*
X217000D01*
X218050D02*
X219099Y191000D01*
X221723D02*
Y194149D01*
X220149Y192574D01*
X222248D01*
X223297Y193624D02*
X223822Y194149D01*
X224871D01*
X225396Y193624D01*
Y193099D01*
X224871Y192574D01*
X224347D01*
X224871D01*
X225396Y192050D01*
Y191525D01*
X224871Y191000D01*
X223822D01*
X223297Y191525D01*
X314600Y51500D02*
Y54649D01*
X316174D01*
X316699Y54124D01*
Y53074D01*
X316174Y52549D01*
X314600D01*
X315650D02*
X316699Y51500D01*
X319323D02*
Y54649D01*
X317749Y53074D01*
X319848D01*
X322996Y51500D02*
X320897D01*
X322996Y53599D01*
Y54124D01*
X322471Y54649D01*
X321422D01*
X320897Y54124D01*
X306000Y231500D02*
X302851D01*
Y233074D01*
X303376Y233599D01*
X304426D01*
X304950Y233074D01*
Y231500D01*
Y232550D02*
X306000Y233599D01*
Y236223D02*
X302851D01*
X304426Y234649D01*
Y236748D01*
X306000Y237797D02*
Y238847D01*
Y238322D01*
X302851D01*
X303376Y237797D01*
X298600Y143500D02*
Y146649D01*
X300174D01*
X300699Y146124D01*
Y145074D01*
X300174Y144550D01*
X298600D01*
X299650D02*
X300699Y143500D01*
X303323D02*
Y146649D01*
X301749Y145074D01*
X303848D01*
X304897Y146124D02*
X305422Y146649D01*
X306471D01*
X306996Y146124D01*
Y144025D01*
X306471Y143500D01*
X305422D01*
X304897Y144025D01*
Y146124D01*
X241000Y191000D02*
Y194149D01*
X242574D01*
X243099Y193624D01*
Y192574D01*
X242574Y192050D01*
X241000D01*
X242050D02*
X243099Y191000D01*
X244149Y193624D02*
X244673Y194149D01*
X245723D01*
X246248Y193624D01*
Y193099D01*
X245723Y192574D01*
X245198D01*
X245723D01*
X246248Y192050D01*
Y191525D01*
X245723Y191000D01*
X244673D01*
X244149Y191525D01*
X247297Y193624D02*
X247822Y194149D01*
X248871D01*
X249396Y193624D01*
Y193099D01*
X248871Y192574D01*
X249396Y192050D01*
Y191525D01*
X248871Y191000D01*
X247822D01*
X247297Y191525D01*
Y192050D01*
X247822Y192574D01*
X247297Y193099D01*
Y193624D01*
X247822Y192574D02*
X248871D01*
X241500Y171000D02*
Y174149D01*
X243074D01*
X243599Y173624D01*
Y172574D01*
X243074Y172049D01*
X241500D01*
X242549D02*
X243599Y171000D01*
X244649Y173624D02*
X245173Y174149D01*
X246223D01*
X246748Y173624D01*
Y173099D01*
X246223Y172574D01*
X245698D01*
X246223D01*
X246748Y172049D01*
Y171525D01*
X246223Y171000D01*
X245173D01*
X244649Y171525D01*
X247797Y174149D02*
X249896D01*
Y173624D01*
X247797Y171525D01*
Y171000D01*
X229700Y112100D02*
Y115249D01*
X231274D01*
X231799Y114724D01*
Y113674D01*
X231274Y113149D01*
X229700D01*
X230750D02*
X231799Y112100D01*
X232849Y114724D02*
X233373Y115249D01*
X234423D01*
X234948Y114724D01*
Y114199D01*
X234423Y113674D01*
X233898D01*
X234423D01*
X234948Y113149D01*
Y112625D01*
X234423Y112100D01*
X233373D01*
X232849Y112625D01*
X238096Y115249D02*
X237047Y114724D01*
X235997Y113674D01*
Y112625D01*
X236522Y112100D01*
X237572D01*
X238096Y112625D01*
Y113149D01*
X237572Y113674D01*
X235997D01*
X322000Y181500D02*
Y184649D01*
X323574D01*
X324099Y184124D01*
Y183074D01*
X323574Y182550D01*
X322000D01*
X323049D02*
X324099Y181500D01*
X325149Y184124D02*
X325673Y184649D01*
X326723D01*
X327248Y184124D01*
Y183599D01*
X326723Y183074D01*
X326198D01*
X326723D01*
X327248Y182550D01*
Y182025D01*
X326723Y181500D01*
X325673D01*
X325149Y182025D01*
X330396Y184649D02*
X328297D01*
Y183074D01*
X329347Y183599D01*
X329872D01*
X330396Y183074D01*
Y182025D01*
X329872Y181500D01*
X328822D01*
X328297Y182025D01*
X310000Y232000D02*
Y235149D01*
X311574D01*
X312099Y234624D01*
Y233574D01*
X311574Y233050D01*
X310000D01*
X311050D02*
X312099Y232000D01*
X313149Y234624D02*
X313673Y235149D01*
X314723D01*
X315248Y234624D01*
Y234099D01*
X314723Y233574D01*
X314198D01*
X314723D01*
X315248Y233050D01*
Y232525D01*
X314723Y232000D01*
X313673D01*
X313149Y232525D01*
X317871Y232000D02*
Y235149D01*
X316297Y233574D01*
X318396D01*
X263000Y95500D02*
X259851D01*
Y97074D01*
X260376Y97599D01*
X261426D01*
X261950Y97074D01*
Y95500D01*
Y96549D02*
X263000Y97599D01*
X260376Y98649D02*
X259851Y99173D01*
Y100223D01*
X260376Y100748D01*
X260901D01*
X261426Y100223D01*
Y99698D01*
Y100223D01*
X261950Y100748D01*
X262475D01*
X263000Y100223D01*
Y99173D01*
X262475Y98649D01*
X260376Y101797D02*
X259851Y102322D01*
Y103372D01*
X260376Y103896D01*
X260901D01*
X261426Y103372D01*
Y102847D01*
Y103372D01*
X261950Y103896D01*
X262475D01*
X263000Y103372D01*
Y102322D01*
X262475Y101797D01*
X222000Y92500D02*
Y95649D01*
X223574D01*
X224099Y95124D01*
Y94074D01*
X223574Y93550D01*
X222000D01*
X223049D02*
X224099Y92500D01*
X225149Y95124D02*
X225673Y95649D01*
X226723D01*
X227248Y95124D01*
Y94599D01*
X226723Y94074D01*
X226198D01*
X226723D01*
X227248Y93550D01*
Y93025D01*
X226723Y92500D01*
X225673D01*
X225149Y93025D01*
X228297Y92500D02*
X229347D01*
X228822D01*
Y95649D01*
X228297Y95124D01*
X249600Y51500D02*
Y54649D01*
X251174D01*
X251699Y54124D01*
Y53074D01*
X251174Y52549D01*
X249600D01*
X250649D02*
X251699Y51500D01*
X252749Y54124D02*
X253273Y54649D01*
X254323D01*
X254848Y54124D01*
Y53599D01*
X254323Y53074D01*
X253798D01*
X254323D01*
X254848Y52549D01*
Y52025D01*
X254323Y51500D01*
X253273D01*
X252749Y52025D01*
X255897Y54124D02*
X256422Y54649D01*
X257471D01*
X257996Y54124D01*
Y52025D01*
X257471Y51500D01*
X256422D01*
X255897Y52025D01*
Y54124D01*
X289000Y197000D02*
Y200149D01*
X290574D01*
X291099Y199624D01*
Y198574D01*
X290574Y198049D01*
X289000D01*
X290050D02*
X291099Y197000D01*
X294248D02*
X292149D01*
X294248Y199099D01*
Y199624D01*
X293723Y200149D01*
X292673D01*
X292149Y199624D01*
X295297D02*
X295822Y200149D01*
X296871D01*
X297396Y199624D01*
Y199099D01*
X296871Y198574D01*
X297396Y198049D01*
Y197525D01*
X296871Y197000D01*
X295822D01*
X295297Y197525D01*
Y198049D01*
X295822Y198574D01*
X295297Y199099D01*
Y199624D01*
X295822Y198574D02*
X296871D01*
X322000Y203000D02*
Y206149D01*
X323574D01*
X324099Y205624D01*
Y204574D01*
X323574Y204049D01*
X322000D01*
X323049D02*
X324099Y203000D01*
X327248D02*
X325149D01*
X327248Y205099D01*
Y205624D01*
X326723Y206149D01*
X325673D01*
X325149Y205624D01*
X328297Y206149D02*
X330396D01*
Y205624D01*
X328297Y203525D01*
Y203000D01*
X271500Y148500D02*
Y151649D01*
X273074D01*
X273599Y151124D01*
Y150074D01*
X273074Y149549D01*
X271500D01*
X272550D02*
X273599Y148500D01*
X276748D02*
X274649D01*
X276748Y150599D01*
Y151124D01*
X276223Y151649D01*
X275173D01*
X274649Y151124D01*
X279896Y151649D02*
X278847Y151124D01*
X277797Y150074D01*
Y149025D01*
X278322Y148500D01*
X279372D01*
X279896Y149025D01*
Y149549D01*
X279372Y150074D01*
X277797D01*
X244100Y140000D02*
Y143149D01*
X245674D01*
X246199Y142624D01*
Y141574D01*
X245674Y141050D01*
X244100D01*
X245149D02*
X246199Y140000D01*
X249348D02*
X247249D01*
X249348Y142099D01*
Y142624D01*
X248823Y143149D01*
X247773D01*
X247249Y142624D01*
X251972Y140000D02*
Y143149D01*
X250397Y141574D01*
X252496D01*
X64000Y205500D02*
X60851D01*
Y207074D01*
X61376Y207599D01*
X62426D01*
X62950Y207074D01*
Y205500D01*
Y206550D02*
X64000Y207599D01*
Y210748D02*
Y208649D01*
X61901Y210748D01*
X61376D01*
X60851Y210223D01*
Y209173D01*
X61376Y208649D01*
Y211797D02*
X60851Y212322D01*
Y213371D01*
X61376Y213896D01*
X61901D01*
X62426Y213371D01*
Y212847D01*
Y213371D01*
X62950Y213896D01*
X63475D01*
X64000Y213371D01*
Y212322D01*
X63475Y211797D01*
X78500Y226500D02*
Y229649D01*
X80074D01*
X80599Y229124D01*
Y228074D01*
X80074Y227550D01*
X78500D01*
X79549D02*
X80599Y226500D01*
X83748D02*
X81649D01*
X83748Y228599D01*
Y229124D01*
X83223Y229649D01*
X82173D01*
X81649Y229124D01*
X86896Y226500D02*
X84797D01*
X86896Y228599D01*
Y229124D01*
X86371Y229649D01*
X85322D01*
X84797Y229124D01*
X40500Y158000D02*
X37351D01*
Y159574D01*
X37876Y160099D01*
X38926D01*
X39450Y159574D01*
Y158000D01*
Y159049D02*
X40500Y160099D01*
Y163248D02*
Y161149D01*
X38401Y163248D01*
X37876D01*
X37351Y162723D01*
Y161673D01*
X37876Y161149D01*
X40500Y164297D02*
Y165347D01*
Y164822D01*
X37351D01*
X37876Y164297D01*
X28500Y177500D02*
X25351D01*
Y179074D01*
X25876Y179599D01*
X26926D01*
X27450Y179074D01*
Y177500D01*
Y178550D02*
X28500Y179599D01*
Y182748D02*
Y180649D01*
X26401Y182748D01*
X25876D01*
X25351Y182223D01*
Y181173D01*
X25876Y180649D01*
Y183797D02*
X25351Y184322D01*
Y185371D01*
X25876Y185896D01*
X27975D01*
X28500Y185371D01*
Y184322D01*
X27975Y183797D01*
X25876D01*
X128000Y49000D02*
Y52149D01*
X129574D01*
X130099Y51624D01*
Y50574D01*
X129574Y50050D01*
X128000D01*
X129050D02*
X130099Y49000D01*
X131149D02*
X132198D01*
X131673D01*
Y52149D01*
X131149Y51624D01*
X133772Y49525D02*
X134297Y49000D01*
X135347D01*
X135872Y49525D01*
Y51624D01*
X135347Y52149D01*
X134297D01*
X133772Y51624D01*
Y51099D01*
X134297Y50574D01*
X135872D01*
X110000Y239000D02*
Y242149D01*
X111574D01*
X112099Y241624D01*
Y240574D01*
X111574Y240050D01*
X110000D01*
X111049D02*
X112099Y239000D01*
X113149D02*
X114198D01*
X113673D01*
Y242149D01*
X113149Y241624D01*
X115772D02*
X116297Y242149D01*
X117347D01*
X117871Y241624D01*
Y241099D01*
X117347Y240574D01*
X117871Y240050D01*
Y239525D01*
X117347Y239000D01*
X116297D01*
X115772Y239525D01*
Y240050D01*
X116297Y240574D01*
X115772Y241099D01*
Y241624D01*
X116297Y240574D02*
X117347D01*
X123500Y130500D02*
X120351D01*
Y132074D01*
X120876Y132599D01*
X121926D01*
X122450Y132074D01*
Y130500D01*
Y131550D02*
X123500Y132599D01*
Y133649D02*
Y134698D01*
Y134173D01*
X120351D01*
X120876Y133649D01*
X120351Y136272D02*
Y138372D01*
X120876D01*
X122975Y136272D01*
X123500D01*
X129000Y141000D02*
X125851D01*
Y142574D01*
X126376Y143099D01*
X127426D01*
X127951Y142574D01*
Y141000D01*
Y142050D02*
X129000Y143099D01*
Y144149D02*
Y145198D01*
Y144673D01*
X125851D01*
X126376Y144149D01*
X125851Y148872D02*
X126376Y147822D01*
X127426Y146772D01*
X128475D01*
X129000Y147297D01*
Y148347D01*
X128475Y148872D01*
X127951D01*
X127426Y148347D01*
Y146772D01*
X40500Y195000D02*
X37351D01*
Y196574D01*
X37876Y197099D01*
X38926D01*
X39450Y196574D01*
Y195000D01*
Y196049D02*
X40500Y197099D01*
Y198149D02*
Y199198D01*
Y198673D01*
X37351D01*
X37876Y198149D01*
X37351Y202871D02*
Y200772D01*
X38926D01*
X38401Y201822D01*
Y202347D01*
X38926Y202871D01*
X39975D01*
X40500Y202347D01*
Y201297D01*
X39975Y200772D01*
X42000Y170500D02*
Y173649D01*
X43574D01*
X44099Y173124D01*
Y172074D01*
X43574Y171549D01*
X42000D01*
X43049D02*
X44099Y170500D01*
X45149D02*
X46198D01*
X45673D01*
Y173649D01*
X45149Y173124D01*
X49347Y170500D02*
Y173649D01*
X47772Y172074D01*
X49872D01*
X132000Y99000D02*
Y102149D01*
X133574D01*
X134099Y101624D01*
Y100574D01*
X133574Y100049D01*
X132000D01*
X133049D02*
X134099Y99000D01*
X135149D02*
X136198D01*
X135673D01*
Y102149D01*
X135149Y101624D01*
X137772D02*
X138297Y102149D01*
X139347D01*
X139872Y101624D01*
Y101099D01*
X139347Y100574D01*
X138822D01*
X139347D01*
X139872Y100049D01*
Y99525D01*
X139347Y99000D01*
X138297D01*
X137772Y99525D01*
X107500Y199500D02*
X104351D01*
Y201074D01*
X104876Y201599D01*
X105926D01*
X106450Y201074D01*
Y199500D01*
Y200550D02*
X107500Y201599D01*
Y202649D02*
Y203698D01*
Y203173D01*
X104351D01*
X104876Y202649D01*
X107500Y207371D02*
Y205272D01*
X105401Y207371D01*
X104876D01*
X104351Y206847D01*
Y205797D01*
X104876Y205272D01*
X107500Y216000D02*
X104351D01*
Y217574D01*
X104876Y218099D01*
X105926D01*
X106450Y217574D01*
Y216000D01*
Y217050D02*
X107500Y218099D01*
Y219149D02*
Y220198D01*
Y219673D01*
X104351D01*
X104876Y219149D01*
X107500Y221772D02*
Y222822D01*
Y222297D01*
X104351D01*
X104876Y221772D01*
X116000Y78500D02*
Y81649D01*
X117574D01*
X118099Y81124D01*
Y80074D01*
X117574Y79549D01*
X116000D01*
X117050D02*
X118099Y78500D01*
X119149D02*
X120198D01*
X119673D01*
Y81649D01*
X119149Y81124D01*
X121772D02*
X122297Y81649D01*
X123347D01*
X123872Y81124D01*
Y79025D01*
X123347Y78500D01*
X122297D01*
X121772Y79025D01*
Y81124D01*
X143000Y174000D02*
Y177149D01*
X144574D01*
X145099Y176624D01*
Y175574D01*
X144574Y175049D01*
X143000D01*
X144050D02*
X145099Y174000D01*
X146149Y174525D02*
X146673Y174000D01*
X147723D01*
X148248Y174525D01*
Y176624D01*
X147723Y177149D01*
X146673D01*
X146149Y176624D01*
Y176099D01*
X146673Y175574D01*
X148248D01*
X133500Y75500D02*
Y78649D01*
X135074D01*
X135599Y78124D01*
Y77074D01*
X135074Y76550D01*
X133500D01*
X134549D02*
X135599Y75500D01*
X136649Y78124D02*
X137173Y78649D01*
X138223D01*
X138748Y78124D01*
Y77599D01*
X138223Y77074D01*
X138748Y76550D01*
Y76025D01*
X138223Y75500D01*
X137173D01*
X136649Y76025D01*
Y76550D01*
X137173Y77074D01*
X136649Y77599D01*
Y78124D01*
X137173Y77074D02*
X138223D01*
X63000Y49500D02*
Y52649D01*
X64574D01*
X65099Y52124D01*
Y51074D01*
X64574Y50550D01*
X63000D01*
X64050D02*
X65099Y49500D01*
X66149Y52649D02*
X68248D01*
Y52124D01*
X66149Y50025D01*
Y49500D01*
X154000Y144000D02*
X150851D01*
Y145574D01*
X151376Y146099D01*
X152426D01*
X152951Y145574D01*
Y144000D01*
Y145050D02*
X154000Y146099D01*
X150851Y149248D02*
X151376Y148198D01*
X152426Y147149D01*
X153475D01*
X154000Y147673D01*
Y148723D01*
X153475Y149248D01*
X152951D01*
X152426Y148723D01*
Y147149D01*
X94500Y196000D02*
Y199149D01*
X96074D01*
X96599Y198624D01*
Y197574D01*
X96074Y197049D01*
X94500D01*
X95549D02*
X96599Y196000D01*
X99748Y199149D02*
X97649D01*
Y197574D01*
X98698Y198099D01*
X99223D01*
X99748Y197574D01*
Y196525D01*
X99223Y196000D01*
X98173D01*
X97649Y196525D01*
X94500Y219500D02*
Y222649D01*
X96074D01*
X96599Y222124D01*
Y221074D01*
X96074Y220550D01*
X94500D01*
X95549D02*
X96599Y219500D01*
X99223D02*
Y222649D01*
X97649Y221074D01*
X99748D01*
X82500Y146500D02*
Y149649D01*
X84074D01*
X84599Y149124D01*
Y148074D01*
X84074Y147549D01*
X82500D01*
X83549D02*
X84599Y146500D01*
X85649Y149124D02*
X86173Y149649D01*
X87223D01*
X87748Y149124D01*
Y148599D01*
X87223Y148074D01*
X86698D01*
X87223D01*
X87748Y147549D01*
Y147025D01*
X87223Y146500D01*
X86173D01*
X85649Y147025D01*
X56000Y140500D02*
Y143649D01*
X57574D01*
X58099Y143124D01*
Y142074D01*
X57574Y141550D01*
X56000D01*
X57050D02*
X58099Y140500D01*
X59149D02*
X60198D01*
X59673D01*
Y143649D01*
X59149Y143124D01*
X255599Y27149D02*
X254550D01*
X255074D01*
Y24525D01*
X254550Y24000D01*
X254025D01*
X253500Y24525D01*
X258748Y24000D02*
X256649D01*
X258748Y26099D01*
Y26624D01*
X258223Y27149D01*
X257173D01*
X256649Y26624D01*
X68599Y28649D02*
X67550D01*
X68074D01*
Y26025D01*
X67550Y25500D01*
X67025D01*
X66500Y26025D01*
X69649Y25500D02*
X70698D01*
X70173D01*
Y28649D01*
X69649Y28124D01*
X331100Y58449D02*
Y55300D01*
X332674D01*
X333199Y55825D01*
Y57924D01*
X332674Y58449D01*
X331100D01*
X334249Y57924D02*
X334773Y58449D01*
X335823D01*
X336348Y57924D01*
Y57399D01*
X335823Y56874D01*
X336348Y56349D01*
Y55825D01*
X335823Y55300D01*
X334773D01*
X334249Y55825D01*
Y56349D01*
X334773Y56874D01*
X334249Y57399D01*
Y57924D01*
X334773Y56874D02*
X335823D01*
X331100Y76949D02*
Y73800D01*
X332674D01*
X333199Y74325D01*
Y76424D01*
X332674Y76949D01*
X331100D01*
X334249D02*
X336348D01*
Y76424D01*
X334249Y74325D01*
Y73800D01*
X235500Y38649D02*
Y35500D01*
X237074D01*
X237599Y36025D01*
Y38124D01*
X237074Y38649D01*
X235500D01*
X240748D02*
X239698Y38124D01*
X238649Y37074D01*
Y36025D01*
X239173Y35500D01*
X240223D01*
X240748Y36025D01*
Y36549D01*
X240223Y37074D01*
X238649D01*
X236000Y58649D02*
Y55500D01*
X237574D01*
X238099Y56025D01*
Y58124D01*
X237574Y58649D01*
X236000D01*
X241248D02*
X239149D01*
Y57074D01*
X240198Y57599D01*
X240723D01*
X241248Y57074D01*
Y56025D01*
X240723Y55500D01*
X239673D01*
X239149Y56025D01*
X149000Y56149D02*
Y53000D01*
X150574D01*
X151099Y53525D01*
Y55624D01*
X150574Y56149D01*
X149000D01*
X153723Y53000D02*
Y56149D01*
X152149Y54574D01*
X154248D01*
X147500Y35149D02*
Y32000D01*
X149074D01*
X149599Y32525D01*
Y34624D01*
X149074Y35149D01*
X147500D01*
X150649Y34624D02*
X151173Y35149D01*
X152223D01*
X152748Y34624D01*
Y34099D01*
X152223Y33574D01*
X151698D01*
X152223D01*
X152748Y33049D01*
Y32525D01*
X152223Y32000D01*
X151173D01*
X150649Y32525D01*
X37000Y35649D02*
Y32500D01*
X38574D01*
X39099Y33025D01*
Y35124D01*
X38574Y35649D01*
X37000D01*
X42248Y32500D02*
X40149D01*
X42248Y34599D01*
Y35124D01*
X41723Y35649D01*
X40673D01*
X40149Y35124D01*
X39500Y72149D02*
Y69000D01*
X41074D01*
X41599Y69525D01*
Y71624D01*
X41074Y72149D01*
X39500D01*
X42649Y69000D02*
X43698D01*
X43173D01*
Y72149D01*
X42649Y71624D01*
X166376Y80599D02*
X165851Y80074D01*
Y79025D01*
X166376Y78500D01*
X168475D01*
X169000Y79025D01*
Y80074D01*
X168475Y80599D01*
X169000Y83223D02*
X165851D01*
X167426Y81649D01*
Y83748D01*
X165851Y86896D02*
Y84797D01*
X167426D01*
X166901Y85847D01*
Y86371D01*
X167426Y86896D01*
X168475D01*
X169000Y86371D01*
Y85322D01*
X168475Y84797D01*
X76599Y172624D02*
X76074Y173149D01*
X75025D01*
X74500Y172624D01*
Y170525D01*
X75025Y170000D01*
X76074D01*
X76599Y170525D01*
X79223Y170000D02*
Y173149D01*
X77649Y171574D01*
X79748D01*
X82896Y170000D02*
X80797D01*
X82896Y172099D01*
Y172624D01*
X82371Y173149D01*
X81322D01*
X80797Y172624D01*
X69876Y102099D02*
X69351Y101574D01*
Y100525D01*
X69876Y100000D01*
X71975D01*
X72500Y100525D01*
Y101574D01*
X71975Y102099D01*
X72500Y104723D02*
X69351D01*
X70926Y103149D01*
Y105248D01*
X72500Y106297D02*
Y107347D01*
Y106822D01*
X69351D01*
X69876Y106297D01*
X255599Y124624D02*
X255074Y125149D01*
X254025D01*
X253500Y124624D01*
Y122525D01*
X254025Y122000D01*
X255074D01*
X255599Y122525D01*
X258223Y122000D02*
Y125149D01*
X256649Y123574D01*
X258748D01*
X259797Y124624D02*
X260322Y125149D01*
X261371D01*
X261896Y124624D01*
Y122525D01*
X261371Y122000D01*
X260322D01*
X259797Y122525D01*
Y124624D01*
X236599Y300124D02*
X236074Y300649D01*
X235025D01*
X234500Y300124D01*
Y298025D01*
X235025Y297500D01*
X236074D01*
X236599Y298025D01*
X237649Y300124D02*
X238173Y300649D01*
X239223D01*
X239748Y300124D01*
Y299599D01*
X239223Y299074D01*
X238698D01*
X239223D01*
X239748Y298550D01*
Y298025D01*
X239223Y297500D01*
X238173D01*
X237649Y298025D01*
X242896Y300649D02*
X240797D01*
Y299074D01*
X241847Y299599D01*
X242372D01*
X242896Y299074D01*
Y298025D01*
X242372Y297500D01*
X241322D01*
X240797Y298025D01*
X108099Y260124D02*
X107574Y260649D01*
X106525D01*
X106000Y260124D01*
Y258025D01*
X106525Y257500D01*
X107574D01*
X108099Y258025D01*
X109149Y260124D02*
X109673Y260649D01*
X110723D01*
X111248Y260124D01*
Y259599D01*
X110723Y259074D01*
X110198D01*
X110723D01*
X111248Y258549D01*
Y258025D01*
X110723Y257500D01*
X109673D01*
X109149Y258025D01*
X114396Y257500D02*
X112297D01*
X114396Y259599D01*
Y260124D01*
X113872Y260649D01*
X112822D01*
X112297Y260124D01*
X116876Y162599D02*
X116351Y162074D01*
Y161025D01*
X116876Y160500D01*
X118975D01*
X119500Y161025D01*
Y162074D01*
X118975Y162599D01*
X116876Y163649D02*
X116351Y164173D01*
Y165223D01*
X116876Y165748D01*
X117401D01*
X117926Y165223D01*
Y164698D01*
Y165223D01*
X118450Y165748D01*
X118975D01*
X119500Y165223D01*
Y164173D01*
X118975Y163649D01*
X119500Y166797D02*
Y167847D01*
Y167322D01*
X116351D01*
X116876Y166797D01*
X183299Y124724D02*
X182774Y125249D01*
X181725D01*
X181200Y124724D01*
Y122625D01*
X181725Y122100D01*
X182774D01*
X183299Y122625D01*
X184349Y124724D02*
X184873Y125249D01*
X185923D01*
X186448Y124724D01*
Y124199D01*
X185923Y123674D01*
X185398D01*
X185923D01*
X186448Y123150D01*
Y122625D01*
X185923Y122100D01*
X184873D01*
X184349Y122625D01*
X187497Y124724D02*
X188022Y125249D01*
X189072D01*
X189596Y124724D01*
Y122625D01*
X189072Y122100D01*
X188022D01*
X187497Y122625D01*
Y124724D01*
X324099Y217124D02*
X323574Y217649D01*
X322525D01*
X322000Y217124D01*
Y215025D01*
X322525Y214500D01*
X323574D01*
X324099Y215025D01*
X327248Y214500D02*
X325149D01*
X327248Y216599D01*
Y217124D01*
X326723Y217649D01*
X325673D01*
X325149Y217124D01*
X328297Y215025D02*
X328822Y214500D01*
X329872D01*
X330396Y215025D01*
Y217124D01*
X329872Y217649D01*
X328822D01*
X328297Y217124D01*
Y216599D01*
X328822Y216074D01*
X330396D01*
X177599Y30124D02*
X177074Y30649D01*
X176025D01*
X175500Y30124D01*
Y28025D01*
X176025Y27500D01*
X177074D01*
X177599Y28025D01*
X180748Y27500D02*
X178649D01*
X180748Y29599D01*
Y30124D01*
X180223Y30649D01*
X179173D01*
X178649Y30124D01*
X181797D02*
X182322Y30649D01*
X183371D01*
X183896Y30124D01*
Y29599D01*
X183371Y29074D01*
X183896Y28550D01*
Y28025D01*
X183371Y27500D01*
X182322D01*
X181797Y28025D01*
Y28550D01*
X182322Y29074D01*
X181797Y29599D01*
Y30124D01*
X182322Y29074D02*
X183371D01*
X152876Y96599D02*
X152351Y96074D01*
Y95025D01*
X152876Y94500D01*
X154975D01*
X155500Y95025D01*
Y96074D01*
X154975Y96599D01*
X155500Y99748D02*
Y97649D01*
X153401Y99748D01*
X152876D01*
X152351Y99223D01*
Y98173D01*
X152876Y97649D01*
X152351Y100797D02*
Y102896D01*
X152876D01*
X154975Y100797D01*
X155500D01*
X324099Y172624D02*
X323574Y173149D01*
X322525D01*
X322000Y172624D01*
Y170525D01*
X322525Y170000D01*
X323574D01*
X324099Y170525D01*
X327248Y170000D02*
X325149D01*
X327248Y172099D01*
Y172624D01*
X326723Y173149D01*
X325673D01*
X325149Y172624D01*
X330396Y173149D02*
X329347Y172624D01*
X328297Y171574D01*
Y170525D01*
X328822Y170000D01*
X329872D01*
X330396Y170525D01*
Y171049D01*
X329872Y171574D01*
X328297D01*
X298299Y67724D02*
X297774Y68249D01*
X296725D01*
X296200Y67724D01*
Y65625D01*
X296725Y65100D01*
X297774D01*
X298299Y65625D01*
X301448Y65100D02*
X299349D01*
X301448Y67199D01*
Y67724D01*
X300923Y68249D01*
X299873D01*
X299349Y67724D01*
X304596Y68249D02*
X302497D01*
Y66674D01*
X303547Y67199D01*
X304071D01*
X304596Y66674D01*
Y65625D01*
X304071Y65100D01*
X303022D01*
X302497Y65625D01*
X233099Y211624D02*
X232574Y212149D01*
X231525D01*
X231000Y211624D01*
Y209525D01*
X231525Y209000D01*
X232574D01*
X233099Y209525D01*
X236248Y209000D02*
X234149D01*
X236248Y211099D01*
Y211624D01*
X235723Y212149D01*
X234673D01*
X234149Y211624D01*
X238872Y209000D02*
Y212149D01*
X237297Y210574D01*
X239396D01*
X324099Y195124D02*
X323574Y195649D01*
X322525D01*
X322000Y195124D01*
Y193025D01*
X322525Y192500D01*
X323574D01*
X324099Y193025D01*
X327248Y192500D02*
X325149D01*
X327248Y194599D01*
Y195124D01*
X326723Y195649D01*
X325673D01*
X325149Y195124D01*
X328297D02*
X328822Y195649D01*
X329872D01*
X330396Y195124D01*
Y194599D01*
X329872Y194074D01*
X329347D01*
X329872D01*
X330396Y193550D01*
Y193025D01*
X329872Y192500D01*
X328822D01*
X328297Y193025D01*
X270376Y229099D02*
X269851Y228574D01*
Y227525D01*
X270376Y227000D01*
X272475D01*
X273000Y227525D01*
Y228574D01*
X272475Y229099D01*
X273000Y232248D02*
Y230149D01*
X270901Y232248D01*
X270376D01*
X269851Y231723D01*
Y230673D01*
X270376Y230149D01*
X273000Y235396D02*
Y233297D01*
X270901Y235396D01*
X270376D01*
X269851Y234872D01*
Y233822D01*
X270376Y233297D01*
X289699Y146124D02*
X289174Y146649D01*
X288125D01*
X287600Y146124D01*
Y144025D01*
X288125Y143500D01*
X289174D01*
X289699Y144025D01*
X292848Y143500D02*
X290749D01*
X292848Y145599D01*
Y146124D01*
X292323Y146649D01*
X291273D01*
X290749Y146124D01*
X293897Y143500D02*
X294947D01*
X294422D01*
Y146649D01*
X293897Y146124D01*
X280099Y67724D02*
X279574Y68249D01*
X278525D01*
X278000Y67724D01*
Y65625D01*
X278525Y65100D01*
X279574D01*
X280099Y65625D01*
X283248Y65100D02*
X281149D01*
X283248Y67199D01*
Y67724D01*
X282723Y68249D01*
X281673D01*
X281149Y67724D01*
X284297D02*
X284822Y68249D01*
X285872D01*
X286396Y67724D01*
Y65625D01*
X285872Y65100D01*
X284822D01*
X284297Y65625D01*
Y67724D01*
X261876Y199599D02*
X261351Y199074D01*
Y198025D01*
X261876Y197500D01*
X263975D01*
X264500Y198025D01*
Y199074D01*
X263975Y199599D01*
X264500Y200649D02*
Y201698D01*
Y201173D01*
X261351D01*
X261876Y200649D01*
Y203272D02*
X261351Y203797D01*
Y204847D01*
X261876Y205371D01*
X262401D01*
X262926Y204847D01*
X263451Y205371D01*
X263975D01*
X264500Y204847D01*
Y203797D01*
X263975Y203272D01*
X263451D01*
X262926Y203797D01*
X262401Y203272D01*
X261876D01*
X262926Y203797D02*
Y204847D01*
X261876Y179099D02*
X261351Y178574D01*
Y177525D01*
X261876Y177000D01*
X263975D01*
X264500Y177525D01*
Y178574D01*
X263975Y179099D01*
X264500Y180149D02*
Y181198D01*
Y180673D01*
X261351D01*
X261876Y180149D01*
X261351Y182772D02*
Y184871D01*
X261876D01*
X263975Y182772D01*
X264500D01*
X261876Y160099D02*
X261351Y159574D01*
Y158525D01*
X261876Y158000D01*
X263975D01*
X264500Y158525D01*
Y159574D01*
X263975Y160099D01*
X264500Y161149D02*
Y162198D01*
Y161673D01*
X261351D01*
X261876Y161149D01*
X261351Y165872D02*
X261876Y164822D01*
X262926Y163772D01*
X263975D01*
X264500Y164297D01*
Y165347D01*
X263975Y165872D01*
X263451D01*
X262926Y165347D01*
Y163772D01*
X261799Y67724D02*
X261274Y68249D01*
X260225D01*
X259700Y67724D01*
Y65625D01*
X260225Y65100D01*
X261274D01*
X261799Y65625D01*
X262849Y65100D02*
X263898D01*
X263373D01*
Y68249D01*
X262849Y67724D01*
X267571Y68249D02*
X265472D01*
Y66674D01*
X266522Y67199D01*
X267047D01*
X267571Y66674D01*
Y65625D01*
X267047Y65100D01*
X265997D01*
X265472Y65625D01*
X273099Y127624D02*
X272574Y128149D01*
X271525D01*
X271000Y127624D01*
Y125525D01*
X271525Y125000D01*
X272574D01*
X273099Y125525D01*
X274149Y125000D02*
X275198D01*
X274673D01*
Y128149D01*
X274149Y127624D01*
X278347Y125000D02*
Y128149D01*
X276772Y126574D01*
X278871D01*
X132699Y197324D02*
X132174Y197849D01*
X131125D01*
X130600Y197324D01*
Y195225D01*
X131125Y194700D01*
X132174D01*
X132699Y195225D01*
X133749Y194700D02*
X134798D01*
X134273D01*
Y197849D01*
X133749Y197324D01*
X136372D02*
X136897Y197849D01*
X137947D01*
X138471Y197324D01*
Y196799D01*
X137947Y196274D01*
X137422D01*
X137947D01*
X138471Y195749D01*
Y195225D01*
X137947Y194700D01*
X136897D01*
X136372Y195225D01*
X110599Y63124D02*
X110074Y63649D01*
X109025D01*
X108500Y63124D01*
Y61025D01*
X109025Y60500D01*
X110074D01*
X110599Y61025D01*
X111649Y60500D02*
X112698D01*
X112173D01*
Y63649D01*
X111649Y63124D01*
X116372Y60500D02*
X114272D01*
X116372Y62599D01*
Y63124D01*
X115847Y63649D01*
X114797D01*
X114272Y63124D01*
X122699Y197324D02*
X122174Y197849D01*
X121125D01*
X120600Y197324D01*
Y195225D01*
X121125Y194700D01*
X122174D01*
X122699Y195225D01*
X123749Y194700D02*
X124798D01*
X124273D01*
Y197849D01*
X123749Y197324D01*
X126372D02*
X126897Y197849D01*
X127947D01*
X128472Y197324D01*
Y195225D01*
X127947Y194700D01*
X126897D01*
X126372Y195225D01*
Y197324D01*
X93099Y229124D02*
X92574Y229649D01*
X91525D01*
X91000Y229124D01*
Y227025D01*
X91525Y226500D01*
X92574D01*
X93099Y227025D01*
X94149D02*
X94673Y226500D01*
X95723D01*
X96248Y227025D01*
Y229124D01*
X95723Y229649D01*
X94673D01*
X94149Y229124D01*
Y228599D01*
X94673Y228074D01*
X96248D01*
X96376Y133099D02*
X95851Y132574D01*
Y131525D01*
X96376Y131000D01*
X98475D01*
X99000Y131525D01*
Y132574D01*
X98475Y133099D01*
X96376Y134149D02*
X95851Y134673D01*
Y135723D01*
X96376Y136248D01*
X96901D01*
X97426Y135723D01*
X97951Y136248D01*
X98475D01*
X99000Y135723D01*
Y134673D01*
X98475Y134149D01*
X97951D01*
X97426Y134673D01*
X96901Y134149D01*
X96376D01*
X97426Y134673D02*
Y135723D01*
X95099Y63124D02*
X94574Y63649D01*
X93525D01*
X93000Y63124D01*
Y61025D01*
X93525Y60500D01*
X94574D01*
X95099Y61025D01*
X96149Y63649D02*
X98248D01*
Y63124D01*
X96149Y61025D01*
Y60500D01*
X133099Y157624D02*
X132574Y158149D01*
X131525D01*
X131000Y157624D01*
Y155525D01*
X131525Y155000D01*
X132574D01*
X133099Y155525D01*
X136248Y158149D02*
X135198Y157624D01*
X134149Y156574D01*
Y155525D01*
X134673Y155000D01*
X135723D01*
X136248Y155525D01*
Y156050D01*
X135723Y156574D01*
X134149D01*
X37876Y209099D02*
X37351Y208574D01*
Y207525D01*
X37876Y207000D01*
X39975D01*
X40500Y207525D01*
Y208574D01*
X39975Y209099D01*
X37351Y212248D02*
Y210149D01*
X38926D01*
X38401Y211198D01*
Y211723D01*
X38926Y212248D01*
X39975D01*
X40500Y211723D01*
Y210673D01*
X39975Y210149D01*
X57599Y191624D02*
X57074Y192149D01*
X56025D01*
X55500Y191624D01*
Y189525D01*
X56025Y189000D01*
X57074D01*
X57599Y189525D01*
X60223Y189000D02*
Y192149D01*
X58649Y190574D01*
X60748D01*
X63376Y161099D02*
X62851Y160574D01*
Y159525D01*
X63376Y159000D01*
X65475D01*
X66000Y159525D01*
Y160574D01*
X65475Y161099D01*
X63376Y162149D02*
X62851Y162673D01*
Y163723D01*
X63376Y164248D01*
X63901D01*
X64426Y163723D01*
Y163198D01*
Y163723D01*
X64951Y164248D01*
X65475D01*
X66000Y163723D01*
Y162673D01*
X65475Y162149D01*
X77599Y62624D02*
X77074Y63149D01*
X76025D01*
X75500Y62624D01*
Y60525D01*
X76025Y60000D01*
X77074D01*
X77599Y60525D01*
X80748Y60000D02*
X78649D01*
X80748Y62099D01*
Y62624D01*
X80223Y63149D01*
X79173D01*
X78649Y62624D01*
X85099Y123624D02*
X84574Y124149D01*
X83525D01*
X83000Y123624D01*
Y121525D01*
X83525Y121000D01*
X84574D01*
X85099Y121525D01*
X86149Y121000D02*
X87198D01*
X86673D01*
Y124149D01*
X86149Y123624D01*
D18*
X17166Y279999D02*
X14500D01*
Y276000D01*
X17166D01*
X14500Y277999D02*
X15833D01*
X21165Y279332D02*
X20498Y279999D01*
X19165D01*
X18499Y279332D01*
Y278666D01*
X19165Y277999D01*
X20498D01*
X21165Y277333D01*
Y276666D01*
X20498Y276000D01*
X19165D01*
X18499Y276666D01*
X22497Y276000D02*
Y279999D01*
X24497D01*
X25163Y279332D01*
Y277999D01*
X24497Y277333D01*
X22497D01*
X26496Y279332D02*
X27163Y279999D01*
X28495D01*
X29162Y279332D01*
Y278666D01*
X28495Y277999D01*
X27829D01*
X28495D01*
X29162Y277333D01*
Y276666D01*
X28495Y276000D01*
X27163D01*
X26496Y276666D01*
X33161Y276000D02*
X30495D01*
X33161Y278666D01*
Y279332D01*
X32494Y279999D01*
X31161D01*
X30495Y279332D01*
X38492Y279999D02*
Y276000D01*
X40492D01*
X41158Y276666D01*
Y279332D01*
X40492Y279999D01*
X38492D01*
X44490D02*
X43157D01*
X42491Y279332D01*
Y276666D01*
X43157Y276000D01*
X44490D01*
X45157Y276666D01*
Y279332D01*
X44490Y279999D01*
X46490D02*
X47823D01*
X47156D01*
Y276000D01*
X46490D01*
X47823D01*
X49822Y279999D02*
X52488D01*
X51155D01*
Y276000D01*
X57819Y279999D02*
Y276000D01*
X59819D01*
X60485Y276666D01*
Y279332D01*
X59819Y279999D01*
X57819D01*
X64484D02*
X61818D01*
Y276000D01*
X64484D01*
X61818Y277999D02*
X63151D01*
X65817Y279999D02*
Y277333D01*
X67150Y276000D01*
X68483Y277333D01*
Y279999D01*
X69815D02*
Y276000D01*
Y277333D01*
X72481Y279999D01*
X70482Y277999D01*
X72481Y276000D01*
X73814Y279999D02*
X75147D01*
X74481D01*
Y276000D01*
X73814D01*
X75147D01*
X77147Y279999D02*
X79812D01*
X78479D01*
Y276000D01*
X85144Y279999D02*
Y277333D01*
X86477Y276000D01*
X87810Y277333D01*
Y279999D01*
X89143Y276000D02*
X90475D01*
X89809D01*
Y279999D01*
X89143Y279332D01*
X136500Y276000D02*
Y278666D01*
X137833Y279999D01*
X139166Y278666D01*
Y276000D01*
Y277999D01*
X136500D01*
X140499Y279999D02*
Y276000D01*
X142498D01*
X143165Y276666D01*
Y279332D01*
X142498Y279999D01*
X140499D01*
X147163Y279332D02*
X146497Y279999D01*
X145164D01*
X144497Y279332D01*
Y278666D01*
X145164Y277999D01*
X146497D01*
X147163Y277333D01*
Y276666D01*
X146497Y276000D01*
X145164D01*
X144497Y276666D01*
X148496Y276000D02*
X149829D01*
X149163D01*
Y279999D01*
X148496Y279332D01*
X151828Y276000D02*
X153161D01*
X152495D01*
Y279999D01*
X151828Y279332D01*
X155161Y276000D02*
X156494D01*
X155827D01*
Y279999D01*
X155161Y279332D01*
X161159Y279999D02*
X158493D01*
Y277999D01*
X159826Y278666D01*
X160492D01*
X161159Y277999D01*
Y276666D01*
X160492Y276000D01*
X159159D01*
X158493Y276666D01*
X166490Y276000D02*
Y278666D01*
X167157D01*
X167823Y277999D01*
Y276000D01*
Y277999D01*
X168490Y278666D01*
X169156Y277999D01*
Y276000D01*
X171156D02*
X172488D01*
X173155Y276666D01*
Y277999D01*
X172488Y278666D01*
X171156D01*
X170489Y277999D01*
Y276666D01*
X171156Y276000D01*
X177154Y279999D02*
Y276000D01*
X175154D01*
X174488Y276666D01*
Y277999D01*
X175154Y278666D01*
X177154D01*
X178487D02*
Y276666D01*
X179153Y276000D01*
X181152D01*
Y278666D01*
X182485Y276000D02*
X183818D01*
X183152D01*
Y279999D01*
X182485D01*
X187817Y276000D02*
X186484D01*
X185817Y276666D01*
Y277999D01*
X186484Y278666D01*
X187817D01*
X188483Y277999D01*
Y277333D01*
X185817D01*
X224001Y262000D02*
X226667D01*
X228000Y263333D01*
X226667Y264666D01*
X224001D01*
Y265999D02*
X228000D01*
Y267998D01*
X227334Y268665D01*
X224668D01*
X224001Y267998D01*
Y265999D01*
Y269997D02*
X228000D01*
Y271997D01*
X227334Y272663D01*
X224668D01*
X224001Y271997D01*
Y269997D01*
D19*
X146578Y42000D02*
D03*
X36078Y62500D02*
D03*
X45922Y42500D02*
D03*
X155922Y63000D02*
D03*
X233422Y45000D02*
D03*
X223617Y65000D02*
D03*
X339579Y63500D02*
D03*
X349422Y45000D02*
D03*
M02*
